<svg version="1.1" viewBox="0.0 0.0 740.6246719160105 554.6141732283464" fill="none" stroke="none" stroke-linecap="square" stroke-miterlimit="10" xmlns:xlink="http://www.w3.org/1999/xlink" xmlns="http://www.w3.org/2000/svg"><clipPath id="p.0"><path d="m0 0l740.6247 0l0 554.6142l-740.6247 0l0 -554.6142z" clip-rule="nonzero"/></clipPath><g clip-path="url(#p.0)"><path fill="#000000" fill-opacity="0.0" d="m0 0l740.6247 0l0 554.6142l-740.6247 0z" fill-rule="evenodd"/><path fill="#cfe2f3" d="m274.7979 40.567196l0 0c0 -7.3929367 5.9931335 -13.386093 13.386078 -13.386093l167.08609 0c3.5502014 0 6.955017 1.4103165 9.465393 3.9206963c2.510376 2.5103798 3.9206848 5.915184 3.9206848 9.465397l0 53.542774c0 7.3929367 -5.993164 13.386093 -13.386078 13.386093l-167.08609 0c-7.3929443 0 -13.386078 -5.9931564 -13.386078 -13.386093z" fill-rule="evenodd"/><path fill="#000000" d="m352.4705 44.847332q3.734375 0 6.0 1.734375q2.28125 1.734375 2.28125 6.4375q0 4.59375 -2.28125 6.484375q-2.265625 1.875 -5.5 1.875l-3.953125 0l0 -16.53125l3.453125 0zm-1.171875 1.8125l0 12.921875l1.84375 0q2.296875 0 3.734375 -1.40625q1.453125 -1.421875 1.453125 -5.15625q0 -2.609375 -0.75 -4.015625q-0.75 -1.40625 -1.90625 -1.875q-1.140625 -0.46875 -2.703125 -0.46875l-1.671875 0zm21.565308 11.765625q0 0.765625 0.265625 1.140625q0.265625 0.375 0.796875 0.5625l-0.5 1.53125q-0.984375 -0.109375 -1.59375 -0.546875q-0.59375 -0.4375 -0.890625 -1.34375q-1.265625 1.890625 -3.765625 1.890625q-1.875 0 -2.953125 -1.046875q-1.078125 -1.0625 -1.078125 -2.765625q0 -2.015625 1.453125 -3.09375q1.453125 -1.078125 4.109375 -1.078125l1.953125 0l0 -0.9375q0 -1.34375 -0.65625 -1.921875q-0.640625 -0.578125 -1.984375 -0.578125q-1.390625 0 -3.40625 0.671875l-0.5625 -1.609375q2.359375 -0.859375 4.375 -0.859375q2.234375 0 3.328125 1.09375q1.109375 1.09375 1.109375 3.109375l0 5.78125zm-5.1875 1.578125q1.90625 0 2.984375 -1.96875l0 -2.890625l-1.65625 0q-3.5 0 -3.5 2.59375q0 1.125 0.546875 1.703125q0.546875 0.5625 1.625 0.5625zm16.102844 0.796875q-1.234375 0.859375 -2.828125 0.859375q-1.609375 0 -2.515625 -0.921875q-0.890625 -0.921875 -0.890625 -2.671875l0 -7.625l-2.203125 0l0 -1.703125l2.203125 0l0 -2.859375l2.203125 -0.265625l0 3.125l3.0 0l-0.234375 1.703125l-2.765625 0l0 7.53125q0 0.984375 0.34375 1.4375q0.359375 0.4375 1.171875 0.4375q0.75 0 1.6875 -0.515625l0.828125 1.46875zm10.804596 -2.375q0 0.765625 0.265625 1.140625q0.265625 0.375 0.796875 0.5625l-0.5 1.53125q-0.984375 -0.109375 -1.59375 -0.546875q-0.59375 -0.4375 -0.890625 -1.34375q-1.265625 1.890625 -3.765625 1.890625q-1.875 0 -2.953125 -1.046875q-1.078125 -1.0625 -1.078125 -2.765625q0 -2.015625 1.453125 -3.09375q1.453125 -1.078125 4.109375 -1.078125l1.953125 0l0 -0.9375q0 -1.34375 -0.65625 -1.921875q-0.640625 -0.578125 -1.984375 -0.578125q-1.390625 0 -3.40625 0.671875l-0.5625 -1.609375q2.359375 -0.859375 4.375 -0.859375q2.234375 0 3.328125 1.09375q1.109375 1.09375 1.109375 3.109375l0 5.78125zm-5.1875 1.578125q1.90625 0 2.984375 -1.96875l0 -2.890625l-1.65625 0q-3.5 0 -3.5 2.59375q0 1.125 0.546875 1.703125q0.546875 0.5625 1.625 0.5625z" fill-rule="nonzero"/><path fill="#000000" d="m328.9896 77.73795l-2.890625 12.640625l-3.0 0l-2.203125 -10.65625l-2.28125 10.65625l-2.921875 0l-2.953125 -12.640625l2.203125 0l2.28125 11.109375l2.5 -11.109375l2.46875 0l2.375 11.109375l2.296875 -11.109375l2.125 0zm11.270447 9.6875q0 0.765625 0.265625 1.140625q0.265625 0.375 0.796875 0.5625l-0.5 1.53125q-0.984375 -0.109375 -1.59375 -0.546875q-0.59375 -0.4375 -0.890625 -1.34375q-1.265625 1.890625 -3.765625 1.890625q-1.875 0 -2.953125 -1.046875q-1.078125 -1.0625 -1.078125 -2.765625q0 -2.015625 1.453125 -3.09375q1.453125 -1.078125 4.109375 -1.078125l1.953125 0l0 -0.9375q0 -1.34375 -0.65625 -1.921875q-0.640625 -0.578125 -1.984375 -0.578125q-1.390625 0 -3.40625 0.671875l-0.5625 -1.609375q2.359375 -0.859375 4.375 -0.859375q2.234375 0 3.328125 1.09375q1.109375 1.09375 1.109375 3.109375l0 5.78125zm-5.1875 1.578125q1.90625 0 2.984375 -1.96875l0 -2.890625l-1.65625 0q-3.5 0 -3.5 2.59375q0 1.125 0.546875 1.703125q0.546875 0.5625 1.625 0.5625zm15.227844 -11.5625q0.671875 0 1.25 0.140625l-0.421875 2.171875q-0.5625 -0.15625 -1.09375 -0.15625q-1.171875 0 -1.90625 0.875q-0.71875 0.859375 -1.125 2.6875l0 7.21875l-2.203125 0l0 -12.640625l1.890625 0l0.21875 2.5625q0.5 -1.421875 1.359375 -2.140625q0.875 -0.71875 2.03125 -0.71875zm13.310852 6.234375q0 0.5625 -0.046875 1.140625l-8.0625 0q0.140625 2.078125 1.046875 3.0625q0.921875 0.984375 2.359375 0.984375q0.921875 0 1.6875 -0.265625q0.765625 -0.265625 1.609375 -0.828125l0.953125 1.3125q-2.015625 1.578125 -4.421875 1.578125q-2.640625 0 -4.109375 -1.71875q-1.46875 -1.734375 -1.46875 -4.75q0 -1.96875 0.625 -3.484375q0.640625 -1.53125 1.828125 -2.390625q1.1875 -0.875 2.796875 -0.875q2.515625 0 3.859375 1.65625q1.34375 1.65625 1.34375 4.578125zm-2.1875 -0.640625q0 -1.875 -0.75 -2.859375q-0.734375 -0.984375 -2.21875 -0.984375q-2.71875 0 -2.953125 3.984375l5.921875 0l0 -0.140625zm11.673706 -5.59375q1.71875 0 2.6875 1.03125q0.984375 1.03125 0.984375 2.828125l0 9.078125l-2.203125 0l0 -8.765625q0 -1.34375 -0.53125 -1.890625q-0.515625 -0.546875 -1.484375 -0.546875q-0.984375 0 -1.765625 0.578125q-0.765625 0.5625 -1.4375 1.625l0 9.0l-2.203125 0l0 -17.71875l2.203125 -0.234375l0 7.0625q1.484375 -2.046875 3.75 -2.046875zm12.86084 0q2.671875 0 4.140625 1.78125q1.46875 1.765625 1.46875 4.8125q0 1.96875 -0.671875 3.46875q-0.671875 1.5 -1.9375 2.328125q-1.265625 0.828125 -3.015625 0.828125q-2.671875 0 -4.15625 -1.765625q-1.484375 -1.78125 -1.484375 -4.828125q0 -1.96875 0.671875 -3.46875q0.671875 -1.5 1.9375 -2.328125q1.265625 -0.828125 3.046875 -0.828125zm0 1.78125q-3.28125 0 -3.28125 4.84375q0 4.828125 3.265625 4.828125q3.25 0 3.25 -4.859375q0 -4.8125 -3.234375 -4.8125zm18.67221 11.15625l-1.890625 0l-0.171875 -1.96875q-0.71875 1.171875 -1.65625 1.71875q-0.9375 0.53125 -2.28125 0.53125q-1.65625 0 -2.59375 -1.0q-0.9375 -1.015625 -0.9375 -2.859375l0 -9.0625l2.21875 0l0 8.828125q0 1.296875 0.453125 1.84375q0.453125 0.53125 1.484375 0.53125q1.84375 0 3.171875 -2.1875l0 -9.015625l2.203125 0l0 12.640625zm7.9992065 -12.9375q1.296875 0 2.328125 0.359375q1.03125 0.359375 1.96875 1.078125l-0.9375 1.390625q-0.875 -0.546875 -1.65625 -0.8125q-0.78125 -0.265625 -1.640625 -0.265625q-1.078125 0 -1.703125 0.453125q-0.625 0.4375 -0.625 1.203125q0 0.765625 0.578125 1.203125q0.59375 0.4375 2.140625 0.84375q2.109375 0.53125 3.15625 1.4375q1.046875 0.90625 1.046875 2.5q0 1.859375 -1.453125 2.84375q-1.453125 0.984375 -3.546875 0.984375q-2.875 0 -4.78125 -1.65625l1.1875 -1.34375q1.609375 1.234375 3.546875 1.234375q1.25 0 1.984375 -0.515625q0.734375 -0.515625 0.734375 -1.40625q0 -0.65625 -0.265625 -1.046875q-0.265625 -0.390625 -0.921875 -0.6875q-0.640625 -0.3125 -1.890625 -0.640625q-2.015625 -0.53125 -2.921875 -1.421875q-0.890625 -0.890625 -0.890625 -2.25q0 -0.984375 0.578125 -1.78125q0.59375 -0.8125 1.640625 -1.25q1.046875 -0.453125 2.34375 -0.453125zm17.317352 6.234375q0 0.5625 -0.046875 1.140625l-8.0625 0q0.140625 2.078125 1.046875 3.0625q0.921875 0.984375 2.359375 0.984375q0.921875 0 1.6875 -0.265625q0.765625 -0.265625 1.609375 -0.828125l0.953125 1.3125q-2.015625 1.578125 -4.421875 1.578125q-2.640625 0 -4.109375 -1.71875q-1.46875 -1.734375 -1.46875 -4.75q0 -1.96875 0.625 -3.484375q0.640625 -1.53125 1.828125 -2.390625q1.1875 -0.875 2.796875 -0.875q2.515625 0 3.859375 1.65625q1.34375 1.65625 1.34375 4.578125zm-2.1875 -0.640625q0 -1.875 -0.75 -2.859375q-0.734375 -0.984375 -2.21875 -0.984375q-2.71875 0 -2.953125 3.984375l5.921875 0l0 -0.140625z" fill-rule="nonzero"/><path fill="#cfe2f3" d="m274.7979 181.18005l0 0c0 -7.392929 5.9931335 -13.386093 13.386078 -13.386093l167.08609 0c3.5502014 0 6.955017 1.4103241 9.465393 3.9207c2.510376 2.510376 3.9206848 5.9151917 3.9206848 9.465393l0 53.54277c0 7.3929443 -5.993164 13.386093 -13.386078 13.386093l-167.08609 0c-7.3929443 0 -13.386078 -5.993149 -13.386078 -13.386093z" fill-rule="evenodd"/><path fill="#000000" d="m304.7144 193.25706q1.703125 0.28125 2.75 1.203125q1.0625 0.90625 1.0625 2.828125q0 4.703125 -6.5625 4.703125l-4.546875 0l0 -16.53125l3.90625 0q3.140625 0 4.8125 1.03125q1.671875 1.03125 1.671875 3.140625q0 1.4375 -0.90625 2.40625q-0.90625 0.953125 -2.1875 1.21875zm-5.015625 -6.0l0 5.203125l2.484375 0q1.4375 0 2.359375 -0.6875q0.9375 -0.703125 0.9375 -1.96875q0 -1.4375 -0.984375 -1.984375q-0.96875 -0.5625 -2.9375 -0.5625l-1.859375 0zm2.265625 12.90625q2.015625 0 3.078125 -0.59375q1.078125 -0.609375 1.078125 -2.28125q0 -1.640625 -1.03125 -2.359375q-1.03125 -0.71875 -2.6875 -0.71875l-2.703125 0l0 5.953125l2.265625 0zm19.326355 1.828125l-1.890625 0l-0.171875 -1.96875q-0.71875 1.171875 -1.65625 1.71875q-0.9375 0.53125 -2.28125 0.53125q-1.65625 0 -2.59375 -1.0q-0.9375 -1.015625 -0.9375 -2.859375l0 -9.0625l2.21875 0l0 8.828125q0 1.296875 0.453125 1.84375q0.453125 0.53125 1.484375 0.53125q1.84375 0 3.171875 -2.1875l0 -9.015625l2.203125 0l0 12.640625zm6.7648315 -12.640625l0 12.640625l-2.203125 0l0 -12.640625l2.203125 0zm-1.125 -6.078125q0.703125 0 1.125 0.4375q0.4375 0.421875 0.4375 1.078125q0 0.640625 -0.4375 1.0625q-0.421875 0.421875 -1.125 0.421875q-0.671875 0 -1.109375 -0.421875q-0.421875 -0.421875 -0.421875 -1.0625q0 -0.65625 0.421875 -1.078125q0.4375 -0.4375 1.109375 -0.4375zm8.205475 19.0q-1.21875 0 -1.9375 -0.71875q-0.703125 -0.734375 -0.703125 -2.0625l0 -15.234375l2.21875 -0.265625l0 15.453125q0 0.53125 0.171875 0.78125q0.1875 0.234375 0.609375 0.234375q0.453125 0 0.8125 -0.15625l0.578125 1.546875q-0.78125 0.421875 -1.75 0.421875zm14.313232 -18.015625l0 17.734375l-1.953125 0l-0.21875 -1.75q-0.625 0.953125 -1.5625 1.5q-0.921875 0.53125 -2.078125 0.53125q-2.25 0 -3.515625 -1.765625q-1.265625 -1.78125 -1.265625 -4.78125q0 -1.9375 0.59375 -3.453125q0.609375 -1.515625 1.734375 -2.359375q1.125 -0.859375 2.640625 -0.859375q1.953125 0 3.40625 1.5625l0 -6.625l2.21875 0.265625zm-5.328125 16.265625q1.0 0 1.71875 -0.46875q0.71875 -0.46875 1.390625 -1.40625l0 -6.1875q-0.625 -0.8125 -1.328125 -1.234375q-0.703125 -0.421875 -1.59375 -0.421875q-1.46875 0 -2.28125 1.234375q-0.796875 1.21875 -0.796875 3.640625q0 2.453125 0.75 3.65625q0.75 1.1875 2.140625 1.1875zm20.54007 -14.75q-1.015625 0 -1.453125 0.4375q-0.421875 0.4375 -0.421875 1.375l0 1.765625l3.078125 0l-0.25 1.703125l-2.828125 0l0 10.9375l-2.203125 0l0 -10.9375l-2.265625 0l0 -1.703125l2.265625 0l0 -1.734375q0 -1.640625 1.03125 -2.625q1.046875 -1.0 2.921875 -1.0q0.859375 0 1.546875 0.15625q0.6875 0.15625 1.484375 0.484375l-0.703125 1.609375q-1.078125 -0.46875 -2.203125 -0.46875zm13.289978 9.515625q0 0.5625 -0.046875 1.140625l-8.0625 0q0.140625 2.078125 1.046875 3.0625q0.921875 0.984375 2.359375 0.984375q0.921875 0 1.6875 -0.265625q0.765625 -0.265625 1.609375 -0.828125l0.953125 1.3125q-2.015625 1.578125 -4.421875 1.578125q-2.640625 0 -4.109375 -1.71875q-1.46875 -1.734375 -1.46875 -4.75q0 -1.96875 0.625 -3.484375q0.640625 -1.53125 1.828125 -2.390625q1.1875 -0.875 2.796875 -0.875q2.515625 0 3.859375 1.65625q1.34375 1.65625 1.34375 4.578125zm-2.1875 -0.640625q0 -1.875 -0.75 -2.859375q-0.734375 -0.984375 -2.21875 -0.984375q-2.71875 0 -2.953125 3.984375l5.921875 0l0 -0.140625zm14.236206 4.390625q0 0.765625 0.265625 1.140625q0.265625 0.375 0.796875 0.5625l-0.5 1.53125q-0.984375 -0.109375 -1.59375 -0.546875q-0.59375 -0.4375 -0.890625 -1.34375q-1.265625 1.890625 -3.765625 1.890625q-1.875 0 -2.953125 -1.046875q-1.078125 -1.0625 -1.078125 -2.765625q0 -2.015625 1.453125 -3.09375q1.453125 -1.078125 4.109375 -1.078125l1.953125 0l0 -0.9375q0 -1.34375 -0.65625 -1.921875q-0.640625 -0.578125 -1.984375 -0.578125q-1.390625 0 -3.40625 0.671875l-0.5625 -1.609375q2.359375 -0.859375 4.375 -0.859375q2.234375 0 3.328125 1.09375q1.109375 1.09375 1.109375 3.109375l0 5.78125zm-5.1875 1.578125q1.90625 0 2.984375 -1.96875l0 -2.890625l-1.65625 0q-3.5 0 -3.5 2.59375q0 1.125 0.546875 1.703125q0.546875 0.5625 1.625 0.5625zm16.102844 0.796875q-1.234375 0.859375 -2.828125 0.859375q-1.609375 0 -2.515625 -0.921875q-0.890625 -0.921875 -0.890625 -2.671875l0 -7.625l-2.203125 0l0 -1.703125l2.203125 0l0 -2.859375l2.203125 -0.265625l0 3.125l3.0 0l-0.234375 1.703125l-2.765625 0l0 7.53125q0 0.984375 0.34375 1.4375q0.359375 0.4375 1.171875 0.4375q0.75 0 1.6875 -0.515625l0.828125 1.46875zm11.695221 0.578125l-1.890625 0l-0.171875 -1.96875q-0.71875 1.171875 -1.65625 1.71875q-0.9375 0.53125 -2.28125 0.53125q-1.65625 0 -2.59375 -1.0q-0.9375 -1.015625 -0.9375 -2.859375l0 -9.0625l2.21875 0l0 8.828125q0 1.296875 0.453125 1.84375q0.453125 0.53125 1.484375 0.53125q1.84375 0 3.171875 -2.1875l0 -9.015625l2.203125 0l0 12.640625zm10.061707 -12.9375q0.671875 0 1.25 0.140625l-0.421875 2.171875q-0.5625 -0.15625 -1.09375 -0.15625q-1.171875 0 -1.90625 0.875q-0.71875 0.859375 -1.125 2.6875l0 7.21875l-2.203125 0l0 -12.640625l1.890625 0l0.21875 2.5625q0.5 -1.421875 1.359375 -2.140625q0.875 -0.71875 2.03125 -0.71875zm13.310852 6.234375q0 0.5625 -0.046875 1.140625l-8.0625 0q0.140625 2.078125 1.046875 3.0625q0.921875 0.984375 2.359375 0.984375q0.921875 0 1.6875 -0.265625q0.765625 -0.265625 1.609375 -0.828125l0.953125 1.3125q-2.015625 1.578125 -4.421875 1.578125q-2.640625 0 -4.109375 -1.71875q-1.46875 -1.734375 -1.46875 -4.75q0 -1.96875 0.625 -3.484375q0.640625 -1.53125 1.828125 -2.390625q1.1875 -0.875 2.796875 -0.875q2.515625 0 3.859375 1.65625q1.34375 1.65625 1.34375 4.578125zm-2.1875 -0.640625q0 -1.875 -0.75 -2.859375q-0.734375 -0.984375 -2.21875 -0.984375q-2.71875 0 -2.953125 3.984375l5.921875 0l0 -0.140625zm9.158081 -5.59375q1.296875 0 2.328125 0.359375q1.03125 0.359375 1.96875 1.078125l-0.9375 1.390625q-0.875 -0.546875 -1.65625 -0.8125q-0.78125 -0.265625 -1.640625 -0.265625q-1.078125 0 -1.703125 0.453125q-0.625 0.4375 -0.625 1.203125q0 0.765625 0.578125 1.203125q0.59375 0.4375 2.140625 0.84375q2.109375 0.53125 3.15625 1.4375q1.046875 0.90625 1.046875 2.5q0 1.859375 -1.453125 2.84375q-1.453125 0.984375 -3.546875 0.984375q-2.875 0 -4.78125 -1.65625l1.1875 -1.34375q1.609375 1.234375 3.546875 1.234375q1.25 0 1.984375 -0.515625q0.734375 -0.515625 0.734375 -1.40625q0 -0.65625 -0.265625 -1.046875q-0.265625 -0.390625 -0.921875 -0.6875q-0.640625 -0.3125 -1.890625 -0.640625q-2.015625 -0.53125 -2.921875 -1.421875q-0.890625 -0.890625 -0.890625 -2.25q0 -0.984375 0.578125 -1.78125q0.59375 -0.8125 1.640625 -1.25q1.046875 -0.453125 2.34375 -0.453125z" fill-rule="nonzero"/><path fill="#000000" d="m325.77606 228.03831q0 0.765625 0.265625 1.140625q0.265625 0.375 0.796875 0.5625l-0.5 1.53125q-0.984375 -0.109375 -1.59375 -0.546875q-0.59375 -0.4375 -0.890625 -1.34375q-1.265625 1.890625 -3.765625 1.890625q-1.875 0 -2.953125 -1.046875q-1.078125 -1.0625 -1.078125 -2.765625q0 -2.015625 1.453125 -3.09375q1.453125 -1.078125 4.109375 -1.078125l1.953125 0l0 -0.9375q0 -1.34375 -0.65625 -1.921875q-0.640625 -0.578125 -1.984375 -0.578125q-1.390625 0 -3.40625 0.671875l-0.5625 -1.609375q2.359375 -0.859375 4.375 -0.859375q2.234375 0 3.328125 1.09375q1.109375 1.09375 1.109375 3.109375l0 5.78125zm-5.1875 1.578125q1.90625 0 2.984375 -1.96875l0 -2.890625l-1.65625 0q-3.5 0 -3.5 2.59375q0 1.125 0.546875 1.703125q0.546875 0.5625 1.625 0.5625zm15.680969 -11.5625q1.71875 0 2.6875 1.03125q0.984375 1.03125 0.984375 2.828125l0 9.078125l-2.203125 0l0 -8.765625q0 -1.34375 -0.515625 -1.890625q-0.5 -0.546875 -1.484375 -0.546875q-1.0 0 -1.78125 0.578125q-0.765625 0.5625 -1.4375 1.65625l0 8.96875l-2.203125 0l0 -12.640625l1.890625 0l0.203125 1.859375q0.671875 -1.0 1.65625 -1.578125q1.0 -0.578125 2.203125 -0.578125zm17.907715 -4.796875l0 17.734375l-1.953125 0l-0.21875 -1.75q-0.625 0.953125 -1.5625 1.5q-0.921875 0.53125 -2.078125 0.53125q-2.25 0 -3.515625 -1.765625q-1.265625 -1.78125 -1.265625 -4.78125q0 -1.9375 0.59375 -3.453125q0.609375 -1.515625 1.734375 -2.359375q1.125 -0.859375 2.640625 -0.859375q1.953125 0 3.40625 1.5625l0 -6.625l2.21875 0.265625zm-5.328125 16.265625q1.0 0 1.71875 -0.46875q0.71875 -0.46875 1.390625 -1.40625l0 -6.1875q-0.625 -0.8125 -1.328125 -1.234375q-0.703125 -0.421875 -1.59375 -0.421875q-1.46875 0 -2.28125 1.234375q-0.796875 1.21875 -0.796875 3.640625q0 2.453125 0.75 3.65625q0.75 1.1875 2.140625 1.1875zm18.75882 1.75q-1.21875 0 -1.9375 -0.71875q-0.703125 -0.734375 -0.703125 -2.0625l0 -15.234375l2.21875 -0.265625l0 15.453125q0 0.53125 0.171875 0.78125q0.1875 0.234375 0.609375 0.234375q0.453125 0 0.8125 -0.15625l0.578125 1.546875q-0.78125 0.421875 -1.75 0.421875zm13.031982 -3.234375q0 0.765625 0.265625 1.140625q0.265625 0.375 0.796875 0.5625l-0.5 1.53125q-0.984375 -0.109375 -1.59375 -0.546875q-0.59375 -0.4375 -0.890625 -1.34375q-1.265625 1.890625 -3.765625 1.890625q-1.875 0 -2.953125 -1.046875q-1.078125 -1.0625 -1.078125 -2.765625q0 -2.015625 1.453125 -3.09375q1.453125 -1.078125 4.109375 -1.078125l1.953125 0l0 -0.9375q0 -1.34375 -0.65625 -1.921875q-0.640625 -0.578125 -1.984375 -0.578125q-1.390625 0 -3.40625 0.671875l-0.5625 -1.609375q2.359375 -0.859375 4.375 -0.859375q2.234375 0 3.328125 1.09375q1.109375 1.09375 1.109375 3.109375l0 5.78125zm-5.1875 1.578125q1.90625 0 2.984375 -1.96875l0 -2.890625l-1.65625 0q-3.5 0 -3.5 2.59375q0 1.125 0.546875 1.703125q0.546875 0.5625 1.625 0.5625zm15.509094 -11.5625q2.15625 0 3.421875 1.75q1.28125 1.734375 1.28125 4.84375q0 1.96875 -0.609375 3.46875q-0.59375 1.5 -1.71875 2.328125q-1.125 0.828125 -2.640625 0.828125q-1.984375 0 -3.359375 -1.671875l-0.21875 1.390625l-1.9375 0l0 -17.734375l2.203125 -0.265625l0 6.9375q1.375 -1.875 3.578125 -1.875zm-0.796875 11.46875q1.46875 0 2.296875 -1.1875q0.828125 -1.1875 0.828125 -3.6875q0 -2.5625 -0.765625 -3.703125q-0.765625 -1.140625 -2.1875 -1.140625q-1.671875 0 -2.953125 1.96875l0 6.046875q0.5 0.796875 1.234375 1.25q0.734375 0.453125 1.546875 0.453125zm18.818481 -5.234375q0 0.5625 -0.046875 1.140625l-8.0625305 0q0.140625 2.078125 1.046875 3.0625q0.921875 0.984375 2.359375 0.984375q0.921875 0 1.6875 -0.265625q0.7656555 -0.265625 1.6094055 -0.828125l0.953125 1.3125q-2.0156555 1.578125 -4.4219055 1.578125q-2.640625 0 -4.109375 -1.71875q-1.46875 -1.734375 -1.46875 -4.75q0 -1.96875 0.625 -3.484375q0.640625 -1.53125 1.828125 -2.390625q1.1875 -0.875 2.796875 -0.875q2.515625 0 3.8594055 1.65625q1.34375 1.65625 1.34375 4.578125zm-2.1875 -0.640625q0 -1.875 -0.7500305 -2.859375q-0.734375 -0.984375 -2.21875 -0.984375q-2.71875 0 -2.953125 3.984375l5.9219055 0l0 -0.140625zm8.236206 7.625q-1.21875 0 -1.9375 -0.71875q-0.703125 -0.734375 -0.703125 -2.0625l0 -15.234375l2.21875 -0.265625l0 15.453125q0 0.53125 0.171875 0.78125q0.1875 0.234375 0.609375 0.234375q0.453125 0 0.8125 -0.15625l0.578125 1.546875q-0.78125 0.421875 -1.75 0.421875zm7.9538574 -13.21875q1.296875 0 2.328125 0.359375q1.03125 0.359375 1.96875 1.078125l-0.9375 1.390625q-0.875 -0.546875 -1.65625 -0.8125q-0.78125 -0.265625 -1.640625 -0.265625q-1.078125 0 -1.703125 0.453125q-0.625 0.4375 -0.625 1.203125q0 0.765625 0.578125 1.203125q0.59375 0.4375 2.140625 0.84375q2.109375 0.53125 3.15625 1.4375q1.046875 0.90625 1.046875 2.5q0 1.859375 -1.453125 2.84375q-1.453125 0.984375 -3.546875 0.984375q-2.875 0 -4.78125 -1.65625l1.1875 -1.34375q1.609375 1.234375 3.546875 1.234375q1.25 0 1.984375 -0.515625q0.734375 -0.515625 0.734375 -1.40625q0 -0.65625 -0.265625 -1.046875q-0.265625 -0.390625 -0.921875 -0.6875q-0.640625 -0.3125 -1.890625 -0.640625q-2.015625 -0.53125 -2.921875 -1.421875q-0.890625 -0.890625 -0.890625 -2.25q0 -0.984375 0.578125 -1.78125q0.59375 -0.8125 1.640625 -1.25q1.046875 -0.453125 2.34375 -0.453125z" fill-rule="nonzero"/><path fill="#cfe2f3" d="m274.7979 321.79553l0 0c0 -7.392914 5.9931335 -13.386078 13.386078 -13.386078l167.08609 0c3.5502014 0 6.955017 1.4103088 9.465393 3.9206848c2.510376 2.510376 3.9206848 5.9151917 3.9206848 9.465393l0 53.542786c0 7.3929443 -5.993164 13.386078 -13.386078 13.386078l-167.08609 0c-7.3929443 0 -13.386078 -5.9931335 -13.386078 -13.386078z" fill-rule="evenodd"/><path fill="#000000" d="m308.70712 340.57568l-0.25 1.9375l-4.578125 0l0 14.59375l-2.28125 0l0 -14.59375l-4.703125 0l0 -1.9375l11.8125 0zm8.017334 3.59375q0.671875 0 1.25 0.140625l-0.421875 2.171875q-0.5625 -0.15625 -1.09375 -0.15625q-1.171875 0 -1.90625 0.875q-0.71875 0.859375 -1.125 2.6875l0 7.21875l-2.203125 0l0 -12.640625l1.890625 0l0.21875 2.5625q0.5 -1.421875 1.359375 -2.140625q0.875 -0.71875 2.03125 -0.71875zm12.279602 9.984375q0 0.765625 0.265625 1.140625q0.265625 0.375 0.796875 0.5625l-0.5 1.53125q-0.984375 -0.109375 -1.59375 -0.546875q-0.59375 -0.4375 -0.890625 -1.34375q-1.265625 1.890625 -3.765625 1.890625q-1.875 0 -2.953125 -1.046875q-1.078125 -1.0625 -1.078125 -2.765625q0 -2.015625 1.453125 -3.09375q1.453125 -1.078125 4.109375 -1.078125l1.953125 0l0 -0.9375q0 -1.34375 -0.65625 -1.921875q-0.640625 -0.578125 -1.984375 -0.578125q-1.390625 0 -3.40625 0.671875l-0.5625 -1.609375q2.359375 -0.859375 4.375 -0.859375q2.234375 0 3.328125 1.09375q1.109375 1.09375 1.109375 3.109375l0 5.78125zm-5.1875 1.578125q1.90625 0 2.984375 -1.96875l0 -2.890625l-1.65625 0q-3.5 0 -3.5 2.59375q0 1.125 0.546875 1.703125q0.546875 0.5625 1.625 0.5625zm11.930969 -11.265625l0 12.640625l-2.203125 0l0 -12.640625l2.203125 0zm-1.125 -6.078125q0.703125 0 1.125 0.4375q0.4375 0.421875 0.4375 1.078125q0 0.640625 -0.4375 1.0625q-0.421875 0.421875 -1.125 0.421875q-0.671875 0 -1.109375 -0.421875q-0.421875 -0.421875 -0.421875 -1.0625q0 -0.65625 0.421875 -1.078125q0.4375 -0.4375 1.109375 -0.4375zm11.642975 5.78125q1.71875 0 2.6875 1.03125q0.984375 1.03125 0.984375 2.828125l0 9.078125l-2.203125 0l0 -8.765625q0 -1.34375 -0.515625 -1.890625q-0.5 -0.546875 -1.484375 -0.546875q-1.0 0 -1.78125 0.578125q-0.765625 0.5625 -1.4375 1.65625l0 8.96875l-2.203125 0l0 -12.640625l1.890625 0l0.203125 1.859375q0.671875 -1.0 1.65625 -1.578125q1.0 -0.578125 2.203125 -0.578125zm22.98645 9.984375q0 0.765625 0.265625 1.140625q0.265625 0.375 0.796875 0.5625l-0.5 1.53125q-0.984375 -0.109375 -1.59375 -0.546875q-0.59375 -0.4375 -0.890625 -1.34375q-1.265625 1.890625 -3.765625 1.890625q-1.875 0 -2.953125 -1.046875q-1.078125 -1.0625 -1.078125 -2.765625q0 -2.015625 1.453125 -3.09375q1.453125 -1.078125 4.109375 -1.078125l1.953125 0l0 -0.9375q0 -1.34375 -0.65625 -1.921875q-0.640625 -0.578125 -1.984375 -0.578125q-1.390625 0 -3.40625 0.671875l-0.5625 -1.609375q2.359375 -0.859375 4.375 -0.859375q2.234375 0 3.328125 1.09375q1.109375 1.09375 1.109375 3.109375l0 5.78125zm-5.1875 1.578125q1.90625 0 2.984375 -1.96875l0 -2.890625l-1.65625 0q-3.5 0 -3.5 2.59375q0 1.125 0.546875 1.703125q0.546875 0.5625 1.625 0.5625zm28.77533 -11.5625q1.5625 0 2.5 1.046875q0.9375 1.046875 0.9375 2.8125l0 9.078125l-2.203125 0l0 -8.765625q0 -2.4375 -1.78125 -2.4375q-0.9375 0 -1.59375 0.546875q-0.640625 0.53125 -1.375 1.6875l0 8.96875l-2.21875 0l0 -8.765625q0 -2.4375 -1.765625 -2.4375q-0.96875 0 -1.625 0.546875q-0.640625 0.546875 -1.359375 1.6875l0 8.96875l-2.203125 0l0 -12.640625l1.890625 0l0.203125 1.84375q1.40625 -2.140625 3.640625 -2.140625q1.171875 0 2.0 0.609375q0.828125 0.59375 1.1875 1.671875q0.75 -1.109375 1.640625 -1.6875q0.90625 -0.59375 2.125 -0.59375zm12.630432 0q2.671875 0 4.140625 1.78125q1.46875 1.765625 1.46875 4.8125q0 1.96875 -0.671875 3.46875q-0.671875 1.5 -1.9375 2.328125q-1.265625 0.828125 -3.015625 0.828125q-2.671875 0 -4.15625 -1.765625q-1.484375 -1.78125 -1.484375 -4.828125q0 -1.96875 0.671875 -3.46875q0.671875 -1.5 1.9375 -2.328125q1.265625 -0.828125 3.046875 -0.828125zm0 1.78125q-3.28125 0 -3.28125 4.84375q0 4.828125 3.265625 4.828125q3.25 0 3.25 -4.859375q0 -4.8125 -3.234375 -4.8125zm19.062836 -6.578125l0 17.734375l-1.953125 0l-0.21875 -1.75q-0.625 0.953125 -1.5625 1.5q-0.921875 0.53125 -2.078125 0.53125q-2.25 0 -3.515625 -1.765625q-1.265625 -1.78125 -1.265625 -4.78125q0 -1.9375 0.59375 -3.453125q0.609375 -1.515625 1.734375 -2.359375q1.125 -0.859375 2.640625 -0.859375q1.953125 0 3.40625 1.5625l0 -6.625l2.21875 0.265625zm-5.328125 16.265625q1.0 0 1.71875 -0.46875q0.71875 -0.46875 1.390625 -1.40625l0 -6.1875q-0.625 -0.8125 -1.328125 -1.234375q-0.703125 -0.421875 -1.59375 -0.421875q-1.46875 0 -2.28125 1.234375q-0.796875 1.21875 -0.796875 3.640625q0 2.453125 0.75 3.65625q0.75 1.1875 2.140625 1.1875zm19.430084 -5.234375q0 0.5625 -0.046875 1.140625l-8.0625 0q0.140625 2.078125 1.046875 3.0625q0.921875 0.984375 2.359375 0.984375q0.921875 0 1.6875 -0.265625q0.765625 -0.265625 1.609375 -0.828125l0.953125 1.3125q-2.015625 1.578125 -4.421875 1.578125q-2.640625 0 -4.109375 -1.71875q-1.46875 -1.734375 -1.46875 -4.75q0 -1.96875 0.625 -3.484375q0.640625 -1.53125 1.828125 -2.390625q1.1875 -0.875 2.796875 -0.875q2.515625 0 3.859375 1.65625q1.34375 1.65625 1.34375 4.578125zm-2.1875 -0.640625q0 -1.875 -0.75 -2.859375q-0.734375 -0.984375 -2.21875 -0.984375q-2.71875 0 -2.953125 3.984375l5.921875 0l0 -0.140625zm8.236206 7.625q-1.21875 0 -1.9375 -0.71875q-0.703125 -0.734375 -0.703125 -2.0625l0 -15.234375l2.21875 -0.265625l0 15.453125q0 0.53125 0.171875 0.78125q0.1875 0.234375 0.609375 0.234375q0.453125 0 0.8125 -0.15625l0.578125 1.546875q-0.78125 0.421875 -1.75 0.421875z" fill-rule="nonzero"/><path fill="#cfe2f3" d="m274.7979 462.40973l0 0c0 -7.3929443 5.9931335 -13.386108 13.386078 -13.386108l167.08609 0c3.5502014 0 6.955017 1.4103088 9.465393 3.9206848c2.510376 2.5104065 3.9206848 5.9151917 3.9206848 9.465424l0 53.542786c0 7.3928833 -5.993164 13.386047 -13.386078 13.386047l-167.08609 0c-7.3929443 0 -13.386078 -5.993164 -13.386078 -13.386047z" fill-rule="evenodd"/><path fill="#000000" d="m307.82126 466.68985q3.0625 0 4.734375 1.28125q1.6875 1.28125 1.6875 3.828125q0 2.703125 -1.75 4.03125q-1.75 1.3125 -4.65625 1.3125l-2.078125 0l0 6.078125l-2.28125 0l0 -16.53125l4.34375 0zm-0.078125 8.65625q1.984375 0 3.03125 -0.765625q1.046875 -0.765625 1.046875 -2.765625q0 -1.765625 -1.046875 -2.5625q-1.046875 -0.796875 -2.984375 -0.796875l-2.03125 0l0 6.890625l1.984375 0zm18.959564 7.875l-1.890625 0l-0.171875 -1.96875q-0.71875 1.171875 -1.65625 1.71875q-0.9375 0.53125 -2.28125 0.53125q-1.65625 0 -2.59375 -1.0q-0.9375 -1.015625 -0.9375 -2.859375l0 -9.0625l2.21875 0l0 8.828125q0 1.296875 0.453125 1.84375q0.453125 0.53125 1.484375 0.53125q1.84375 0 3.171875 -2.1875l0 -9.015625l2.203125 0l0 12.640625zm10.936707 -0.578125q-1.234375 0.859375 -2.828125 0.859375q-1.609375 0 -2.515625 -0.921875q-0.890625 -0.921875 -0.890625 -2.671875l0 -7.625l-2.203125 0l0 -1.703125l2.203125 0l0 -2.859375l2.203125 -0.265625l0 3.125l3.0 0l-0.234375 1.703125l-2.765625 0l0 7.53125q0 0.984375 0.34375 1.4375q0.359375 0.4375 1.171875 0.4375q0.75 0 1.6875 -0.515625l0.828125 1.46875zm10.852081 -12.0625l0 12.640625l-2.203125 0l0 -12.640625l2.203125 0zm-1.125 -6.078125q0.703125 0 1.125 0.4375q0.4375 0.421875 0.4375 1.078125q0 0.640625 -0.4375 1.0625q-0.421875 0.421875 -1.125 0.421875q-0.671875 0 -1.109375 -0.421875q-0.421875 -0.421875 -0.421875 -1.0625q0 -0.65625 0.421875 -1.078125q0.4375 -0.4375 1.109375 -0.4375zm12.06485 18.140625q-1.234375 0.859375 -2.828125 0.859375q-1.609375 0 -2.515625 -0.921875q-0.890625 -0.921875 -0.890625 -2.671875l0 -7.625l-2.203125 0l0 -1.703125l2.203125 0l0 -2.859375l2.203125 -0.265625l0 3.125l3.0 0l-0.234375 1.703125l-2.765625 0l0 7.53125q0 0.984375 0.34375 1.4375q0.359375 0.4375 1.171875 0.4375q0.75 0 1.6875 -0.515625l0.828125 1.46875zm14.430206 -12.359375q2.15625 0 3.421875 1.75q1.28125 1.734375 1.28125 4.84375q0 1.96875 -0.609375 3.46875q-0.59375 1.5 -1.71875 2.328125q-1.125 0.828125 -2.640625 0.828125q-1.984375 0 -3.359375 -1.671875l-0.21875 1.390625l-1.9375 0l0 -17.734375l2.203125 -0.265625l0 6.9375q1.375 -1.875 3.578125 -1.875zm-0.796875 11.46875q1.46875 0 2.296875 -1.1875q0.828125 -1.1875 0.828125 -3.6875q0 -2.5625 -0.765625 -3.703125q-0.765625 -1.140625 -2.1875 -1.140625q-1.671875 0 -2.953125 1.96875l0 6.046875q0.5 0.796875 1.234375 1.25q0.734375 0.453125 1.546875 0.453125zm18.81845 -5.234375q0 0.5625 -0.046875 1.140625l-8.0625 0q0.140625 2.078125 1.046875 3.0625q0.921875 0.984375 2.359375 0.984375q0.921875 0 1.6875 -0.265625q0.765625 -0.265625 1.609375 -0.828125l0.953125 1.3125q-2.015625 1.578125 -4.421875 1.578125q-2.640625 0 -4.109375 -1.71875q-1.46875 -1.734375 -1.46875 -4.75q0 -1.96875 0.625 -3.484375q0.640625 -1.53125 1.828125 -2.390625q1.1875 -0.875 2.796875 -0.875q2.515625 0 3.859375 1.65625q1.34375 1.65625 1.34375 4.578125zm-2.1875 -0.640625q0 -1.875 -0.75 -2.859375q-0.734375 -0.984375 -2.21875 -0.984375q-2.71875 0 -2.953125 3.984375l5.921875 0l0 -0.140625zm11.673706 -5.59375q1.71875 0 2.6875 1.03125q0.984375 1.03125 0.984375 2.828125l0 9.078125l-2.203125 0l0 -8.765625q0 -1.34375 -0.53125 -1.890625q-0.515625 -0.546875 -1.484375 -0.546875q-0.984375 0 -1.765625 0.578125q-0.765625 0.5625 -1.4375 1.625l0 9.0l-2.203125 0l0 -17.71875l2.203125 -0.234375l0 7.0625q1.484375 -2.046875 3.75 -2.046875zm10.313995 0.296875l0 12.640625l-2.203125 0l0 -12.640625l2.203125 0zm-1.125 -6.078125q0.703125 0 1.125 0.4375q0.4375 0.421875 0.4375 1.078125q0 0.640625 -0.4375 1.0625q-0.421875 0.421875 -1.125 0.421875q-0.671875 0 -1.109375 -0.421875q-0.421875 -0.421875 -0.421875 -1.0625q0 -0.65625 0.421875 -1.078125q0.4375 -0.4375 1.109375 -0.4375zm11.642975 5.78125q1.71875 0 2.6875 1.03125q0.984375 1.03125 0.984375 2.828125l0 9.078125l-2.203125 0l0 -8.765625q0 -1.34375 -0.515625 -1.890625q-0.5 -0.546875 -1.484375 -0.546875q-1.0 0 -1.78125 0.578125q-0.765625 0.5625 -1.4375 1.65625l0 8.96875l-2.203125 0l0 -12.640625l1.890625 0l0.203125 1.859375q0.671875 -1.0 1.65625 -1.578125q1.0 -0.578125 2.203125 -0.578125zm17.907715 -4.796875l0 17.734375l-1.953125 0l-0.21875 -1.75q-0.625 0.953125 -1.5625 1.5q-0.921875 0.53125 -2.078125 0.53125q-2.25 0 -3.515625 -1.765625q-1.265625 -1.78125 -1.265625 -4.78125q0 -1.9375 0.59375 -3.453125q0.609375 -1.515625 1.734375 -2.359375q1.125 -0.859375 2.640625 -0.859375q1.953125 0 3.40625 1.5625l0 -6.625l2.21875 0.265625zm-5.328125 16.265625q1.0 0 1.71875 -0.46875q0.71875 -0.46875 1.390625 -1.40625l0 -6.1875q-0.625 -0.8125 -1.328125 -1.234375q-0.703125 -0.421875 -1.59375 -0.421875q-1.46875 0 -2.28125 1.234375q-0.796875 1.21875 -0.796875 3.640625q0 2.453125 0.75 3.65625q0.75 1.1875 2.140625 1.1875z" fill-rule="nonzero"/><path fill="#000000" d="m348.396 509.26797q0 0.765625 0.265625 1.140625q0.265625 0.375 0.796875 0.5625l-0.5 1.5312805q-0.984375 -0.109375 -1.59375 -0.5469055q-0.59375 -0.4375 -0.890625 -1.34375q-1.265625 1.8906555 -3.765625 1.8906555q-1.875 0 -2.953125 -1.0469055q-1.078125 -1.0625 -1.078125 -2.765625q0 -2.015625 1.453125 -3.09375q1.453125 -1.078125 4.109375 -1.078125l1.953125 0l0 -0.9375q0 -1.34375 -0.65625 -1.921875q-0.640625 -0.578125 -1.984375 -0.578125q-1.390625 0 -3.40625 0.671875l-0.5625 -1.609375q2.359375 -0.859375 4.375 -0.859375q2.234375 0 3.328125 1.09375q1.109375 1.09375 1.109375 3.109375l0 5.78125zm-5.1875 1.578125q1.90625 0 2.984375 -1.96875l0 -2.890625l-1.65625 0q-3.5 0 -3.5 2.59375q0 1.125 0.546875 1.703125q0.546875 0.5625 1.625 0.5625zm15.680969 -11.5625q1.71875 0 2.6875 1.03125q0.984375 1.03125 0.984375 2.828125l0 9.0781555l-2.203125 0l0 -8.7656555q0 -1.34375 -0.515625 -1.890625q-0.5 -0.546875 -1.484375 -0.546875q-1.0 0 -1.78125 0.578125q-0.765625 0.5625 -1.4375 1.65625l0 8.9687805l-2.203125 0l0 -12.6406555l1.890625 0l0.203125 1.859375q0.671875 -1.0 1.65625 -1.578125q1.0 -0.578125 2.203125 -0.578125zm23.3927 12.9375305l-1.25 -4.1562805l-6.25 0l-1.25 4.1562805l-2.3125 0l5.3125 -16.53128l2.875 0l5.28125 16.53128l-2.40625 0zm-6.953125 -6.0000305l5.15625 0l-2.5625 -8.640625l-2.59375 8.640625zm16.251953 -10.53125q3.0625 0 4.734375 1.28125q1.6875 1.28125 1.6875 3.828125q0 2.703125 -1.75 4.03125q-1.75 1.3125 -4.65625 1.3125l-2.078125 0l0 6.0781555l-2.28125 0l0 -16.53128l4.34375 0zm-0.078125 8.65625q1.984375 0 3.03125 -0.765625q1.046875 -0.765625 1.046875 -2.765625q0 -1.765625 -1.046875 -2.5625q-1.046875 -0.796875 -2.984375 -0.796875l-2.03125 0l0 6.890625l1.984375 0zm11.959595 -8.65625l0 16.53128l-2.28125 0l0 -16.53128l2.28125 0z" fill-rule="nonzero"/><path fill="#000000" fill-opacity="0.0" d="m371.72702 107.49606l0 60.283463" fill-rule="evenodd"/><path stroke="#666666" stroke-width="3.0" stroke-linejoin="round" stroke-linecap="butt" d="m371.72702 107.49606l0 42.283463" fill-rule="evenodd"/><path stroke="#666666" stroke-width="3.0" stroke-linecap="butt" d="m366.77185 149.77953l4.9551697 13.614288l4.9552 -13.614288z" fill-rule="evenodd"/><path fill="#000000" fill-opacity="0.0" d="m371.72702 248.10892l0 63.08661" fill-rule="evenodd"/><path stroke="#666666" stroke-width="3.0" stroke-linejoin="round" stroke-linecap="butt" d="m371.72702 248.10892l0 45.08661" fill-rule="evenodd"/><path stroke="#666666" stroke-width="3.0" stroke-linecap="butt" d="m366.77185 293.19553l4.9551697 13.614319l4.9552 -13.614319z" fill-rule="evenodd"/><path fill="#000000" fill-opacity="0.0" d="m371.72702 388.7244l0 60.314972" fill-rule="evenodd"/><path stroke="#666666" stroke-width="3.0" stroke-linejoin="round" stroke-linecap="butt" d="m371.72702 388.7244l0 42.314972" fill-rule="evenodd"/><path stroke="#666666" stroke-width="3.0" stroke-linecap="butt" d="m366.77185 431.03937l4.9551697 13.614288l4.9552 -13.614288z" fill-rule="evenodd"/><path fill="#000000" fill-opacity="0.0" d="m61.149605 71.81628l204.06299 0l0 47.622047l-204.06299 0z" fill-rule="evenodd"/><path fill="#b45f06" d="m90.212105 95.8094l-0.125 3.765625q0 0.65625 0 0.96875q0.015625 0.296875 0.09375 0.53125q0.078125 0.21875 0.140625 0.25q0.0625 0.03125 0.28125 0.0625q0.21875 0.015625 0.46875 0.15625q0.265625 0.140625 0.265625 0.59375q0 0.828125 -0.546875 1.390625q-0.53125 0.5625 -1.28125 0.5625q-1.21875 0 -1.671875 -0.90625q-0.4375 -0.921875 -0.4375 -2.421875l0.109375 -4.421875q0 -1.484375 -0.53125 -2.3125q-0.53125 -0.828125 -1.40625 -0.828125q-0.875 0 -1.859375 1.234375q-0.96875 1.21875 -1.359375 2.796875l0.078125 5.140625q0 1.71875 -1.40625 1.71875q-1.609375 0 -1.609375 -1.953125q0 -1.96875 0.484375 -5.015625q0 -3.921875 -1.953125 -3.921875q-0.875 0 -1.859375 1.234375q-0.96875 1.21875 -1.359375 2.796875l0.0625 5.140625q0 1.71875 -1.40625 1.71875q-1.609375 0 -1.609375 -1.953125q0 -1.96875 0.484375 -5.015625q0 -0.9375 -0.203125 -2.703125q-0.203125 -1.78125 -0.203125 -2.296875q0 -0.53125 0.375 -1.015625q0.375 -0.484375 1.0625 -0.484375q0.6875 0 1.0625 0.484375q0.375 0.484375 0.375 0.984375q0 0.484375 -0.015625 1.078125q-0.015625 0.59375 -0.40625 0.59375q1.234375 -3.140625 3.96875 -3.140625q1.609375 0 2.640625 0.953125q1.03125 0.9375 1.09375 1.203125q1.15625 -2.15625 3.90625 -2.15625q2.046875 0 3.171875 1.546875q1.125 1.53125 1.125 3.640625zm5.610443 -2.703125l-0.1875 5.28125q0 1.453125 0.578125 2.3125q0.578125 0.84375 1.5625 0.84375q0.984375 0 2.015625 -1.25q1.046875 -1.25 1.46875 -2.8125l-0.078125 -5.140625q0 -1.71875 1.40625 -1.71875q1.609375 0 1.609375 1.96875q0 1.953125 -0.484375 5.0q0 1.6875 0.234375 2.6875q0.234375 0.984375 0.359375 1.046875q0.078125 0.03125 0.28125 0.0625q0.21875 0.015625 0.46875 0.15625q0.265625 0.140625 0.265625 0.59375q0 0.84375 -0.53125 1.40625q-0.53125 0.546875 -1.359375 0.546875q-2.015625 0 -2.015625 -1.6875q-0.984375 1.6875 -3.953125 1.6875q-2.171875 0 -3.359375 -1.578125q-1.171875 -1.59375 -1.171875 -3.859375l0.140625 -3.609375q0 -0.890625 -0.203125 -1.71875q-0.1875 -0.828125 -0.1875 -1.3125q0 -0.5 0.421875 -0.9375q0.4375 -0.453125 1.109375 -0.453125q1.609375 0 1.609375 2.484375zm20.594086 7.28125q1.09375 0 1.09375 1.03125q0 1.03125 -1.578125 1.921875q-1.578125 0.875 -3.234375 0.875q-2.734375 0 -4.5625 -2.015625q-1.8125 -2.015625 -1.8125 -4.84375q0 -2.828125 1.828125 -4.84375q1.828125 -2.015625 4.8125 -2.015625q1.65625 0 3.0 0.796875q1.34375 0.796875 1.34375 1.796875q0 0.578125 -0.390625 0.984375q-0.375 0.390625 -0.890625 0.390625q-0.515625 0 -1.0625 -0.484375q-1.109375 -0.921875 -2.21875 -0.921875q-1.4375 0 -2.53125 1.234375q-1.09375 1.234375 -1.09375 3.046875q0 1.796875 1.109375 3.0625q1.109375 1.25 2.734375 1.25q1.25 0 2.484375 -0.859375q0.578125 -0.40625 0.96875 -0.40625zm13.872215 -4.578125l-0.125 3.765625q0 0.640625 0.015625 0.953125q0.015625 0.3125 0.09375 0.546875q0.09375 0.21875 0.140625 0.25q0.0625 0.03125 0.265625 0.0625q0.21875 0.015625 0.46875 0.15625q0.265625 0.140625 0.265625 0.59375q0 0.828125 -0.546875 1.390625q-0.53125 0.5625 -1.28125 0.5625q-1.21875 0 -1.6562576 -0.90625q-0.4375 -0.921875 -0.4375 -2.421875l0.09375 -4.421875q0 -1.46875 -0.578125 -2.296875q-0.578125 -0.84375 -1.578125 -0.84375q-0.984375 0 -2.03125 1.234375q-1.03125 1.234375 -1.4375 2.796875l0.0625 5.140625q0 1.71875 -1.40625 1.71875q-1.609375 0 -1.609375 -1.953125q0 -1.96875 0.484375 -5.015625q0 -1.578125 -0.21875 -6.09375q-0.21875 -4.53125 -0.21875 -4.984375q0 -0.453125 0.390625 -0.9375q0.390625 -0.484375 1.0625 -0.484375q0.671875 0 1.046875 0.484375q0.375 0.484375 0.375 1.203125l0 5.984375q0.953125 -1.671875 3.828125 -1.671875q2.171875 0 3.3437576 1.53125q1.1875 1.53125 1.1875 3.65625zm19.794327 -0.59375l0.703125 -0.015625q0.703125 0 1.203125 0.40625q0.5 0.390625 0.5 1.03125q0 1.40625 -1.5 1.40625q0.171875 0.53125 0.34375 1.078125q0.1875 0.53125 0.5 1.375q0.65625 1.8125 0.65625 2.296875q0 0.46875 -0.359375 0.890625q-0.34375 0.40625 -0.953125 0.40625q-1.03125 0 -1.53125 -1.140625q-0.34375 -0.953125 -0.84375 -2.59375q-0.5 -1.640625 -0.75 -2.421875q-2.5 -0.046875 -3.625 -0.046875q-1.109375 0 -2.3125 0.046875q-1.390625 4.6875 -1.5 4.96875q-0.453125 1.1875 -1.390625 1.1875q-0.578125 0 -0.9375 -0.375q-0.359375 -0.390625 -0.359375 -0.875q0 -0.5 0.234375 -1.265625q0.234375 -0.78125 0.671875 -2.0625q0.4375 -1.296875 0.75 -1.703125l0 0.1875q-1.65625 0 -1.65625 -1.375q0 -1.390625 1.65625 -1.390625q0.5625 0 0.796875 0.234375q-0.21875 -0.0625 2.859375 -9.0625q0.609375 -1.78125 1.859375 -1.78125q0.8125 0 1.25 0.453125q0.4375 0.453125 0.65625 1.046875q0.234375 0.59375 0.75 2.15625q1.578125 4.8125 2.328125 6.9375zm-7.140625 0.109375q0.6875 0.046875 2.1875 0.046875q1.515625 0 2.109375 -0.03125q-2.09375 -7.109375 -2.09375 -6.984375q0 -0.03125 -1.765625 5.609375l-0.4375 1.359375zm26.767334 7.390625q-0.515625 1.375 -1.734375 1.375q-1.21875 0 -1.71875 -1.3125q-0.09375 -0.28125 -0.796875 -2.65625q-0.703125 -2.390625 -1.21875 -4.421875q-0.515625 -2.046875 -0.421875 -2.046875q0.09375 0 -0.40625 2.0625q-0.5 2.046875 -1.1875 4.421875q-0.671875 2.359375 -0.75 2.59375q-0.53125 1.359375 -1.71875 1.359375q-1.171875 0 -1.6875 -1.3125q-0.421875 -1.28125 -1.8125 -5.859375q-1.375 -4.59375 -2.046875 -6.65625q-1.171875 -3.5625 -1.171875 -4.171875q0 -0.609375 0.375 -1.03125q0.390625 -0.4375 0.96875 -0.4375q1.0625 0 1.53125 1.1875q0.03125 0.078125 1.09375 3.875q2.875 10.75 2.875 10.625q0 0.125 1.53125 -6.03125q0.703125 -2.609375 0.796875 -2.9375q0.421875 -1.59375 1.671875 -1.59375q1.265625 0 1.71875 1.5q0.046875 0.15625 0.796875 2.796875q1.640625 6.46875 1.640625 6.265625q0 0.28125 1.359375 -5.15625q1.359375 -5.453125 2.328125 -9.203125q0.375 -1.328125 1.46875 -1.328125q1.296875 0 1.296875 1.453125q0 0.65625 -0.59375 2.640625q-0.578125 1.984375 -1.046875 3.625q-2.40625 8.125 -3.140625 10.375zm17.784683 -4.15625q0 2.40625 -1.78125 4.03125q-1.78125 1.625 -4.546875 1.625q-2.109375 0 -4.03125 -1.046875q-1.90625 -1.046875 -1.90625 -2.28125q0 -0.5625 0.359375 -0.953125q0.375 -0.390625 0.921875 -0.390625q0.546875 0 1.0625 0.375q0.53125 0.359375 0.90625 0.71875q0.375 0.34375 1.078125 0.625q0.71875 0.28125 1.609375 0.28125q1.5 0 2.453125 -0.8125q0.96875 -0.828125 0.96875 -2.171875q0 -0.859375 -0.8125 -1.671875q-0.8125 -0.828125 -2.0625 -1.546875q-1.25 -0.71875 -2.578125 -1.5q-1.3125 -0.796875 -2.3125 -1.96875q-0.984375 -1.1875 -0.984375 -2.671875q0 -1.9375 1.625 -3.3125q1.640625 -1.390625 3.75 -1.390625q2.125 0 3.703125 0.765625q1.59375 0.765625 1.59375 1.921875q0 0.59375 -0.375 0.953125q-0.375 0.359375 -0.90625 0.359375q-0.515625 0 -0.953125 -0.25q-0.4375 -0.25 -0.71875 -0.484375q-0.28125 -0.234375 -0.828125 -0.40625q-0.53125 -0.1875 -1.453125 -0.1875q-0.921875 0 -1.71875 0.59375q-0.796875 0.578125 -0.796875 1.34375q0 0.765625 0.796875 1.5q0.8125 0.734375 2.0625 1.453125q1.265625 0.71875 2.59375 1.546875q1.328125 0.828125 2.296875 2.109375q0.984375 1.28125 0.984375 2.84375z" fill-rule="nonzero"/><path fill="#000000" fill-opacity="0.0" d="m534.5381 133.32545l153.57477 0l0 47.622055l-153.57477 0z" fill-rule="evenodd"/><path fill="#f1c232" d="m563.6006 157.31859l-0.125 3.765625q0 0.65625 0 0.96875q0.015625 0.296875 0.09375 0.53125q0.078125 0.21875 0.140625 0.25q0.0625 0.03125 0.28125 0.0625q0.21875 0.015625 0.46875 0.15625q0.265625 0.140625 0.265625 0.59375q0 0.828125 -0.546875 1.390625q-0.53125 0.5625 -1.28125 0.5625q-1.21875 0 -1.671875 -0.90625q-0.4375 -0.921875 -0.4375 -2.421875l0.109375 -4.421875q0 -1.484375 -0.53125 -2.3125q-0.53125 -0.828125 -1.40625 -0.828125q-0.875 0 -1.859375 1.234375q-0.96875 1.21875 -1.359375 2.796875l0.078125 5.140625q0 1.71875 -1.40625 1.71875q-1.609375 0 -1.609375 -1.953125q0 -1.96875 0.484375 -5.015625q0 -3.921875 -1.953125 -3.921875q-0.875 0 -1.859375 1.234375q-0.96875 1.21875 -1.359375 2.796875l0.0625 5.140625q0 1.71875 -1.40625 1.71875q-1.609375 0 -1.609375 -1.953125q0 -1.96875 0.484375 -5.015625q0 -0.9375 -0.203125 -2.703125q-0.203125 -1.78125 -0.203125 -2.296875q0 -0.53125 0.375 -1.015625q0.375 -0.484375 1.0625 -0.484375q0.6875 0 1.0625 0.484375q0.375 0.484375 0.375 0.984375q0 0.484375 -0.015625 1.078125q-0.015625 0.59375 -0.40625 0.59375q1.234375 -3.140625 3.96875 -3.140625q1.609375 0 2.640625 0.953125q1.03125 0.9375 1.09375 1.203125q1.15625 -2.15625 3.90625 -2.15625q2.046875 0 3.171875 1.546875q1.125 1.53125 1.125 3.640625zm13.188538 1.78125q0 1.6875 0.234375 2.6875q0.234375 0.984375 0.359375 1.046875q0.078125 0.03125 0.28125 0.0625q0.21875 0.015625 0.46875 0.15625q0.265625 0.140625 0.265625 0.59375q0 0.828125 -0.484375 1.390625q-0.46875 0.5625 -1.453125 0.5625q-0.96875 0 -1.453125 -1.078125q-0.46875 -1.078125 -0.265625 -1.1875q0.109375 0.265625 -1.171875 1.265625q-1.28125 1.0 -2.921875 1.0q-1.625 0 -2.828125 -1.078125q-2.078125 -1.90625 -2.078125 -5.390625q0 -2.796875 1.625 -4.890625q1.640625 -2.109375 4.265625 -2.109375q2.015625 0 2.625 0.578125q0 -0.578125 1.40625 -0.578125q1.609375 0 1.609375 1.96875q0 1.953125 -0.484375 5.0zm-2.390625 0.109375l-0.109375 -3.40625q-1.15625 -1.125 -2.515625 -1.125q-1.34375 0 -2.34375 1.265625q-0.984375 1.25 -0.984375 3.078125q0 1.828125 0.625 2.9375q0.625 1.09375 1.71875 1.09375q1.09375 0 2.078125 -1.078125q1.0 -1.078125 1.53125 -2.765625zm16.79773 -1.890625l-0.125 3.765625q0 0.640625 0.015625 0.953125q0.015625 0.3125 0.09375 0.546875q0.09375 0.21875 0.140625 0.25q0.0625 0.03125 0.265625 0.0625q0.21875 0.015625 0.46875 0.15625q0.265625 0.140625 0.265625 0.59375q0 0.828125 -0.546875 1.390625q-0.53125 0.5625 -1.265625 0.5625q-1.234375 0 -1.671875 -0.90625q-0.4375 -0.921875 -0.4375 -2.421875l0.09375 -4.421875q0 -1.46875 -0.578125 -2.296875q-0.578125 -0.84375 -1.5625 -0.84375q-0.984375 0 -2.03125 1.234375q-1.046875 1.234375 -1.453125 2.796875l0.0625 5.140625q0 1.71875 -1.40625 1.71875q-1.609375 0 -1.609375 -1.953125q0 -1.96875 0.484375 -5.015625q0 -0.9375 -0.203125 -2.703125q-0.203125 -1.78125 -0.203125 -2.296875q0 -0.53125 0.375 -1.015625q0.375 -0.484375 1.0625 -0.484375q0.6875 0 1.0625 0.484375q0.375 0.484375 0.375 0.984375q0 0.484375 -0.015625 1.078125q-0.015625 0.59375 -0.40625 0.59375q1.34375 -3.140625 4.21875 -3.140625q2.171875 0 3.34375 1.53125q1.1875 1.53125 1.1875 3.65625zm11.052185 1.671875l-0.078125 -5.140625q0 -1.71875 1.40625 -1.71875q1.609375 0 1.609375 2.296875q0 1.4375 -0.5 4.640625q0.28125 2.890625 0.28125 4.359375q0 3.3125 -1.671875 5.375q-1.65625 2.078125 -4.6875 2.078125q-1.59375 0 -3.109375 -0.703125q-1.515625 -0.703125 -1.515625 -1.71875q0 -1.015625 1.0625 -1.015625q0.328125 0 1.421875 0.4375q1.09375 0.4375 2.140625 0.4375q1.78125 0 2.828125 -1.28125q1.046875 -1.265625 1.046875 -3.375q0 -0.8125 0.25 -0.828125q-1.3125 2.765625 -4.28125 2.765625q-2.171875 0 -3.359375 -1.578125q-1.171875 -1.59375 -1.171875 -3.859375l0.140625 -3.609375q0 -0.890625 -0.203125 -1.71875q-0.1875 -0.828125 -0.1875 -1.3125q0 -0.5 0.421875 -0.9375q0.4375 -0.453125 1.109375 -0.453125q1.609375 0 1.609375 2.484375l-0.1875 5.28125q0 1.453125 0.578125 2.3125q0.578125 0.84375 1.5625 0.84375q0.984375 0 2.015625 -1.25q1.046875 -1.25 1.46875 -2.8125zm14.593994 -0.9375l0.109375 5.828125q0 0.71875 -0.421875 1.21875q-0.421875 0.5 -1.0625 0.5q-0.640625 0 -1.0625 -0.5q-0.421875 -0.5 -0.421875 -0.96875q0 -0.484375 0.046875 -1.640625q0.09375 -3.390625 0.09375 -5.921875q0 -2.53125 -0.03125 -3.953125q-0.015625 -1.421875 -0.0625 -2.25q-0.03125 -0.828125 0.34375 -0.84375q-0.109375 0.390625 -0.25 0.390625q-1.21875 0 -1.21875 -1.296875q0 -1.359375 2.09375 -1.984375q2.109375 -0.625 3.671875 -0.625q3.484375 0 5.3125 1.6875q1.84375 1.6875 1.84375 4.15625q0 1.703125 -1.0625 3.234375q-1.046875 1.53125 -2.40625 2.078125q1.984375 4.734375 3.359375 5.484375q0.265625 0.15625 0.328125 0.140625q1.09375 -0.15625 1.09375 0.78125q0 0.875 -0.578125 1.453125q-0.578125 0.578125 -1.328125 0.578125q-1.171875 0 -2.328125 -1.546875q-1.46875 -2.109375 -3.234375 -6.046875q-0.796875 0.15625 -2.015625 0.15625l-0.8125 -0.109375zm6.203125 -6.046875q0 -1.484375 -1.0625 -2.40625q-1.0625 -0.9375 -2.90625 -0.9375q-1.84375 0 -2.25 0.234375q-0.046875 0.953125 -0.046875 3.5625q0 2.609375 -0.0625 2.59375q0.609375 -0.21875 1.796875 -0.21875q1.1875 0 2.078125 0.234375q0.796875 -0.15625 1.625 -1.0625q0.828125 -0.921875 0.828125 -2.0zm16.842041 4.71875l0.703125 -0.015625q0.703125 0 1.203125 0.40625q0.5 0.390625 0.5 1.03125q0 1.40625 -1.5 1.40625q0.171875 0.53125 0.34375 1.078125q0.1875 0.53125 0.5 1.375q0.65625 1.8125 0.65625 2.296875q0 0.46875 -0.359375 0.890625q-0.34375 0.40625 -0.953125 0.40625q-1.03125 0 -1.53125 -1.140625q-0.34375 -0.953125 -0.84375 -2.59375q-0.5 -1.640625 -0.75 -2.421875q-2.5 -0.046875 -3.625 -0.046875q-1.109375 0 -2.3125 0.046875q-1.390625 4.6875 -1.5 4.96875q-0.453125 1.1875 -1.390625 1.1875q-0.578125 0 -0.9375 -0.375q-0.359375 -0.390625 -0.359375 -0.875q0 -0.5 0.234375 -1.265625q0.234375 -0.78125 0.671875 -2.0625q0.4375 -1.296875 0.75 -1.703125l0 0.1875q-1.65625 0 -1.65625 -1.375q0 -1.390625 1.65625 -1.390625q0.5625 0 0.796875 0.234375q-0.21875 -0.0625 2.859375 -9.0625q0.609375 -1.78125 1.859375 -1.78125q0.8125 0 1.25 0.453125q0.4375 0.453125 0.65625 1.046875q0.234375 0.59375 0.75 2.15625q1.578125 4.8125 2.328125 6.9375zm-7.140625 0.109375q0.6875 0.046875 2.1875 0.046875q1.515625 0 2.109375 -0.03125q-2.09375 -7.109375 -2.09375 -6.984375q0 -0.03125 -1.765625 5.609375l-0.4375 1.359375zm11.923584 -0.890625l-0.109375 -7.96875q0 -0.8125 0.40625 -1.265625q0.421875 -0.46875 1.21875 -0.46875q0.796875 0 1.28125 1.140625q1.953125 4.390625 2.46875 5.484375q0.515625 1.078125 1.5625 3.34375q1.0625 2.265625 0.96875 2.3125q1.90625 -3.84375 3.859375 -8.65625q0.78125 -1.890625 1.1875 -2.75q0.40625 -0.875 1.359375 -0.875q1.484375 0 1.484375 1.734375q0 0.1875 -0.03125 1.3125q-0.03125 1.125 -0.0625 2.9375q-0.015625 1.8125 -0.015625 3.71875q0 1.890625 0.015625 3.703125q0.03125 1.796875 0.0625 2.921875q0.03125 1.125 0.03125 1.578125q0 0.453125 -0.421875 0.953125q-0.421875 0.5 -1.0625 0.5q-0.640625 0 -1.0625 -0.5q-0.421875 -0.5 -0.421875 -0.953125q0 -0.453125 0.03125 -1.59375q0.140625 -4.09375 0.140625 -6.609375l0 -2.34375l-3.671875 8.0625q-0.46875 1.046875 -1.390625 1.046875q-0.90625 0 -1.375 -1.125q-2.90625 -6.46875 -3.71875 -8.171875l0 2.53125l0.109375 7.9375q0 0.703125 -0.421875 1.21875q-0.40625 0.5 -1.0625 0.5q-0.640625 0 -1.0625 -0.5q-0.40625 -0.515625 -0.40625 -1.21875l0.109375 -7.9375z" fill-rule="nonzero"/><path fill="#000000" fill-opacity="0.0" d="m56.884514 255.84251l222.55118 0l0 47.622055l-222.55118 0z" fill-rule="evenodd"/><path fill="#02d1ec" d="m76.86889 283.92938q0 1.875 -1.5 3.03125q-1.5 1.15625 -3.515625 1.15625q-2.015625 0 -3.5625 -0.953125q-1.546875 -0.96875 -1.546875 -2.078125q0 -0.5625 0.359375 -0.9375q0.359375 -0.390625 0.8125 -0.390625q0.453125 0 0.71875 0.171875q0.265625 0.15625 0.5625 0.5q0.3125 0.328125 0.484375 0.5q0.1875 0.171875 0.796875 0.40625q0.625 0.234375 1.140625 0.234375q1.171875 0 1.84375 -0.421875q0.671875 -0.4375 0.671875 -1.203125q0 -0.890625 -2.0625 -1.609375q-0.984375 -0.34375 -2.046875 -0.75q-1.046875 -0.421875 -1.859375 -1.234375q-0.796875 -0.8125 -0.796875 -1.96875q0 -1.53125 1.34375 -2.625q1.34375 -1.109375 3.203125 -1.109375q1.859375 0 3.03125 0.703125q1.171875 0.6875 1.171875 1.609375q0 1.296875 -1.328125 1.296875q-0.53125 0 -1.015625 -0.359375q-1.0 -0.703125 -1.875 -0.703125q-0.875 0 -1.359375 0.34375q-0.46875 0.34375 -0.46875 0.703125q0 0.34375 0.546875 0.6875q0.5625 0.34375 1.546875 0.703125q0.984375 0.34375 2.046875 0.828125q1.0625 0.46875 1.859375 1.359375q0.796875 0.890625 0.796875 2.109375zm4.5605927 -6.796875l-0.1875 5.28125q0 1.453125 0.578125 2.3125q0.578125 0.84375 1.5625 0.84375q0.984375 0 2.015625 -1.25q1.046875 -1.25 1.46875 -2.8125l-0.078125 -5.140625q0 -1.71875 1.40625 -1.71875q1.609375 0 1.609375 1.96875q0 1.953125 -0.484375 5.0q0 1.6875 0.234375 2.6875q0.234375 0.984375 0.359375 1.046875q0.078125 0.03125 0.28125 0.0625q0.21875 0.015625 0.46875 0.15625q0.265625 0.140625 0.265625 0.59375q0 0.84375 -0.53125 1.40625q-0.53125 0.546875 -1.359375 0.546875q-2.015625 0 -2.015625 -1.6875q-0.984375 1.6875 -3.953125 1.6875q-2.171875 0 -3.359375 -1.578125q-1.171875 -1.59375 -1.171875 -3.859375l0.140625 -3.609375q0 -0.890625 -0.203125 -1.71875q-0.1875 -0.828125 -0.1875 -1.3125q0 -0.5 0.421875 -0.9375q0.4375 -0.453125 1.109375 -0.453125q1.609375 0 1.609375 2.484375zm20.594086 7.28125q1.09375 0 1.09375 1.03125q0 1.03125 -1.578125 1.921875q-1.578125 0.875 -3.234375 0.875q-2.734375 0 -4.5625 -2.015625q-1.8125 -2.015625 -1.8125 -4.84375q0 -2.828125 1.828125 -4.84375q1.828125 -2.015625 4.8125 -2.015625q1.65625 0 3.0 0.796875q1.34375 0.796875 1.34375 1.796875q0 0.578125 -0.390625 0.984375q-0.375 0.390625 -0.890625 0.390625q-0.515625 0 -1.0625 -0.484375q-1.109375 -0.921875 -2.21875 -0.921875q-1.4375 0 -2.53125 1.234375q-1.09375 1.234375 -1.09375 3.046875q0 1.796875 1.109375 3.0625q1.109375 1.25 2.734375 1.25q1.25 0 2.484375 -0.859375q0.578125 -0.40625 0.96875 -0.40625zm13.872208 -4.578125l-0.125 3.765625q0 0.640625 0.015625 0.953125q0.015625 0.3125 0.09375 0.546875q0.09375 0.21875 0.140625 0.25q0.0625 0.03125 0.265625 0.0625q0.21875 0.015625 0.46875 0.15625q0.265625 0.140625 0.265625 0.59375q0 0.828125 -0.546875 1.390625q-0.53125 0.5625 -1.28125 0.5625q-1.21875 0 -1.65625 -0.90625q-0.4375 -0.921875 -0.4375 -2.421875l0.09375 -4.421875q0 -1.46875 -0.578125 -2.296875q-0.578125 -0.84375 -1.578125 -0.84375q-0.984375 0 -2.03125 1.234375q-1.03125 1.234375 -1.4375 2.796875l0.0625 5.140625q0 1.71875 -1.40625 1.71875q-1.609375 0 -1.609375 -1.953125q0 -1.96875 0.484375 -5.015625q0 -1.578125 -0.21875 -6.09375q-0.21875 -4.53125 -0.21875 -4.984375q0 -0.453125 0.390625 -0.9375q0.390625 -0.484375 1.0625 -0.484375q0.671875 0 1.046875 0.484375q0.375 0.484375 0.375 1.203125l0 5.984375q0.953125 -1.671875 3.828125 -1.671875q2.171875 0 3.34375 1.53125q1.1875 1.53125 1.1875 3.65625zm12.013077 -9.46875l-0.109375 8.09375q0 2.421875 0.078125 6.78125q0.5312576 0.0625 2.0468826 0.0625q1.53125 0 2.8125 -0.078125q1.28125 -0.09375 1.71875 -0.09375q0.453125 0 0.9375 0.375q0.484375 0.375 0.484375 1.046875q0 0.671875 -0.484375 1.0625q-0.484375 0.390625 -1.21875 0.390625l-3.609375 -0.125l-3.8750076 0.125q-0.765625 0 -1.25 -0.453125q-0.484375 -0.453125 -0.484375 -1.28125l0.109375 -7.8125l-0.109375 -8.09375q0 -0.71875 0.375 -1.21875q0.390625 -0.5 1.09375 -0.5q0.71875 0 1.09375 0.5q0.390625 0.5 0.390625 1.21875zm11.055977 -0.890625q0.75 0 1.109375 0.5q0.375 0.484375 0.375 1.140625q0 0.65625 -0.453125 1.328125q-0.453125 0.65625 -1.21875 0.65625q-0.765625 0 -1.140625 -0.5q-0.375 -0.5 -0.375 -1.21875q0 -0.734375 0.46875 -1.3125q0.484375 -0.59375 1.234375 -0.59375zm1.171875 11.90625l0.109375 5.046875q0 1.6875 -1.40625 1.6875q-1.40625 0 -1.40625 -1.6875l0.109375 -5.046875l-0.109375 -5.046875q0 -1.6875 1.40625 -1.6875q1.40625 0 1.40625 1.6875l-0.109375 5.046875zm10.688492 0.3125l0 -3.390625q-1.046875 -1.109375 -2.421875 -1.109375q-1.359375 0 -2.421875 1.28125q-1.046875 1.265625 -1.046875 3.0625q0 1.796875 0.640625 2.921875q0.640625 1.109375 1.6875 1.109375q1.0625 0 2.046875 -1.09375q1.0 -1.109375 1.515625 -2.78125zm0 -6.453125q0.015625 -0.59375 1.359375 -0.59375q1.609375 0 1.609375 1.96875q0 1.953125 -0.484375 4.96875q0.28125 2.890625 0.28125 4.359375q0 3.3125 -1.609375 5.375q-1.59375 2.078125 -4.5 2.078125q-1.59375 0 -3.109375 -0.703125q-1.515625 -0.703125 -1.515625 -1.71875q0 -1.015625 1.046875 -1.015625q0.328125 0 1.34375 0.4375q1.015625 0.4375 2.234375 0.4375q1.671875 0 2.640625 -1.28125q0.984375 -1.265625 0.984375 -3.375q0 -0.890625 0.28125 -0.890625q0 0.78125 -1.3125 1.8125q-1.3125 1.015625 -2.734375 1.015625q-1.421875 0 -2.421875 -0.609375q-0.984375 -0.625 -1.609375 -1.609375q-1.15625 -1.921875 -1.15625 -4.46875q0 -2.5625 1.75 -4.671875q1.765625 -2.109375 4.375 -2.109375q1.84375 0 2.546875 0.59375zm16.454468 4.59375l-0.125 3.765625q0 0.640625 0.015625 0.953125q0.015625 0.3125 0.09375 0.546875q0.09375 0.21875 0.140625 0.25q0.0625 0.03125 0.265625 0.0625q0.21875 0.015625 0.46875 0.15625q0.265625 0.140625 0.265625 0.59375q0 0.828125 -0.546875 1.390625q-0.53125 0.5625 -1.28125 0.5625q-1.21875 0 -1.65625 -0.90625q-0.4375 -0.921875 -0.4375 -2.421875l0.09375 -4.421875q0 -1.46875 -0.578125 -2.296875q-0.578125 -0.84375 -1.578125 -0.84375q-0.984375 0 -2.03125 1.234375q-1.03125 1.234375 -1.4375 2.796875l0.0625 5.140625q0 1.71875 -1.40625 1.71875q-1.609375 0 -1.609375 -1.953125q0 -1.96875 0.484375 -5.015625q0 -1.578125 -0.21875 -6.09375q-0.21875 -4.53125 -0.21875 -4.984375q0 -0.453125 0.390625 -0.9375q0.390625 -0.484375 1.0625 -0.484375q0.671875 0 1.046875 0.484375q0.375 0.484375 0.375 1.203125l0 5.984375q0.953125 -1.671875 3.828125 -1.671875q2.171875 0 3.34375 1.53125q1.1875 1.53125 1.1875 3.65625zm6.3792114 -2.46875l-0.046875 5.171875q0 2.125 0.125 2.578125q0.125 0.453125 0.5 0.453125q0.234375 0 0.75 -0.25q0.515625 -0.265625 0.8125 -0.265625q1.0 0 1.0 0.890625q0 0.875 -1.0625 1.53125q-1.0625 0.640625 -2.078125 0.640625q-2.578125 0 -2.578125 -3.5625l-0.03125 -7.15625q-0.28125 0.015625 -0.59375 0.015625q-1.703125 0 -1.703125 -1.28125q0 -1.296875 1.703125 -1.296875q0.109375 0 0.53125 0.015625l-0.03125 -2.15625q0 -1.703125 1.40625 -1.703125q1.421875 0 1.421875 1.703125l-0.0625 2.1875l1.421875 -0.078125q1.703125 0 1.703125 1.328125q0 1.265625 -1.6875 1.265625q-0.21875 0 -1.5 -0.03125zm11.978607 0.03125l3.15625 0.125q0.796875 0 1.875 -0.0625q1.078125 -0.078125 1.21875 -0.078125q1.71875 0 1.71875 1.546875q0 4.25 -2.125 6.796875q-2.125 2.546875 -5.59375 2.546875q-3.453125 0 -5.8125 -2.90625q-2.34375 -2.90625 -2.34375 -7.0q0 -4.109375 2.421875 -6.96875q2.421875 -2.875 6.140625 -2.875q2.265625 0 4.203125 0.9375q1.9375 0.921875 1.9375 2.21875q0 0.609375 -0.390625 0.96875q-0.375 0.359375 -0.9375 0.359375q-0.546875 0 -1.09375 -0.328125q-0.546875 -0.328125 -0.9375 -0.65625q-0.390625 -0.328125 -1.125 -0.578125q-0.734375 -0.25 -1.65625 -0.25q-2.421875 0 -4.03125 2.109375q-1.59375 2.109375 -1.59375 5.03125q0 2.921875 1.53125 5.078125q1.546875 2.15625 3.828125 2.15625q1.921875 0 3.21875 -1.515625q1.296875 -1.515625 1.34375 -3.890625q-0.71875 -0.0625 -1.796875 -0.0625l-3.15625 0.125q-1.671875 0 -1.671875 -1.390625q0 -0.65625 0.46875 -1.046875q0.484375 -0.390625 1.203125 -0.390625zm10.968567 7.640625l-0.203125 -6.484375q0 -1.34375 -0.03125 -3.84375q-0.03125 -2.515625 0.234375 -2.546875q0 0.265625 -0.140625 0.265625q-1.21875 0 -1.21875 -1.296875q0 -0.796875 0.765625 -1.328125q0.765625 -0.53125 1.75 -0.8125q1.90625 -0.46875 3.453125 -0.46875q1.546875 0 2.90625 0.46875q1.375 0.453125 2.21875 1.1875q1.59375 1.5 1.59375 3.265625q0 3.078125 -1.75 4.0q0.640625 0.1875 1.84375 1.6875q1.21875 1.484375 1.21875 3.3125q0 2.796875 -2.265625 4.296875q-2.25 1.5 -5.890625 1.5q-2.5 0 -4.28125 -0.578125q-1.78125 -0.59375 -1.78125 -1.765625q0 -0.5 0.3125 -0.828125q0.328125 -0.34375 0.8125 -0.34375q0.484375 0 0.453125 0.3125zm4.421875 0.59375q2.515625 0 3.921875 -0.875q1.40625 -0.890625 1.40625 -2.46875q0 -1.25 -1.109375 -2.109375q-1.109375 -0.875 -2.34375 -1.078125q-2.046875 0.359375 -2.859375 0.359375q-0.8125 0 -0.921875 -0.03125q0 4.625 0.078125 6.0625q0.6875 0.140625 1.828125 0.140625zm0 -14.484375q-1.0 0 -1.84375 0.234375q-0.0625 0.890625 -0.25 5.109375q0.015625 -0.21875 1.28125 -0.21875q1.28125 0 2.28125 0.1875q0.34375 -0.015625 0.953125 -0.3125q0.609375 -0.296875 1.171875 -1.015625q0.5625 -0.734375 0.5625 -1.609375q0 -0.890625 -0.984375 -1.625q-0.96875 -0.75 -3.171875 -0.75zm10.844955 7.3125l-0.109375 -7.96875q0 -0.8125 0.40625 -1.265625q0.421875 -0.46875 1.21875 -0.46875q0.796875 0 1.28125 1.140625q1.953125 4.390625 2.46875 5.484375q0.515625 1.078125 1.5625 3.34375q1.0625 2.265625 0.96875 2.3125q1.90625 -3.84375 3.859375 -8.65625q0.78125 -1.890625 1.1875 -2.75q0.40625 -0.875 1.359375 -0.875q1.484375 0 1.484375 1.734375q0 0.1875 -0.03125 1.3125q-0.03125 1.125 -0.0625 2.9375q-0.015625 1.8125 -0.015625 3.71875q0 1.890625 0.015625 3.703125q0.03125 1.796875 0.0625 2.921875q0.03125 1.125 0.03125 1.578125q0 0.453125 -0.421875 0.953125q-0.421875 0.5 -1.0625 0.5q-0.640625 0 -1.0625 -0.5q-0.421875 -0.5 -0.421875 -0.953125q0 -0.453125 0.03125 -1.59375q0.140625 -4.09375 0.140625 -6.609375l0 -2.34375l-3.671875 8.0625q-0.46875 1.046875 -1.390625 1.046875q-0.90625 0 -1.375 -1.125q-2.90625 -6.46875 -3.71875 -8.171875l0 2.53125l0.109375 7.9375q0 0.703125 -0.421875 1.21875q-0.40625 0.5 -1.0625 0.5q-0.640625 0 -1.0625 -0.5q-0.40625 -0.515625 -0.40625 -1.21875l0.109375 -7.9375z" fill-rule="nonzero"/><path fill="#000000" fill-opacity="0.0" d="m526.8845 285.13385l168.8819 0l0 47.62207l-168.8819 0z" fill-rule="evenodd"/><path fill="#00ff00" d="m542.322 314.28323q-0.015625 0.234375 -0.09375 0.234375q-0.0625 0 -0.09375 -0.234375q-0.015625 -0.234375 0.1875 -0.765625q0.21875 -0.546875 0.375 -0.96875q0.15625 -0.4375 0.46875 -1.28125l0.40625 -1.171875q0.390625 -1.046875 0.953125 -2.859375q0.578125 -1.828125 0.703125 -2.125q0.453125 -1.171875 1.40625 -1.171875q0.546875 0 0.953125 0.375q0.40625 0.359375 0.40625 0.84375q0 0.46875 -0.21875 1.046875q-0.21875 0.578125 -0.765625 1.96875q-0.53125 1.375 -1.546875 4.171875q-1.0 2.796875 -1.578125 3.9375q-0.5625 1.125 -1.703125 1.125q-1.140625 0 -1.71875 -1.140625q-0.15625 -0.34375 -1.25 -3.1875q-1.09375 -2.859375 -1.453125 -3.765625q-0.359375 -0.921875 -0.5625 -1.4375q-0.203125 -0.515625 -0.375 -1.015625q-0.390625 -1.078125 -0.390625 -1.625q0 -0.5625 0.390625 -0.921875q0.390625 -0.375 0.953125 -0.375q1.0 0 1.453125 1.140625q0.125 0.3125 0.703125 2.125q0.59375 1.8125 0.859375 2.515625q0.265625 0.703125 0.546875 1.53125q0.296875 0.8125 0.453125 1.265625q0.15625 0.453125 0.359375 1.0q0.203125 0.53125 0.171875 0.765625zm12.171204 -4.5625q1.515625 0 2.296875 -0.453125q0.796875 -0.453125 0.796875 -1.140625q0 -0.6875 -0.5 -1.21875q-0.5 -0.53125 -1.453125 -0.53125q-1.359375 0 -2.328125 1.0625q-0.953125 1.046875 -1.15625 2.046875q0.828125 0.234375 2.34375 0.234375zm0.921875 -5.90625q2.140625 0 3.5 1.21875q1.375 1.21875 1.375 3.203125q0 1.96875 -1.6875 2.984375q-1.671875 1.015625 -4.0 1.015625q-1.296875 0 -2.5 -0.234375q0.078125 0.828125 1.0625 1.90625q0.984375 1.0625 2.125 1.0625q0.75 0 1.359375 -0.203125q0.625 -0.203125 0.921875 -0.421875q1.078125 -0.828125 1.5625 -0.828125q0.5 0 0.828125 0.328125q0.328125 0.328125 0.328125 0.78125q0 0.953125 -1.5625 1.9375q-1.5625 0.96875 -3.3125 0.96875q-2.734375 0 -4.328125 -1.90625q-1.578125 -1.90625 -1.703125 -4.1875q-1.28125 -0.390625 -1.28125 -1.625q0 -0.5625 0.34375 -0.90625q0.359375 -0.359375 0.796875 -0.359375q0.453125 0 0.515625 0.15625q0.328125 -1.875 1.921875 -3.375q1.609375 -1.515625 3.734375 -1.515625zm9.623474 7.390625l0.0625 4.484375q0 1.71875 -1.40625 1.71875q-1.609375 0 -1.609375 -1.953125q0 -1.96875 0.484375 -5.015625q0 -0.9375 -0.203125 -2.6875q-0.203125 -1.75 -0.203125 -2.28125q0 -0.53125 0.375 -1.03125q0.375 -0.5 1.0625 -0.5q0.6875 0 1.0625 0.5q0.375 0.5 0.375 0.984375q0 0.46875 -0.015625 1.09375q-0.015625 0.609375 -0.4375 0.609375q-0.015625 -1.125 1.125 -2.15625q1.140625 -1.03125 2.390625 -1.03125q1.265625 0 2.015625 0.5625q0.75 0.5625 0.75 1.296875q0 0.71875 -0.40625 1.171875q-0.40625 0.4375 -1.03125 0.4375q-0.609375 0 -1.109375 -0.4375q-0.484375 -0.453125 -0.59375 -0.453125q-0.515625 0 -1.46875 1.546875q-0.953125 1.53125 -1.21875 3.140625zm15.276367 -0.40625l-0.078125 -5.140625q0 -1.71875 1.40625 -1.71875q1.609375 0 1.609375 2.296875q0 1.4375 -0.5 4.640625q0.28125 2.890625 0.28125 4.359375q0 3.3125 -1.671875 5.375q-1.65625 2.078125 -4.6875 2.078125q-1.59375 0 -3.109375 -0.703125q-1.515625 -0.703125 -1.515625 -1.71875q0 -1.015625 1.0625 -1.015625q0.328125 0 1.421875 0.4375q1.09375 0.4375 2.140625 0.4375q1.78125 0 2.828125 -1.28125q1.046875 -1.265625 1.046875 -3.375q0 -0.8125 0.25 -0.828125q-1.3125 2.765625 -4.28125 2.765625q-2.171875 0 -3.359375 -1.578125q-1.171875 -1.59375 -1.171875 -3.859375l0.140625 -3.609375q0 -0.890625 -0.203125 -1.71875q-0.1875 -0.828125 -0.1875 -1.3125q0 -0.5 0.421875 -0.9375q0.4375 -0.453125 1.109375 -0.453125q1.609375 0 1.609375 2.484375l-0.1875 5.28125q0 1.453125 0.578125 2.3125q0.578125 0.84375 1.5625 0.84375q0.984375 0 2.015625 -1.25q1.046875 -1.25 1.46875 -2.8125zm16.687683 4.0625q1.3125 0 2.34375 -1.25q1.03125 -1.265625 1.03125 -3.015625q0 -1.75 -0.734375 -2.921875q-0.734375 -1.1875 -1.890625 -1.1875q-2.171875 0 -3.65625 3.75l0 3.515625q1.140625 1.109375 2.90625 1.109375zm-5.390625 -2.765625l0.03125 -0.90625l0 -0.375q0 -0.96875 -0.21875 -2.90625q-0.21875 -1.953125 -0.21875 -2.46875q0 -0.53125 0.375 -1.015625q0.375 -0.484375 1.046875 -0.484375q0.671875 0 1.0625 0.484375q0.390625 0.484375 0.390625 0.984375q0 0.484375 -0.015625 1.109375q-0.015625 0.609375 -0.40625 0.609375q0.296875 -1.390625 1.375 -2.28125q1.09375 -0.90625 2.84375 -0.90625q1.75 0 2.984375 1.125q1.25 1.109375 1.765625 2.53125q0.515625 1.40625 0.515625 2.8125q0 2.796875 -1.71875 4.90625q-1.703125 2.09375 -4.421875 2.09375q-1.953125 0 -2.921875 -0.703125q-0.03125 1.9375 -0.03125 3.421875q0 1.484375 -0.359375 2.015625q-0.359375 0.546875 -1.109375 0.546875q-0.75 0 -1.21875 -0.578125q-0.453125 -0.578125 -0.453125 -1.46875q0 -0.890625 0.09375 -2.0q0.109375 -1.109375 0.296875 -2.890625q0.1875 -1.78125 0.3125 -3.203125l0 -0.453125zm23.867432 -1.1875q0 1.6875 0.234375 2.6875q0.234375 0.984375 0.359375 1.046875q0.078125 0.03125 0.28125 0.0625q0.21875 0.015625 0.46875 0.15625q0.265625 0.140625 0.265625 0.59375q0 0.828125 -0.484375 1.390625q-0.46875 0.5625 -1.453125 0.5625q-0.96875 0 -1.453125 -1.078125q-0.46875 -1.078125 -0.265625 -1.1875q0.109375 0.265625 -1.171875 1.265625q-1.28125 1.0 -2.921875 1.0q-1.625 0 -2.828125 -1.078125q-2.078125 -1.90625 -2.078125 -5.390625q0 -2.796875 1.625 -4.890625q1.640625 -2.109375 4.265625 -2.109375q2.015625 0 2.625 0.578125q0 -0.578125 1.40625 -0.578125q1.609375 0 1.609375 1.96875q0 1.953125 -0.484375 5.0zm-2.390625 0.109375l-0.109375 -3.40625q-1.15625 -1.125 -2.515625 -1.125q-1.34375 0 -2.34375 1.265625q-0.984375 1.25 -0.984375 3.078125q0 1.828125 0.625 2.9375q0.625 1.09375 1.71875 1.09375q1.09375 0 2.078125 -1.078125q1.0 -1.078125 1.53125 -2.765625zm16.79773 -1.890625l-0.125 3.765625q0 0.640625 0.015625 0.953125q0.015625 0.3125 0.09375 0.546875q0.09375 0.21875 0.140625 0.25q0.0625 0.03125 0.265625 0.0625q0.21875 0.015625 0.46875 0.15625q0.265625 0.140625 0.265625 0.59375q0 0.828125 -0.546875 1.390625q-0.53125 0.5625 -1.265625 0.5625q-1.234375 0 -1.671875 -0.90625q-0.4375 -0.921875 -0.4375 -2.421875l0.09375 -4.421875q0 -1.46875 -0.578125 -2.296875q-0.578125 -0.84375 -1.5625 -0.84375q-0.984375 0 -2.03125 1.234375q-1.046875 1.234375 -1.453125 2.796875l0.0625 5.140625q0 1.71875 -1.40625 1.71875q-1.609375 0 -1.609375 -1.953125q0 -1.96875 0.484375 -5.015625q0 -0.9375 -0.203125 -2.703125q-0.203125 -1.78125 -0.203125 -2.296875q0 -0.53125 0.375 -1.015625q0.375 -0.484375 1.0625 -0.484375q0.6875 0 1.0625 0.484375q0.375 0.484375 0.375 0.984375q0 0.484375 -0.015625 1.078125q-0.015625 0.59375 -0.40625 0.59375q1.34375 -3.140625 4.21875 -3.140625q2.171875 0 3.34375 1.53125q1.1875 1.53125 1.1875 3.65625zm11.161621 1.984375l0 -3.515625q-1.140625 -1.109375 -2.90625 -1.109375q-1.296875 0 -2.328125 1.265625q-1.03125 1.25 -1.03125 3.0q0 1.75 0.71875 2.9375q0.734375 1.171875 1.90625 1.171875q2.171875 0 3.640625 -3.75zm3.09375 3.53125q1.078125 0 1.078125 0.859375q0 0.609375 -0.4375 1.265625q-0.4375 0.640625 -1.4375 0.640625q-0.984375 0 -1.46875 -0.9375q-0.46875 -0.953125 -0.484375 -1.109375q-1.125 2.046875 -4.109375 2.046875q-1.75 0 -3.0 -1.109375q-1.234375 -1.109375 -1.765625 -2.53125q-0.515625 -1.421875 -0.515625 -2.828125q0 -2.796875 1.71875 -4.890625q1.71875 -2.109375 4.421875 -2.109375q1.953125 0 2.921875 0.703125q0.03125 -2.375 0.03125 -3.984375q0 -1.625 0.34375 -2.171875q0.34375 -0.546875 1.125 -0.546875q0.78125 0 1.21875 0.578125q0.453125 0.578125 0.453125 1.5q0 0.90625 -0.09375 2.109375q-0.09375 1.203125 -0.296875 3.15625q-0.1875 1.953125 -0.3125 3.515625q0 2.875 0.1875 4.34375q0.203125 1.453125 0.421875 1.5zm13.049438 -3.734375q0 1.6875 0.234375 2.6875q0.234375 0.984375 0.359375 1.046875q0.078125 0.03125 0.28125 0.0625q0.21875 0.015625 0.46875 0.15625q0.265625 0.140625 0.265625 0.59375q0 0.828125 -0.484375 1.390625q-0.46875 0.5625 -1.453125 0.5625q-0.96875 0 -1.453125 -1.078125q-0.46875 -1.078125 -0.265625 -1.1875q0.109375 0.265625 -1.171875 1.265625q-1.28125 1.0 -2.921875 1.0q-1.625 0 -2.828125 -1.078125q-2.078125 -1.90625 -2.078125 -5.390625q0 -2.796875 1.625 -4.890625q1.640625 -2.109375 4.265625 -2.109375q2.015625 0 2.625 0.578125q0 -0.578125 1.40625 -0.578125q1.609375 0 1.609375 1.96875q0 1.953125 -0.484375 5.0zm-2.390625 0.109375l-0.109375 -3.40625q-1.15625 -1.125 -2.515625 -1.125q-1.34375 0 -2.34375 1.265625q-0.984375 1.25 -0.984375 3.078125q0 1.828125 0.625 2.9375q0.625 1.09375 1.71875 1.09375q1.09375 0 2.078125 -1.078125q1.0 -1.078125 1.53125 -2.765625zm14.8758545 2.203125q0 1.875 -1.5 3.03125q-1.5 1.15625 -3.515625 1.15625q-2.015625 0 -3.5625 -0.953125q-1.546875 -0.96875 -1.546875 -2.078125q0 -0.5625 0.359375 -0.9375q0.359375 -0.390625 0.8125 -0.390625q0.453125 0 0.71875 0.171875q0.265625 0.15625 0.5625 0.5q0.3125 0.328125 0.484375 0.5q0.1875 0.171875 0.796875 0.40625q0.625 0.234375 1.140625 0.234375q1.171875 0 1.84375 -0.421875q0.671875 -0.4375 0.671875 -1.203125q0 -0.890625 -2.0625 -1.609375q-0.984375 -0.34375 -2.046875 -0.75q-1.046875 -0.421875 -1.859375 -1.234375q-0.796875 -0.8125 -0.796875 -1.96875q0 -1.53125 1.34375 -2.625q1.34375 -1.109375 3.203125 -1.109375q1.859375 0 3.03125 0.703125q1.171875 0.6875 1.171875 1.609375q0 1.296875 -1.328125 1.296875q-0.53125 0 -1.015625 -0.359375q-1.0 -0.703125 -1.875 -0.703125q-0.875 0 -1.359375 0.34375q-0.46875 0.34375 -0.46875 0.703125q0 0.34375 0.546875 0.6875q0.5625 0.34375 1.546875 0.703125q0.984375 0.34375 2.046875 0.828125q1.0625 0.46875 1.859375 1.359375q0.796875 0.890625 0.796875 2.109375z" fill-rule="nonzero"/><path fill="#000000" fill-opacity="0.0" d="m73.94751 401.40158l222.55118 0l0 47.62204l-222.55118 0z" fill-rule="evenodd"/><path fill="#ff00ff" d="m93.931885 429.48846q0 1.875 -1.5 3.03125q-1.5 1.15625 -3.515625 1.15625q-2.015625 0 -3.5625 -0.953125q-1.546875 -0.96875 -1.546875 -2.078125q0 -0.5625 0.359375 -0.9375q0.359375 -0.390625 0.8125 -0.390625q0.453125 0 0.71875 0.171875q0.265625 0.15625 0.5625 0.5q0.3125 0.328125 0.484375 0.5q0.1875 0.171875 0.796875 0.40625q0.625 0.234375 1.140625 0.234375q1.171875 0 1.84375 -0.421875q0.671875 -0.4375 0.671875 -1.203125q0 -0.890625 -2.0625 -1.609375q-0.984375 -0.34375 -2.046875 -0.75q-1.046875 -0.421875 -1.859375 -1.234375q-0.796875 -0.8125 -0.796875 -1.96875q0 -1.53125 1.34375 -2.625q1.34375 -1.109375 3.203125 -1.109375q1.859375 0 3.03125 0.703125q1.171875 0.6875 1.171875 1.609375q0 1.296875 -1.328125 1.296875q-0.53125 0 -1.015625 -0.359375q-1.0 -0.703125 -1.875 -0.703125q-0.875 0 -1.359375 0.34375q-0.46875 0.34375 -0.46875 0.703125q0 0.34375 0.546875 0.6875q0.5625 0.34375 1.546875 0.703125q0.984375 0.34375 2.046875 0.828125q1.0625 0.46875 1.859375 1.359375q0.796875 0.890625 0.796875 2.109375zm9.591843 0.5q1.03125 -1.25 1.03125 -3.0625q0 -1.828125 -0.984375 -3.046875q-0.984375 -1.234375 -2.40625 -1.234375q-1.421875 0 -2.453125 1.25q-1.03125 1.25 -1.03125 3.078125q0 1.8125 0.984375 3.046875q0.984375 1.21875 2.40625 1.21875q1.421875 0 2.453125 -1.25zm-2.40625 -9.90625q2.703125 0 4.421875 2.0q1.71875 1.984375 1.71875 4.84375q0 2.84375 -1.75 4.859375q-1.734375 2.015625 -4.421875 2.015625q-2.6875 0 -4.40625 -1.984375q-1.703125 -2.0 -1.703125 -4.84375q0 -2.859375 1.71875 -4.875q1.734375 -2.015625 4.421875 -2.015625zm17.153076 5.1875l0.109375 6.6875q0 0.703125 -0.421875 1.21875q-0.40625 0.5 -1.0625 0.5q-0.640625 0 -1.0625 -0.5q-0.40625 -0.515625 -0.40625 -1.21875l0.109375 -7.9375l-0.109375 -8.0625q0 -0.703125 0.40625 -1.21875q0.421875 -0.515625 1.0625 -0.515625q0.65625 0 1.0625 0.515625q0.421875 0.515625 0.421875 0.953125q0 0.421875 -0.015625 1.359375q-0.09375 3.625 -0.09375 4.96875q0.125 -0.046875 1.5625 -0.046875q0.0625 0 0.953125 0.0625q0.9375 -0.8125 1.875 -2.703125q0.9375 -1.890625 1.296875 -3.6875q0.3125 -1.4375 1.46875 -1.4375q0.53125 0 0.921875 0.375q0.390625 0.375 0.390625 1.0q0 1.734375 -1.34375 4.4375q-1.34375 2.6875 -2.453125 3.765625q0.515625 1.15625 1.71875 3.28125q1.203125 2.109375 1.796875 2.921875q0.5 0.609375 0.890625 0.78125q0.40625 0.171875 0.8125 0.140625q0.40625 -0.03125 0.40625 0.65625q0 0.890625 -0.515625 1.5q-0.5 0.609375 -1.28125 0.609375q-1.171875 0 -2.4375 -1.75q-1.25 -1.765625 -3.90625 -6.796875q-0.859375 0.15625 -1.484375 0.15625q-0.625 0 -0.671875 -0.015625zm16.59758 0.71875q1.515625 0 2.296875 -0.453125q0.796875 -0.453125 0.796875 -1.140625q0 -0.6875 -0.5 -1.21875q-0.5 -0.53125 -1.453125 -0.53125q-1.359375 0 -2.328125 1.0625q-0.953125 1.046875 -1.15625 2.046875q0.828125 0.234375 2.34375 0.234375zm0.921875 -5.90625q2.140625 0 3.5 1.21875q1.375 1.21875 1.375 3.203125q0 1.96875 -1.6875 2.984375q-1.671875 1.015625 -4.0 1.015625q-1.296875 0 -2.5 -0.234375q0.078125 0.828125 1.0625 1.90625q0.984375 1.0625 2.125 1.0625q0.75 0 1.359375 -0.203125q0.625 -0.203125 0.921875 -0.421875q1.078125 -0.828125 1.5625 -0.828125q0.5 0 0.828125 0.328125q0.328125 0.328125 0.328125 0.78125q0 0.953125 -1.5625 1.9375q-1.5625 0.96875 -3.3125 0.96875q-2.734375 0 -4.328125 -1.90625q-1.578125 -1.90625 -1.703125 -4.1875q-1.28125 -0.390625 -1.28125 -1.625q0 -0.5625 0.34375 -0.90625q0.359375 -0.359375 0.796875 -0.359375q0.453125 0 0.515625 0.15625q0.328125 -1.875 1.921875 -3.375q1.609375 -1.515625 3.734375 -1.515625zm9.623459 7.390625l0.0625 4.484375q0 1.71875 -1.40625 1.71875q-1.609375 0 -1.609375 -1.953125q0 -1.96875 0.484375 -5.015625q0 -0.9375 -0.203125 -2.6875q-0.203125 -1.75 -0.203125 -2.28125q0 -0.53125 0.375 -1.03125q0.375 -0.5 1.0625 -0.5q0.6875 0 1.0625 0.5q0.375 0.5 0.375 0.984375q0 0.46875 -0.015625 1.09375q-0.015625 0.609375 -0.4375 0.609375q-0.015625 -1.125 1.125 -2.15625q1.140625 -1.03125 2.390625 -1.03125q1.265625 0 2.015625 0.5625q0.75 0.5625 0.75 1.296875q0 0.71875 -0.40625 1.171875q-0.40625 0.4375 -1.03125 0.4375q-0.609375 0 -1.109375 -0.4375q-0.484375 -0.453125 -0.59375 -0.453125q-0.515625 0 -1.46875 1.546875q-0.953125 1.53125 -1.21875 3.140625zm17.416977 -0.296875q0 1.6875 0.234375 2.6875q0.234375 0.984375 0.359375 1.046875q0.078125 0.03125 0.28125 0.0625q0.21875 0.015625 0.46875 0.15625q0.265625 0.140625 0.265625 0.59375q0 0.828125 -0.484375 1.390625q-0.46875 0.5625 -1.453125 0.5625q-0.96875 0 -1.453125 -1.078125q-0.46875 -1.078125 -0.265625 -1.1875q0.109375 0.265625 -1.171875 1.265625q-1.28125 1.0 -2.921875 1.0q-1.625 0 -2.828125 -1.078125q-2.078125 -1.90625 -2.078125 -5.390625q0 -2.796875 1.625 -4.890625q1.640625 -2.109375 4.265625 -2.109375q2.015625 0 2.625 0.578125q0 -0.578125 1.40625 -0.578125q1.609375 0 1.609375 1.96875q0 1.953125 -0.484375 5.0zm-2.390625 0.109375l-0.109375 -3.40625q-1.15625 -1.125 -2.515625 -1.125q-1.34375 0 -2.34375 1.265625q-0.984375 1.25 -0.984375 3.078125q0 1.828125 0.625 2.9375q0.625 1.09375 1.71875 1.09375q1.09375 0 2.078125 -1.078125q1.0 -1.078125 1.53125 -2.765625zm14.875839 2.203125q0 1.875 -1.5 3.03125q-1.5 1.15625 -3.515625 1.15625q-2.015625 0 -3.5625 -0.953125q-1.546875 -0.96875 -1.546875 -2.078125q0 -0.5625 0.359375 -0.9375q0.359375 -0.390625 0.8125 -0.390625q0.453125 0 0.71875 0.171875q0.265625 0.15625 0.5625 0.5q0.3125 0.328125 0.484375 0.5q0.1875 0.171875 0.796875 0.40625q0.625 0.234375 1.140625 0.234375q1.171875 0 1.84375 -0.421875q0.671875 -0.4375 0.671875 -1.203125q0 -0.890625 -2.0625 -1.609375q-0.984375 -0.34375 -2.046875 -0.75q-1.046875 -0.421875 -1.859375 -1.234375q-0.796875 -0.8125 -0.796875 -1.96875q0 -1.53125 1.34375 -2.625q1.34375 -1.109375 3.203125 -1.109375q1.859375 0 3.03125 0.703125q1.171875 0.6875 1.171875 1.609375q0 1.296875 -1.328125 1.296875q-0.53125 0 -1.015625 -0.359375q-1.0 -0.703125 -1.875 -0.703125q-0.875 0 -1.359375 0.34375q-0.46875 0.34375 -0.46875 0.703125q0 0.34375 0.546875 0.6875q0.5625 0.34375 1.546875 0.703125q0.984375 0.34375 2.046875 0.828125q1.0625 0.46875 1.859375 1.359375q0.796875 0.890625 0.796875 2.109375z" fill-rule="nonzero"/></g></svg>