<?xml version="1.0" encoding="iso-8859-1"?>
<!-- Generator: Adobe Illustrator 19.0.0, SVG Export Plug-In . SVG Version: 6.00 Build 0)  -->
<svg version="1.1" id="Layer_1" xmlns="http://www.w3.org/2000/svg" xmlns:xlink="http://www.w3.org/1999/xlink" x="0px" y="0px"
	 viewBox="0 0 512 512" style="enable-background:new 0 0 512 512;" xml:space="preserve">
<g>
	<g>
		<path d="M425.17,73.146c0.179-1.577,0.268-3.169,0.268-4.771c0-23.25-18.915-42.165-42.165-42.165
			c-6.849,0-13.444,1.619-19.354,4.678c-9.531-14.757-26.054-24.056-44.185-24.056c-11.414,0-22.244,3.62-31.163,10.214
			C280.754,6.589,268.271,0,254.743,0c-13.007,0-25.097,6.068-32.975,15.906c-8.628-5.856-18.899-9.075-29.515-9.075
			c-18.126,0-34.646,9.302-44.176,24.06c-5.913-3.06-12.508-4.682-19.351-4.682c-23.25,0-42.166,18.915-42.166,42.165
			c0,1.603,0.088,3.195,0.266,4.769c-21.658,6.642-36.909,26.605-36.909,50.229c0,11.817,3.952,23.172,11.184,32.401l43.004,347.699
			c0.603,4.871,4.74,8.528,9.648,8.528h284.485c4.907,0,9.046-3.658,9.648-8.528l43.004-347.7
			c7.238-9.225,11.194-20.578,11.194-32.4C462.083,99.751,446.832,79.789,425.17,73.146z M122.346,492.557L81.465,162.025h44.764
			l26.618,330.532H122.346z M172.353,492.557l-26.618-330.532H201.2l3.161,104.598c-17.168,14.634-28.086,36.393-28.086,60.667
			c0,26.007,12.521,49.142,31.849,63.703l3.065,101.563H172.353z M281.346,492.557h-50.704l-2.736-90.671
			c8.743,3.303,18.205,5.125,28.09,5.125c9.887,0,19.352-1.823,28.096-5.128L281.346,492.557z M255.996,387.568
			c-33.237,0-60.277-27.04-60.277-60.277s27.04-60.277,60.277-60.277s60.277,27.04,60.277,60.277S289.233,387.568,255.996,387.568z
			 M220.653,162.025h70.696l-2.797,92.523c-9.95-4.469-20.962-6.977-32.555-6.977c-11.591,0-22.602,2.507-32.548,6.975
			L220.653,162.025z M300.797,492.557l3.076-101.568c19.325-14.562,31.844-37.694,31.844-63.698
			c0-24.27-10.915-46.027-28.078-60.661l3.16-104.605h55.457l-26.618,330.532H300.797z M389.644,492.557h-30.501l26.618-330.532
			h44.766L389.644,492.557z M436.463,142.582H75.531c-3.986-5.588-6.171-12.266-6.171-19.21c0-15.23,10.052-28.041,24.192-31.923
			c5.136,7.347,14.332,15.089,27.853,15.089c1.412,0,2.87-0.084,4.376-0.262c5.086-0.601,9.169-4.831,9.023-9.951
			c-0.169-5.868-5.336-10.151-11.005-9.396c-10.908,1.458-15.263-7.828-16.038-9.747c-0.013-0.032-0.029-0.062-0.042-0.095
			c-0.012-0.027-0.017-0.057-0.029-0.084c-0.779-1.9-1.29-3.885-1.53-5.925c-1.495-12.753,8.151-24.497,20.961-25.373
			c6.62-0.452,12.93,1.908,17.606,6.533c1.819,1.799,4.249,2.929,6.806,2.967c4.322,0.064,8.035-2.652,9.379-6.564
			c4.598-13.379,17.192-22.369,31.338-22.369c9.432,0,18.433,4.035,24.706,11.075c1.729,1.94,4.172,3.177,6.769,3.314
			c4.373,0.231,8.223-2.412,9.675-6.342c3.285-8.897,11.862-14.876,21.341-14.876c9.948,0,18.848,6.611,21.743,16.113
			c0.844,2.769,2.688,5.187,5.322,6.388c4.237,1.929,9.045,0.642,11.766-2.852c6.344-8.145,15.88-12.817,26.163-12.817
			c12.52,0,23.811,7.04,29.437,17.921c-1.79,2.84-3.768,6.681-5.037,11.285c-3.664,13.302,0.342,26.651,11.28,37.59
			c1.898,1.899,4.386,2.848,6.874,2.848c2.445,0,4.889-0.916,6.775-2.749c3.908-3.798,3.579-10.276-0.227-14.178
			c-5.623-5.764-7.618-11.593-6.097-17.81c0.165-0.673,0.362-1.321,0.582-1.939c1.859-5.235,5.847-9.536,10.945-11.741
			c3.526-1.524,7.439-2.141,11.453-1.724c11.438,1.189,20.292,11.127,20.277,22.625c-0.004,2.949-0.569,5.829-1.682,8.559
			c-0.872,2.139-0.985,4.557-0.26,6.751c1.247,3.773,4.581,6.325,8.393,6.66c16.932,1.484,30.195,15.978,30.195,33
			C442.642,130.32,440.454,136.998,436.463,142.582z"/>
	</g>
</g>
<g>
	<g>
		<path d="M261.257,62.341c-7.484,0-14.638,1.996-20.875,5.741c-6.452-5.745-14.886-9.073-23.702-9.073
			c-19.656,0-35.646,15.99-35.646,35.646c0,19.656,15.989,35.646,35.644,35.646c5.369,0,9.721-4.353,9.721-9.721
			c0-5.369-4.353-9.721-9.721-9.721c-8.935,0-16.203-7.268-16.203-16.203c0-8.935,7.268-16.203,16.203-16.203
			c5.773,0,10.987,2.99,13.945,7.999c1.542,2.612,4.217,4.354,7.229,4.71c3.015,0.358,6.02-0.714,8.128-2.893
			c4.047-4.182,9.473-6.484,15.277-6.484c11.725,0,21.264,9.539,21.264,21.266c0,5.369,4.351,9.722,9.721,9.722
			s9.721-4.353,9.721-9.722C301.965,80.603,283.704,62.341,261.257,62.341z"/>
	</g>
</g>
<g>
</g>
<g>
</g>
<g>
</g>
<g>
</g>
<g>
</g>
<g>
</g>
<g>
</g>
<g>
</g>
<g>
</g>
<g>
</g>
<g>
</g>
<g>
</g>
<g>
</g>
<g>
</g>
<g>
</g>
</svg>
