<svg version="1.1" viewBox="0.0 0.0 480.03937007874015 233.61417322834646" fill="none" stroke="none" stroke-linecap="square" stroke-miterlimit="10" xmlns:xlink="http://www.w3.org/1999/xlink" xmlns="http://www.w3.org/2000/svg"><clipPath id="p.0"><path d="m0 0l480.03937 0l0 233.61417l-480.03937 0l0 -233.61417z" clip-rule="nonzero"/></clipPath><g clip-path="url(#p.0)"><path fill="#000000" fill-opacity="0.0" d="m0 0l480.03937 0l0 233.61417l-480.03937 0z" fill-rule="evenodd"/><path fill="#000000" fill-opacity="0.0" d="m0 0l480.0315 0l0 233.5433l-480.0315 0z" fill-rule="evenodd"/><path fill="#e4b1af" d="m125.9041 163.29227q-15.234375 0 -26.5 -5.5625q-11.265625 -5.578125 -17.28125 -15.8125q-6.015625 -10.234375 -6.015625 -23.8125q0 -18.8125 7.109375 -33.40625q7.109375 -14.59375 19.265625 -22.59375q12.15625 -8.0 27.0 -8.0q13.828125 0 21.0 7.109375q7.171875 7.09375 7.171875 18.75q0 7.8125 -2.765625 12.546875q-2.75 4.734375 -7.859375 4.734375q-3.59375 0 -5.640625 -1.65625q-2.046875 -1.671875 -2.046875 -4.875q0 -1.15625 0.515625 -4.21875q0.765625 -3.84375 0.765625 -6.140625q0 -11.65625 -12.421875 -11.65625q-8.4375 0 -16.125 5.515625q-7.671875 5.5 -12.40625 16.1875q-4.734375 10.6875 -4.734375 25.40625q0 15.359375 8.5625 23.75q8.578125 8.375 25.34375 8.375q8.328125 0 16.828125 -2.109375q8.515625 -2.109375 18.890625 -6.46875q1.921875 -0.765625 3.203125 -0.765625q2.046875 0 3.0625 1.546875q1.03125 1.53125 1.03125 3.953125q0 7.8125 -8.453125 11.515625q-9.078125 3.96875 -18.875 5.828125q-9.796875 1.859375 -18.625 1.859375zm45.058014 0q-4.859375 0 -6.84375 -5.109375q-1.984375 -5.125 -1.984375 -16.390625q0 -16.640625 4.734375 -31.625q1.140625 -3.703125 3.765625 -5.421875q2.625 -1.734375 7.359375 -1.734375q2.5625 0 3.578125 0.640625q1.03125 0.625 1.03125 2.421875q0 2.046875 -1.921875 9.21875q-1.265625 5.125 -2.046875 8.96875q-0.765625 3.828125 -1.28125 9.46875q4.234375 -11.015625 9.484375 -17.921875q5.25 -6.921875 10.296875 -9.859375q5.0625 -2.9375 9.28125 -2.9375q8.328125 0 8.328125 8.3125q0 1.671875 -1.15625 8.0625q-1.03125 5.125 -1.03125 6.40625q0 4.46875 3.203125 4.46875q3.578125 0 9.21875 -5.625q1.65625 -1.671875 3.453125 -1.671875q1.671875 0 2.625 1.484375q0.953125 1.46875 0.953125 3.90625q0 4.734375 -2.546875 7.421875q-3.59375 3.703125 -8.390625 6.328125q-4.796875 2.625 -10.171875 2.625q-6.78125 0 -10.3125 -3.453125q-3.515625 -3.453125 -3.515625 -9.34375q0 -1.921875 0.390625 -3.84375q0.25 -2.5625 0.25 -3.453125q0 -2.046875 -1.40625 -2.046875q-1.921875 0 -5.0625 4.296875q-3.125 4.28125 -6.203125 11.328125q-3.078125 7.03125 -5.0 14.84375q-1.40625 6.015625 -3.265625 8.125q-1.84375 2.109375 -5.8125 2.109375zm106.240005 -29.1875q1.65625 0 2.609375 1.546875q0.96875 1.53125 0.96875 4.21875q0 5.125 -2.421875 7.9375q-4.75 5.75 -13.390625 10.625q-8.625 4.859375 -18.484375 4.859375q-13.4375 0 -20.875 -7.296875q-7.421875 -7.296875 -7.421875 -19.96875q0 -8.828125 3.703125 -16.4375q3.71875 -7.625 10.3125 -12.09375q6.59375 -4.484375 14.921875 -4.484375q7.421875 0 11.890625 4.421875q4.484375 4.40625 4.484375 11.953125q0 8.828125 -6.34375 15.171875q-6.328125 6.328125 -21.421875 10.046875q3.1875 5.890625 12.15625 5.890625q5.765625 0 13.125 -4.03125q7.359375 -4.03125 12.734375 -10.5625q1.53125 -1.796875 3.453125 -1.796875zm-32.265625 -18.5625q-4.734375 0 -8.0 5.515625q-3.25 5.5 -3.25 13.3125l0 0.25q7.546875 -1.796875 11.890625 -5.375q4.359375 -3.578125 4.359375 -8.328125q0 -2.421875 -1.34375 -3.890625q-1.34375 -1.484375 -3.65625 -1.484375zm34.56961 47.75q-4.859375 0 -6.84375 -5.109375q-1.984375 -5.125 -1.984375 -16.390625q0 -16.640625 4.734375 -31.625q1.140625 -3.703125 3.765625 -5.421875q2.625 -1.734375 7.359375 -1.734375q2.5625 0 3.578125 0.640625q1.03125 0.625 1.03125 2.421875q0 2.046875 -1.921875 9.21875q-1.265625 5.125 -2.046875 8.90625q-0.765625 3.765625 -1.28125 9.390625q3.46875 -9.984375 8.265625 -16.890625q4.796875 -6.90625 9.84375 -10.296875q5.0625 -3.390625 9.546875 -3.390625q4.484375 0 6.328125 2.046875q1.859375 2.046875 1.859375 6.265625q0 4.09375 -2.421875 14.84375q-1.03125 4.609375 -1.421875 6.921875q6.40625 -15.75 14.203125 -22.90625q7.8125 -7.171875 14.609375 -7.171875q8.3125 0 8.3125 8.3125q0 4.984375 -2.8125 18.046875q-2.4375 11.140625 -2.4375 14.71875q0 5.125 3.71875 5.125q2.5625 0 6.078125 -3.140625q3.515625 -3.140625 9.40625 -10.171875q1.53125 -1.796875 3.453125 -1.796875q1.671875 0 2.625 1.546875q0.96875 1.53125 0.96875 4.21875q0 5.125 -2.4375 7.9375q-5.5 6.78125 -11.84375 11.140625q-6.328125 4.34375 -14.390625 4.34375q-6.53125 0 -9.859375 -3.765625q-3.328125 -3.78125 -3.328125 -10.953125q0 -3.578125 1.796875 -12.796875q1.65625 -8.0625 1.65625 -11.140625q0 -2.046875 -1.40625 -2.046875q-1.671875 0 -4.75 4.296875q-3.0625 4.28125 -6.140625 11.328125q-3.0625 7.03125 -4.984375 14.84375q-1.40625 6.140625 -3.265625 8.1875q-1.859375 2.046875 -5.953125 2.046875q-4.21875 0 -6.328125 -4.03125q-2.109375 -4.03125 -2.109375 -9.796875q0 -4.859375 1.28125 -14.078125q1.015625 -8.1875 1.015625 -10.75q0 -2.046875 -1.40625 -2.046875q-1.921875 0 -4.875 4.609375q-2.9375 4.609375 -5.6875 11.78125q-2.75 7.15625 -4.421875 14.078125q-1.40625 6.015625 -3.265625 8.125q-1.84375 2.109375 -5.8125 2.109375zm131.96643 -25.34375q1.65625 0 2.609375 1.546875q0.96875 1.53125 0.96875 4.21875q0 4.59375 -2.171875 7.921875q-3.578125 5.515625 -9.40625 8.59375q-5.828125 3.0625 -13.890625 3.0625q-12.28125 0 -19.078125 -7.359375q-6.78125 -7.359375 -6.78125 -19.90625q0 -8.828125 3.703125 -16.4375q3.71875 -7.625 10.3125 -12.09375q6.59375 -4.484375 14.921875 -4.484375q7.421875 0 11.890625 4.421875q4.484375 4.40625 4.484375 11.953125q0 8.828125 -6.34375 15.171875q-6.328125 6.328125 -21.5625 10.046875q3.078125 5.890625 10.375 5.890625q5.25 0 8.640625 -2.4375q3.390625 -2.4375 7.875 -8.1875q1.53125 -1.921875 3.453125 -1.921875zm-21.0 -22.40625q-4.734375 0 -8.0 5.515625q-3.25 5.5 -3.25 13.3125l0 0.25q7.546875 -1.796875 11.890625 -5.375q4.359375 -3.578125 4.359375 -8.328125q0 -2.421875 -1.34375 -3.890625q-1.34375 -1.484375 -3.65625 -1.484375z" fill-rule="nonzero"/></g></svg>