<svg version="1.1" viewBox="0.0 0.0 958.5170603674541 626.5511811023622" fill="none" stroke="none" stroke-linecap="square" stroke-miterlimit="10" xmlns:xlink="http://www.w3.org/1999/xlink" xmlns="http://www.w3.org/2000/svg"><clipPath id="p.0"><path d="m0 0l958.5171 0l0 626.5512l-958.5171 0l0 -626.5512z" clip-rule="nonzero"/></clipPath><g clip-path="url(#p.0)"><path fill="#000000" fill-opacity="0.0" d="m0 0l958.5171 0l0 626.5512l-958.5171 0z" fill-rule="evenodd"/><path fill="#b4a7d6" d="m363.038 10.724409l232.44095 0l0 103.244095l-232.44095 0z" fill-rule="evenodd"/><path fill="#000000" d="m399.10223 55.06646l0 -22.84375l4.84375 0l0 22.84375l-4.84375 0zm26.34375 0l-4.765625 0l0 -10.203125q0 -1.890625 -0.671875 -2.828125q-0.671875 -0.953125 -2.140625 -0.953125q-2.0 0 -2.890625 1.34375q-0.890625 1.328125 -0.890625 4.421875l0 8.21875l-4.765625 0l0 -17.46875l3.640625 0l0.640625 2.234375l0.265625 0q0.796875 -1.265625 2.1875 -1.90625q1.40625 -0.65625 3.1875 -0.65625q3.046875 0 4.625 1.65625q1.578125 1.640625 1.578125 4.75l0 11.390625zm4.703125 -21.984375q0 -2.328127 2.59375 -2.328127q2.59375 0 2.59375 2.328127q0 1.109375 -0.65625 1.734375q-0.640625 0.609375 -1.9375 0.609375q-2.59375 0 -2.59375 -2.34375zm4.96875 21.984375l-4.765625 0l0 -17.46875l4.765625 0l0 17.46875zm12.359375 -3.484375q1.25 0 3.0 -0.546875l0 3.546875q-1.78125 0.796875 -4.375 0.796875q-2.859375 0 -4.171875 -1.4375q-1.296875 -1.453125 -1.296875 -4.34375l0 -8.421875l-2.28125 0l0 -2.015625l2.625 -1.59375l1.375 -3.6875l3.046875 0l0 3.71875l4.890625 0l0 3.578125l-4.890625 0l0 8.421875q0 1.015625 0.5625 1.5q0.578125 0.484375 1.515625 0.484375zm6.328125 -18.5q0 -2.328127 2.59375 -2.328127q2.59375 0 2.59375 2.328127q0 1.109375 -0.65625 1.734375q-0.640625 0.609375 -1.9375 0.609375q-2.59375 0 -2.59375 -2.34375zm4.96875 21.984375l-4.765625 0l0 -17.46875l4.765625 0l0 17.46875zm16.09375 0l-0.921875 -2.375l-0.125 0q-1.203125 1.515625 -2.484375 2.109375q-1.265625 0.578125 -3.3125 0.578125q-2.515625 0 -3.96875 -1.4375q-1.4375 -1.4375 -1.4375 -4.09375q0 -2.78125 1.9375 -4.09375q1.953125 -1.328125 5.875 -1.46875l3.03125 -0.09375l0 -0.765625q0 -2.65625 -2.71875 -2.65625q-2.09375 0 -4.921875 1.265625l-1.578125 -3.21875q3.015625 -1.578125 6.6875 -1.578125q3.515625 0 5.390625 1.53125q1.875 1.53125 1.875 4.65625l0 11.640625l-3.328125 0zm-1.40625 -8.09375l-1.84375 0.0625q-2.078125 0.0625 -3.09375 0.75q-1.015625 0.6875 -1.015625 2.09375q0 2.015625 2.3125 2.015625q1.65625 0 2.640625 -0.953125q1.0 -0.953125 1.0 -2.53125l0 -1.4375zm14.40625 8.09375l-4.765625 0l0 -24.312502l4.765625 0l0 24.312502zm4.796875 -21.984375q0 -2.328127 2.59375 -2.328127q2.59375 0 2.59375 2.328127q0 1.109375 -0.65625 1.734375q-0.640625 0.609375 -1.9375 0.609375q-2.59375 0 -2.59375 -2.34375zm4.96875 21.984375l-4.765625 0l0 -17.46875l4.765625 0l0 17.46875zm17.15625 0l-13.796875 0l0 -2.8125l8.09375 -11.015625l-7.609375 0l0 -3.640625l13.03125 0l0 3.09375l-7.875 10.734375l8.15625 0l0 3.640625zm10.6875 -14.40625q-1.515625 0 -2.375 0.96875q-0.859375 0.953125 -0.984375 2.71875l6.6875 0q-0.03125 -1.765625 -0.921875 -2.71875q-0.890625 -0.96875 -2.40625 -0.96875zm0.671875 14.71875q-4.21875 0 -6.59375 -2.328125q-2.375 -2.328125 -2.375 -6.59375q0 -4.390625 2.1875 -6.78125q2.203125 -2.40625 6.078125 -2.40625q3.703125 0 5.765625 2.109375q2.0625 2.109375 2.0625 5.828125l0 2.3125l-11.265625 0q0.078125 2.03125 1.203125 3.171875q1.125 1.140625 3.15625 1.140625q1.578125 0 2.984375 -0.328125q1.40625 -0.328125 2.9375 -1.046875l0 3.6875q-1.25 0.625 -2.671875 0.921875q-1.421875 0.3125 -3.46875 0.3125zm30.40625 -0.3125l-0.921875 -2.375l-0.125 0q-1.203125 1.515625 -2.484375 2.109375q-1.265625 0.578125 -3.3125 0.578125q-2.515625 0 -3.96875 -1.4375q-1.4375 -1.4375 -1.4375 -4.09375q0 -2.78125 1.9375 -4.09375q1.953125 -1.328125 5.875 -1.46875l3.03125 -0.09375l0 -0.765625q0 -2.65625 -2.71875 -2.65625q-2.09375 0 -4.921875 1.265625l-1.578125 -3.21875q3.015625 -1.578125 6.6875 -1.578125q3.515625 0 5.390625 1.53125q1.875 1.53125 1.875 4.65625l0 11.640625l-3.328125 0zm-1.40625 -8.09375l-1.84375 0.0625q-2.078125 0.0625 -3.09375 0.75q-1.015625 0.6875 -1.015625 2.09375q0 2.015625 2.3125 2.015625q1.65625 0 2.640625 -0.953125q1.0 -0.953125 1.0 -2.53125l0 -1.4375z" fill-rule="nonzero"/><path fill="#000000" d="m447.32098 93.06646l-4.765625 0l0 -10.203125q0 -1.890625 -0.640625 -2.828125q-0.625 -0.953125 -1.984375 -0.953125q-1.828125 0 -2.65625 1.34375q-0.828125 1.34375 -0.828125 4.421875l0 8.21875l-4.765625 0l0 -17.46875l3.640625 0l0.640625 2.234375l0.265625 0q0.703125 -1.203125 2.03125 -1.875q1.328125 -0.6875 3.046875 -0.6875q3.921875 0 5.3125 2.5625l0.421875 0q0.703125 -1.21875 2.0625 -1.890625q1.375 -0.671875 3.09375 -0.671875q2.96875 0 4.484375 1.53125q1.53125 1.515625 1.53125 4.875l0 11.390625l-4.78125 0l0 -10.203125q0 -1.890625 -0.640625 -2.828125q-0.625 -0.953125 -1.984375 -0.953125q-1.75 0 -2.625 1.25q-0.859375 1.25 -0.859375 3.96875l0 8.765625zm19.578125 -8.765625q0 2.59375 0.84375 3.921875q0.859375 1.328125 2.78125 1.328125q1.90625 0 2.734375 -1.3125q0.84375 -1.328125 0.84375 -3.9375q0 -2.59375 -0.84375 -3.890625q-0.84375 -1.296875 -2.765625 -1.296875q-1.90625 0 -2.75 1.296875q-0.84375 1.28125 -0.84375 3.890625zm12.078125 0q0 4.265625 -2.25 6.671875q-2.25 2.40625 -6.265625 2.40625q-2.515625 0 -4.4375 -1.09375q-1.921875 -1.109375 -2.953125 -3.171875q-1.03125 -2.0625 -1.03125 -4.8125q0 -4.28125 2.234375 -6.65625q2.234375 -2.375 6.28125 -2.375q2.515625 0 4.4375 1.09375q1.921875 1.09375 2.953125 3.140625q1.03125 2.046875 1.03125 4.796875zm9.46875 9.078125q-3.078125 0 -4.84375 -2.390625q-1.75 -2.390625 -1.75 -6.625q0 -4.296875 1.78125 -6.6875q1.796875 -2.40625 4.9375 -2.40625q3.296875 0 5.03125 2.5625l0.15625 0q-0.359375 -1.953125 -0.359375 -3.484375l0 -5.59375l4.78125 0l0 24.3125l-3.65625 0l-0.921875 -2.265625l-0.203125 0q-1.625 2.578125 -4.953125 2.578125zm1.671875 -3.796875q1.828125 0 2.671875 -1.0625q0.859375 -1.0625 0.9375 -3.609375l0 -0.515625q0 -2.8125 -0.875 -4.03125q-0.859375 -1.21875 -2.8125 -1.21875q-1.59375 0 -2.484375 1.359375q-0.875 1.34375 -0.875 3.921875q0 2.578125 0.890625 3.875q0.890625 1.28125 2.546875 1.28125zm20.28125 -10.921875q-1.515625 0 -2.375 0.96875q-0.859375 0.953125 -0.984375 2.71875l6.6875 0q-0.03125 -1.765625 -0.921875 -2.71875q-0.890625 -0.96875 -2.40625 -0.96875zm0.671875 14.71875q-4.21875 0 -6.59375 -2.328125q-2.375 -2.328125 -2.375 -6.59375q0 -4.390625 2.1875 -6.78125q2.203125 -2.40625 6.078125 -2.40625q3.703125 0 5.765625 2.109375q2.0625 2.109375 2.0625 5.828125l0 2.3125l-11.265625 0q0.078125 2.03125 1.203125 3.171875q1.125 1.140625 3.15625 1.140625q1.578125 0 2.984375 -0.328125q1.40625 -0.328125 2.9375 -1.046875l0 3.6875q-1.25 0.625 -2.671875 0.921875q-1.421875 0.3125 -3.46875 0.3125zm15.765625 -0.3125l-4.765625 0l0 -24.3125l4.765625 0l0 24.3125z" fill-rule="nonzero"/><path fill="#fce5cd" d="m363.77954 187.06299l232.44092 0l0 103.24411l-232.44092 0z" fill-rule="evenodd"/><path fill="#000000" d="m434.60156 231.40504l-5.5 -17.921875l-0.140625 0q0.296875 5.46875 0.296875 7.296875l0 10.625l-4.328125 0l0 -22.84375l6.59375 0l5.40625 17.46875l0.09375 0l5.734375 -17.46875l6.59375 0l0 22.84375l-4.515625 0l0 -10.8125q0 -0.765625 0.015625 -1.765625q0.03125 -1.0 0.21875 -5.3125l-0.140625 0l-5.890625 17.890625l-4.4375 0zm31.21875 0l-0.921875 -2.375l-0.125 0q-1.203125 1.515625 -2.484375 2.109375q-1.265625 0.578125 -3.3125 0.578125q-2.515625 0 -3.96875 -1.4375q-1.4375 -1.4375 -1.4375 -4.09375q0 -2.78125 1.9375 -4.09375q1.953125 -1.328125 5.875 -1.46875l3.03125 -0.09375l0 -0.765625q0 -2.65625 -2.71875 -2.65625q-2.09375 0 -4.921875 1.265625l-1.578125 -3.21875q3.015625 -1.578125 6.6875 -1.578125q3.515625 0 5.390625 1.53125q1.875 1.53125 1.875 4.65625l0 11.640625l-3.328125 0zm-1.40625 -8.09375l-1.84375 0.0625q-2.078125 0.0625 -3.09375 0.75q-1.015625 0.6875 -1.015625 2.09375q0 2.015625 2.3125 2.015625q1.65625 0 2.640625 -0.953125q1.0 -0.953125 1.0 -2.53125l0 -1.4375zm14.21875 -1.40625l2.078125 -2.65625l4.890625 -5.3125l5.375 0l-6.9375 7.578125l7.359375 9.890625l-5.5 0l-5.03125 -7.078125l-2.046875 1.640625l0 5.4375l-4.765625 0l0 -24.3125l4.765625 0l0 10.84375l-0.25 3.96875l0.0625 0zm22.5 -4.90625q-1.515625 0 -2.375 0.96875q-0.859375 0.953125 -0.984375 2.71875l6.6875 0q-0.03125 -1.765625 -0.921875 -2.71875q-0.890625 -0.96875 -2.40625 -0.96875zm0.671875 14.71875q-4.21875 0 -6.59375 -2.328125q-2.375 -2.328125 -2.375 -6.59375q0 -4.390625 2.1875 -6.78125q2.203125 -2.40625 6.078125 -2.40625q3.703125 0 5.765625 2.109375q2.0625 2.109375 2.0625 5.828125l0 2.3125l-11.265625 0q0.078125 2.03125 1.203125 3.171875q1.125 1.140625 3.15625 1.140625q1.578125 0 2.984375 -0.328125q1.40625 -0.328125 2.9375 -1.046875l0 3.6875q-1.25 0.625 -2.671875 0.921875q-1.421875 0.3125 -3.46875 0.3125zm30.40625 -0.3125l-0.921875 -2.375l-0.125 0q-1.203125 1.515625 -2.484375 2.109375q-1.265625 0.578125 -3.3125 0.578125q-2.515625 0 -3.96875 -1.4375q-1.4375 -1.4375 -1.4375 -4.09375q0 -2.78125 1.9375 -4.09375q1.953125 -1.328125 5.875 -1.46875l3.03125 -0.09375l0 -0.765625q0 -2.65625 -2.71875 -2.65625q-2.09375 0 -4.921875 1.265625l-1.578125 -3.21875q3.015625 -1.578125 6.6875 -1.578125q3.515625 0 5.390625 1.53125q1.875 1.53125 1.875 4.65625l0 11.640625l-3.328125 0zm-1.40625 -8.09375l-1.84375 0.0625q-2.078125 0.0625 -3.09375 0.75q-1.015625 0.6875 -1.015625 2.09375q0 2.015625 2.3125 2.015625q1.65625 0 2.640625 -0.953125q1.0 -0.953125 1.0 -2.53125l0 -1.4375z" fill-rule="nonzero"/><path fill="#000000" d="m409.76562 269.71753q-3.078125 0 -4.828125 -2.234375l-0.25 0q0.25 2.1875 0.25 2.53125l0 7.078125l-4.765625 0l0 -25.156235l3.875 0l0.671875 2.265625l0.21875 0q1.671875 -2.59375 4.953125 -2.59375q3.09375 0 4.84375 2.390625q1.75 2.3906097 1.75 6.6406097q0 2.796875 -0.828125 4.859375q-0.8125 2.0625 -2.328125 3.140625q-1.515625 1.078125 -3.5625 1.078125zm-1.40625 -14.29686q-1.765625 0 -2.578125 1.0937347q-0.8125 1.078125 -0.84375 3.578125l0 0.515625q0 2.8125 0.828125 4.03125q0.84375 1.21875 2.65625 1.21875q3.203125 0 3.203125 -5.28125q0 -2.578125 -0.796875 -3.859375q-0.78125 -1.2968597 -2.46875 -1.2968597zm21.8125 -3.8125q0.96875 0 1.609375 0.140625l-0.359375 4.4687347q-0.578125 -0.15625 -1.40625 -0.15625q-2.28125 0 -3.5625 1.171875q-1.265625 1.171875 -1.265625 3.28125l0 8.890625l-4.765625 0l0 -17.468735l3.609375 0l0.703125 2.9375l0.234375 0q0.8125 -1.46875 2.1875 -2.359375q1.390625 -0.90625 3.015625 -0.90625zm12.015625 3.390625q-1.515625 0 -2.375 0.96875q-0.859375 0.95310974 -0.984375 2.7187347l6.6875 0q-0.03125 -1.765625 -0.921875 -2.7187347q-0.890625 -0.96875 -2.40625 -0.96875zm0.671875 14.718735q-4.21875 0 -6.59375 -2.328125q-2.375 -2.328125 -2.375 -6.59375q0 -4.390625 2.1875 -6.7812347q2.203125 -2.40625 6.078125 -2.40625q3.703125 0 5.765625 2.109375q2.0625 2.109375 2.0625 5.8281097l0 2.3125l-11.265625 0q0.078125 2.03125 1.203125 3.171875q1.125 1.140625 3.15625 1.140625q1.578125 0 2.984375 -0.328125q1.40625 -0.328125 2.9375 -1.046875l0 3.6875q-1.25 0.625 -2.671875 0.921875q-1.421875 0.3125 -3.46875 0.3125zm16.53125 0q-3.078125 0 -4.84375 -2.390625q-1.75 -2.390625 -1.75 -6.625q0 -4.296875 1.78125 -6.6874847q1.796875 -2.40625 4.9375 -2.40625q3.296875 0 5.03125 2.5625l0.15625 0q-0.359375 -1.953125 -0.359375 -3.484375l0 -5.59375l4.78125 0l0 24.312485l-3.65625 0l-0.921875 -2.265625l-0.203125 0q-1.625 2.578125 -4.953125 2.578125zm1.671875 -3.796875q1.828125 0 2.671875 -1.0625q0.859375 -1.0625 0.9375 -3.609375l0 -0.515625q0 -2.8125 -0.875 -4.03125q-0.859375 -1.2187347 -2.8125 -1.2187347q-1.59375 0 -2.484375 1.3593597q-0.875 1.34375 -0.875 3.921875q0 2.578125 0.890625 3.875q0.890625 1.28125 2.546875 1.28125zm12.84375 -18.499985q0 -2.328125 2.59375 -2.328125q2.59375 0 2.59375 2.328125q0 1.109375 -0.65625 1.734375q-0.640625 0.609375 -1.9375 0.609375q-2.59375 0 -2.59375 -2.34375zm4.96875 21.98436l-4.765625 0l0 -17.468735l4.765625 0l0 17.468735zm12.09375 0.3125q-8.15625 0 -8.15625 -8.953125q0 -4.453125 2.21875 -6.7968597q2.21875 -2.359375 6.359375 -2.359375q3.03125 0 5.4375 1.1875l-1.40625 3.6874847q-1.125 -0.453125 -2.09375 -0.73435974q-0.96875 -0.296875 -1.9375 -0.296875q-3.71875 0 -3.71875 5.2812347q0 5.125 3.71875 5.125q1.375 0 2.546875 -0.359375q1.171875 -0.375 2.34375 -1.15625l0 4.078125q-1.15625 0.734375 -2.34375 1.015625q-1.171875 0.28125 -2.96875 0.28125zm16.71875 -3.796875q1.25 0 3.0 -0.546875l0 3.546875q-1.78125 0.796875 -4.375 0.796875q-2.859375 0 -4.171875 -1.4375q-1.296875 -1.453125 -1.296875 -4.34375l0 -8.42186l-2.28125 0l0 -2.015625l2.625 -1.59375l1.375 -3.6875l3.046875 0l0 3.71875l4.890625 0l0 3.578125l-4.890625 0l0 8.42186q0 1.015625 0.5625 1.5q0.578125 0.484375 1.515625 0.484375zm6.328125 -18.499985q0 -2.328125 2.59375 -2.328125q2.59375 0 2.59375 2.328125q0 1.109375 -0.65625 1.734375q-0.640625 0.609375 -1.9375 0.609375q-2.59375 0 -2.59375 -2.34375zm4.96875 21.98436l-4.765625 0l0 -17.468735l4.765625 0l0 17.468735zm8.796875 -8.765625q0 2.59375 0.84375 3.921875q0.859375 1.328125 2.78125 1.328125q1.90625 0 2.734375 -1.3125q0.84375 -1.328125 0.84375 -3.9375q0 -2.59375 -0.84375 -3.890625q-0.84375 -1.2968597 -2.765625 -1.2968597q-1.90625 0 -2.75 1.2968597q-0.84375 1.28125 -0.84375 3.890625zm12.078125 0q0 4.265625 -2.25 6.671875q-2.25 2.40625 -6.265625 2.40625q-2.515625 0 -4.4375 -1.09375q-1.921875 -1.109375 -2.953125 -3.171875q-1.03125 -2.0625 -1.03125 -4.8125q0 -4.28125 2.234375 -6.6562347q2.234375 -2.375 6.28125 -2.375q2.515625 0 4.4375 1.09375q1.921875 1.09375 2.953125 3.140625q1.03125 2.0468597 1.03125 4.7968597zm20.0625 8.765625l-4.765625 0l0 -10.203125q0 -1.890625 -0.671875 -2.828125q-0.671875 -0.95310974 -2.140625 -0.95310974q-2.0 0 -2.890625 1.3437347q-0.890625 1.328125 -0.890625 4.421875l0 8.21875l-4.765625 0l0 -17.468735l3.640625 0l0.640625 2.234375l0.265625 0q0.796875 -1.265625 2.1875 -1.90625q1.40625 -0.65625 3.1875 -0.65625q3.046875 0 4.625 1.65625q1.578125 1.640625 1.578125 4.7499847l0 11.390625z" fill-rule="nonzero"/><path fill="#f4cccc" d="m643.48816 340.38583l232.44098 0l0 103.24408l-232.44098 0z" fill-rule="evenodd"/><path fill="#000000" d="m690.1149 373.27475q0 5.671875 -2.8125 8.71875q-2.8125 3.046875 -8.0625 3.046875q-5.25 0 -8.0625 -3.046875q-2.8125 -3.046875 -2.8125 -8.75q0 -5.703125 2.8125 -8.703125q2.828125 -3.015625 8.09375 -3.015625q5.265625 0 8.046875 3.03125q2.796875 3.03125 2.796875 8.71875zm-16.671875 0q0 3.828125 1.453125 5.765625q1.453125 1.9375 4.34375 1.9375q5.796875 0 5.796875 -7.703125q0 -7.71875 -5.765625 -7.71875q-2.890625 0 -4.359375 1.953125q-1.46875 1.9375 -1.46875 5.765625zm30.75 -6.34375q3.09375 0 4.84375 2.421875q1.75 2.40625 1.75 6.609375q0 4.328125 -1.8125 6.703125q-1.796875 2.375 -4.90625 2.375q-3.078125 0 -4.828125 -2.234375l-0.328125 0l-0.796875 1.921875l-3.640625 0l0 -24.3125l4.765625 0l0 5.65625q0 1.078125 -0.1875 3.453125l0.1875 0q1.671875 -2.59375 4.953125 -2.59375zm-1.53125 3.8125q-1.765625 0 -2.578125 1.09375q-0.8125 1.078125 -0.84375 3.578125l0 0.515625q0 2.8125 0.828125 4.03125q0.84375 1.21875 2.65625 1.21875q1.46875 0 2.328125 -1.34375q0.875 -1.359375 0.875 -3.9375q0 -2.578125 -0.875 -3.859375q-0.875 -1.296875 -2.390625 -1.296875zm19.421875 10.5q1.25 0 3.0 -0.546875l0 3.546875q-1.78125 0.796875 -4.375 0.796875q-2.859375 0 -4.171875 -1.4375q-1.296875 -1.453125 -1.296875 -4.34375l0 -8.421875l-2.28125 0l0 -2.015625l2.625 -1.59375l1.375 -3.6875l3.046875 0l0 3.71875l4.890625 0l0 3.578125l-4.890625 0l0 8.421875q0 1.015625 0.5625 1.5q0.578125 0.484375 1.515625 0.484375zm17.625 3.484375l-0.921875 -2.375l-0.125 0q-1.203125 1.515625 -2.484375 2.109375q-1.265625 0.578125 -3.3125 0.578125q-2.515625 0 -3.96875 -1.4375q-1.4375 -1.4375 -1.4375 -4.09375q0 -2.78125 1.9375 -4.09375q1.953125 -1.328125 5.875 -1.46875l3.03125 -0.09375l0 -0.765625q0 -2.65625 -2.71875 -2.65625q-2.09375 0 -4.921875 1.265625l-1.578125 -3.21875q3.015625 -1.578125 6.6875 -1.578125q3.515625 0 5.390625 1.53125q1.875 1.53125 1.875 4.65625l0 11.640625l-3.328125 0zm-1.40625 -8.09375l-1.84375 0.0625q-2.078125 0.0625 -3.09375 0.75q-1.015625 0.6875 -1.015625 2.09375q0 2.015625 2.3125 2.015625q1.65625 0 2.640625 -0.953125q1.0 -0.953125 1.0 -2.53125l0 -1.4375zm9.4375 -13.890625q0 -2.328125 2.59375 -2.328125q2.59375 0 2.59375 2.328125q0 1.109375 -0.65625 1.734375q-0.640625 0.609375 -1.9375 0.609375q-2.59375 0 -2.59375 -2.34375zm4.96875 21.984375l-4.765625 0l0 -17.46875l4.765625 0l0 17.46875zm21.125 0l-4.765625 0l0 -10.203125q0 -1.890625 -0.671875 -2.828125q-0.671875 -0.953125 -2.140625 -0.953125q-2.0 0 -2.890625 1.34375q-0.890625 1.328125 -0.890625 4.421875l0 8.21875l-4.765625 0l0 -17.46875l3.640625 0l0.640625 2.234375l0.265625 0q0.796875 -1.265625 2.1875 -1.90625q1.40625 -0.65625 3.1875 -0.65625q3.046875 0 4.625 1.65625q1.578125 1.640625 1.578125 4.75l0 11.390625zm20.578125 -3.484375q1.25 0 3.0 -0.546875l0 3.546875q-1.78125 0.796875 -4.375 0.796875q-2.859375 0 -4.171875 -1.4375q-1.296875 -1.453125 -1.296875 -4.34375l0 -8.421875l-2.28125 0l0 -2.015625l2.625 -1.59375l1.375 -3.6875l3.046875 0l0 3.71875l4.890625 0l0 3.578125l-4.890625 0l0 8.421875q0 1.015625 0.5625 1.5q0.578125 0.484375 1.515625 0.484375zm16.28125 -14.3125q0.96875 0 1.609375 0.140625l-0.359375 4.46875q-0.578125 -0.15625 -1.40625 -0.15625q-2.28125 0 -3.5625 1.171875q-1.265625 1.171875 -1.265625 3.28125l0 8.890625l-4.765625 0l0 -17.46875l3.609375 0l0.703125 2.9375l0.234375 0q0.8125 -1.46875 2.1875 -2.359375q1.390625 -0.90625 3.015625 -0.90625zm17.15625 17.796875l-0.640625 -2.234375l-0.25 0q-0.765625 1.21875 -2.171875 1.890625q-1.40625 0.65625 -3.203125 0.65625q-3.078125 0 -4.640625 -1.640625q-1.5625 -1.65625 -1.5625 -4.75l0 -11.390625l4.765625 0l0 10.203125q0 1.890625 0.671875 2.84375q0.671875 0.9375 2.140625 0.9375q2.0 0 2.890625 -1.328125q0.890625 -1.34375 0.890625 -4.4375l0 -8.21875l4.765625 0l0 17.46875l-3.65625 0zm15.890625 -14.40625q-1.515625 0 -2.375 0.96875q-0.859375 0.953125 -0.984375 2.71875l6.6875 0q-0.03125 -1.765625 -0.921875 -2.71875q-0.890625 -0.96875 -2.40625 -0.96875zm0.671875 14.71875q-4.21875 0 -6.59375 -2.328125q-2.375 -2.328125 -2.375 -6.59375q0 -4.390625 2.1875 -6.78125q2.203125 -2.40625 6.078125 -2.40625q3.703125 0 5.765625 2.109375q2.0625 2.109375 2.0625 5.828125l0 2.3125l-11.265625 0q0.078125 2.03125 1.203125 3.171875q1.125 1.140625 3.15625 1.140625q1.578125 0 2.984375 -0.328125q1.40625 -0.328125 2.9375 -1.046875l0 3.6875q-1.25 0.625 -2.671875 0.921875q-1.421875 0.3125 -3.46875 0.3125z" fill-rule="nonzero"/><path fill="#000000" d="m695.3415 413.96225q0 2.59375 0.84375 3.921875q0.859375 1.328125 2.78125 1.328125q1.90625 0 2.734375 -1.3125q0.84375 -1.328125 0.84375 -3.9375q0 -2.59375 -0.84375 -3.890625q-0.84375 -1.296875 -2.765625 -1.296875q-1.90625 0 -2.75 1.296875q-0.84375 1.28125 -0.84375 3.890625zm12.078125 0q0 4.265625 -2.25 6.671875q-2.25 2.40625 -6.265625 2.40625q-2.515625 0 -4.4375 -1.09375q-1.921875 -1.109375 -2.953125 -3.171875q-1.03125 -2.0625 -1.03125 -4.8125q0 -4.28125 2.234375 -6.65625q2.234375 -2.375 6.28125 -2.375q2.515625 0 4.4375 1.09375q1.921875 1.09375 2.953125 3.140625q1.03125 2.046875 1.03125 4.796875zm16.3125 8.765625l-0.640625 -2.234375l-0.25 0q-0.765625 1.21875 -2.171875 1.890625q-1.40625 0.65625 -3.203125 0.65625q-3.078125 0 -4.640625 -1.640625q-1.5625 -1.65625 -1.5625 -4.75l0 -11.390625l4.765625 0l0 10.203125q0 1.890625 0.671875 2.84375q0.671875 0.9375 2.140625 0.9375q2.0 0 2.890625 -1.328125q0.890625 -1.34375 0.890625 -4.4375l0 -8.21875l4.765625 0l0 17.46875l-3.65625 0zm16.015625 -3.484375q1.25 0 3.0 -0.546875l0 3.546875q-1.78125 0.796875 -4.375 0.796875q-2.859375 0 -4.171875 -1.4375q-1.296875 -1.453125 -1.296875 -4.34375l0 -8.421875l-2.28125 0l0 -2.015625l2.625 -1.59375l1.375 -3.6875l3.046875 0l0 3.71875l4.890625 0l0 3.578125l-4.890625 0l0 8.421875q0 1.015625 0.5625 1.5q0.578125 0.484375 1.515625 0.484375zm13.625 3.796875q-8.15625 0 -8.15625 -8.953125q0 -4.453125 2.21875 -6.796875q2.21875 -2.359375 6.359375 -2.359375q3.03125 0 5.4375 1.1875l-1.40625 3.6875q-1.125 -0.453125 -2.09375 -0.734375q-0.96875 -0.296875 -1.9375 -0.296875q-3.71875 0 -3.71875 5.28125q0 5.125 3.71875 5.125q1.375 0 2.546875 -0.359375q1.171875 -0.375 2.34375 -1.15625l0 4.078125q-1.15625 0.734375 -2.34375 1.015625q-1.171875 0.28125 -2.96875 0.28125zm13.15625 -9.078125q0 2.59375 0.84375 3.921875q0.859375 1.328125 2.78125 1.328125q1.90625 0 2.734375 -1.3125q0.84375 -1.328125 0.84375 -3.9375q0 -2.59375 -0.84375 -3.890625q-0.84375 -1.296875 -2.765625 -1.296875q-1.90625 0 -2.75 1.296875q-0.84375 1.28125 -0.84375 3.890625zm12.078125 0q0 4.265625 -2.25 6.671875q-2.25 2.40625 -6.265625 2.40625q-2.515625 0 -4.4375 -1.09375q-1.921875 -1.109375 -2.953125 -3.171875q-1.03125 -2.0625 -1.03125 -4.8125q0 -4.28125 2.234375 -6.65625q2.234375 -2.375 6.28125 -2.375q2.515625 0 4.4375 1.09375q1.921875 1.09375 2.953125 3.140625q1.03125 2.046875 1.03125 4.796875zm19.578125 8.765625l-4.765625 0l0 -10.203125q0 -1.890625 -0.640625 -2.828125q-0.625 -0.953125 -1.984375 -0.953125q-1.828125 0 -2.65625 1.34375q-0.828125 1.34375 -0.828125 4.421875l0 8.21875l-4.765625 0l0 -17.46875l3.640625 0l0.640625 2.234375l0.265625 0q0.703125 -1.203125 2.03125 -1.875q1.328125 -0.6875 3.046875 -0.6875q3.921875 0 5.3125 2.5625l0.421875 0q0.703125 -1.21875 2.0625 -1.890625q1.375 -0.671875 3.09375 -0.671875q2.96875 0 4.484375 1.53125q1.53125 1.515625 1.53125 4.875l0 11.390625l-4.78125 0l0 -10.203125q0 -1.890625 -0.640625 -2.828125q-0.625 -0.953125 -1.984375 -0.953125q-1.75 0 -2.625 1.25q-0.859375 1.25 -0.859375 3.96875l0 8.765625zm23.015625 -14.40625q-1.515625 0 -2.375 0.96875q-0.859375 0.953125 -0.984375 2.71875l6.6875 0q-0.03125 -1.765625 -0.921875 -2.71875q-0.890625 -0.96875 -2.40625 -0.96875zm0.671875 14.71875q-4.21875 0 -6.59375 -2.328125q-2.375 -2.328125 -2.375 -6.59375q0 -4.390625 2.1875 -6.78125q2.203125 -2.40625 6.078125 -2.40625q3.703125 0 5.765625 2.109375q2.0625 2.109375 2.0625 5.828125l0 2.3125l-11.265625 0q0.078125 2.03125 1.203125 3.171875q1.125 1.140625 3.15625 1.140625q1.578125 0 2.984375 -0.328125q1.40625 -0.328125 2.9375 -1.046875l0 3.6875q-1.25 0.625 -2.671875 0.921875q-1.421875 0.3125 -3.46875 0.3125z" fill-rule="nonzero"/><path fill="#e6b8af" d="m363.03806 481.84778l232.44095 0l0 103.24408l-232.44095 0z" fill-rule="evenodd"/><path fill="#000000" d="m442.32104 503.34607l0 14.78125q0 2.53125 -1.140625 4.4375q-1.125 1.90625 -3.265625 2.921875q-2.140625 1.015625 -5.0625 1.015625q-4.40625 0 -6.84375 -2.25q-2.4375 -2.265625 -2.4375 -6.1875l0 -14.71875l4.828125 0l0 13.984375q0 2.640625 1.0625 3.875q1.0625 1.234375 3.515625 1.234375q2.375 0 3.4375 -1.234375q1.078125 -1.25 1.078125 -3.90625l0 -13.953125l4.828125 0zm14.8125 23.15625q-3.078125 0 -4.828125 -2.234375l-0.25 0q0.25 2.1875 0.25 2.53125l0 7.078125l-4.765625 0l0 -25.15625l3.875 0l0.671875 2.265625l0.21875 0q1.671875 -2.59375 4.953125 -2.59375q3.09375 0 4.84375 2.390625q1.75 2.390625 1.75 6.640625q0 2.796875 -0.828125 4.859375q-0.8125 2.0625 -2.328125 3.140625q-1.515625 1.078125 -3.5625 1.078125zm-1.40625 -14.296875q-1.765625 0 -2.578125 1.09375q-0.8125 1.078125 -0.84375 3.578125l0 0.515625q0 2.8125 0.828125 4.03125q0.84375 1.21875 2.65625 1.21875q3.203125 0 3.203125 -5.28125q0 -2.578125 -0.796875 -3.859375q-0.78125 -1.296875 -2.46875 -1.296875zm17.59375 14.296875q-3.078125 0 -4.84375 -2.390625q-1.75 -2.390625 -1.75 -6.625q0 -4.296875 1.78125 -6.6875q1.796875 -2.40625 4.9375 -2.40625q3.296875 0 5.03125 2.5625l0.15625 0q-0.359375 -1.953125 -0.359375 -3.484375l0 -5.59375l4.78125 0l0 24.3125l-3.65625 0l-0.921875 -2.265625l-0.203125 0q-1.625 2.578125 -4.953125 2.578125zm1.671875 -3.796875q1.828125 0 2.671875 -1.0625q0.859375 -1.0625 0.9375 -3.609375l0 -0.515625q0 -2.8125 -0.875 -4.03125q-0.859375 -1.21875 -2.8125 -1.21875q-1.59375 0 -2.484375 1.359375q-0.875 1.34375 -0.875 3.921875q0 2.578125 0.890625 3.875q0.890625 1.28125 2.546875 1.28125zm24.140625 3.484375l-0.921875 -2.375l-0.125 0q-1.203125 1.515625 -2.484375 2.109375q-1.265625 0.578125 -3.3125 0.578125q-2.515625 0 -3.96875 -1.4375q-1.4375 -1.4375 -1.4375 -4.09375q0 -2.78125 1.9375 -4.09375q1.953125 -1.328125 5.875 -1.46875l3.03125 -0.09375l0 -0.765625q0 -2.65625 -2.71875 -2.65625q-2.09375 0 -4.921875 1.265625l-1.578125 -3.21875q3.015625 -1.578125 6.6875 -1.578125q3.515625 0 5.390625 1.53125q1.875 1.53125 1.875 4.65625l0 11.640625l-3.328125 0zm-1.40625 -8.09375l-1.84375 0.0625q-2.078125 0.0625 -3.09375 0.75q-1.015625 0.6875 -1.015625 2.09375q0 2.015625 2.3125 2.015625q1.65625 0 2.640625 -0.953125q1.0 -0.953125 1.0 -2.53125l0 -1.4375zm17.0 4.609375q1.25 0 3.0 -0.546875l0 3.546875q-1.78125 0.796875 -4.375 0.796875q-2.859375 0 -4.171875 -1.4375q-1.296875 -1.453125 -1.296875 -4.34375l0 -8.421875l-2.28125 0l0 -2.015625l2.625 -1.59375l1.375 -3.6875l3.046875 0l0 3.71875l4.890625 0l0 3.578125l-4.890625 0l0 8.421875q0 1.015625 0.5625 1.5q0.578125 0.484375 1.515625 0.484375zm13.765625 -10.921875q-1.515625 0 -2.375 0.96875q-0.859375 0.953125 -0.984375 2.71875l6.6875 0q-0.03125 -1.765625 -0.921875 -2.71875q-0.890625 -0.96875 -2.40625 -0.96875zm0.671875 14.71875q-4.21875 0 -6.59375 -2.328125q-2.375 -2.328125 -2.375 -6.59375q0 -4.390625 2.1875 -6.78125q2.203125 -2.40625 6.078125 -2.40625q3.703125 0 5.765625 2.109375q2.0625 2.109375 2.0625 5.828125l0 2.3125l-11.265625 0q0.078125 2.03125 1.203125 3.171875q1.125 1.140625 3.15625 1.140625q1.578125 0 2.984375 -0.328125q1.40625 -0.328125 2.9375 -1.046875l0 3.6875q-1.25 0.625 -2.671875 0.921875q-1.421875 0.3125 -3.46875 0.3125z" fill-rule="nonzero"/><path fill="#000000" d="m447.32104 564.1898l-4.765625 0l0 -10.203125q0 -1.890625 -0.640625 -2.828125q-0.625 -0.953125 -1.984375 -0.953125q-1.828125 0 -2.65625 1.34375q-0.828125 1.34375 -0.828125 4.421875l0 8.21875l-4.765625 0l0 -17.46875l3.640625 0l0.640625 2.234375l0.265625 0q0.703125 -1.203125 2.03125 -1.875q1.328125 -0.6875 3.046875 -0.6875q3.921875 0 5.3125 2.5625l0.421875 0q0.703125 -1.21875 2.0625 -1.890625q1.375 -0.671875 3.09375 -0.671875q2.96875 0 4.484375 1.53125q1.53125 1.515625 1.53125 4.875l0 11.390625l-4.78125 0l0 -10.203125q0 -1.890625 -0.640625 -2.828125q-0.625 -0.953125 -1.984375 -0.953125q-1.75 0 -2.625 1.25q-0.859375 1.25 -0.859375 3.96875l0 8.765625zm19.578125 -8.765625q0 2.59375 0.84375 3.921875q0.859375 1.328125 2.78125 1.328125q1.90625 0 2.734375 -1.3125q0.84375 -1.328125 0.84375 -3.9375q0 -2.59375 -0.84375 -3.890625q-0.84375 -1.296875 -2.765625 -1.296875q-1.90625 0 -2.75 1.296875q-0.84375 1.28125 -0.84375 3.890625zm12.078125 0q0 4.265625 -2.25 6.671875q-2.25 2.40625 -6.265625 2.40625q-2.515625 0 -4.4375 -1.09375q-1.921875 -1.109375 -2.953125 -3.171875q-1.03125 -2.0625 -1.03125 -4.8125q0 -4.28125 2.234375 -6.65625q2.234375 -2.375 6.28125 -2.375q2.515625 0 4.4375 1.09375q1.921875 1.09375 2.953125 3.140625q1.03125 2.046875 1.03125 4.796875zm9.46875 9.078125q-3.078125 0 -4.84375 -2.390625q-1.75 -2.390625 -1.75 -6.625q0 -4.296875 1.78125 -6.6875q1.796875 -2.40625 4.9375 -2.40625q3.296875 0 5.03125 2.5625l0.15625 0q-0.359375 -1.953125 -0.359375 -3.484375l0 -5.59375l4.78125 0l0 24.3125l-3.65625 0l-0.921875 -2.265625l-0.203125 0q-1.625 2.578125 -4.953125 2.578125zm1.671875 -3.796875q1.828125 0 2.671875 -1.0625q0.859375 -1.0625 0.9375 -3.609375l0 -0.515625q0 -2.8125 -0.875 -4.03125q-0.859375 -1.21875 -2.8125 -1.21875q-1.59375 0 -2.484375 1.359375q-0.875 1.34375 -0.875 3.921875q0 2.578125 0.890625 3.875q0.890625 1.28125 2.546875 1.28125zm20.28125 -10.921875q-1.515625 0 -2.375 0.96875q-0.859375 0.953125 -0.984375 2.71875l6.6875 0q-0.03125 -1.765625 -0.921875 -2.71875q-0.890625 -0.96875 -2.40625 -0.96875zm0.671875 14.71875q-4.21875 0 -6.59375 -2.328125q-2.375 -2.328125 -2.375 -6.59375q0 -4.390625 2.1875 -6.78125q2.203125 -2.40625 6.078125 -2.40625q3.703125 0 5.765625 2.109375q2.0625 2.109375 2.0625 5.828125l0 2.3125l-11.265625 0q0.078125 2.03125 1.203125 3.171875q1.125 1.140625 3.15625 1.140625q1.578125 0 2.984375 -0.328125q1.40625 -0.328125 2.9375 -1.046875l0 3.6875q-1.25 0.625 -2.671875 0.921875q-1.421875 0.3125 -3.46875 0.3125zm15.765625 -0.3125l-4.765625 0l0 -24.3125l4.765625 0l0 24.3125z" fill-rule="nonzero"/><path fill="#ea9999" d="m75.02362 340.38583l232.44095 0l0 103.24408l-232.44095 0z" fill-rule="evenodd"/><path fill="#000000" d="m154.3066 361.88412l0 14.78125q0 2.53125 -1.140625 4.4375q-1.125 1.90625 -3.265625 2.921875q-2.140625 1.015625 -5.0625 1.015625q-4.40625 0 -6.84375 -2.25q-2.4375 -2.265625 -2.4375 -6.1875l0 -14.71875l4.828125 0l0 13.984375q0 2.640625 1.0625 3.875q1.0625 1.234375 3.515625 1.234375q2.375 0 3.4375 -1.234375q1.078125 -1.25 1.078125 -3.90625l0 -13.953125l4.828125 0zm14.8125 23.15625q-3.078125 0 -4.828125 -2.234375l-0.25 0q0.25 2.1875 0.25 2.53125l0 7.078125l-4.765625 0l0 -25.15625l3.875 0l0.671875 2.265625l0.21875 0q1.671875 -2.59375 4.953125 -2.59375q3.09375 0 4.84375 2.390625q1.75 2.390625 1.75 6.640625q0 2.796875 -0.828125 4.859375q-0.8125 2.0625 -2.328125 3.140625q-1.515625 1.078125 -3.5625 1.078125zm-1.40625 -14.296875q-1.765625 0 -2.578125 1.09375q-0.8125 1.078125 -0.84375 3.578125l0 0.515625q0 2.8125 0.828125 4.03125q0.84375 1.21875 2.65625 1.21875q3.203125 0 3.203125 -5.28125q0 -2.578125 -0.796875 -3.859375q-0.78125 -1.296875 -2.46875 -1.296875zm17.59375 14.296875q-3.078125 0 -4.84375 -2.390625q-1.75 -2.390625 -1.75 -6.625q0 -4.296875 1.78125 -6.6875q1.796875 -2.40625 4.9375 -2.40625q3.296875 0 5.03125 2.5625l0.15625 0q-0.359375 -1.953125 -0.359375 -3.484375l0 -5.59375l4.78125 0l0 24.3125l-3.65625 0l-0.921875 -2.265625l-0.203125 0q-1.625 2.578125 -4.953125 2.578125zm1.671875 -3.796875q1.828125 0 2.671875 -1.0625q0.859375 -1.0625 0.9375 -3.609375l0 -0.515625q0 -2.8125 -0.875 -4.03125q-0.859375 -1.21875 -2.8125 -1.21875q-1.59375 0 -2.484375 1.359375q-0.875 1.34375 -0.875 3.921875q0 2.578125 0.890625 3.875q0.890625 1.28125 2.546875 1.28125zm24.140625 3.484375l-0.921875 -2.375l-0.125 0q-1.203125 1.515625 -2.484375 2.109375q-1.265625 0.578125 -3.3125 0.578125q-2.515625 0 -3.96875 -1.4375q-1.4375 -1.4375 -1.4375 -4.09375q0 -2.78125 1.9375 -4.09375q1.953125 -1.328125 5.875 -1.46875l3.03125 -0.09375l0 -0.765625q0 -2.65625 -2.71875 -2.65625q-2.09375 0 -4.921875 1.265625l-1.578125 -3.21875q3.015625 -1.578125 6.6875 -1.578125q3.515625 0 5.390625 1.53125q1.875 1.53125 1.875 4.65625l0 11.640625l-3.328125 0zm-1.40625 -8.09375l-1.84375 0.0625q-2.078125 0.0625 -3.09375 0.75q-1.015625 0.6875 -1.015625 2.09375q0 2.015625 2.3125 2.015625q1.65625 0 2.640625 -0.953125q1.0 -0.953125 1.0 -2.53125l0 -1.4375zm17.0 4.609375q1.25 0 3.0 -0.546875l0 3.546875q-1.78125 0.796875 -4.375 0.796875q-2.859375 0 -4.171875 -1.4375q-1.296875 -1.453125 -1.296875 -4.34375l0 -8.421875l-2.28125 0l0 -2.015625l2.625 -1.59375l1.375 -3.6875l3.046875 0l0 3.71875l4.890625 0l0 3.578125l-4.890625 0l0 8.421875q0 1.015625 0.5625 1.5q0.578125 0.484375 1.515625 0.484375zm13.765625 -10.921875q-1.515625 0 -2.375 0.96875q-0.859375 0.953125 -0.984375 2.71875l6.6875 0q-0.03125 -1.765625 -0.921875 -2.71875q-0.890625 -0.96875 -2.40625 -0.96875zm0.671875 14.71875q-4.21875 0 -6.59375 -2.328125q-2.375 -2.328125 -2.375 -6.59375q0 -4.390625 2.1875 -6.78125q2.203125 -2.40625 6.078125 -2.40625q3.703125 0 5.765625 2.109375q2.0625 2.109375 2.0625 5.828125l0 2.3125l-11.265625 0q0.078125 2.03125 1.203125 3.171875q1.125 1.140625 3.15625 1.140625q1.578125 0 2.984375 -0.328125q1.40625 -0.328125 2.9375 -1.046875l0 3.6875q-1.25 0.625 -2.671875 0.921875q-1.421875 0.3125 -3.46875 0.3125z" fill-rule="nonzero"/><path fill="#000000" d="m156.90034 422.72787l-4.765625 0l0 -10.203125q0 -1.890625 -0.640625 -2.828125q-0.625 -0.953125 -1.984375 -0.953125q-1.828125 0 -2.65625 1.34375q-0.828125 1.34375 -0.828125 4.421875l0 8.21875l-4.765625 0l0 -17.46875l3.640625 0l0.640625 2.234375l0.265625 0q0.703125 -1.203125 2.03125 -1.875q1.328125 -0.6875 3.046875 -0.6875q3.921875 0 5.3125 2.5625l0.421875 0q0.703125 -1.21875 2.0625 -1.890625q1.375 -0.671875 3.09375 -0.671875q2.96875 0 4.484375 1.53125q1.53125 1.515625 1.53125 4.875l0 11.390625l-4.78125 0l0 -10.203125q0 -1.890625 -0.640625 -2.828125q-0.625 -0.953125 -1.984375 -0.953125q-1.75 0 -2.625 1.25q-0.859375 1.25 -0.859375 3.96875l0 8.765625zm23.015625 -14.40625q-1.515625 0 -2.375 0.96875q-0.859375 0.953125 -0.984375 2.71875l6.6875 0q-0.03125 -1.765625 -0.921875 -2.71875q-0.890625 -0.96875 -2.40625 -0.96875zm0.671875 14.71875q-4.21875 0 -6.59375 -2.328125q-2.375 -2.328125 -2.375 -6.59375q0 -4.390625 2.1875 -6.78125q2.203125 -2.40625 6.078125 -2.40625q3.703125 0 5.765625 2.109375q2.0625 2.109375 2.0625 5.828125l0 2.3125l-11.265625 0q0.078125 2.03125 1.203125 3.171875q1.125 1.140625 3.15625 1.140625q1.578125 0 2.984375 -0.328125q1.40625 -0.328125 2.9375 -1.046875l0 3.6875q-1.25 0.625 -2.671875 0.921875q-1.421875 0.3125 -3.46875 0.3125zm18.359375 -3.796875q1.25 0 3.0 -0.546875l0 3.546875q-1.78125 0.796875 -4.375 0.796875q-2.859375 0 -4.171875 -1.4375q-1.296875 -1.453125 -1.296875 -4.34375l0 -8.421875l-2.28125 0l0 -2.015625l2.625 -1.59375l1.375 -3.6875l3.046875 0l0 3.71875l4.890625 0l0 3.578125l-4.890625 0l0 8.421875q0 1.015625 0.5625 1.5q0.578125 0.484375 1.515625 0.484375zm16.28125 -14.3125q0.96875 0 1.609375 0.140625l-0.359375 4.46875q-0.578125 -0.15625 -1.40625 -0.15625q-2.28125 0 -3.5625 1.171875q-1.265625 1.171875 -1.265625 3.28125l0 8.890625l-4.765625 0l0 -17.46875l3.609375 0l0.703125 2.9375l0.234375 0q0.8125 -1.46875 2.1875 -2.359375q1.390625 -0.90625 3.015625 -0.90625zm4.578125 -4.1875q0 -2.328125 2.59375 -2.328125q2.59375 0 2.59375 2.328125q0 1.109375 -0.65625 1.734375q-0.640625 0.609375 -1.9375 0.609375q-2.59375 0 -2.59375 -2.34375zm4.96875 21.984375l-4.765625 0l0 -17.46875l4.765625 0l0 17.46875zm12.09375 0.3125q-8.15625 0 -8.15625 -8.953125q0 -4.453125 2.21875 -6.796875q2.21875 -2.359375 6.359375 -2.359375q3.03125 0 5.4375 1.1875l-1.40625 3.6875q-1.125 -0.453125 -2.09375 -0.734375q-0.96875 -0.296875 -1.9375 -0.296875q-3.71875 0 -3.71875 5.28125q0 5.125 3.71875 5.125q1.375 0 2.546875 -0.359375q1.171875 -0.375 2.34375 -1.15625l0 4.078125q-1.15625 0.734375 -2.34375 1.015625q-1.171875 0.28125 -2.96875 0.28125z" fill-rule="nonzero"/><path fill="#000000" fill-opacity="0.0" d="m596.2126 238.68504c81.74805 0 163.4961 50.850388 163.4961 101.70079" fill-rule="evenodd"/><path stroke="#666666" stroke-width="4.0" stroke-linejoin="round" stroke-linecap="butt" d="m596.2126 238.68504c40.874023 0 81.74805 12.712601 112.403564 31.781479c15.327759 9.534454 28.100891 20.65799 37.042053 32.57605c2.2353516 2.9795227 4.23114 6.0086975 5.9674683 9.075104c0.86816406 1.5332031 1.6715088 3.0757446 2.4074707 4.626007l0.13604736 0.29016113" fill-rule="evenodd"/><path stroke="#666666" stroke-width="4.0" stroke-linecap="butt" d="m747.74066 318.5588l10.618286 16.137299l2.2387695 -19.187195z" fill-rule="evenodd"/><path fill="#000000" fill-opacity="0.0" d="m759.7087 443.6299c0 44.91339 -82.11023 89.82675 -164.22052 89.82675" fill-rule="evenodd"/><path stroke="#666666" stroke-width="4.0" stroke-linejoin="round" stroke-linecap="butt" d="m759.7087 443.6299c0 22.456696 -20.527588 44.91339 -51.31891 61.75592c-15.395691 8.421234 -33.3573 15.438995 -52.601868 20.351349c-9.622314 2.4562378 -19.565369 4.3861084 -29.668701 5.7019043c-1.2630005 0.16448975 -2.5283813 0.31933594 -3.7960205 0.46447754c-0.6338501 0.0725708 -1.2681885 0.1427002 -1.9030762 0.21038818l-0.96417236 0.09887695" fill-rule="evenodd"/><path stroke="#666666" stroke-width="4.0" stroke-linecap="butt" d="m619.1135 525.6148l-17.785583 7.5388184l18.470398 5.6572266z" fill-rule="evenodd"/><path fill="#000000" fill-opacity="0.0" d="m363.03806 533.4698c-85.88977 0 -171.77953 -44.91336 -171.77953 -89.82675" fill-rule="evenodd"/><path stroke="#666666" stroke-width="4.0" stroke-linejoin="round" stroke-linecap="butt" d="m363.03806 533.4698c-42.944885 0 -85.88977 -11.2283325 -118.09842 -28.070831c-16.10434 -8.421265 -29.524612 -18.246063 -38.918808 -28.772644c-2.3485413 -2.6316528 -4.44545 -5.3071594 -6.2697754 -8.015533c-0.4560852 -0.677124 -0.89512634 -1.3562622 -1.3168182 -2.037323l-0.014511108 -0.023712158" fill-rule="evenodd"/><path stroke="#666666" stroke-width="4.0" stroke-linecap="butt" d="m204.7257 464.57837l-11.722336 -15.354095l-0.8895874 19.296875z" fill-rule="evenodd"/><path fill="#000000" fill-opacity="0.0" d="m191.2441 340.38583c0 -50.850403 86.267715 -101.70079 172.53545 -101.70079" fill-rule="evenodd"/><path stroke="#666666" stroke-width="4.0" stroke-linejoin="round" stroke-linecap="butt" d="m191.2441 340.38583c0 -25.425201 21.566925 -50.850403 53.917328 -69.91931c16.175186 -9.534424 35.04625 -17.479813 55.265244 -23.041565c10.109497 -2.7808838 20.556 -4.965866 31.17096 -6.4556274c2.6537476 -0.37243652 5.3180237 -0.7014313 7.990204 -0.9854126l0.22561646 -0.023498535" fill-rule="evenodd"/><path stroke="#666666" stroke-width="4.0" stroke-linecap="butt" d="m340.16455 246.55803l17.775635 -7.5622406l-18.477844 -5.63295z" fill-rule="evenodd"/><path fill="#000000" fill-opacity="0.0" d="m479.25845 113.968506c0 18.273758 0.18899536 27.409729 0.3779602 36.54753c0.18899536 9.137787 0.3779602 18.277405 0.3779602 36.554825" fill-rule="evenodd"/><path stroke="#666666" stroke-width="4.0" stroke-linejoin="round" stroke-linecap="butt" d="m479.25845 113.968506c0 18.273758 0.18896484 27.409729 0.3779602 36.547516c0.04724121 2.2844543 0.09448242 4.5690155 0.13876343 6.9964447c0.022155762 1.2137146 0.043548584 2.46315 0.06384277 3.7661285l0.025115967 1.7927399" fill-rule="evenodd"/><path stroke="#666666" stroke-width="4.0" stroke-linecap="butt" d="m473.25732 163.11269l6.7204285 18.110687l6.493164 -18.19339z" fill-rule="evenodd"/></g></svg>