<svg version="1.1" viewBox="0.0 0.0 959.4068241469816 656.3648293963255" fill="none" stroke="none" stroke-linecap="square" stroke-miterlimit="10" xmlns:xlink="http://www.w3.org/1999/xlink" xmlns="http://www.w3.org/2000/svg"><clipPath id="p.0"><path d="m0 0l959.4068 0l0 656.3648l-959.4068 0l0 -656.3648z" clip-rule="nonzero"/></clipPath><g clip-path="url(#p.0)"><path fill="#000000" fill-opacity="0.0" d="m0 0l959.4068 0l0 656.3648l-959.4068 0z" fill-rule="evenodd"/><path fill="#cfe2f3" d="m287.13647 584.66406l141.82678 0l0 59.62201l-141.82678 0z" fill-rule="evenodd"/><path fill="#000000" d="m305.18805 611.24945q2.03125 0 3.234375 1.046875q1.203125 1.046875 1.5625 2.609375l-1.921875 0.171875q-0.3125 -1.015625 -1.015625 -1.578125q-0.6875 -0.5625 -1.53125 -0.5625q-1.53125 0 -2.484375 1.15625q-0.953125 1.140625 -0.953125 3.125q0 1.984375 0.921875 3.1875q0.921875 1.1875 2.296875 1.1875q1.390625 0 2.078125 -0.625q0.6875 -0.640625 0.6875 -1.8125l1.9375 0q0 1.84375 -1.28125 2.984375q-1.28125 1.140625 -3.34375 1.140625q-2.1875 0 -3.71875 -1.65625q-1.515625 -1.65625 -1.515625 -4.40625q0 -2.75 1.5 -4.359375q1.515625 -1.609375 3.546875 -1.609375zm16.328705 9.484375q-1.171875 2.5 -3.8125 2.5q-1.9375 0 -3.125 -1.078125q-1.1875 -1.078125 -1.1875 -3.34375l0 -7.296875l1.890625 0l0 7.15625q0 2.90625 2.6875 2.90625q1.5625 0 2.53125 -1.203125q0.96875 -1.203125 1.015625 -3.078125l0 -5.78125l1.90625 0l0 11.5l-1.90625 0l0 -2.28125zm6.153351 -6.375q0 -1.421875 1.203125 -2.265625q1.21875 -0.84375 3.28125 -0.84375q2.0625 0 3.21875 0.875q1.171875 0.859375 1.21875 2.171875l-1.84375 0q-0.21875 -1.546875 -2.640625 -1.546875q-1.171875 0 -1.8125 0.53125q-0.640625 0.515625 -0.640625 1.140625q0 0.609375 0.484375 1.03125q0.484375 0.40625 1.53125 0.71875l2.3125 0.765625q1.453125 0.46875 2.234375 1.171875q0.78125 0.703125 0.78125 1.9375q0 1.234375 -1.28125 2.234375q-1.265625 1.0 -3.546875 1.0q-2.265625 0 -3.546875 -1.015625q-1.265625 -1.03125 -1.34375 -2.640625l1.828125 0q0.046875 1.09375 0.875 1.640625q0.828125 0.53125 2.078125 0.53125q1.25 0 2.0625 -0.53125q0.8125 -0.53125 0.8125 -1.265625q0 -0.734375 -0.484375 -1.109375q-0.46875 -0.390625 -1.546875 -0.671875l-2.234375 -0.75q-3.0 -0.890625 -3.0 -3.109375zm19.217712 8.3125q-2.0625 0.96875 -3.765625 0.421875q-1.21875 -0.390625 -1.734375 -1.609375q-0.265625 -0.609375 -0.265625 -1.4375l0 -7.0625l-1.84375 0l0 -1.4375l1.84375 0l0 -3.1875l1.875 0l0 3.1875l3.609375 0l0 1.4375l-3.609375 0l0 7.03125q0 1.75 1.640625 1.75q0.890625 0 1.984375 -0.4375l0.265625 1.34375zm7.1489563 -11.421875q2.40625 0 3.875 1.5625q1.484375 1.5625 1.484375 4.46875q0 2.875 -1.484375 4.4375q-1.46875 1.5625 -3.875 1.5625q-2.390625 0 -3.875 -1.5625q-1.46875 -1.5625 -1.46875 -4.4375q0 -2.90625 1.46875 -4.46875q1.484375 -1.5625 3.875 -1.5625zm3.4375 6.015625q0 -2.046875 -0.875 -3.203125q-0.859375 -1.171875 -2.53125 -1.171875q-1.65625 0 -2.546875 1.171875q-0.890625 1.15625 -0.890625 3.203125q0 2.046875 0.84375 3.21875q0.84375 1.15625 2.5 1.15625q1.671875 0 2.578125 -1.15625q0.921875 -1.171875 0.921875 -3.21875zm7.3695984 -3.515625q1.125 -2.5 3.859375 -2.5q1.484375 0 2.484375 0.734375q1.015625 0.734375 1.484375 2.03125q1.078125 -2.765625 4.0 -2.765625q2.0625 0 3.1875 1.34375q1.140625 1.34375 1.140625 3.671875l0 6.75l-1.875 0l0 -6.75q0 -1.65625 -0.78125 -2.484375q-0.78125 -0.84375 -2.25 -0.84375q-1.453125 0 -2.265625 1.203125q-0.796875 1.1875 -0.796875 3.3125l0 5.5625l-1.875 0l0 -6.75q0 -1.65625 -0.78125 -2.484375q-0.78125 -0.84375 -2.21875 -0.84375q-1.4375 0 -2.328125 1.171875q-0.890625 1.171875 -0.9375 3.265625l0 5.640625l-1.890625 0l0 -11.46875l1.625 0l0.21875 2.203125zm24.580566 8.0q2.375 0 2.703125 -2.09375l1.953125 0q-0.265625 1.734375 -1.53125 2.6875q-1.265625 0.9375 -3.125 0.9375q-2.3125 0 -3.75 -1.640625q-1.4375 -1.65625 -1.4375 -4.390625q0 -2.734375 1.453125 -4.359375q1.453125 -1.640625 3.859375 -1.640625q2.40625 0 3.59375 1.875q1.1875 1.875 0.828125 4.5625l-7.84375 0q0 1.78125 0.859375 2.921875q0.875 1.140625 2.4375 1.140625zm1.390625 -8.6875q-0.5625 -0.296875 -1.34375 -0.296875q-1.46875 0 -2.328125 1.0q-0.84375 1.0 -0.984375 2.484375l6.109375 0q0 -2.40625 -1.453125 -3.1875zm11.68808 0.09375q-2.71875 0 -2.8125 4.265625l0 5.59375l-1.890625 0l0 -11.5l1.890625 0l0 2.21875q0.859375 -2.40625 3.046875 -2.40625q0.703125 0 1.3125 0.21875l-0.09375 1.84375q-0.71875 -0.234375 -1.453125 -0.234375zm3.862732 1.203125q0 -1.421875 1.203125 -2.265625q1.21875 -0.84375 3.28125 -0.84375q2.0625 0 3.21875 0.875q1.171875 0.859375 1.21875 2.171875l-1.84375 0q-0.21875 -1.546875 -2.640625 -1.546875q-1.171875 0 -1.8125 0.53125q-0.640625 0.515625 -0.640625 1.140625q0 0.609375 0.484375 1.03125q0.484375 0.40625 1.53125 0.71875l2.3125 0.765625q1.453125 0.46875 2.234375 1.171875q0.78125 0.703125 0.78125 1.9375q0 1.234375 -1.28125 2.234375q-1.265625 1.0 -3.546875 1.0q-2.265625 0 -3.546875 -1.015625q-1.265625 -1.03125 -1.34375 -2.640625l1.828125 0q0.046875 1.09375 0.875 1.640625q0.828125 0.53125 2.078125 0.53125q1.25 0 2.0625 -0.53125q0.8125 -0.53125 0.8125 -1.265625q0 -0.734375 -0.484375 -1.109375q-0.46875 -0.390625 -1.546875 -0.671875l-2.234375 -0.75q-3.0 -0.890625 -3.0 -3.109375z" fill-rule="nonzero"/><path fill="#cfe2f3" d="m112.45407 584.66406l122.80315 0l0 59.62201l-122.80315 0z" fill-rule="evenodd"/><path fill="#000000" d="m144.5906 611.5151l1.890625 0l0 11.5l-1.890625 0l0 -11.5zm0.9375 -2.6875q-0.578125 0 -0.90625 -0.3125q-0.328125 -0.328125 -0.328125 -0.859375q0 -0.546875 0.328125 -0.875q0.328125 -0.328125 0.90625 -0.328125q0.578125 0 0.921875 0.328125q0.34375 0.328125 0.34375 0.875q0 0.53125 -0.34375 0.859375q-0.34375 0.3125 -0.921875 0.3125zm12.11348 13.84375q-2.0625 0.96875 -3.765625 0.421875q-1.21875 -0.390625 -1.734375 -1.609375q-0.265625 -0.609375 -0.265625 -1.4375l0 -7.0625l-1.84375 0l0 -1.4375l1.84375 0l0 -3.1875l1.875 0l0 3.1875l3.609375 0l0 1.4375l-3.609375 0l0 7.03125q0 1.75 1.640625 1.75q0.890625 0 1.984375 -0.4375l0.265625 1.34375zm6.9927216 -0.921875q2.375 0 2.703125 -2.09375l1.953125 0q-0.265625 1.734375 -1.53125 2.6875q-1.265625 0.9375 -3.125 0.9375q-2.3125 0 -3.75 -1.640625q-1.4375 -1.65625 -1.4375 -4.390625q0 -2.734375 1.453125 -4.359375q1.453125 -1.640625 3.859375 -1.640625q2.40625 0 3.59375 1.875q1.1875 1.875 0.828125 4.5625l-7.84375 0q0 1.78125 0.859375 2.921875q0.875 1.140625 2.4375 1.140625zm1.390625 -8.6875q-0.5625 -0.296875 -1.34375 -0.296875q-1.46875 0 -2.328125 1.0q-0.84375 1.0 -0.984375 2.484375l6.109375 0q0 -2.40625 -1.453125 -3.1875zm8.82872 0.6875q1.125 -2.5 3.859375 -2.5q1.484375 0 2.484375 0.734375q1.015625 0.734375 1.484375 2.03125q1.078125 -2.765625 4.0 -2.765625q2.0625 0 3.1875 1.34375q1.140625 1.34375 1.140625 3.671875l0 6.75l-1.875 0l0 -6.75q0 -1.65625 -0.78125 -2.484375q-0.78125 -0.84375 -2.25 -0.84375q-1.453125 0 -2.265625 1.203125q-0.796875 1.1875 -0.796875 3.3125l0 5.5625l-1.875 0l0 -6.75q0 -1.65625 -0.78125 -2.484375q-0.78125 -0.84375 -2.21875 -0.84375q-1.4375 0 -2.328125 1.171875q-0.890625 1.171875 -0.9375 3.265625l0 5.640625l-1.890625 0l0 -11.46875l1.625 0l0.21875 2.203125zm20.018066 0.609375q0 -1.421875 1.203125 -2.265625q1.21875 -0.84375 3.28125 -0.84375q2.0625 0 3.21875 0.875q1.171875 0.859375 1.21875 2.171875l-1.84375 0q-0.21875 -1.546875 -2.640625 -1.546875q-1.171875 0 -1.8125 0.53125q-0.640625 0.515625 -0.640625 1.140625q0 0.609375 0.484375 1.03125q0.484375 0.40625 1.53125 0.71875l2.3125 0.765625q1.453125 0.46875 2.234375 1.171875q0.78125 0.703125 0.78125 1.9375q0 1.234375 -1.28125 2.234375q-1.265625 1.0 -3.546875 1.0q-2.265625 0 -3.546875 -1.015625q-1.265625 -1.03125 -1.34375 -2.640625l1.828125 0q0.046875 1.09375 0.875 1.640625q0.828125 0.53125 2.078125 0.53125q1.25 0 2.0625 -0.53125q0.8125 -0.53125 0.8125 -1.265625q0 -0.734375 -0.484375 -1.109375q-0.46875 -0.390625 -1.546875 -0.671875l-2.234375 -0.75q-3.0 -0.890625 -3.0 -3.109375z" fill-rule="nonzero"/><path fill="#cfe2f3" d="m480.84253 584.66406l122.80316 0l0 59.62201l-122.80316 0z" fill-rule="evenodd"/><path fill="#000000" d="m510.52032 614.3588q0 -1.421875 1.203125 -2.265625q1.21875 -0.84375 3.28125 -0.84375q2.0625 0 3.21875 0.875q1.171875 0.859375 1.21875 2.171875l-1.84375 0q-0.21875 -1.546875 -2.640625 -1.546875q-1.171875 0 -1.8125 0.53125q-0.640625 0.515625 -0.640625 1.140625q0 0.609375 0.484375 1.03125q0.484375 0.40625 1.53125 0.71875l2.3125 0.765625q1.453125 0.46875 2.234375 1.171875q0.78125 0.703125 0.78125 1.9375q0 1.234375 -1.28125 2.234375q-1.265625 1.0 -3.546875 1.0q-2.265625 0 -3.546875 -1.015625q-1.265625 -1.03125 -1.34375 -2.640625l1.828125 0q0.046875 1.09375 0.875 1.640625q0.828125 0.53125 2.078125 0.53125q1.25 0 2.0625 -0.53125q0.8125 -0.53125 0.8125 -1.265625q0 -0.734375 -0.484375 -1.109375q-0.46875 -0.390625 -1.546875 -0.671875l-2.234375 -0.75q-3.0 -0.890625 -3.0 -3.109375zm15.108337 -0.703125q1.15625 -2.40625 3.828125 -2.40625q2.03125 0 3.171875 1.34375q1.140625 1.34375 1.140625 3.671875l0 6.75l-1.875 0l0 -6.75q0 -1.65625 -0.78125 -2.484375q-0.765625 -0.84375 -2.234375 -0.84375q-1.46875 0 -2.359375 1.234375q-0.890625 1.234375 -0.890625 3.421875l0 5.421875l-1.890625 0l0 -16.34375l1.890625 0l0 6.984375zm16.730347 -2.40625q2.40625 0 3.875 1.5625q1.484375 1.5625 1.484375 4.46875q0 2.875 -1.484375 4.4375q-1.46875 1.5625 -3.875 1.5625q-2.390625 0 -3.875 -1.5625q-1.46875 -1.5625 -1.46875 -4.4375q0 -2.90625 1.46875 -4.46875q1.484375 -1.5625 3.875 -1.5625zm3.4375 6.015625q0 -2.046875 -0.875 -3.203125q-0.859375 -1.171875 -2.53125 -1.171875q-1.65625 0 -2.546875 1.171875q-0.890625 1.15625 -0.890625 3.203125q0 2.046875 0.84375 3.21875q0.84375 1.15625 2.5 1.15625q1.671875 0 2.578125 -1.15625q0.921875 -1.171875 0.921875 -3.21875zm7.322693 -3.96875q1.125 -2.046875 3.359375 -2.046875q2.25 0 3.75 1.65625q1.5 1.65625 1.5 4.375q0 2.703125 -1.515625 4.359375q-1.5 1.640625 -3.71875 1.640625q-2.203125 0 -3.265625 -1.65625l0 7.03125l-1.890625 0l0 -17.109375l1.5625 0l0.21875 1.75zm3.28125 8.296875q1.34375 0 2.359375 -1.140625q1.03125 -1.15625 1.03125 -3.15625q0 -2.015625 -0.984375 -3.1875q-0.96875 -1.171875 -2.359375 -1.171875q-1.390625 0 -2.28125 0.875q-0.875 0.875 -0.9375 2.359375l0 2.1875q0 1.515625 0.90625 2.375q0.921875 0.859375 2.265625 0.859375zm8.59967 -7.234375q0 -1.421875 1.203125 -2.265625q1.21875 -0.84375 3.28125 -0.84375q2.0625 0 3.21875 0.875q1.171875 0.859375 1.21875 2.171875l-1.84375 0q-0.21875 -1.546875 -2.640625 -1.546875q-1.171875 0 -1.8125 0.53125q-0.640625 0.515625 -0.640625 1.140625q0 0.609375 0.484375 1.03125q0.484375 0.40625 1.53125 0.71875l2.3125 0.765625q1.453125 0.46875 2.234375 1.171875q0.78125 0.703125 0.78125 1.9375q0 1.234375 -1.28125 2.234375q-1.265625 1.0 -3.546875 1.0q-2.265625 0 -3.546875 -1.015625q-1.265625 -1.03125 -1.34375 -2.640625l1.828125 0q0.046875 1.09375 0.875 1.640625q0.828125 0.53125 2.078125 0.53125q1.25 0 2.0625 -0.53125q0.8125 -0.53125 0.8125 -1.265625q0 -0.734375 -0.484375 -1.109375q-0.46875 -0.390625 -1.546875 -0.671875l-2.234375 -0.75q-3.0 -0.890625 -3.0 -3.109375z" fill-rule="nonzero"/><path fill="#cfe2f3" d="m655.52496 584.66406l141.82672 0l0 59.62201l-141.82672 0z" fill-rule="evenodd"/><path fill="#000000" d="m672.7176 613.2963q1.125 -2.046875 3.359375 -2.046875q2.25 0 3.75 1.65625q1.5 1.65625 1.5 4.375q0 2.703125 -1.515625 4.359375q-1.5 1.640625 -3.71875 1.640625q-2.203125 0 -3.265625 -1.65625l0 7.03125l-1.890625 0l0 -17.109375l1.5625 0l0.21875 1.75zm3.28125 8.296875q1.34375 0 2.359375 -1.140625q1.03125 -1.15625 1.03125 -3.15625q0 -2.015625 -0.984375 -3.1875q-0.96875 -1.171875 -2.359375 -1.171875q-1.390625 0 -2.28125 0.875q-0.875 0.875 -0.9375 2.359375l0 2.1875q0 1.515625 0.90625 2.375q0.921875 0.859375 2.265625 0.859375zm16.990356 -0.859375q-1.171875 2.5 -3.8125 2.5q-1.9375 0 -3.125 -1.078125q-1.1875 -1.078125 -1.1875 -3.34375l0 -7.296875l1.890625 0l0 7.15625q0 2.90625 2.6875 2.90625q1.5625 0 2.53125 -1.203125q0.96875 -1.203125 1.015625 -3.078125l0 -5.78125l1.90625 0l0 11.5l-1.90625 0l0 -2.28125zm11.43457 -7.578125q-2.71875 0 -2.8125 4.265625l0 5.59375l-1.890625 0l0 -11.5l1.890625 0l0 2.21875q0.859375 -2.40625 3.046875 -2.40625q0.703125 0 1.3125 0.21875l-0.09375 1.84375q-0.71875 -0.234375 -1.453125 -0.234375zm8.284607 -1.90625q2.03125 0 3.234375 1.046875q1.203125 1.046875 1.5625 2.609375l-1.921875 0.171875q-0.3125 -1.015625 -1.015625 -1.578125q-0.6875 -0.5625 -1.53125 -0.5625q-1.53125 0 -2.484375 1.15625q-0.953125 1.140625 -0.953125 3.125q0 1.984375 0.921875 3.1875q0.921875 1.1875 2.296875 1.1875q1.390625 0 2.078125 -0.625q0.6875 -0.640625 0.6875 -1.8125l1.9375 0q0 1.84375 -1.28125 2.984375q-1.28125 1.140625 -3.34375 1.140625q-2.1875 0 -3.71875 -1.65625q-1.515625 -1.65625 -1.515625 -4.40625q0 -2.75 1.5 -4.359375q1.515625 -1.609375 3.546875 -1.609375zm10.422485 2.40625q1.15625 -2.40625 3.828125 -2.40625q2.03125 0 3.171875 1.34375q1.140625 1.34375 1.140625 3.671875l0 6.75l-1.875 0l0 -6.75q0 -1.65625 -0.78125 -2.484375q-0.765625 -0.84375 -2.234375 -0.84375q-1.46875 0 -2.359375 1.234375q-0.890625 1.234375 -0.890625 3.421875l0 5.421875l-1.890625 0l0 -16.34375l1.890625 0l0 6.984375zm19.714722 1.921875q0 -1.5625 -0.65625 -2.234375q-0.640625 -0.671875 -1.875 -0.671875q-1.234375 0 -2.0 0.5q-0.75 0.484375 -0.75 1.546875l-2.09375 0q0 -2.640625 2.828125 -3.265625q0.875 -0.203125 1.875 -0.203125q2.140625 0 3.34375 1.09375q1.203125 1.078125 1.203125 3.28125l0 7.390625l-1.640625 0l-0.1875 -1.921875q-1.0625 2.1875 -3.8125 2.1875q-1.859375 0 -2.96875 -1.03125q-1.109375 -1.03125 -1.109375 -2.5625q0 -1.546875 1.234375 -2.40625q1.234375 -0.859375 3.078125 -0.859375q1.84375 0 3.53125 0.625l0 -1.46875zm0 2.65625q-1.703125 -0.46875 -2.984375 -0.46875q-1.265625 0 -2.0625 0.453125q-0.78125 0.453125 -0.78125 1.4375q0 2.15625 2.4375 2.15625q1.390625 0 2.390625 -0.984375q1.0 -1.0 1.0 -2.59375zm5.7368164 -3.875q0 -1.421875 1.203125 -2.265625q1.21875 -0.84375 3.28125 -0.84375q2.0625 0 3.21875 0.875q1.171875 0.859375 1.21875 2.171875l-1.84375 0q-0.21875 -1.546875 -2.640625 -1.546875q-1.171875 0 -1.8125 0.53125q-0.640625 0.515625 -0.640625 1.140625q0 0.609375 0.484375 1.03125q0.484375 0.40625 1.53125 0.71875l2.3125 0.765625q1.453125 0.46875 2.234375 1.171875q0.78125 0.703125 0.78125 1.9375q0 1.234375 -1.28125 2.234375q-1.265625 1.0 -3.546875 1.0q-2.265625 0 -3.546875 -1.015625q-1.265625 -1.03125 -1.34375 -2.640625l1.828125 0q0.046875 1.09375 0.875 1.640625q0.828125 0.53125 2.078125 0.53125q1.25 0 2.0625 -0.53125q0.8125 -0.53125 0.8125 -1.265625q0 -0.734375 -0.484375 -1.109375q-0.46875 -0.390625 -1.546875 -0.671875l-2.234375 -0.75q-3.0 -0.890625 -3.0 -3.109375zm17.186462 7.390625q2.375 0 2.703125 -2.09375l1.953125 0q-0.265625 1.734375 -1.53125 2.6875q-1.265625 0.9375 -3.125 0.9375q-2.3125 0 -3.75 -1.640625q-1.4375 -1.65625 -1.4375 -4.390625q0 -2.734375 1.453125 -4.359375q1.453125 -1.640625 3.859375 -1.640625q2.40625 0 3.59375 1.875q1.1875 1.875 0.828125 4.5625l-7.84375 0q0 1.78125 0.859375 2.921875q0.875 1.140625 2.4375 1.140625zm1.390625 -8.6875q-0.5625 -0.296875 -1.34375 -0.296875q-1.46875 0 -2.328125 1.0q-0.84375 1.0 -0.984375 2.484375l6.109375 0q0 -2.40625 -1.453125 -3.1875zm6.4068604 1.296875q0 -1.421875 1.203125 -2.265625q1.21875 -0.84375 3.28125 -0.84375q2.0625 0 3.21875 0.875q1.171875 0.859375 1.21875 2.171875l-1.84375 0q-0.21875 -1.546875 -2.640625 -1.546875q-1.171875 0 -1.8125 0.53125q-0.640625 0.515625 -0.640625 1.140625q0 0.609375 0.484375 1.03125q0.484375 0.40625 1.53125 0.71875l2.3125 0.765625q1.453125 0.46875 2.234375 1.171875q0.78125 0.703125 0.78125 1.9375q0 1.234375 -1.28125 2.234375q-1.265625 1.0 -3.546875 1.0q-2.265625 0 -3.546875 -1.015625q-1.265625 -1.03125 -1.34375 -2.640625l1.828125 0q0.046875 1.09375 0.875 1.640625q0.828125 0.53125 2.078125 0.53125q1.25 0 2.0625 -0.53125q0.8125 -0.53125 0.8125 -1.265625q0 -0.734375 -0.484375 -1.109375q-0.46875 -0.390625 -1.546875 -0.671875l-2.234375 -0.75q-3.0 -0.890625 -3.0 -3.109375z" fill-rule="nonzero"/><path fill="#f4cccc" d="m560.44354 339.57217l122.80316 0l0 59.62204l-122.80316 0z" fill-rule="evenodd"/><path fill="#000000" d="m605.4465 373.5482q0 2.484375 -1.125 3.5625q-1.109375 1.078125 -2.84375 1.078125q-1.71875 0 -3.625 -1.015625l0 -1.96875q1.6875 1.15625 3.15625 1.15625q1.484375 0 2.0 -0.71875q0.53125 -0.71875 0.53125 -2.09375l0 -10.71875l1.90625 0l0 10.71875zm9.664734 -10.984375q2.9375 0 4.734375 2.0q1.8125 2.0 1.8125 5.828125q0 3.828125 -1.796875 5.8125q-1.796875 1.984375 -4.75 1.984375q-2.953125 0 -4.75 -2.0q-1.78125 -2.015625 -1.78125 -5.796875q0 -3.828125 1.78125 -5.828125q1.796875 -2.0 4.75 -2.0zm0 1.703125q-2.109375 0 -3.34375 1.59375q-1.21875 1.578125 -1.21875 4.5625q0 2.96875 1.21875 4.5q1.234375 1.53125 3.34375 1.53125q2.109375 0 3.34375 -1.53125q1.25 -1.53125 1.25 -4.5q0 -2.984375 -1.25 -4.5625q-1.234375 -1.59375 -3.34375 -1.59375zm10.175781 -1.4375l1.890625 0l0 15.09375l-1.890625 0l0 -15.09375zm8.923157 0l7.5 12.125l0 -12.125l1.890625 0l0 15.09375l-2.109375 0l-7.609375 -12.28125l0 12.28125l-1.921875 0l0 -15.09375l2.25 0z" fill-rule="nonzero"/><path fill="#f4cccc" d="m268.2546 51.80315l122.80313 0l0 59.622044l-122.80313 0z" fill-rule="evenodd"/><path fill="#000000" d="m313.25748 85.77917q0 2.484375 -1.125 3.5625q-1.109375 1.078125 -2.84375 1.078125q-1.71875 0 -3.625 -1.015625l0 -1.96875q1.6875 1.15625 3.15625 1.15625q1.484375 0 2.0 -0.71875q0.53125 -0.71875 0.53125 -2.09375l0 -10.71875l1.90625 0l0 10.71875zm9.664734 -10.984375q2.9375 0 4.734375 2.0q1.8125 2.0 1.8125 5.828125q0 3.828125 -1.796875 5.8125q-1.796875 1.984375 -4.75 1.984375q-2.953125 0 -4.75 -2.0q-1.78125 -2.015625 -1.78125 -5.796875q0 -3.828125 1.78125 -5.828125q1.796875 -2.0 4.75 -2.0zm0 1.703125q-2.109375 0 -3.34375 1.59375q-1.21875 1.578125 -1.21875 4.5625q0 2.96875 1.21875 4.5q1.234375 1.53125 3.34375 1.53125q2.109375 0 3.34375 -1.53125q1.25 -1.53125 1.25 -4.5q0 -2.984375 -1.25 -4.5625q-1.234375 -1.59375 -3.34375 -1.59375zm10.175812 -1.4375l1.890625 0l0 15.09375l-1.890625 0l0 -15.09375zm8.923126 0l7.5 12.125l0 -12.125l1.890625 0l0 15.09375l-2.109375 0l-7.609375 -12.28125l0 12.28125l-1.921875 0l0 -15.09375l2.25 0z" fill-rule="nonzero"/><path fill="#f4cccc" d="m437.6404 179.17323l122.80313 0l0 59.62204l-122.80313 0z" fill-rule="evenodd"/><path fill="#000000" d="m482.6433 213.14925q0 2.484375 -1.125 3.5625q-1.109375 1.078125 -2.84375 1.078125q-1.71875 0 -3.625 -1.015625l0 -1.96875q1.6875 1.15625 3.15625 1.15625q1.484375 0 2.0 -0.71875q0.53125 -0.71875 0.53125 -2.09375l0 -10.71875l1.90625 0l0 10.71875zm9.664734 -10.984375q2.9375 0 4.734375 2.0q1.8125 2.0 1.8125 5.828125q0 3.828125 -1.796875 5.8125q-1.796875 1.984375 -4.75 1.984375q-2.953125 0 -4.75 -2.0q-1.78125 -2.015625 -1.78125 -5.796875q0 -3.828125 1.78125 -5.828125q1.796875 -2.0 4.75 -2.0zm0 1.703125q-2.109375 0 -3.34375 1.59375q-1.21875 1.578125 -1.21875 4.5625q0 2.96875 1.21875 4.5q1.234375 1.53125 3.34375 1.53125q2.109375 0 3.34375 -1.53125q1.25 -1.53125 1.25 -4.5q0 -2.984375 -1.25 -4.5625q-1.234375 -1.59375 -3.34375 -1.59375zm10.175812 -1.4375l1.890625 0l0 15.09375l-1.890625 0l0 -15.09375zm8.923126 0l7.5 12.125l0 -12.125l1.890625 0l0 15.09375l-2.109375 0l-7.609375 -12.28125l0 12.28125l-1.921875 0l0 -15.09375l2.25 0z" fill-rule="nonzero"/><path fill="#ffe599" d="m427.75592 462.1168l228.97638 0l0 59.62204l-228.97638 0z" fill-rule="evenodd"/><path fill="#000000" d="m475.40628 491.20218q1.125 -2.5 3.859375 -2.5q2.046875 0 3.1875 1.34375q1.140625 1.34375 1.140625 3.671875l0 6.75l-1.875 0l0 -6.75q0 -1.65625 -0.78125 -2.484375q-0.78125 -0.84375 -2.21875 -0.84375q-1.4375 0 -2.328125 1.171875q-0.890625 1.171875 -0.9375 3.265625l0 5.640625l-1.890625 0l0 -11.46875l1.625 0l0.21875 2.203125zm19.753204 1.828125q0 -1.5625 -0.65625 -2.234375q-0.640625 -0.671875 -1.875 -0.671875q-1.234375 0 -2.0 0.5q-0.75 0.484375 -0.75 1.546875l-2.09375 0q0 -2.640625 2.828125 -3.265625q0.875 -0.203125 1.875 -0.203125q2.140625 0 3.34375 1.09375q1.203125 1.078125 1.203125 3.28125l0 7.390625l-1.640625 0l-0.1875 -1.921875q-1.0625 2.1875 -3.8125 2.1875q-1.859375 0 -2.96875 -1.03125q-1.109375 -1.03125 -1.109375 -2.5625q0 -1.546875 1.234375 -2.40625q1.234375 -0.859375 3.078125 -0.859375q1.84375 0 3.53125 0.625l0 -1.46875zm0 2.65625q-1.703125 -0.46875 -2.984375 -0.46875q-1.265625 0 -2.0625 0.453125q-0.78125 0.453125 -0.78125 1.4375q0 2.15625 2.4375 2.15625q1.390625 0 2.390625 -0.984375q1.0 -1.0 1.0 -2.59375zm8.158722 -4.484375q1.125 -2.5 3.859375 -2.5q1.484375 0 2.484375 0.734375q1.015625 0.734375 1.484375 2.03125q1.0780945 -2.765625 3.9999695 -2.765625q2.0625 0 3.1875 1.34375q1.140625 1.34375 1.140625 3.671875l0 6.75l-1.875 0l0 -6.75q0 -1.65625 -0.78125 -2.484375q-0.78125 -0.84375 -2.25 -0.84375q-1.453125 0 -2.265625 1.203125q-0.7968445 1.1875 -0.7968445 3.3125l0 5.5625l-1.875 0l0 -6.75q0 -1.65625 -0.78125 -2.484375q-0.78125 -0.84375 -2.21875 -0.84375q-1.4375 0 -2.328125 1.171875q-0.890625 1.171875 -0.9375 3.265625l0 5.640625l-1.890625 0l0 -11.46875l1.625 0l0.21875 2.203125zm24.580536 8.0q2.375 0 2.703125 -2.09375l1.953125 0q-0.265625 1.734375 -1.53125 2.6875q-1.265625 0.9375 -3.125 0.9375q-2.3125 0 -3.75 -1.640625q-1.4375 -1.65625 -1.4375 -4.390625q0 -2.734375 1.453125 -4.359375q1.453125 -1.640625 3.859375 -1.640625q2.40625 0 3.59375 1.875q1.1875 1.875 0.828125 4.5625l-7.84375 0q0 1.78125 0.859375 2.921875q0.875 1.140625 2.4375 1.140625zm1.390625 -8.6875q-0.5625 -0.296875 -1.34375 -0.296875q-1.46875 0 -2.328125 1.0q-0.84375 1.0 -0.984375 2.484375l6.109375 0q0 -2.40625 -1.453125 -3.1875zm20.10321 5.515625l0 1.625l-7.921875 0l0 -1.625l7.921875 0zm0 -4.609375l0 1.65625l-7.921875 0l0 -1.65625l7.921875 0zm11.502075 -2.25q0 0.515625 -0.375 0.890625q-0.375 0.375 -1.046875 0.375q-0.671875 0 -1.140625 -0.546875q-0.46875 -0.5625 -0.46875 -1.390625q0 -0.828125 0.5625 -1.671875q0.5625 -0.859375 1.65625 -1.390625l1.34375 0.703125q-1.5 0.765625 -1.8125 1.828125q0.5625 0.046875 0.921875 0.359375q0.359375 0.3125 0.359375 0.84375zm3.6672363 -3.796875l1.890625 0l0 15.09375l-1.890625 0l0 -15.09375zm10.157532 9.015625l-1.546875 1.25l0 4.828125l-1.890625 0l0 -16.34375l1.890625 0l0 9.5l5.546875 -4.625l2.640625 0l-5.28125 4.296875l5.546875 7.171875l-2.328125 0l-4.578125 -6.078125zm14.0672 4.8125q2.375 0 2.703125 -2.09375l1.953125 0q-0.265625 1.734375 -1.53125 2.6875q-1.265625 0.9375 -3.125 0.9375q-2.3125 0 -3.75 -1.640625q-1.4375 -1.65625 -1.4375 -4.390625q0 -2.734375 1.453125 -4.359375q1.453125 -1.640625 3.859375 -1.640625q2.40625 0 3.59375 1.875q1.1875 1.875 0.828125 4.5625l-7.84375 0q0 1.78125 0.859375 2.921875q0.875 1.140625 2.4375 1.140625zm1.390625 -8.6875q-0.5625 -0.296875 -1.34375 -0.296875q-1.46875 0 -2.328125 1.0q-0.84375 1.0 -0.984375 2.484375l6.109375 0q0 -2.40625 -1.453125 -3.1875zm14.109985 2.515625q0 -1.5625 -0.65625 -2.234375q-0.640625 -0.671875 -1.875 -0.671875q-1.234375 0 -2.0 0.5q-0.75 0.484375 -0.75 1.546875l-2.09375 0q0 -2.640625 2.828125 -3.265625q0.875 -0.203125 1.875 -0.203125q2.140625 0 3.34375 1.09375q1.203125 1.078125 1.203125 3.28125l0 7.390625l-1.640625 0l-0.1875 -1.921875q-1.0625 2.1875 -3.8125 2.1875q-1.859375 0 -2.96875 -1.03125q-1.109375 -1.03125 -1.109375 -2.5625q0 -1.546875 1.234375 -2.40625q1.234375 -0.859375 3.078125 -0.859375q1.84375 0 3.53125 0.625l0 -1.46875zm0 2.65625q-1.703125 -0.46875 -2.984375 -0.46875q-1.265625 0 -2.0625 0.453125q-0.78125 0.453125 -0.78125 1.4375q0 2.15625 2.4375 2.15625q1.390625 0 2.390625 -0.984375q1.0 -1.0 1.0 -2.59375zm4.7680664 -9.0q0 -0.515625 0.375 -0.875q0.390625 -0.375 1.078125 -0.375q0.6875 0 1.125 0.53125q0.453125 0.53125 0.453125 1.375q0 0.84375 -0.5625 1.703125q-0.5625 0.84375 -1.625 1.390625l-1.34375 -0.71875q1.484375 -0.765625 1.796875 -1.828125q-0.546875 -0.046875 -0.921875 -0.359375q-0.375 -0.3125 -0.375 -0.84375z" fill-rule="nonzero"/><path fill="#000000" fill-opacity="0.0" d="m173.84514 462.10236c0 -87.66928 38.95276 -131.50394 77.90552 -175.33856c38.952744 -43.834656 77.9055 -87.66931 77.9055 -175.3386" fill-rule="evenodd"/><path stroke="#666666" stroke-width="2.0" stroke-linejoin="round" stroke-linecap="butt" d="m173.84514 462.10236c0 -87.66928 38.95276 -131.50394 77.90552 -175.33856c19.476364 -21.917328 38.952744 -43.834656 53.560043 -71.23131c7.30365 -13.698334 13.390015 -28.766495 17.650452 -45.889404c2.130249 -8.561447 3.8039856 -17.636597 4.9451904 -27.311035c0.57058716 -4.837219 1.0080566 -9.824265 1.3028564 -14.97184c0.07369995 -1.2869034 0.13848877 -2.5838242 0.19421387 -3.890953l0.0018005371 -0.046684265" fill-rule="evenodd"/><path fill="#666666" stroke="#666666" stroke-width="2.0" stroke-linecap="butt" d="m332.70798 123.49165l-3.1129456 -9.143288l-3.4925537 9.005127z" fill-rule="evenodd"/><path fill="#000000" fill-opacity="0.0" d="m173.85564 584.66406c0 -15.7323 0.01574707 -23.59845 0.0315094 -31.4646c0.01574707 -7.86615 0.03149414 -15.7323 0.03149414 -31.464539" fill-rule="evenodd"/><path stroke="#666666" stroke-width="2.0" stroke-linejoin="round" stroke-linecap="butt" d="m173.85564 584.66406c0 -15.7323 0.01574707 -23.59845 0.0315094 -31.4646c0.007873535 -3.9330444 0.01574707 -7.86615 0.021652222 -12.782471l0.005783081 -6.682068" fill-rule="evenodd"/><path fill="#666666" stroke="#666666" stroke-width="2.0" stroke-linecap="butt" d="m177.21805 533.736l-3.3003998 -9.077332l-3.3065338 9.075073z" fill-rule="evenodd"/><path fill="#000000" fill-opacity="0.0" d="m358.04987 584.66406c0 -39.905518 0.01574707 -59.858276 0.03149414 -79.811035c0.01574707 -19.952759 0.03149414 -39.905518 0.03149414 -79.811035" fill-rule="evenodd"/><path stroke="#666666" stroke-width="2.0" stroke-linejoin="round" stroke-linecap="butt" d="m358.04987 584.66406c0 -39.905518 0.01574707 -59.858276 0.03149414 -79.811035c0.007873535 -9.976379 0.01574707 -19.952759 0.02166748 -32.42325c0.0029296875 -6.2352295 0.0054016113 -13.093994 0.0071411133 -20.888031l0.0014648438 -14.499756" fill-rule="evenodd"/><path fill="#666666" stroke="#666666" stroke-width="2.0" stroke-linecap="butt" d="m361.4151 437.04233l-3.3025513 -9.076538l-3.3043823 9.075867z" fill-rule="evenodd"/><path fill="#000000" fill-opacity="0.0" d="m542.2441 584.66406c0 -15.731384 0.01574707 -23.596558 0.03149414 -31.462708c0.01574707 -7.86615 0.03149414 -15.733215 0.03149414 -31.46643" fill-rule="evenodd"/><path stroke="#666666" stroke-width="2.0" stroke-linejoin="round" stroke-linecap="butt" d="m542.2441 584.66406c0 -15.731384 0.01574707 -23.596558 0.03149414 -31.462708c0.007873535 -3.9330444 0.01574707 -7.866394 0.02166748 -12.78302l0.00579834 -6.6834106" fill-rule="evenodd"/><path fill="#666666" stroke="#666666" stroke-width="2.0" stroke-linecap="butt" d="m545.6065 533.736l-3.300415 -9.077332l-3.3065186 9.075073z" fill-rule="evenodd"/><path fill="#000000" fill-opacity="0.0" d="m726.4383 584.66406c0 -107.63782 -21.590515 -215.2756 -43.18109 -215.2756" fill-rule="evenodd"/><path stroke="#666666" stroke-width="2.0" stroke-linejoin="round" stroke-linecap="butt" d="m726.4383 584.66406c0 -53.81891 -5.397583 -107.63782 -13.49408 -148.00198c-4.048218 -20.182098 -8.771179 -37.00049 -13.831421 -48.773376c-1.2650757 -2.9432373 -2.5512695 -5.571106 -3.8532104 -7.857361c-0.651001 -1.1431274 -1.3059082 -2.2008362 -1.9641724 -3.1698608c-0.082214355 -0.12112427 -0.16461182 -0.24087524 -0.24694824 -0.3592224l-0.062561035 -0.0887146" fill-rule="evenodd"/><path fill="#666666" stroke="#666666" stroke-width="2.0" stroke-linecap="butt" d="m694.91986 373.73535l-9.292236 -2.6352234l5.4243774 7.991638z" fill-rule="evenodd"/><path fill="#000000" fill-opacity="0.0" d="m542.2441 462.1168c0 -15.730713 19.897644 -23.595276 39.795288 -31.461426c19.897644 -7.8661194 39.795288 -15.733856 39.795288 -31.467712" fill-rule="evenodd"/><path stroke="#666666" stroke-width="2.0" stroke-linejoin="round" stroke-linecap="butt" d="m542.2441 462.1168c0 -15.730713 19.897644 -23.595245 39.795288 -31.461395c9.9487915 -3.933075 19.897644 -7.8665466 27.359253 -12.783478c1.8654175 -1.229248 3.5753784 -2.519928 5.0910034 -3.8874512c0.7578125 -0.68377686 1.467041 -1.3867493 2.1228638 -2.1108704c0.32788086 -0.36203003 0.64245605 -0.7293701 0.9430542 -1.1022034c0.07513428 -0.09320068 0.14941406 -0.1867981 0.22277832 -0.28067017l0.0056762695 -0.007385254" fill-rule="evenodd"/><path fill="#666666" stroke="#666666" stroke-width="2.0" stroke-linecap="butt" d="m620.89355 411.59845l-0.045837402 -9.6586l-6.173279 7.4283752z" fill-rule="evenodd"/><path fill="#000000" fill-opacity="0.0" d="m621.84515 339.57217c0 -65.29132 -30.70868 -130.58267 -61.41736 -130.58267" fill-rule="evenodd"/><path stroke="#666666" stroke-width="2.0" stroke-linejoin="round" stroke-linecap="butt" d="m621.84515 339.57217c0 -32.64566 -7.677185 -65.29132 -19.192932 -89.77559c-5.7578735 -12.242126 -12.475403 -22.443893 -19.67273 -29.585129c-1.7993164 -1.7853088 -3.628662 -3.3793488 -5.4804688 -4.766144c-0.9259033 -0.69340515 -1.8574829 -1.3349915 -2.7936401 -1.9227905c-0.46813965 -0.2939148 -0.93743896 -0.5743561 -1.4077148 -0.8411102c-0.23522949 -0.13336182 -0.47058105 -0.26333618 -0.7062988 -0.38980103c-0.11785889 -0.06326294 -0.23577881 -0.12564087 -0.35369873 -0.1871643l-0.19476318 -0.10005188" fill-rule="evenodd"/><path fill="#666666" stroke="#666666" stroke-width="2.0" stroke-linecap="butt" d="m572.87286 208.80687l-9.61499 0.9172058l7.955078 5.4778137z" fill-rule="evenodd"/><path fill="#000000" fill-opacity="0.0" d="m368.97113 342.30185c0 -25.876617 32.519684 -38.816223 65.03937 -51.753204c32.519684 -12.937012 65.03937 -25.87143 65.03937 -51.742874" fill-rule="evenodd"/><path stroke="#666666" stroke-width="2.0" stroke-linejoin="round" stroke-linecap="butt" d="m368.97113 342.30185c0 -25.876617 32.519684 -38.816193 65.03937 -51.753204c16.259857 -6.468506 32.519684 -12.936371 44.71457 -21.021027c6.0974426 -4.042328 11.17865 -8.488861 14.735474 -13.541794c0.8891907 -1.2632141 1.6831665 -2.5643463 2.3739014 -3.9065247c0.17263794 -0.33555603 0.3388977 -0.6736603 0.49856567 -1.0143738c0.07980347 -0.17037964 0.15802002 -0.34140015 0.23452759 -0.5130615l0.0022277832 -0.0051727295" fill-rule="evenodd"/><path fill="#666666" stroke="#666666" stroke-width="2.0" stroke-linecap="butt" d="m499.8019 251.22943l-1.3563232 -9.562973l-5.107971 8.1974945z" fill-rule="evenodd"/><path fill="#000000" fill-opacity="0.0" d="m499.042 179.17323c0 -48.7874 -54.0 -97.57481 -108.0 -97.57481" fill-rule="evenodd"/><path stroke="#666666" stroke-width="2.0" stroke-linejoin="round" stroke-linecap="butt" d="m499.042 179.17323c0 -24.393707 -13.5 -48.7874 -33.75 -67.08268c-10.125 -9.147636 -21.9375 -16.770668 -34.59375 -22.106796c-6.328125 -2.6680603 -12.867218 -4.764389 -19.511719 -6.1937103c-1.6611328 -0.35733032 -3.3288574 -0.67297363 -5.001526 -0.9454346c-0.8363342 -0.13623047 -1.6738892 -0.26166534 -2.5125122 -0.37612915c-0.20965576 -0.02861023 -0.41937256 -0.056541443 -0.6291504 -0.08377838l-0.026885986 -0.00340271" fill-rule="evenodd"/><path fill="#666666" stroke="#666666" stroke-width="2.0" stroke-linecap="butt" d="m403.23193 79.08487l-9.272369 2.7043l8.841339 3.8885574z" fill-rule="evenodd"/><path fill="#ffe599" d="m219.88452 342.30185l298.17322 0l0 82.74014l-298.17322 0z" fill-rule="evenodd"/><path fill="#000000" d="m250.26949 364.4463q1.125 -2.5 3.859375 -2.5q2.0468903 0 3.1875153 1.34375q1.140625 1.34375 1.140625 3.671875l0 6.75l-1.875 0l0 -6.75q0 -1.65625 -0.78126526 -2.484375q-0.78125 -0.84375 -2.21875 -0.84375q-1.4375 0 -2.328125 1.171875q-0.890625 1.171875 -0.9375 3.265625l0 5.640625l-1.890625 0l0 -11.46875l1.625 0l0.21875 2.203125zm19.75322 1.828125q0 -1.5625 -0.65625 -2.234375q-0.640625 -0.671875 -1.875 -0.671875q-1.234375 0 -2.0 0.5q-0.75 0.484375 -0.75 1.546875l-2.09375 0q0 -2.640625 2.828125 -3.265625q0.875 -0.203125 1.875 -0.203125q2.140625 0 3.34375 1.09375q1.203125 1.078125 1.203125 3.28125l0 7.390625l-1.640625 0l-0.1875 -1.921875q-1.0625 2.1875 -3.8125 2.1875q-1.859375 0 -2.96875 -1.03125q-1.109375 -1.03125 -1.109375 -2.5625q0 -1.546875 1.234375 -2.40625q1.234375 -0.859375 3.078125 -0.859375q1.84375 0 3.53125 0.625l0 -1.46875zm0 2.65625q-1.703125 -0.46875 -2.984375 -0.46875q-1.265625 0 -2.0625 0.453125q-0.78125 0.453125 -0.78125 1.4375q0 2.15625 2.4375 2.15625q1.390625 0 2.390625 -0.984375q1.0 -1.0 1.0 -2.59375zm12.330566 4.4375q-2.0625 0.96875 -3.765625 0.421875q-1.21875 -0.390625 -1.734375 -1.609375q-0.265625 -0.609375 -0.265625 -1.4375l0 -7.0625l-1.84375 0l0 -1.4375l1.84375 0l0 -3.1875l1.875 0l0 3.1875l3.609375 0l0 1.4375l-3.609375 0l0 7.03125q0 1.75 1.640625 1.75q0.890625 0 1.984375 -0.4375l0.265625 1.34375zm3.1489868 -11.15625l1.890625 0l0 11.5l-1.890625 0l0 -11.5zm0.9375 -2.6875q-0.578125 0 -0.90625 -0.3125q-0.328125 -0.328125 -0.328125 -0.859375q0 -0.546875 0.328125 -0.875q0.328125 -0.328125 0.90625 -0.328125q0.578125 0 0.921875 0.328125q0.34375 0.328125 0.34375 0.875q0 0.53125 -0.34375 0.859375q-0.34375 0.3125 -0.921875 0.3125zm10.238464 2.421875q2.40625 0 3.875 1.5625q1.484375 1.5625 1.484375 4.46875q0 2.875 -1.484375 4.4375q-1.46875 1.5625 -3.875 1.5625q-2.390625 0 -3.875 -1.5625q-1.46875 -1.5625 -1.46875 -4.4375q0 -2.90625 1.46875 -4.46875q1.484375 -1.5625 3.875 -1.5625zm3.4375 6.015625q0 -2.046875 -0.875 -3.203125q-0.859375 -1.171875 -2.53125 -1.171875q-1.65625 0 -2.546875 1.171875q-0.890625 1.15625 -0.890625 3.203125q0 2.046875 0.84375 3.21875q0.84375 1.15625 2.5 1.15625q1.671875 0 2.578125 -1.15625q0.921875 -1.171875 0.921875 -3.21875zm7.3695984 -3.515625q1.125 -2.5 3.859375 -2.5q2.046875 0 3.1875 1.34375q1.140625 1.34375 1.140625 3.671875l0 6.75l-1.875 0l0 -6.75q0 -1.65625 -0.78125 -2.484375q-0.78125 -0.84375 -2.21875 -0.84375q-1.4375 0 -2.328125 1.171875q-0.890625 1.171875 -0.9375 3.265625l0 5.640625l-1.890625 0l0 -11.46875l1.625 0l0.21875 2.203125zm19.753204 1.828125q0 -1.5625 -0.65625 -2.234375q-0.640625 -0.671875 -1.875 -0.671875q-1.234375 0 -2.0 0.5q-0.75 0.484375 -0.75 1.546875l-2.09375 0q0 -2.640625 2.828125 -3.265625q0.875 -0.203125 1.875 -0.203125q2.140625 0 3.34375 1.09375q1.203125 1.078125 1.203125 3.28125l0 7.390625l-1.640625 0l-0.1875 -1.921875q-1.0625 2.1875 -3.8125 2.1875q-1.859375 0 -2.96875 -1.03125q-1.109375 -1.03125 -1.109375 -2.5625q0 -1.546875 1.234375 -2.40625q1.234375 -0.859375 3.078125 -0.859375q1.84375 0 3.53125 0.625l0 -1.46875zm0 2.65625q-1.703125 -0.46875 -2.984375 -0.46875q-1.265625 0 -2.0625 0.453125q-0.78125 0.453125 -0.78125 1.4375q0 2.15625 2.4375 2.15625q1.390625 0 2.390625 -0.984375q1.0 -1.0 1.0 -2.59375zm6.3305664 -11.5625l1.890625 0l0 16.34375l-1.890625 0l0 -16.34375zm6.845001 4.84375l1.890625 0l0 11.5l-1.890625 0l0 -11.5zm0.9375 -2.6875q-0.578125 0 -0.90625 -0.3125q-0.328125 -0.328125 -0.328125 -0.859375q0 -0.546875 0.328125 -0.875q0.328125 -0.328125 0.90625 -0.328125q0.578125 0 0.921875 0.328125q0.34375 0.328125 0.34375 0.875q0 0.53125 -0.34375 0.859375q-0.34375 0.3125 -0.921875 0.3125zm12.113464 13.84375q-2.0625 0.96875 -3.765625 0.421875q-1.21875 -0.390625 -1.734375 -1.609375q-0.265625 -0.609375 -0.265625 -1.4375l0 -7.0625l-1.84375 0l0 -1.4375l1.84375 0l0 -3.1875l1.875 0l0 3.1875l3.609375 0l0 1.4375l-3.609375 0l0 7.03125q0 1.75 1.640625 1.75q0.890625 0 1.984375 -0.4375l0.265625 1.34375zm0.7271118 3.6875q1.171875 0.90625 2.46875 0.90625q0.953125 0 1.65625 -0.96875q0.5 -0.6875 0.90625 -2.109375l0.34375 -1.171875l-4.703125 -11.46875l2.109375 0l3.484375 9.140625l2.703125 -9.140625l1.921875 0l-4.296875 13.75q-0.546875 1.75 -1.453125 2.6875q-0.890625 0.9375 -2.28125 0.9375q-1.375 0 -2.859375 -0.84375l0 -1.71875zm27.015442 -7.78125l0 1.625l-7.921875 0l0 -1.625l7.921875 0zm0 -4.609375l0 1.65625l-7.921875 0l0 -1.65625l7.921875 0zm11.502075 -2.25q0 0.515625 -0.375 0.890625q-0.375 0.375 -1.046875 0.375q-0.671875 0 -1.140625 -0.546875q-0.46875 -0.5625 -0.46875 -1.390625q0 -0.828125 0.5625 -1.671875q0.5625 -0.859375 1.65625 -1.390625l1.34375 0.703125q-1.5 0.765625 -1.8125 1.828125q0.5625 0.046875 0.921875 0.359375q0.359375 0.3125 0.359375 0.84375zm11.714111 -0.125q-0.40625 -2.203125 -3.25 -2.203125q-1.5 0 -2.328125 0.65625q-0.8125 0.65625 -0.8125 1.578125q0 0.921875 0.5 1.40625q0.515625 0.484375 1.640625 0.84375l3.140625 1.078125q1.609375 0.546875 2.546875 1.515625q0.953125 0.953125 0.953125 2.703125q0 1.734375 -1.484375 2.921875q-1.484375 1.1875 -3.984375 1.1875q-2.5 0 -4.09375 -1.25q-1.59375 -1.265625 -1.640625 -3.546875l1.84375 0q0 1.484375 1.046875 2.28125q1.046875 0.78125 2.6875 0.78125q1.640625 0 2.59375 -0.71875q0.96875 -0.734375 0.96875 -1.734375q0 -1.0 -0.59375 -1.578125q-0.578125 -0.578125 -1.734375 -0.953125l-2.65625 -0.984375q-1.875 -0.625 -2.84375 -1.484375q-0.953125 -0.875 -0.953125 -2.53125q0 -1.671875 1.34375 -2.78125q1.34375 -1.125 3.765625 -1.125q2.421875 0 3.703125 1.078125q1.296875 1.0625 1.484375 2.859375l-1.84375 0zm6.4574585 -0.046875l2.78125 9.140625l2.734375 -8.59375l1.578125 0l2.71875 8.6875l2.8125 -9.234375l1.859375 0l-3.734375 11.46875l-1.859375 0l-2.640625 -8.046875l-2.578125 8.046875l-1.828125 0l-3.8125 -11.46875l1.96875 0zm21.384338 10.203125q2.375 0 2.703125 -2.09375l1.953125 0q-0.265625 1.734375 -1.53125 2.6875q-1.265625 0.9375 -3.125 0.9375q-2.3125 0 -3.75 -1.640625q-1.4375 -1.65625 -1.4375 -4.390625q0 -2.734375 1.453125 -4.359375q1.453125 -1.640625 3.859375 -1.640625q2.40625 0 3.59375 1.875q1.1875 1.875 0.828125 4.5625l-7.84375 0q0 1.78125 0.859375 2.921875q0.875 1.140625 2.4375 1.140625zm1.390625 -8.6875q-0.5625 -0.296875 -1.34375 -0.296875q-1.46875 0 -2.328125 1.0q-0.84375 1.0 -0.984375 2.484375l6.109375 0q0 -2.40625 -1.453125 -3.1875zm14.516205 0.1875l0 -6.578125l1.875 0l0 16.34375l-1.546875 0l-0.234375 -1.921875q-0.546875 1.078125 -1.46875 1.640625q-0.90625 0.546875 -1.984375 0.546875q-2.1875 0 -3.671875 -1.671875q-1.46875 -1.6875 -1.46875 -4.390625q0 -2.703125 1.453125 -4.328125q1.453125 -1.640625 3.671875 -1.640625q2.21875 0 3.375 2.0zm-3.265625 -0.3125q-1.390625 0 -2.34375 1.171875q-0.9375 1.171875 -0.9375 3.140625q0 1.96875 0.953125 3.15625q0.953125 1.1875 2.296875 1.1875q1.34375 0 2.296875 -0.890625q0.953125 -0.90625 1.0 -2.421875l0 -1.859375q0 -1.609375 -0.9375 -2.546875q-0.9375 -0.9375 -2.328125 -0.9375zm10.130951 -1.421875l1.890625 0l0 11.5l-1.890625 0l0 -11.5zm0.9375 -2.6875q-0.578125 0 -0.90625 -0.3125q-0.328125 -0.328125 -0.328125 -0.859375q0 -0.546875 0.328125 -0.875q0.328125 -0.328125 0.90625 -0.328125q0.578125 0 0.921875 0.328125q0.34375 0.328125 0.34375 0.875q0 0.53125 -0.34375 0.859375q-0.34375 0.3125 -0.921875 0.3125zm5.519745 5.53125q0 -1.421875 1.203125 -2.265625q1.21875 -0.84375 3.28125 -0.84375q2.0625 0 3.21875 0.875q1.171875 0.859375 1.21875 2.171875l-1.84375 0q-0.21875 -1.546875 -2.640625 -1.546875q-1.171875 0 -1.8125 0.53125q-0.640625 0.515625 -0.640625 1.140625q0 0.609375 0.484375 1.03125q0.484375 0.40625 1.53125 0.71875l2.3125 0.765625q1.453125 0.46875 2.234375 1.171875q0.78125 0.703125 0.78125 1.9375q0 1.234375 -1.28125 2.234375q-1.265625 1.0 -3.546875 1.0q-2.265625 0 -3.546875 -1.015625q-1.265625 -1.03125 -1.34375 -2.640625l1.828125 0q0.046875 1.09375 0.875 1.640625q0.828125 0.53125 2.078125 0.53125q1.25 0 2.0625 -0.53125q0.8125 -0.53125 0.8125 -1.265625q0 -0.734375 -0.484375 -1.109375q-0.46875 -0.390625 -1.546875 -0.671875l-2.234375 -0.75q-3.0 -0.890625 -3.0 -3.109375zm15.108337 -0.703125q1.15625 -2.40625 3.828125 -2.40625q2.03125 0 3.171875 1.34375q1.140625 1.34375 1.140625 3.671875l0 6.75l-1.875 0l0 -6.75q0 -1.65625 -0.78125 -2.484375q-0.765625 -0.84375 -2.234375 -0.84375q-1.46875 0 -2.359375 1.234375q-0.890625 1.234375 -0.890625 3.421875l0 5.421875l-1.890625 0l0 -16.34375l1.890625 0l0 6.984375zm11.042816 -4.421875q0 -0.515625 0.375 -0.875q0.390625 -0.375 1.078125 -0.375q0.6875 0 1.125 0.53125q0.453125 0.53125 0.453125 1.375q0 0.84375 -0.5625 1.703125q-0.5625 0.84375 -1.625 1.390625l-1.34375 -0.71875q1.484375 -0.765625 1.796875 -1.828125q-0.546875 -0.046875 -0.921875 -0.359375q-0.375 -0.3125 -0.375 -0.84375z" fill-rule="nonzero"/><path fill="#000000" d="m302.71182 397.35254q1.15625 -2.40625 3.828125 -2.40625q2.03125 0 3.171875 1.34375q1.140625 1.34375 1.140625 3.671875l0 6.75l-1.875 0l0 -6.75q0 -1.65625 -0.78125 -2.484375q-0.765625 -0.84375 -2.234375 -0.84375q-1.46875 0 -2.359375 1.234375q-0.890625 1.234375 -0.890625 3.421875l0 5.421875l-1.890625 0l0 -16.34375l1.890625 0l0 6.984375zm19.714722 1.921875q0 -1.5625 -0.65625 -2.234375q-0.640625 -0.671875 -1.875 -0.671875q-1.234375 0 -2.0 0.5q-0.75 0.484375 -0.75 1.546875l-2.09375 0q0 -2.640625 2.828125 -3.265625q0.875 -0.203125 1.875 -0.203125q2.140625 0 3.34375 1.09375q1.203125 1.078125 1.203125 3.28125l0 7.390625l-1.640625 0l-0.1875 -1.921875q-1.0625 2.1875 -3.8125 2.1875q-1.859375 0 -2.96875 -1.03125q-1.109375 -1.03125 -1.109375 -2.5625q0 -1.546875 1.234375 -2.40625q1.234375 -0.859375 3.078125 -0.859375q1.84375 0 3.53125 0.625l0 -1.46875zm0 2.65625q-1.703125 -0.46875 -2.984375 -0.46875q-1.265625 0 -2.0625 0.453125q-0.78125 0.453125 -0.78125 1.4375q0 2.15625 2.4375 2.15625q1.390625 0 2.390625 -0.984375q1.0 -1.0 1.0 -2.59375zm6.4555664 -6.71875l1.890625 0l0 11.5l-1.890625 0l0 -11.5zm0.9375 -2.6875q-0.578125 0 -0.90625 -0.3125q-0.328125 -0.328125 -0.328125 -0.859375q0 -0.546875 0.328125 -0.875q0.328125 -0.328125 0.90625 -0.328125q0.578125 0 0.921875 0.328125q0.34375 0.328125 0.34375 0.875q0 0.53125 -0.34375 0.859375q-0.34375 0.3125 -0.921875 0.3125zm10.800995 4.328125q-2.71875 0 -2.8125 4.265625l0 5.59375l-1.890625 0l0 -11.5l1.890625 0l0 2.21875q0.859375 -2.40625 3.046875 -2.40625q0.703125 0 1.3125 0.21875l-0.09375 1.84375q-0.71875 -0.234375 -1.453125 -0.234375zm17.559082 5.421875l0 1.625l-7.921875 0l0 -1.625l7.921875 0zm0 -4.609375l0 1.65625l-7.921875 0l0 -1.65625l7.921875 0zm11.502075 -2.25q0 0.515625 -0.375 0.890625q-0.375 0.375 -1.046875 0.375q-0.671875 0 -1.140625 -0.546875q-0.46875 -0.5625 -0.46875 -1.390625q0 -0.828125 0.5625 -1.671875q0.5625 -0.859375 1.65625 -1.390625l1.34375 0.703125q-1.5 0.765625 -1.8125 1.828125q0.5625 0.046875 0.921875 0.359375q0.359375 0.3125 0.359375 0.84375zm3.6672363 -3.796875l5.640625 0q2.375 0 3.65625 1.125q1.296875 1.125 1.296875 2.828125q0 1.296875 -0.71875 2.265625q-0.703125 0.953125 -2.140625 1.296875q1.40625 0.234375 2.25 1.21875q0.859375 0.984375 0.859375 2.234375q0 2.78125 -2.703125 3.765625q-1.015625 0.359375 -2.46875 0.359375l-5.671875 0l0 -15.09375zm5.625 13.4375q1.71875 0 2.453125 -0.6875q0.75 -0.703125 0.75 -1.859375q0 -1.15625 -0.8125 -1.828125q-0.8125 -0.6875 -2.390625 -0.6875l-3.734375 0l0 5.0625l3.734375 0zm-3.734375 -6.703125l3.703125 0q1.390625 0 2.21875 -0.671875q0.828125 -0.6875 0.828125 -1.890625q0 -1.203125 -0.8125 -1.875q-0.796875 -0.671875 -2.234375 -0.671875l-3.703125 0l0 5.109375zm13.037323 -7.984375l1.890625 0l0 16.34375l-1.890625 0l0 -16.34375zm10.845001 4.578125q2.40625 0 3.875 1.5625q1.484375 1.5625 1.484375 4.46875q0 2.875 -1.484375 4.4375q-1.46875 1.5625 -3.875 1.5625q-2.390625 0 -3.875 -1.5625q-1.46875 -1.5625 -1.46875 -4.4375q0 -2.90625 1.46875 -4.46875q1.484375 -1.5625 3.875 -1.5625zm3.4375 6.015625q0 -2.046875 -0.875 -3.203125q-0.859375 -1.171875 -2.53125 -1.171875q-1.65625 0 -2.546875 1.171875q-0.890625 1.15625 -0.890625 3.203125q0 2.046875 0.84375 3.21875q0.84375 1.15625 2.5 1.15625q1.671875 0 2.578125 -1.15625q0.921875 -1.171875 0.921875 -3.21875zm7.369568 -3.515625q1.125 -2.5 3.859375 -2.5q2.046875 0 3.1875 1.34375q1.140625 1.34375 1.140625 3.671875l0 6.75l-1.875 0l0 -6.75q0 -1.65625 -0.78125 -2.484375q-0.78125 -0.84375 -2.21875 -0.84375q-1.4375 0 -2.328125 1.171875q-0.890625 1.171875 -0.9375 3.265625l0 5.640625l-1.890625 0l0 -11.46875l1.625 0l0.21875 2.203125zm20.159454 -0.5l0 -6.578125l1.875 0l0 16.34375l-1.546875 0l-0.234375 -1.921875q-0.546875 1.078125 -1.46875 1.640625q-0.90625 0.546875 -1.984375 0.546875q-2.1875 0 -3.671875 -1.671875q-1.46875 -1.6875 -1.46875 -4.390625q0 -2.703125 1.453125 -4.328125q1.453125 -1.640625 3.671875 -1.640625q2.21875 0 3.375 2.0zm-3.265625 -0.3125q-1.390625 0 -2.34375 1.171875q-0.9375 1.171875 -0.9375 3.140625q0 1.96875 0.953125 3.15625q0.953125 1.1875 2.296875 1.1875q1.34375 0 2.296875 -0.890625q0.953125 -0.90625 1.0 -2.421875l0 -1.859375q0 -1.609375 -0.9375 -2.546875q-0.9375 -0.9375 -2.328125 -0.9375zm8.443451 -3.703125q0 -0.515625 0.375 -0.875q0.390625 -0.375 1.078125 -0.375q0.6875 0 1.125 0.53125q0.453125 0.53125 0.453125 1.375q0 0.84375 -0.5625 1.703125q-0.5625 0.84375 -1.625 1.390625l-1.34375 -0.71875q1.484375 -0.765625 1.796875 -1.828125q-0.546875 -0.046875 -0.921875 -0.359375q-0.375 -0.3125 -0.375 -0.84375z" fill-rule="nonzero"/><path fill="#ffe599" d="m45.997375 462.1181l255.77954 0l0 59.62207l-255.77954 0z" fill-rule="evenodd"/><path fill="#000000" d="m75.72942 491.2035q1.125 -2.5 3.859375 -2.5q2.046875 0 3.1875 1.34375q1.140625 1.34375 1.140625 3.671875l0 6.75l-1.875 0l0 -6.75q0 -1.65625 -0.78125 -2.484375q-0.78125 -0.84375 -2.21875 -0.84375q-1.4375 0 -2.328125 1.171875q-0.890625 1.171875 -0.9375 3.265625l0 5.640625l-1.890625 0l0 -11.46875l1.625 0l0.21875 2.203125zm19.753204 1.828125q0 -1.5625 -0.65625 -2.234375q-0.640625 -0.671875 -1.875 -0.671875q-1.234375 0 -2.0 0.5q-0.75 0.484375 -0.75 1.546875l-2.09375 0q0 -2.640625 2.828125 -3.265625q0.875 -0.203125 1.875 -0.203125q2.140625 0 3.34375 1.09375q1.203125 1.078125 1.203125 3.28125l0 7.390625l-1.640625 0l-0.1875 -1.921875q-1.0625 2.1875 -3.8125 2.1875q-1.859375 0 -2.96875 -1.03125q-1.109375 -1.03125 -1.109375 -2.5625q0 -1.546875 1.234375 -2.40625q1.234375 -0.859375 3.078125 -0.859375q1.84375 0 3.53125 0.625l0 -1.46875zm0 2.65625q-1.703125 -0.46875 -2.984375 -0.46875q-1.265625 0 -2.0625 0.453125q-0.78125 0.453125 -0.78125 1.4375q0 2.15625 2.4375 2.15625q1.390625 0 2.390625 -0.984375q1.0 -1.0 1.0 -2.59375zm8.158707 -4.484375q1.125 -2.5 3.859375 -2.5q1.484375 0 2.484375 0.734375q1.015625 0.734375 1.484375 2.03125q1.078125 -2.765625 4.0 -2.765625q2.0625 0 3.1875 1.34375q1.140625 1.34375 1.140625 3.671875l0 6.75l-1.875 0l0 -6.75q0 -1.65625 -0.78125 -2.484375q-0.78125 -0.84375 -2.25 -0.84375q-1.453125 0 -2.265625 1.203125q-0.796875 1.1875 -0.796875 3.3125l0 5.5625l-1.875 0l0 -6.75q0 -1.65625 -0.78125 -2.484375q-0.78125 -0.84375 -2.21875 -0.84375q-1.4375 0 -2.328125 1.171875q-0.890625 1.171875 -0.9375 3.265625l0 5.640625l-1.890625 0l0 -11.46875l1.625 0l0.21875 2.203125zm24.580559 8.0q2.375 0 2.703125 -2.09375l1.953125 0q-0.265625 1.734375 -1.53125 2.6875q-1.265625 0.9375 -3.125 0.9375q-2.3124924 0 -3.7499924 -1.640625q-1.4375 -1.65625 -1.4375 -4.390625q0 -2.734375 1.453125 -4.359375q1.453125 -1.640625 3.8593674 -1.640625q2.40625 0 3.59375 1.875q1.1875 1.875 0.828125 4.5625l-7.8437424 0q0 1.78125 0.859375 2.921875q0.875 1.140625 2.4374924 1.140625zm1.390625 -8.6875q-0.5625 -0.296875 -1.34375 -0.296875q-1.4687424 0 -2.3281174 1.0q-0.84375 1.0 -0.984375 2.484375l6.1093674 0q0 -2.40625 -1.453125 -3.1875zm20.10321 5.515625l0 1.625l-7.921875 0l0 -1.625l7.921875 0zm0 -4.609375l0 1.65625l-7.921875 0l0 -1.65625l7.921875 0zm11.502075 -2.25q0 0.515625 -0.375 0.890625q-0.375 0.375 -1.046875 0.375q-0.671875 0 -1.140625 -0.546875q-0.46875 -0.5625 -0.46875 -1.390625q0 -0.828125 0.5625 -1.671875q0.5625 -0.859375 1.65625 -1.390625l1.34375 0.703125q-1.5 0.765625 -1.8125 1.828125q0.5625 0.046875 0.921875 0.359375q0.359375 0.3125 0.359375 0.84375zm6.3859863 -3.796875l5.078125 10.21875l5.046875 -10.21875l2.65625 0l0 15.09375l-1.890625 0l0 -12.40625l-5.1875 10.515625l-1.265625 0l-5.265625 -10.6875l0 12.578125l-1.890625 0l0 -15.09375l2.71875 0zm21.60196 13.828125q2.375 0 2.703125 -2.09375l1.953125 0q-0.265625 1.734375 -1.53125 2.6875q-1.265625 0.9375 -3.125 0.9375q-2.3125 0 -3.75 -1.640625q-1.4375 -1.65625 -1.4375 -4.390625q0 -2.734375 1.453125 -4.359375q1.453125 -1.640625 3.859375 -1.640625q2.40625 0 3.59375 1.875q1.1875 1.875 0.828125 4.5625l-7.84375 0q0 1.78125 0.859375 2.921875q0.875 1.140625 2.4375 1.140625zm1.390625 -8.6875q-0.5625 -0.296875 -1.34375 -0.296875q-1.46875 0 -2.328125 1.0q-0.84375 1.0 -0.984375 2.484375l6.109375 0q0 -2.40625 -1.453125 -3.1875zm14.109955 2.515625q0 -1.5625 -0.65625 -2.234375q-0.640625 -0.671875 -1.875 -0.671875q-1.234375 0 -2.0 0.5q-0.75 0.484375 -0.75 1.546875l-2.09375 0q0 -2.640625 2.828125 -3.265625q0.875 -0.203125 1.875 -0.203125q2.140625 0 3.34375 1.09375q1.203125 1.078125 1.203125 3.28125l0 7.390625l-1.640625 0l-0.1875 -1.921875q-1.0625 2.1875 -3.8125 2.1875q-1.859375 0 -2.96875 -1.03125q-1.109375 -1.03125 -1.109375 -2.5625q0 -1.546875 1.234375 -2.40625q1.234375 -0.859375 3.078125 -0.859375q1.84375 0 3.53125 0.625l0 -1.46875zm0 2.65625q-1.703125 -0.46875 -2.984375 -0.46875q-1.265625 0 -2.0625 0.453125q-0.78125 0.453125 -0.78125 1.4375q0 2.15625 2.4375 2.15625q1.390625 0 2.390625 -0.984375q1.0 -1.0 1.0 -2.59375zm12.330597 4.4375q-2.0625 0.96875 -3.765625 0.421875q-1.21875 -0.390625 -1.734375 -1.609375q-0.265625 -0.609375 -0.265625 -1.4375l0 -7.0625l-1.84375 0l0 -1.4375l1.84375 0l0 -3.1875l1.875 0l0 3.1875l3.609375 0l0 1.4375l-3.609375 0l0 7.03125q0 1.75 1.640625 1.75q0.890625 0 1.984375 -0.4375l0.265625 1.34375zm4.9145813 -9.421875q1.15625 -2.0 3.359375 -2.0q2.21875 0 3.671875 1.65625q1.46875 1.640625 1.46875 4.34375q0 2.6875 -1.484375 4.359375q-1.484375 1.671875 -3.625 1.671875q-1.15625 0 -2.078125 -0.578125q-0.921875 -0.578125 -1.453125 -1.703125l-0.421875 2.015625l-1.328125 0l0 -16.34375l1.890625 0l0 6.578125zm3.234375 -0.3125q-1.359375 0 -2.265625 0.875q-0.90625 0.875 -0.96875 2.4375l0 1.875q0 1.578125 0.953125 2.53125q0.953125 0.9375 2.296875 0.9375q1.34375 0 2.328125 -1.1875q0.984375 -1.1875 0.984375 -3.15625q0 -1.96875 -0.984375 -3.140625q-0.96875 -1.171875 -2.34375 -1.171875zm16.000336 2.640625q0 -1.5625 -0.65625 -2.234375q-0.640625 -0.671875 -1.875 -0.671875q-1.234375 0 -2.0 0.5q-0.75 0.484375 -0.75 1.546875l-2.09375 0q0 -2.640625 2.828125 -3.265625q0.875 -0.203125 1.875 -0.203125q2.140625 0 3.34375 1.09375q1.203125 1.078125 1.203125 3.28125l0 7.390625l-1.640625 0l-0.1875 -1.921875q-1.0625 2.1875 -3.8125 2.1875q-1.859375 0 -2.96875 -1.03125q-1.109375 -1.03125 -1.109375 -2.5625q0 -1.546875 1.234375 -2.40625q1.234375 -0.859375 3.078125 -0.859375q1.84375 0 3.53125 0.625l0 -1.46875zm0 2.65625q-1.703125 -0.46875 -2.984375 -0.46875q-1.265625 0 -2.0625 0.453125q-0.78125 0.453125 -0.78125 1.4375q0 2.15625 2.4375 2.15625q1.390625 0 2.390625 -0.984375q1.0 -1.0 1.0 -2.59375zm6.330597 -11.5625l1.890625 0l0 16.34375l-1.890625 0l0 -16.34375zm6.7199707 0l1.890625 0l0 16.34375l-1.890625 0l0 -16.34375zm6.126251 7.6875q0 -1.421875 1.203125 -2.265625q1.21875 -0.84375 3.28125 -0.84375q2.0625 0 3.21875 0.875q1.171875 0.859375 1.21875 2.171875l-1.84375 0q-0.21875 -1.546875 -2.640625 -1.546875q-1.171875 0 -1.8125 0.53125q-0.640625 0.515625 -0.640625 1.140625q0 0.609375 0.484375 1.03125q0.484375 0.40625 1.53125 0.71875l2.3125 0.765625q1.453125 0.46875 2.234375 1.171875q0.78125 0.703125 0.78125 1.9375q0 1.234375 -1.28125 2.234375q-1.265625 1.0 -3.546875 1.0q-2.265625 0 -3.546875 -1.015625q-1.265625 -1.03125 -1.34375 -2.640625l1.828125 0q0.046875 1.09375 0.875 1.640625q0.828125 0.53125 2.078125 0.53125q1.25 0 2.0625 -0.53125q0.8125 -0.53125 0.8125 -1.265625q0 -0.734375 -0.484375 -1.109375q-0.46875 -0.390625 -1.546875 -0.671875l-2.234375 -0.75q-3.0 -0.890625 -3.0 -3.109375zm11.655212 -5.125q0 -0.515625 0.375 -0.875q0.390625 -0.375 1.078125 -0.375q0.6875 0 1.125 0.53125q0.453125 0.53125 0.453125 1.375q0 0.84375 -0.5625 1.703125q-0.5625 0.84375 -1.625 1.390625l-1.34375 -0.71875q1.484375 -0.765625 1.796875 -1.828125q-0.546875 -0.046875 -0.921875 -0.359375q-0.375 -0.3125 -0.375 -0.84375z" fill-rule="nonzero"/></g></svg>