<svg version="1.1" viewBox="0.0 0.0 1581.286089238845 807.0" fill="none" stroke="none" stroke-linecap="square" stroke-miterlimit="10" xmlns:xlink="http://www.w3.org/1999/xlink" xmlns="http://www.w3.org/2000/svg"><clipPath id="p.0"><path d="m0 0l1581.2861 0l0 807.0l-1581.2861 0l0 -807.0z" clip-rule="nonzero"/></clipPath><g clip-path="url(#p.0)"><path fill="#000000" fill-opacity="0.0" d="m0 0l1581.2861 0l0 807.0l-1581.2861 0z" fill-rule="evenodd"/><path fill="#000000" fill-opacity="0.0" d="m1362.3359 332.33728l200.22046 0l0 111.1181l-200.22046 0z" fill-rule="evenodd"/><path stroke="#000000" stroke-width="4.0" stroke-linejoin="round" stroke-linecap="butt" d="m1362.3359 332.33728l200.22046 0l0 111.1181l-200.22046 0z" fill-rule="evenodd"/><path fill="#000000" d="m1412.0704 375.3482l0 2.734375l-11.921875 0l0 8.25l9.65625 0l0 2.625l-9.65625 0l0 8.484375l11.921875 0l0 2.734375l-15.296875 0l0 -24.828125l15.296875 0zm8.463257 15.828125l-5.90625 -8.546875l2.953125 0q0.390625 0 0.5625 0.125q0.171875 0.109375 0.3125 0.34375l4.296875 6.578125q0.15625 -0.484375 0.453125 -0.96875l3.765625 -5.546875q0.171875 -0.25 0.34375 -0.390625q0.1875 -0.140625 0.4375 -0.140625l2.84375 0l-5.90625 8.375l6.15625 9.171875l-2.96875 0q-0.375 0 -0.59375 -0.203125q-0.21875 -0.203125 -0.359375 -0.4375l-4.421875 -6.875q-0.125 0.5 -0.359375 0.890625l-4.09375 5.984375q-0.171875 0.234375 -0.375 0.4375q-0.1875 0.203125 -0.546875 0.203125l-2.75 0l6.15625 -9.0zm20.310425 -8.828125q1.578125 0 2.90625 0.53125q1.328125 0.515625 2.296875 1.515625q0.984375 1.0 1.515625 2.46875q0.546875 1.453125 0.546875 3.328125q0 0.734375 -0.15625 0.984375q-0.15625 0.234375 -0.578125 0.234375l-11.6875 0q0.03125 1.65625 0.453125 2.890625q0.421875 1.234375 1.140625 2.0625q0.734375 0.8125 1.734375 1.21875q1.0 0.40625 2.25 0.40625q1.171875 0 2.0 -0.265625q0.84375 -0.265625 1.453125 -0.578125q0.609375 -0.3125 1.015625 -0.578125q0.40625 -0.265625 0.703125 -0.265625q0.375 0 0.59375 0.28125l0.859375 1.140625q-0.578125 0.6875 -1.375 1.203125q-0.796875 0.5 -1.703125 0.828125q-0.90625 0.328125 -1.875 0.5q-0.96875 0.171875 -1.921875 0.171875q-1.828125 0 -3.359375 -0.609375q-1.53125 -0.625 -2.65625 -1.8125q-1.109375 -1.1875 -1.734375 -2.9375q-0.625 -1.75 -0.625 -4.015625q0 -1.84375 0.5625 -3.4375q0.5625 -1.59375 1.609375 -2.765625q1.0625 -1.171875 2.59375 -1.828125q1.53125 -0.671875 3.4375 -0.671875zm0.0625 2.265625q-2.234375 0 -3.515625 1.296875q-1.28125 1.28125 -1.59375 3.578125l9.546875 0q0 -1.078125 -0.296875 -1.96875q-0.296875 -0.890625 -0.875 -1.53125q-0.5625 -0.65625 -1.390625 -1.015625q-0.8125 -0.359375 -1.875 -0.359375zm23.112915 1.125q-0.140625 0.1875 -0.28125 0.296875q-0.125 0.109375 -0.390625 0.109375q-0.265625 0 -0.5625 -0.21875q-0.296875 -0.21875 -0.765625 -0.46875q-0.46875 -0.265625 -1.140625 -0.484375q-0.671875 -0.21875 -1.640625 -0.21875q-1.28125 0 -2.265625 0.46875q-0.984375 0.453125 -1.65625 1.328125q-0.671875 0.859375 -1.015625 2.09375q-0.328125 1.21875 -0.328125 2.75q0 1.59375 0.359375 2.828125q0.375 1.234375 1.03125 2.078125q0.65625 0.84375 1.59375 1.28125q0.953125 0.4375 2.125 0.4375q1.125 0 1.84375 -0.265625q0.734375 -0.265625 1.21875 -0.59375q0.5 -0.328125 0.796875 -0.59375q0.3125 -0.265625 0.625 -0.265625q0.40625 0 0.59375 0.28125l0.875 1.140625q-1.15625 1.390625 -2.875 2.046875q-1.703125 0.65625 -3.609375 0.65625q-1.65625 0 -3.0625 -0.609375q-1.40625 -0.609375 -2.453125 -1.765625q-1.03125 -1.15625 -1.640625 -2.828125q-0.59375 -1.6875 -0.59375 -3.828125q0 -1.96875 0.546875 -3.625q0.546875 -1.671875 1.59375 -2.875q1.046875 -1.203125 2.59375 -1.875q1.546875 -0.671875 3.53125 -0.671875q1.84375 0 3.25 0.59375q1.421875 0.59375 2.515625 1.6875l-0.8125 1.109375zm6.887451 -3.109375l0 11.1875q0 2.0 0.90625 3.09375q0.921875 1.078125 2.78125 1.078125q1.34375 0 2.53125 -0.640625q1.203125 -0.640625 2.21875 -1.78125l0 -12.9375l3.078125 0l0 17.546875l-1.828125 0q-0.671875 0 -0.84375 -0.640625l-0.234375 -1.890625q-1.140625 1.265625 -2.5625 2.046875q-1.421875 0.765625 -3.265625 0.765625q-1.4375 0 -2.546875 -0.46875q-1.09375 -0.484375 -1.84375 -1.34375q-0.734375 -0.875 -1.109375 -2.109375q-0.375 -1.234375 -0.375 -2.71875l0 -11.1875l3.09375 0zm21.909424 17.828125q-2.078125 0 -3.203125 -1.15625q-1.109375 -1.171875 -1.109375 -3.359375l0 -10.734375l-2.109375 0q-0.28125 0 -0.46875 -0.15625q-0.1875 -0.171875 -0.1875 -0.515625l0 -1.234375l2.875 -0.359375l0.703125 -5.4375q0.046875 -0.25 0.234375 -0.40625q0.1875 -0.171875 0.484375 -0.171875l1.5625 0l0 6.046875l5.015625 0l0 2.234375l-5.015625 0l0 10.53125q0 1.109375 0.53125 1.65625q0.53125 0.53125 1.390625 0.53125q0.484375 0 0.828125 -0.125q0.359375 -0.140625 0.625 -0.296875q0.265625 -0.15625 0.4375 -0.28125q0.1875 -0.125 0.328125 -0.125q0.234375 0 0.421875 0.28125l0.90625 1.484375q-0.796875 0.734375 -1.921875 1.171875q-1.125 0.421875 -2.328125 0.421875zm14.723511 -18.109375q1.921875 0 3.46875 0.640625q1.546875 0.640625 2.625 1.828125q1.09375 1.171875 1.671875 2.84375q0.578125 1.671875 0.578125 3.734375q0 2.078125 -0.578125 3.75q-0.578125 1.65625 -1.671875 2.84375q-1.078125 1.171875 -2.625 1.8125q-1.546875 0.625 -3.46875 0.625q-1.921875 0 -3.484375 -0.625q-1.546875 -0.640625 -2.640625 -1.8125q-1.09375 -1.1875 -1.6875 -2.84375q-0.578125 -1.671875 -0.578125 -3.75q0 -2.0625 0.578125 -3.734375q0.59375 -1.671875 1.6875 -2.84375q1.09375 -1.1875 2.640625 -1.828125q1.5625 -0.640625 3.484375 -0.640625zm0 15.65625q2.59375 0 3.875 -1.734375q1.28125 -1.75 1.28125 -4.859375q0 -3.140625 -1.28125 -4.890625q-1.28125 -1.75 -3.875 -1.75q-1.328125 0 -2.296875 0.453125q-0.96875 0.453125 -1.625 1.296875q-0.640625 0.84375 -0.96875 2.09375q-0.3125 1.234375 -0.3125 2.796875q0 1.5625 0.3125 2.796875q0.328125 1.21875 0.96875 2.0625q0.65625 0.84375 1.625 1.296875q0.96875 0.4375 2.296875 0.4375zm12.159424 2.171875l0 -17.546875l1.765625 0q0.5 0 0.6875 0.1875q0.203125 0.1875 0.265625 0.65625l0.203125 2.734375q0.90625 -1.828125 2.234375 -2.859375q1.328125 -1.03125 3.109375 -1.03125q0.71875 0 1.3125 0.171875q0.59375 0.15625 1.09375 0.453125l-0.390625 2.296875q-0.125 0.4375 -0.546875 0.4375q-0.234375 0 -0.75 -0.15625q-0.5 -0.171875 -1.390625 -0.171875q-1.609375 0 -2.703125 0.9375q-1.078125 0.921875 -1.8125 2.71875l0 11.171875l-3.078125 0z" fill-rule="nonzero"/><path fill="#000000" fill-opacity="0.0" d="m922.30316 253.93832l0 78.39371" fill-rule="evenodd"/><path stroke="#000000" stroke-width="4.0" stroke-linejoin="round" stroke-linecap="butt" d="m922.30316 253.93832l0 54.393707" fill-rule="evenodd"/><path stroke="#000000" stroke-width="4.0" stroke-linecap="butt" d="m915.6962 308.33203l6.6069336 18.152374l6.6069336 -18.152374z" fill-rule="evenodd"/><path fill="#000000" fill-opacity="0.0" d="m190.41339 387.89764l69.921265 0" fill-rule="evenodd"/><path stroke="#000000" stroke-width="4.0" stroke-linejoin="round" stroke-linecap="butt" d="m190.41339 387.89764l45.92125 0" fill-rule="evenodd"/><path stroke="#000000" stroke-width="4.0" stroke-linecap="butt" d="m236.33464 394.50458l18.15239 -6.6069336l-18.15239 -6.6069336z" fill-rule="evenodd"/><path fill="#000000" fill-opacity="0.0" d="m260.32153 332.3386l200.22046 0l0 111.1181l-200.22046 0z" fill-rule="evenodd"/><path stroke="#000000" stroke-width="4.0" stroke-linejoin="round" stroke-linecap="butt" d="m260.32153 332.3386l200.22046 0l0 111.1181l-200.22046 0z" fill-rule="evenodd"/><path fill="#000000" d="m317.19553 390.8964l0 9.28125l-3.34375 0l0 -24.828125l7.328125 0q2.359375 0 4.09375 0.546875q1.75 0.546875 2.890625 1.546875q1.140625 1.0 1.703125 2.421875q0.5625 1.421875 0.5625 3.171875q0 1.734375 -0.609375 3.171875q-0.59375 1.4375 -1.765625 2.484375q-1.171875 1.03125 -2.90625 1.625q-1.734375 0.578125 -3.96875 0.578125l-3.984375 0zm0 -2.671875l3.984375 0q1.4375 0 2.53125 -0.375q1.109375 -0.390625 1.859375 -1.078125q0.75 -0.6875 1.125 -1.640625q0.375 -0.953125 0.375 -2.09375q0 -2.375 -1.46875 -3.703125q-1.453125 -1.34375 -4.421875 -1.34375l-3.984375 0l0 10.234375zm29.893585 11.953125l-1.375 0q-0.4375 0 -0.71875 -0.140625q-0.28125 -0.140625 -0.359375 -0.59375l-0.359375 -1.625q-0.6875 0.625 -1.34375 1.125q-0.65625 0.484375 -1.390625 0.828125q-0.71875 0.34375 -1.546875 0.515625q-0.828125 0.171875 -1.828125 0.171875q-1.03125 0 -1.921875 -0.28125q-0.890625 -0.296875 -1.546875 -0.859375q-0.65625 -0.578125 -1.046875 -1.453125q-0.390625 -0.875 -0.390625 -2.078125q0 -1.03125 0.5625 -1.984375q0.578125 -0.96875 1.84375 -1.71875q1.28125 -0.75 3.34375 -1.21875q2.0625 -0.484375 5.046875 -0.546875l0 -1.375q0 -2.03125 -0.875 -3.078125q-0.875 -1.0625 -2.59375 -1.0625q-1.125 0 -1.90625 0.296875q-0.765625 0.28125 -1.328125 0.640625q-0.5625 0.34375 -0.96875 0.640625q-0.40625 0.28125 -0.796875 0.28125q-0.3125 0 -0.546875 -0.15625q-0.234375 -0.171875 -0.375 -0.421875l-0.5625 -0.984375q1.46875 -1.40625 3.140625 -2.09375q1.6875 -0.6875 3.734375 -0.6875q1.46875 0 2.609375 0.484375q1.140625 0.484375 1.921875 1.359375q0.78125 0.859375 1.171875 2.09375q0.40625 1.21875 0.40625 2.6875l0 11.234375zm-8.0 -1.890625q0.8125 0 1.484375 -0.15625q0.671875 -0.171875 1.265625 -0.46875q0.609375 -0.3125 1.15625 -0.734375q0.546875 -0.4375 1.0625 -1.0l0 -3.65625q-2.125 0.078125 -3.625 0.34375q-1.484375 0.265625 -2.421875 0.703125q-0.9375 0.4375 -1.359375 1.03125q-0.421875 0.578125 -0.421875 1.3125q0 0.6875 0.21875 1.1875q0.21875 0.5 0.59375 0.828125q0.390625 0.3125 0.90625 0.46875q0.53125 0.140625 1.140625 0.140625zm12.679993 1.890625l0 -17.546875l1.765625 0q0.5 0 0.6875 0.1875q0.203125 0.1875 0.265625 0.65625l0.203125 2.734375q0.90625 -1.828125 2.234375 -2.859375q1.328125 -1.03125 3.109375 -1.03125q0.71875 0 1.3125 0.171875q0.59375 0.15625 1.09375 0.453125l-0.390625 2.296875q-0.125 0.4375 -0.546875 0.4375q-0.234375 0 -0.75 -0.15625q-0.5 -0.171875 -1.390625 -0.171875q-1.609375 0 -2.703125 0.9375q-1.078125 0.921875 -1.8125 2.71875l0 11.171875l-3.078125 0zm24.013275 -14.65625q-0.203125 0.375 -0.640625 0.375q-0.265625 0 -0.59375 -0.1875q-0.328125 -0.1875 -0.8125 -0.421875q-0.46875 -0.234375 -1.125 -0.4375q-0.65625 -0.203125 -1.5625 -0.203125q-0.78125 0 -1.40625 0.203125q-0.609375 0.203125 -1.0625 0.546875q-0.4375 0.34375 -0.671875 0.8125q-0.234375 0.453125 -0.234375 0.984375q0 0.6875 0.390625 1.140625q0.390625 0.4375 1.03125 0.765625q0.640625 0.328125 1.453125 0.59375q0.8125 0.25 1.671875 0.53125q0.859375 0.28125 1.671875 0.640625q0.8125 0.34375 1.453125 0.859375q0.640625 0.515625 1.03125 1.28125q0.390625 0.75 0.390625 1.796875q0 1.21875 -0.4375 2.25q-0.421875 1.03125 -1.28125 1.78125q-0.84375 0.75 -2.078125 1.1875q-1.21875 0.4375 -2.828125 0.4375q-1.84375 0 -3.34375 -0.59375q-1.484375 -0.609375 -2.515625 -1.546875l0.71875 -1.171875q0.140625 -0.21875 0.328125 -0.34375q0.203125 -0.125 0.515625 -0.125q0.3125 0 0.65625 0.25q0.34375 0.234375 0.828125 0.53125q0.5 0.296875 1.203125 0.546875q0.703125 0.234375 1.765625 0.234375q0.890625 0 1.5625 -0.234375q0.6875 -0.234375 1.125 -0.625q0.453125 -0.40625 0.671875 -0.921875q0.21875 -0.53125 0.21875 -1.109375q0 -0.734375 -0.390625 -1.203125q-0.390625 -0.484375 -1.03125 -0.8125q-0.640625 -0.34375 -1.46875 -0.59375q-0.8125 -0.25 -1.671875 -0.53125q-0.859375 -0.28125 -1.6875 -0.625q-0.8125 -0.359375 -1.453125 -0.890625q-0.640625 -0.546875 -1.03125 -1.328125q-0.390625 -0.796875 -0.390625 -1.921875q0 -1.0 0.40625 -1.921875q0.421875 -0.9375 1.21875 -1.640625q0.796875 -0.703125 1.953125 -1.109375q1.171875 -0.421875 2.65625 -0.421875q1.734375 0 3.109375 0.546875q1.375 0.546875 2.375 1.5l-0.6875 1.125zm11.94696 -3.171875q1.578125 0 2.90625 0.53125q1.328125 0.515625 2.296875 1.515625q0.984375 1.0 1.515625 2.46875q0.546875 1.453125 0.546875 3.328125q0 0.734375 -0.15625 0.984375q-0.15625 0.234375 -0.578125 0.234375l-11.6875 0q0.03125 1.65625 0.453125 2.890625q0.421875 1.234375 1.140625 2.0625q0.734375 0.8125 1.734375 1.21875q1.0 0.40625 2.25 0.40625q1.171875 0 2.0 -0.265625q0.84375 -0.265625 1.453125 -0.578125q0.609375 -0.3125 1.015625 -0.578125q0.40625 -0.265625 0.703125 -0.265625q0.375 0 0.59375 0.28125l0.859375 1.140625q-0.578125 0.6875 -1.375 1.203125q-0.796875 0.5 -1.703125 0.828125q-0.90625 0.328125 -1.875 0.5q-0.96875 0.171875 -1.921875 0.171875q-1.828125 0 -3.359375 -0.609375q-1.53125 -0.625 -2.65625 -1.8125q-1.109375 -1.1875 -1.734375 -2.9375q-0.625 -1.75 -0.625 -4.015625q0 -1.84375 0.5625 -3.4375q0.5625 -1.59375 1.609375 -2.765625q1.0625 -1.171875 2.59375 -1.828125q1.53125 -0.671875 3.4375 -0.671875zm0.0625 2.265625q-2.234375 0 -3.515625 1.296875q-1.28125 1.28125 -1.59375 3.578125l9.546875 0q0 -1.078125 -0.296875 -1.96875q-0.296875 -0.890625 -0.875 -1.53125q-0.5625 -0.65625 -1.390625 -1.015625q-0.8125 -0.359375 -1.875 -0.359375zm11.144165 15.5625l0 -17.546875l1.765625 0q0.5 0 0.6875 0.1875q0.203125 0.1875 0.265625 0.65625l0.203125 2.734375q0.90625 -1.828125 2.234375 -2.859375q1.328125 -1.03125 3.109375 -1.03125q0.71875 0 1.3125 0.171875q0.59375 0.15625 1.09375 0.453125l-0.390625 2.296875q-0.125 0.4375 -0.546875 0.4375q-0.234375 0 -0.75 -0.15625q-0.5 -0.171875 -1.390625 -0.171875q-1.609375 0 -2.703125 0.9375q-1.078125 0.921875 -1.8125 2.71875l0 11.171875l-3.078125 0z" fill-rule="nonzero"/><path fill="#000000" fill-opacity="0.0" d="m460.542 387.89764l69.88977 0" fill-rule="evenodd"/><path stroke="#000000" stroke-width="4.0" stroke-linejoin="round" stroke-linecap="butt" d="m460.542 387.89764l45.88977 0" fill-rule="evenodd"/><path stroke="#000000" stroke-width="4.0" stroke-linecap="butt" d="m506.43176 394.50458l18.152405 -6.6069336l-18.152405 -6.6069336z" fill-rule="evenodd"/><path fill="#000000" fill-opacity="0.0" d="m18.728346 387.89764l0 0c0 -30.684418 38.433006 -55.55905 85.84252 -55.55905l0 0c47.409508 0 85.84252 24.874634 85.84252 55.55905l0 0c0 30.684418 -38.433014 55.55905 -85.84252 55.55905l0 0c-47.40952 0 -85.84252 -24.874634 -85.84252 -55.55905z" fill-rule="evenodd"/><path stroke="#000000" stroke-width="4.0" stroke-linejoin="round" stroke-linecap="butt" d="m18.728346 387.89764l0 0c0 -30.684418 38.433006 -55.55905 85.84252 -55.55905l0 0c47.409508 0 85.84252 24.874634 85.84252 55.55905l0 0c0 30.684418 -38.433014 55.55905 -85.84252 55.55905l0 0c-47.40952 0 -85.84252 -24.874634 -85.84252 -55.55905z" fill-rule="evenodd"/><path fill="#000000" d="m82.251816 387.7714q0 1.75 -0.359375 3.328125q-0.34375 1.578125 -1.03125 2.9375q-0.671875 1.359375 -1.640625 2.46875q-0.96875 1.109375 -2.1875 1.921875l6.375 6.875l-2.765625 0q-0.625 0 -1.109375 -0.171875q-0.484375 -0.171875 -0.890625 -0.609375l-4.359375 -4.75q-0.984375 0.3125 -2.0625 0.484375q-1.0625 0.1875 -2.21875 0.1875q-2.734375 0 -5.0 -0.921875q-2.2500038 -0.9375 -3.8593788 -2.609375q-1.609375 -1.6875 -2.5 -4.015625q-0.875 -2.328125 -0.875 -5.125q0 -2.796875 0.875 -5.125q0.890625 -2.328125 2.5 -4.015625q1.609375 -1.6875 3.8593788 -2.625q2.265625 -0.9375 5.0 -0.9375q2.734375 0 5.0 0.9375q2.265625 0.9375 3.875 2.625q1.609375 1.6875 2.484375 4.015625q0.890625 2.328125 0.890625 5.125zm-3.453125 0q0 -2.28125 -0.625 -4.09375q-0.625 -1.828125 -1.765625 -3.078125q-1.140625 -1.265625 -2.765625 -1.9375q-1.625 -0.6875 -3.640625 -0.6875q-2.0 0 -3.625 0.6875q-1.625 0.671875 -2.7812538 1.9375q-1.15625 1.25 -1.78125 3.078125q-0.609375 1.8125 -0.609375 4.09375q0 2.28125 0.609375 4.09375q0.625 1.8125 1.78125 3.078125q1.1562538 1.25 2.7812538 1.921875q1.625 0.65625 3.625 0.65625q2.015625 0 3.640625 -0.65625q1.625 -0.671875 2.765625 -1.921875q1.140625 -1.265625 1.765625 -3.078125q0.625 -1.8125 0.625 -4.09375zm10.233658 -5.140625l0 11.1875q0 2.0 0.90625 3.09375q0.921875 1.078125 2.78125 1.078125q1.34375 0 2.53125 -0.640625q1.203125 -0.640625 2.21875 -1.78125l0 -12.9375l3.078125 0l0 17.546875l-1.828125 0q-0.671875 0 -0.84375 -0.640625l-0.234375 -1.890625q-1.140625 1.265625 -2.5625 2.046875q-1.421875 0.765625 -3.265625 0.765625q-1.4375 0 -2.546875 -0.46875q-1.09375 -0.484375 -1.84375 -1.34375q-0.734375 -0.875 -1.109375 -2.109375q-0.375 -1.234375 -0.375 -2.71875l0 -11.1875l3.09375 0zm23.550018 -0.28125q1.578125 0 2.90625 0.53125q1.328125 0.515625 2.296875 1.515625q0.984375 1.0 1.515625 2.46875q0.546875 1.453125 0.546875 3.328125q0 0.734375 -0.15625 0.984375q-0.15625 0.234375 -0.578125 0.234375l-11.6875 0q0.03125 1.65625 0.453125 2.890625q0.421875 1.234375 1.140625 2.0625q0.734375 0.8125 1.734375 1.21875q1.0 0.40625 2.25 0.40625q1.171875 0 2.0 -0.265625q0.84375 -0.265625 1.453125 -0.578125q0.609375 -0.3125 1.015625 -0.578125q0.40625 -0.265625 0.703125 -0.265625q0.375 0 0.59375 0.28125l0.859375 1.140625q-0.578125 0.6875 -1.375 1.203125q-0.796875 0.5 -1.703125 0.828125q-0.90625 0.328125 -1.875 0.5q-0.96875 0.171875 -1.921875 0.171875q-1.828125 0 -3.359375 -0.609375q-1.53125 -0.625 -2.65625 -1.8125q-1.109375 -1.1875 -1.734375 -2.9375q-0.625 -1.75 -0.625 -4.015625q0 -1.84375 0.5625 -3.4375q0.5625 -1.59375 1.609375 -2.765625q1.0625 -1.171875 2.59375 -1.828125q1.53125 -0.671875 3.4375 -0.671875zm0.0625 2.265625q-2.234375 0 -3.515625 1.296875q-1.28125 1.28125 -1.59375 3.578125l9.546875 0q0 -1.078125 -0.296875 -1.96875q-0.296875 -0.890625 -0.875 -1.53125q-0.5625 -0.65625 -1.390625 -1.015625q-0.8125 -0.359375 -1.875 -0.359375zm11.14415 15.5625l0 -17.546875l1.765625 0q0.5 0 0.6875 0.1875q0.203125 0.1875 0.265625 0.65625l0.203125 2.734375q0.90625 -1.828125 2.234375 -2.859375q1.328125 -1.03125 3.109375 -1.03125q0.71875 0 1.3125 0.171875q0.59375 0.15625 1.09375 0.453125l-0.390625 2.296875q-0.125 0.4375 -0.546875 0.4375q-0.234375 0 -0.75 -0.15625q-0.5 -0.171875 -1.390625 -0.171875q-1.609375 0 -2.703125 0.9375q-1.078125 0.921875 -1.8125 2.71875l0 11.171875l-3.078125 0zm19.10701 5.1875q-0.15625 0.34375 -0.390625 0.546875q-0.234375 0.203125 -0.71875 0.203125l-2.28125 0l3.203125 -6.953125l-7.234375 -16.53125l2.65625 0q0.40625 0 0.625 0.203125q0.234375 0.1875 0.328125 0.4375l4.703125 11.046875q0.15625 0.390625 0.265625 0.765625q0.109375 0.375 0.203125 0.78125q0.125 -0.40625 0.234375 -0.78125q0.125 -0.375 0.28125 -0.78125l4.5625 -11.03125q0.09375 -0.28125 0.34375 -0.453125q0.265625 -0.1875 0.546875 -0.1875l2.46875 0l-9.796875 22.734375z" fill-rule="nonzero"/><path fill="#000000" fill-opacity="0.0" d="m1022.4134 387.89633l47.527527 0" fill-rule="evenodd"/><path stroke="#000000" stroke-width="4.0" stroke-linejoin="round" stroke-linecap="butt" d="m1022.4134 387.89633l23.527527 0" fill-rule="evenodd"/><path stroke="#000000" stroke-width="4.0" stroke-linecap="butt" d="m1045.9409 394.50327l18.152466 -6.6069336l-18.152466 -6.6069336z" fill-rule="evenodd"/><path fill="#000000" fill-opacity="0.0" d="m1314.8008 387.89764l47.527466 0" fill-rule="evenodd"/><path stroke="#000000" stroke-width="4.0" stroke-linejoin="round" stroke-linecap="butt" d="m1314.8008 387.89764l23.527588 0" fill-rule="evenodd"/><path stroke="#000000" stroke-width="4.0" stroke-linecap="butt" d="m1338.3284 394.50458l18.152344 -6.6069336l-18.152344 -6.6069336z" fill-rule="evenodd"/><path fill="#000000" fill-opacity="0.0" d="m817.01184 193.98557l0 0c0 -33.110992 47.140503 -59.95276 105.29132 -59.95276l0 0c58.150818 0 105.29132 26.841766 105.29132 59.95276l0 0c0 33.110992 -47.140503 59.95276 -105.29132 59.95276l0 0c-58.150818 0 -105.29132 -26.841766 -105.29132 -59.95276z" fill-rule="evenodd"/><path stroke="#000000" stroke-width="4.0" stroke-linejoin="round" stroke-linecap="butt" d="m817.01184 193.98557l0 0c0 -33.110992 47.140503 -59.95276 105.29132 -59.95276l0 0c58.150818 0 105.29132 26.841766 105.29132 59.95276l0 0c0 33.110992 -47.140503 59.95276 -105.29132 59.95276l0 0c-58.150818 0 -105.29132 -26.841766 -105.29132 -59.95276z" fill-rule="evenodd"/><path fill="#000000" d="m886.2787 164.31244q-0.15625 0.265625 -0.328125 0.390625q-0.171875 0.125 -0.453125 0.125q-0.296875 0 -0.6875 -0.28125q-0.390625 -0.296875 -0.984375 -0.65625q-0.59375 -0.359375 -1.4375 -0.640625q-0.84375 -0.296875 -2.03125 -0.296875q-1.125 0 -2.0 0.296875q-0.859375 0.296875 -1.453125 0.828125q-0.578125 0.515625 -0.875 1.21875q-0.28125 0.703125 -0.28125 1.515625q0 1.03125 0.5 1.71875q0.515625 0.6875 1.359375 1.171875q0.84375 0.484375 1.90625 0.84375q1.0625 0.359375 2.171875 0.734375q1.125 0.375 2.1875 0.859375q1.078125 0.46875 1.90625 1.203125q0.84375 0.734375 1.359375 1.796875q0.515625 1.046875 0.515625 2.59375q0 1.625 -0.5625 3.0625q-0.546875 1.421875 -1.625 2.484375q-1.0625 1.046875 -2.609375 1.65625q-1.546875 0.609375 -3.53125 0.609375q-2.40625 0 -4.390625 -0.875q-1.984375 -0.875 -3.390625 -2.375l0.96875 -1.59375q0.140625 -0.1875 0.34375 -0.3125q0.203125 -0.125 0.4375 -0.125q0.375 0 0.84375 0.390625q0.46875 0.375 1.15625 0.84375q0.703125 0.46875 1.703125 0.859375q1.0 0.390625 2.4375 0.390625q1.1875 0 2.125 -0.328125q0.9375 -0.328125 1.578125 -0.921875q0.65625 -0.59375 1.0 -1.421875q0.359375 -0.84375 0.359375 -1.859375q0 -1.125 -0.515625 -1.84375q-0.515625 -0.71875 -1.34375 -1.203125q-0.828125 -0.5 -1.90625 -0.828125q-1.0625 -0.34375 -2.1875 -0.6875q-1.109375 -0.359375 -2.171875 -0.828125q-1.0625 -0.46875 -1.890625 -1.21875q-0.828125 -0.75 -1.34375 -1.859375q-0.515625 -1.125 -0.515625 -2.765625q0 -1.3125 0.515625 -2.546875q0.515625 -1.234375 1.484375 -2.1875q0.96875 -0.953125 2.390625 -1.515625q1.4375 -0.578125 3.28125 -0.578125q2.078125 0 3.796875 0.65625q1.71875 0.65625 3.0 1.90625l-0.8125 1.59375zm12.117737 3.125q1.578125 0 2.90625 0.53125q1.328125 0.515625 2.296875 1.515625q0.984375 1.0 1.515625 2.46875q0.546875 1.453125 0.546875 3.328125q0 0.734375 -0.15625 0.984375q-0.15625 0.234375 -0.578125 0.234375l-11.6875 0q0.03125 1.65625 0.453125 2.890625q0.421875 1.234375 1.140625 2.0625q0.734375 0.8125 1.734375 1.21875q1.0 0.40625 2.25 0.40625q1.171875 0 2.0 -0.265625q0.84375 -0.265625 1.453125 -0.578125q0.609375 -0.3125 1.015625 -0.578125q0.40625 -0.265625 0.703125 -0.265625q0.375 0 0.59375 0.28125l0.859375 1.140625q-0.578125 0.6875 -1.375 1.203125q-0.796875 0.5 -1.703125 0.828125q-0.90625 0.328125 -1.875 0.5q-0.96875 0.171875 -1.921875 0.171875q-1.828125 0 -3.359375 -0.609375q-1.53125 -0.625 -2.65625 -1.8125q-1.109375 -1.1875 -1.734375 -2.9375q-0.625 -1.75 -0.625 -4.015625q0 -1.84375 0.5625 -3.4375q0.5625 -1.59375 1.609375 -2.765625q1.0625 -1.171875 2.59375 -1.828125q1.53125 -0.671875 3.4375 -0.671875zm0.0625 2.265625q-2.234375 0 -3.515625 1.296875q-1.28125 1.28125 -1.59375 3.578125l9.546875 0q0 -1.078125 -0.296875 -1.96875q-0.296875 -0.890625 -0.875 -1.53125q-0.5625 -0.65625 -1.390625 -1.015625q-0.8125 -0.359375 -1.875 -0.359375zm24.03479 15.5625l-1.375 0q-0.4375 0 -0.71875 -0.140625q-0.28125 -0.140625 -0.359375 -0.59375l-0.359375 -1.625q-0.6875 0.625 -1.34375 1.125q-0.65625 0.484375 -1.390625 0.828125q-0.71875 0.34375 -1.546875 0.515625q-0.828125 0.171875 -1.828125 0.171875q-1.03125 0 -1.921875 -0.28125q-0.890625 -0.296875 -1.546875 -0.859375q-0.65625 -0.578125 -1.046875 -1.453125q-0.390625 -0.875 -0.390625 -2.078125q0 -1.03125 0.5625 -1.984375q0.578125 -0.96875 1.84375 -1.71875q1.28125 -0.75 3.34375 -1.21875q2.0625 -0.484375 5.046875 -0.546875l0 -1.375q0 -2.03125 -0.875 -3.078125q-0.875 -1.0625 -2.59375 -1.0625q-1.125 0 -1.90625 0.296875q-0.765625 0.28125 -1.328125 0.640625q-0.5625 0.34375 -0.96875 0.640625q-0.40625 0.28125 -0.796875 0.28125q-0.3125 0 -0.546875 -0.15625q-0.234375 -0.171875 -0.375 -0.421875l-0.5625 -0.984375q1.46875 -1.40625 3.140625 -2.09375q1.6875 -0.6875 3.734375 -0.6875q1.46875 0 2.609375 0.484375q1.140625 0.484375 1.921875 1.359375q0.78125 0.859375 1.171875 2.09375q0.40625 1.21875 0.40625 2.6875l0 11.234375zm-8.0 -1.890625q0.8125 0 1.484375 -0.15625q0.671875 -0.171875 1.265625 -0.46875q0.609375 -0.3125 1.15625 -0.734375q0.546875 -0.4375 1.0625 -1.0l0 -3.65625q-2.125 0.078125 -3.625 0.34375q-1.484375 0.265625 -2.421875 0.703125q-0.9375 0.4375 -1.359375 1.03125q-0.421875 0.578125 -0.421875 1.3125q0 0.6875 0.21875 1.1875q0.21875 0.5 0.59375 0.828125q0.390625 0.3125 0.90625 0.46875q0.53125 0.140625 1.140625 0.140625zm12.679993 1.890625l0 -17.546875l1.765625 0q0.5 0 0.6875 0.1875q0.203125 0.1875 0.265625 0.65625l0.203125 2.734375q0.90625 -1.828125 2.234375 -2.859375q1.328125 -1.03125 3.109375 -1.03125q0.71875 0 1.3125 0.171875q0.59375 0.15625 1.09375 0.453125l-0.390625 2.296875q-0.125 0.4375 -0.546875 0.4375q-0.234375 0 -0.75 -0.15625q-0.5 -0.171875 -1.390625 -0.171875q-1.609375 0 -2.703125 0.9375q-1.078125 0.921875 -1.8125 2.71875l0 11.171875l-3.078125 0zm25.93512 -14.4375q-0.140625 0.1875 -0.28125 0.296875q-0.125 0.109375 -0.390625 0.109375q-0.265625 0 -0.5625 -0.21875q-0.296875 -0.21875 -0.765625 -0.46875q-0.46875 -0.265625 -1.140625 -0.484375q-0.671875 -0.21875 -1.640625 -0.21875q-1.28125 0 -2.265625 0.46875q-0.984375 0.453125 -1.65625 1.328125q-0.671875 0.859375 -1.015625 2.09375q-0.328125 1.21875 -0.328125 2.75q0 1.59375 0.359375 2.828125q0.375 1.234375 1.03125 2.078125q0.65625 0.84375 1.59375 1.28125q0.953125 0.4375 2.125 0.4375q1.125 0 1.84375 -0.265625q0.734375 -0.265625 1.21875 -0.59375q0.5 -0.328125 0.796875 -0.59375q0.3125 -0.265625 0.625 -0.265625q0.40625 0 0.59375 0.28125l0.875 1.140625q-1.15625 1.390625 -2.875 2.046875q-1.703125 0.65625 -3.609375 0.65625q-1.65625 0 -3.0625 -0.609375q-1.40625 -0.609375 -2.453125 -1.765625q-1.03125 -1.15625 -1.640625 -2.828125q-0.59375 -1.6875 -0.59375 -3.828125q0 -1.96875 0.546875 -3.625q0.546875 -1.671875 1.59375 -2.875q1.046875 -1.203125 2.59375 -1.875q1.546875 -0.671875 3.53125 -0.671875q1.84375 0 3.25 0.59375q1.421875 0.59375 2.515625 1.6875l-0.8125 1.109375zm4.215637 14.4375l0 -25.53125l3.078125 0l0 10.328125q1.125 -1.1875 2.5 -1.90625q1.375 -0.71875 3.15625 -0.71875q1.4375 0 2.53125 0.484375q1.109375 0.46875 1.84375 1.34375q0.734375 0.875 1.109375 2.109375q0.390625 1.21875 0.390625 2.71875l0 11.171875l-3.09375 0l0 -11.171875q0 -2.0 -0.90625 -3.09375q-0.90625 -1.109375 -2.78125 -1.109375q-1.359375 0 -2.546875 0.671875q-1.1875 0.65625 -2.203125 1.78125l0 12.921875l-3.078125 0z" fill-rule="nonzero"/><path fill="#000000" d="m891.83844 212.60931q-0.203125 0.375 -0.640625 0.375q-0.265625 0 -0.59375 -0.1875q-0.328125 -0.1875 -0.8125 -0.421875q-0.46875 -0.234375 -1.125 -0.4375q-0.65625 -0.203125 -1.5625 -0.203125q-0.78125 0 -1.40625 0.203125q-0.609375 0.203125 -1.0625 0.546875q-0.4375 0.34375 -0.671875 0.8125q-0.234375 0.453125 -0.234375 0.984375q0 0.6875 0.390625 1.140625q0.390625 0.4375 1.03125 0.765625q0.640625 0.328125 1.453125 0.59375q0.8125 0.25 1.671875 0.53125q0.859375 0.28125 1.671875 0.640625q0.8125 0.34375 1.453125 0.859375q0.640625 0.515625 1.03125 1.28125q0.390625 0.75 0.390625 1.796875q0 1.21875 -0.4375 2.25q-0.421875 1.03125 -1.28125 1.78125q-0.84375 0.75 -2.078125 1.1875q-1.21875 0.4375 -2.828125 0.4375q-1.84375 0 -3.34375 -0.59375q-1.484375 -0.609375 -2.515625 -1.546875l0.71875 -1.171875q0.140625 -0.21875 0.328125 -0.34375q0.203125 -0.125 0.515625 -0.125q0.3125 0 0.65625 0.25q0.34375 0.234375 0.828125 0.53125q0.5 0.296875 1.203125 0.546875q0.703125 0.234375 1.765625 0.234375q0.890625 0 1.5625 -0.234375q0.6875 -0.234375 1.125 -0.625q0.453125 -0.40625 0.671875 -0.921875q0.21875 -0.53125 0.21875 -1.109375q0 -0.734375 -0.390625 -1.203125q-0.390625 -0.484375 -1.03125 -0.8125q-0.640625 -0.34375 -1.46875 -0.59375q-0.8125 -0.25 -1.671875 -0.53125q-0.859375 -0.28125 -1.6875 -0.625q-0.8125 -0.359375 -1.453125 -0.890625q-0.640625 -0.546875 -1.03125 -1.328125q-0.390625 -0.796875 -0.390625 -1.921875q0 -1.0 0.40625 -1.921875q0.421875 -0.9375 1.21875 -1.640625q0.796875 -0.703125 1.953125 -1.109375q1.171875 -0.421875 2.65625 -0.421875q1.734375 0 3.109375 0.546875q1.375 0.546875 2.375 1.5l-0.6875 1.125zm4.9938965 20.59375l0 -23.484375l1.828125 0q0.671875 0 0.84375 0.640625l0.25 2.078125q1.125 -1.375 2.578125 -2.203125q1.453125 -0.828125 3.328125 -0.828125q1.515625 0 2.734375 0.578125q1.234375 0.578125 2.09375 1.71875q0.875 1.125 1.34375 2.8125q0.46875 1.671875 0.46875 3.859375q0 1.9375 -0.515625 3.609375q-0.515625 1.671875 -1.5 2.90625q-0.96875 1.21875 -2.375 1.921875q-1.40625 0.703125 -3.171875 0.703125q-1.640625 0 -2.796875 -0.53125q-1.140625 -0.546875 -2.03125 -1.53125l0 7.75l-3.078125 0zm7.8125 -21.3125q-1.5 0 -2.640625 0.703125q-1.140625 0.6875 -2.09375 1.953125l0 8.484375q0.859375 1.15625 1.859375 1.625q1.015625 0.453125 2.265625 0.453125q2.453125 0 3.765625 -1.75q1.3125 -1.75 1.3125 -4.984375q0 -1.71875 -0.3125 -2.9375q-0.296875 -1.234375 -0.875 -2.015625q-0.5625 -0.796875 -1.390625 -1.15625q-0.828125 -0.375 -1.890625 -0.375zm24.208252 15.375l-1.375 0q-0.4375 0 -0.71875 -0.140625q-0.28125 -0.140625 -0.359375 -0.59375l-0.359375 -1.625q-0.6875 0.625 -1.34375 1.125q-0.65625 0.484375 -1.390625 0.828125q-0.71875 0.34375 -1.546875 0.515625q-0.828125 0.171875 -1.828125 0.171875q-1.03125 0 -1.921875 -0.28125q-0.890625 -0.296875 -1.546875 -0.859375q-0.65625 -0.578125 -1.046875 -1.453125q-0.390625 -0.875 -0.390625 -2.078125q0 -1.03125 0.5625 -1.984375q0.578125 -0.96875 1.84375 -1.71875q1.28125 -0.75 3.34375 -1.21875q2.0625 -0.484375 5.046875 -0.546875l0 -1.375q0 -2.03125 -0.875 -3.078125q-0.875 -1.0625 -2.59375 -1.0625q-1.125 0 -1.90625 0.296875q-0.765625 0.28125 -1.328125 0.640625q-0.5625 0.34375 -0.96875 0.640625q-0.40625 0.28125 -0.796875 0.28125q-0.3125 0 -0.546875 -0.15625q-0.234375 -0.171875 -0.375 -0.421875l-0.5625 -0.984375q1.46875 -1.40625 3.140625 -2.09375q1.6875 -0.6875 3.734375 -0.6875q1.46875 0 2.609375 0.484375q1.140625 0.484375 1.921875 1.359375q0.78125 0.859375 1.171875 2.09375q0.40625 1.21875 0.40625 2.6875l0 11.234375zm-8.0 -1.890625q0.8125 0 1.484375 -0.15625q0.671875 -0.171875 1.265625 -0.46875q0.609375 -0.3125 1.15625 -0.734375q0.546875 -0.4375 1.0625 -1.0l0 -3.65625q-2.125 0.078125 -3.625 0.34375q-1.484375 0.265625 -2.421875 0.703125q-0.9375 0.4375 -1.359375 1.03125q-0.421875 0.578125 -0.421875 1.3125q0 0.6875 0.21875 1.1875q0.21875 0.5 0.59375 0.828125q0.390625 0.3125 0.90625 0.46875q0.53125 0.140625 1.140625 0.140625zm24.648743 -12.546875q-0.140625 0.1875 -0.28125 0.296875q-0.125 0.109375 -0.390625 0.109375q-0.265625 0 -0.5625 -0.21875q-0.296875 -0.21875 -0.765625 -0.46875q-0.46875 -0.265625 -1.140625 -0.484375q-0.671875 -0.21875 -1.640625 -0.21875q-1.28125 0 -2.265625 0.46875q-0.984375 0.453125 -1.65625 1.328125q-0.671875 0.859375 -1.015625 2.09375q-0.328125 1.21875 -0.328125 2.75q0 1.59375 0.359375 2.828125q0.375 1.234375 1.03125 2.078125q0.65625 0.84375 1.59375 1.28125q0.953125 0.4375 2.125 0.4375q1.125 0 1.84375 -0.265625q0.734375 -0.265625 1.21875 -0.59375q0.5 -0.328125 0.796875 -0.59375q0.3125 -0.265625 0.625 -0.265625q0.40625 0 0.59375 0.28125l0.875 1.140625q-1.15625 1.390625 -2.875 2.046875q-1.703125 0.65625 -3.609375 0.65625q-1.65625 0 -3.0625 -0.609375q-1.40625 -0.609375 -2.453125 -1.765625q-1.03125 -1.15625 -1.640625 -2.828125q-0.59375 -1.6875 -0.59375 -3.828125q0 -1.96875 0.546875 -3.625q0.546875 -1.671875 1.59375 -2.875q1.046875 -1.203125 2.59375 -1.875q1.546875 -0.671875 3.53125 -0.671875q1.84375 0 3.25 0.59375q1.421875 0.59375 2.515625 1.6875l-0.8125 1.109375zm11.168762 -3.390625q1.578125 0 2.90625 0.53125q1.328125 0.515625 2.296875 1.515625q0.984375 1.0 1.515625 2.46875q0.546875 1.453125 0.546875 3.328125q0 0.734375 -0.15625 0.984375q-0.15625 0.234375 -0.578125 0.234375l-11.6875 0q0.03125 1.65625 0.453125 2.890625q0.421875 1.234375 1.140625 2.0625q0.734375 0.8125 1.734375 1.21875q1.0 0.40625 2.25 0.40625q1.171875 0 2.0 -0.265625q0.84375 -0.265625 1.453125 -0.578125q0.609375 -0.3125 1.015625 -0.578125q0.40625 -0.265625 0.703125 -0.265625q0.375 0 0.59375 0.28125l0.859375 1.140625q-0.578125 0.6875 -1.375 1.203125q-0.796875 0.5 -1.703125 0.828125q-0.90625 0.328125 -1.875 0.5q-0.96875 0.171875 -1.921875 0.171875q-1.828125 0 -3.359375 -0.609375q-1.53125 -0.625 -2.65625 -1.8125q-1.109375 -1.1875 -1.734375 -2.9375q-0.625 -1.75 -0.625 -4.015625q0 -1.84375 0.5625 -3.4375q0.5625 -1.59375 1.609375 -2.765625q1.0625 -1.171875 2.59375 -1.828125q1.53125 -0.671875 3.4375 -0.671875zm0.0625 2.265625q-2.234375 0 -3.515625 1.296875q-1.28125 1.28125 -1.59375 3.578125l9.546875 0q0 -1.078125 -0.296875 -1.96875q-0.296875 -0.890625 -0.875 -1.53125q-0.5625 -0.65625 -1.390625 -1.015625q-0.8125 -0.359375 -1.875 -0.359375z" fill-rule="nonzero"/><path fill="#000000" fill-opacity="0.0" d="m530.44617 387.89764l0 0c0 -33.110992 52.181763 -59.95276 116.55121 -59.95276l0 0c64.369446 0 116.55115 26.841766 116.55115 59.95276l0 0c0 33.110992 -52.1817 59.95276 -116.55115 59.95276l0 0c-64.369446 0 -116.55121 -26.841766 -116.55121 -59.95276z" fill-rule="evenodd"/><path stroke="#000000" stroke-width="4.0" stroke-linejoin="round" stroke-linecap="butt" d="m530.44617 387.89764l0 0c0 -33.110992 52.181763 -59.95276 116.55121 -59.95276l0 0c64.369446 0 116.55115 26.841766 116.55115 59.95276l0 0c0 33.110992 -52.1817 59.95276 -116.55115 59.95276l0 0c-64.369446 0 -116.55121 -26.841766 -116.55121 -59.95276z" fill-rule="evenodd"/><path fill="#000000" d="m598.2983 379.17764l-2.59375 0q-0.453125 0 -0.734375 -0.21875q-0.265625 -0.234375 -0.40625 -0.578125l-2.328125 -6.0l-11.140625 0l-2.3125 6.0q-0.125 0.3125 -0.421875 0.5625q-0.296875 0.234375 -0.734375 0.234375l-2.59375 0l9.9375 -24.828125l3.40625 0l9.921875 24.828125zm-16.265625 -9.21875l9.265625 0l-3.890625 -10.109375q-0.375 -0.921875 -0.75 -2.328125q-0.1875 0.703125 -0.375 1.3125q-0.171875 0.59375 -0.34375 1.046875l-3.90625 10.078125zm22.347412 -16.3125l0 25.53125l-3.078125 0l0 -25.53125l3.078125 0zm11.356323 7.6875q1.140625 0 2.140625 0.25q1.0 0.25 1.8125 0.734375l4.765625 0l0 1.140625q0 0.578125 -0.734375 0.734375l-1.984375 0.265625q0.578125 1.140625 0.578125 2.515625q0 1.28125 -0.5 2.34375q-0.484375 1.046875 -1.359375 1.796875q-0.875 0.734375 -2.078125 1.140625q-1.203125 0.390625 -2.640625 0.390625q-1.234375 0 -2.328125 -0.296875q-0.546875 0.34375 -0.84375 0.75q-0.28125 0.390625 -0.28125 0.78125q0 0.625 0.5 0.953125q0.515625 0.3125 1.34375 0.453125q0.828125 0.125 1.875 0.171875q1.0625 0.03125 2.15625 0.109375q1.109375 0.078125 2.171875 0.265625q1.0625 0.1875 1.890625 0.625q0.828125 0.4375 1.328125 1.203125q0.5 0.75 0.5 1.96875q0 1.125 -0.5625 2.171875q-0.5625 1.0625 -1.625 1.890625q-1.046875 0.828125 -2.578125 1.3125q-1.515625 0.5 -3.4375 0.5q-1.921875 0 -3.375 -0.390625q-1.453125 -0.375 -2.40625 -1.015625q-0.953125 -0.640625 -1.4375 -1.484375q-0.46875 -0.84375 -0.46875 -1.75q0 -1.3125 0.828125 -2.21875q0.828125 -0.90625 2.265625 -1.4375q-0.75 -0.359375 -1.1875 -0.9375q-0.4375 -0.578125 -0.4375 -1.546875q0 -0.375 0.125 -0.78125q0.140625 -0.421875 0.421875 -0.8125q0.296875 -0.40625 0.703125 -0.765625q0.421875 -0.359375 0.984375 -0.640625q-1.3125 -0.71875 -2.046875 -1.921875q-0.734375 -1.21875 -0.734375 -2.828125q0 -1.28125 0.484375 -2.328125q0.5 -1.046875 1.390625 -1.78125q0.890625 -0.734375 2.109375 -1.125q1.21875 -0.40625 2.671875 -0.40625zm5.484375 18.796875q0 -0.65625 -0.375 -1.046875q-0.359375 -0.40625 -0.984375 -0.625q-0.625 -0.21875 -1.4375 -0.3125q-0.8125 -0.109375 -1.71875 -0.15625q-0.890625 -0.046875 -1.828125 -0.09375q-0.9375 -0.046875 -1.796875 -0.1875q-0.984375 0.46875 -1.609375 1.140625q-0.609375 0.671875 -0.609375 1.609375q0 0.59375 0.296875 1.09375q0.3125 0.515625 0.9375 0.890625q0.625 0.375 1.5625 0.59375q0.953125 0.21875 2.234375 0.21875q1.25 0 2.234375 -0.234375q0.984375 -0.21875 1.671875 -0.640625q0.6875 -0.40625 1.046875 -0.984375q0.375 -0.578125 0.375 -1.265625zm-5.484375 -9.53125q0.9375 0 1.65625 -0.25q0.71875 -0.265625 1.203125 -0.734375q0.484375 -0.46875 0.71875 -1.109375q0.25 -0.65625 0.25 -1.4375q0 -1.609375 -0.984375 -2.5625q-0.96875 -0.953125 -2.84375 -0.953125q-1.859375 0 -2.84375 0.953125q-0.96875 0.953125 -0.96875 2.5625q0 0.78125 0.25 1.4375q0.25 0.640625 0.734375 1.109375q0.484375 0.46875 1.1875 0.734375q0.71875 0.25 1.640625 0.25zm18.756104 -9.25q1.578125 0 2.90625 0.53125q1.328125 0.515625 2.296875 1.515625q0.984375 1.0 1.515625 2.46875q0.546875 1.453125 0.546875 3.328125q0 0.734375 -0.15625 0.984375q-0.15625 0.234375 -0.578125 0.234375l-11.6875 0q0.03125 1.65625 0.453125 2.890625q0.421875 1.234375 1.140625 2.0625q0.734375 0.8125 1.734375 1.21875q1.0 0.40625 2.25 0.40625q1.171875 0 2.0 -0.265625q0.84375 -0.265625 1.453125 -0.578125q0.609375 -0.3125 1.015625 -0.578125q0.40625 -0.265625 0.703125 -0.265625q0.375 0 0.59375 0.28125l0.859375 1.140625q-0.578125 0.6875 -1.375 1.203125q-0.796875 0.5 -1.703125 0.828125q-0.90625 0.328125 -1.875 0.5q-0.96875 0.171875 -1.921875 0.171875q-1.828125 0 -3.359375 -0.609375q-1.53125 -0.625 -2.65625 -1.8125q-1.109375 -1.1875 -1.734375 -2.9375q-0.625 -1.75 -0.625 -4.015625q0 -1.84375 0.5625 -3.4375q0.5625 -1.59375 1.609375 -2.765625q1.0625 -1.171875 2.59375 -1.828125q1.53125 -0.671875 3.4375 -0.671875zm0.0625 2.265625q-2.234375 0 -3.515625 1.296875q-1.28125 1.28125 -1.59375 3.578125l9.546875 0q0 -1.078125 -0.296875 -1.96875q-0.296875 -0.890625 -0.875 -1.53125q-0.5625 -0.65625 -1.390625 -1.015625q-0.8125 -0.359375 -1.875 -0.359375zm11.25354 15.5625l0 -25.53125l3.09375 0l0 10.515625q1.09375 -1.265625 2.5 -2.03125q1.421875 -0.78125 3.234375 -0.78125q1.53125 0 2.75 0.578125q1.234375 0.5625 2.09375 1.703125q0.875 1.125 1.34375 2.796875q0.46875 1.671875 0.46875 3.859375q0 1.9375 -0.53125 3.609375q-0.515625 1.671875 -1.5 2.90625q-0.96875 1.21875 -2.390625 1.921875q-1.40625 0.703125 -3.171875 0.703125q-1.6875 0 -2.875 -0.65625q-1.1875 -0.671875 -2.078125 -1.84375l-0.15625 1.59375q-0.140625 0.65625 -0.796875 0.65625l-1.984375 0zm7.828125 -15.375q-1.515625 0 -2.65625 0.703125q-1.125 0.6875 -2.078125 1.953125l0 8.484375q0.828125 1.15625 1.84375 1.625q1.015625 0.453125 2.265625 0.453125q2.453125 0 3.765625 -1.75q1.328125 -1.75 1.328125 -4.984375q0 -1.71875 -0.3125 -2.9375q-0.296875 -1.234375 -0.875 -2.015625q-0.5625 -0.796875 -1.40625 -1.15625q-0.828125 -0.375 -1.875 -0.375zm11.435181 15.375l0 -17.546875l1.765625 0q0.5 0 0.6875 0.1875q0.203125 0.1875 0.265625 0.65625l0.203125 2.734375q0.90625 -1.828125 2.234375 -2.859375q1.328125 -1.03125 3.109375 -1.03125q0.71875 0 1.3125 0.171875q0.59375 0.15625 1.09375 0.453125l-0.390625 2.296875q-0.125 0.4375 -0.546875 0.4375q-0.234375 0 -0.75 -0.15625q-0.5 -0.171875 -1.390625 -0.171875q-1.609375 0 -2.703125 0.9375q-1.078125 0.921875 -1.8125 2.71875l0 11.171875l-3.078125 0zm26.857056 0l-1.375 0q-0.4375 0 -0.71875 -0.140625q-0.28125 -0.140625 -0.359375 -0.59375l-0.359375 -1.625q-0.6875 0.625 -1.34375 1.125q-0.65625 0.484375 -1.390625 0.828125q-0.71875 0.34375 -1.546875 0.515625q-0.828125 0.171875 -1.828125 0.171875q-1.03125 0 -1.921875 -0.28125q-0.890625 -0.296875 -1.546875 -0.859375q-0.65625 -0.578125 -1.046875 -1.453125q-0.390625 -0.875 -0.390625 -2.078125q0 -1.03125 0.5625 -1.984375q0.578125 -0.96875 1.84375 -1.71875q1.28125 -0.75 3.34375 -1.21875q2.0625 -0.484375 5.046875 -0.546875l0 -1.375q0 -2.03125 -0.875 -3.078125q-0.875 -1.0625 -2.59375 -1.0625q-1.125 0 -1.90625 0.296875q-0.765625 0.28125 -1.328125 0.640625q-0.5625 0.34375 -0.96875 0.640625q-0.40625 0.28125 -0.796875 0.28125q-0.3125 0 -0.546875 -0.15625q-0.234375 -0.171875 -0.375 -0.421875l-0.5625 -0.984375q1.46875 -1.40625 3.140625 -2.09375q1.6875 -0.6875 3.734375 -0.6875q1.46875 0 2.609375 0.484375q1.140625 0.484375 1.921875 1.359375q0.78125 0.859375 1.171875 2.09375q0.40625 1.21875 0.40625 2.6875l0 11.234375zm-8.0 -1.890625q0.8125 0 1.484375 -0.15625q0.671875 -0.171875 1.265625 -0.46875q0.609375 -0.3125 1.15625 -0.734375q0.546875 -0.4375 1.0625 -1.0l0 -3.65625q-2.125 0.078125 -3.625 0.34375q-1.484375 0.265625 -2.421875 0.703125q-0.9375 0.4375 -1.359375 1.03125q-0.421875 0.578125 -0.421875 1.3125q0 0.6875 0.21875 1.1875q0.21875 0.5 0.59375 0.828125q0.390625 0.3125 0.90625 0.46875q0.53125 0.140625 1.140625 0.140625zm16.101868 -15.65625l0 17.546875l-3.078125 0l0 -17.546875l3.078125 0zm0.703125 -5.515625q0 0.453125 -0.1875 0.84375q-0.171875 0.390625 -0.484375 0.6875q-0.296875 0.296875 -0.703125 0.484375q-0.390625 0.171875 -0.84375 0.171875q-0.453125 0 -0.84375 -0.171875q-0.390625 -0.1875 -0.703125 -0.484375q-0.296875 -0.296875 -0.46875 -0.6875q-0.171875 -0.390625 -0.171875 -0.84375q0 -0.453125 0.171875 -0.859375q0.171875 -0.40625 0.46875 -0.703125q0.3125 -0.3125 0.703125 -0.484375q0.390625 -0.171875 0.84375 -0.171875q0.453125 0 0.84375 0.171875q0.40625 0.171875 0.703125 0.484375q0.3125 0.296875 0.484375 0.703125q0.1875 0.40625 0.1875 0.859375zm16.715698 8.625q-0.140625 0.1875 -0.28125 0.296875q-0.125 0.109375 -0.390625 0.109375q-0.265625 0 -0.5625 -0.21875q-0.296875 -0.21875 -0.765625 -0.46875q-0.46875 -0.265625 -1.140625 -0.484375q-0.671875 -0.21875 -1.640625 -0.21875q-1.28125 0 -2.265625 0.46875q-0.984375 0.453125 -1.65625 1.328125q-0.671875 0.859375 -1.015625 2.09375q-0.328125 1.21875 -0.328125 2.75q0 1.59375 0.359375 2.828125q0.375 1.234375 1.03125 2.078125q0.65625 0.84375 1.59375 1.28125q0.953125 0.4375 2.125 0.4375q1.125 0 1.84375 -0.265625q0.734375 -0.265625 1.21875 -0.59375q0.5 -0.328125 0.796875 -0.59375q0.3125 -0.265625 0.625 -0.265625q0.40625 0 0.59375 0.28125l0.875 1.140625q-1.15625 1.390625 -2.875 2.046875q-1.703125 0.65625 -3.609375 0.65625q-1.65625 0 -3.0625 -0.609375q-1.40625 -0.609375 -2.453125 -1.765625q-1.03125 -1.15625 -1.640625 -2.828125q-0.59375 -1.6875 -0.59375 -3.828125q0 -1.96875 0.546875 -3.625q0.546875 -1.671875 1.59375 -2.875q1.046875 -1.203125 2.59375 -1.875q1.546875 -0.671875 3.53125 -0.671875q1.84375 0 3.25 0.59375q1.421875 0.59375 2.515625 1.6875l-0.8125 1.109375z" fill-rule="nonzero"/><path fill="#000000" d="m623.2348 421.4589q-2.078125 0 -3.203125 -1.15625q-1.109375 -1.171875 -1.109375 -3.359375l0 -10.734375l-2.109375 0q-0.28125 0 -0.46875 -0.15625q-0.1875 -0.171875 -0.1875 -0.515625l0 -1.234375l2.875 -0.359375l0.703125 -5.4375q0.046875 -0.25 0.234375 -0.40625q0.1875 -0.171875 0.484375 -0.171875l1.5625 0l0 6.046875l5.015625 0l0 2.234375l-5.015625 0l0 10.53125q0 1.109375 0.53125 1.65625q0.53125 0.53125 1.390625 0.53125q0.484375 0 0.828125 -0.125q0.359375 -0.140625 0.625 -0.296875q0.265625 -0.15625 0.4375 -0.28125q0.1875 -0.125 0.328125 -0.125q0.234375 0 0.421875 0.28125l0.90625 1.484375q-0.796875 0.734375 -1.921875 1.171875q-1.125 0.421875 -2.328125 0.421875zm7.614197 -0.28125l0 -17.546875l1.765625 0q0.5 0 0.6875 0.1875q0.203125 0.1875 0.265625 0.65625l0.203125 2.734375q0.90625 -1.828125 2.234375 -2.859375q1.328125 -1.03125 3.109375 -1.03125q0.71875 0 1.3125 0.171875q0.59375 0.15625 1.09375 0.453125l-0.390625 2.296875q-0.125 0.4375 -0.546875 0.4375q-0.234375 0 -0.75 -0.15625q-0.5 -0.171875 -1.390625 -0.171875q-1.609375 0 -2.703125 0.9375q-1.078125 0.921875 -1.8125 2.71875l0 11.171875l-3.078125 0zm20.919495 -17.828125q1.578125 0 2.90625 0.53125q1.328125 0.515625 2.296875 1.515625q0.984375 1.0 1.515625 2.46875q0.546875 1.453125 0.546875 3.328125q0 0.734375 -0.15625 0.984375q-0.15625 0.234375 -0.578125 0.234375l-11.6875 0q0.03125 1.65625 0.453125 2.890625q0.421875 1.234375 1.140625 2.0625q0.734375 0.8125 1.734375 1.21875q1.0 0.40625 2.25 0.40625q1.171875 0 2.0 -0.265625q0.84375 -0.265625 1.453125 -0.578125q0.609375 -0.3125 1.015625 -0.578125q0.40625 -0.265625 0.703125 -0.265625q0.375 0 0.59375 0.28125l0.859375 1.140625q-0.578125 0.6875 -1.375 1.203125q-0.796875 0.5 -1.703125 0.828125q-0.90625 0.328125 -1.875 0.5q-0.96875 0.171875 -1.921875 0.171875q-1.828125 0 -3.359375 -0.609375q-1.53125 -0.625 -2.65625 -1.8125q-1.109375 -1.1875 -1.734375 -2.9375q-0.625 -1.75 -0.625 -4.015625q0 -1.84375 0.5625 -3.4375q0.5625 -1.59375 1.609375 -2.765625q1.0625 -1.171875 2.59375 -1.828125q1.53125 -0.671875 3.4375 -0.671875zm0.0625 2.265625q-2.234375 0 -3.515625 1.296875q-1.28125 1.28125 -1.59375 3.578125l9.546875 0q0 -1.078125 -0.296875 -1.96875q-0.296875 -0.890625 -0.875 -1.53125q-0.5625 -0.65625 -1.390625 -1.015625q-0.8125 -0.359375 -1.875 -0.359375zm18.09729 -2.265625q1.578125 0 2.90625 0.53125q1.328125 0.515625 2.296875 1.515625q0.984375 1.0 1.515625 2.46875q0.546875 1.453125 0.546875 3.328125q0 0.734375 -0.15625 0.984375q-0.15625 0.234375 -0.578125 0.234375l-11.6875 0q0.03125 1.65625 0.453125 2.890625q0.421875 1.234375 1.140625 2.0625q0.734375 0.8125 1.734375 1.21875q1.0 0.40625 2.25 0.40625q1.171875 0 2.0 -0.265625q0.84375 -0.265625 1.453125 -0.578125q0.609375 -0.3125 1.015625 -0.578125q0.40625 -0.265625 0.703125 -0.265625q0.375 0 0.59375 0.28125l0.859375 1.140625q-0.578125 0.6875 -1.375 1.203125q-0.796875 0.5 -1.703125 0.828125q-0.90625 0.328125 -1.875 0.5q-0.96875 0.171875 -1.921875 0.171875q-1.828125 0 -3.359375 -0.609375q-1.53125 -0.625 -2.65625 -1.8125q-1.109375 -1.1875 -1.734375 -2.9375q-0.625 -1.75 -0.625 -4.015625q0 -1.84375 0.5625 -3.4375q0.5625 -1.59375 1.609375 -2.765625q1.0625 -1.171875 2.59375 -1.828125q1.53125 -0.671875 3.4375 -0.671875zm0.0625 2.265625q-2.234375 0 -3.515625 1.296875q-1.28125 1.28125 -1.59375 3.578125l9.546875 0q0 -1.078125 -0.296875 -1.96875q-0.296875 -0.890625 -0.875 -1.53125q-0.5625 -0.65625 -1.390625 -1.015625q-0.8125 -0.359375 -1.875 -0.359375z" fill-rule="nonzero"/><path fill="#000000" fill-opacity="0.0" d="m1069.9503 387.89764l0 0c0 -33.110992 54.811646 -59.95276 122.42517 -59.95276l0 0c67.61365 0 122.42529 26.841766 122.42529 59.95276l0 0c0 33.110992 -54.811646 59.95276 -122.42529 59.95276l0 0c-67.613525 0 -122.42517 -26.841766 -122.42517 -59.95276z" fill-rule="evenodd"/><path stroke="#000000" stroke-width="4.0" stroke-linejoin="round" stroke-linecap="butt" d="m1069.9503 387.89764l0 0c0 -33.110992 54.811646 -59.95276 122.42517 -59.95276l0 0c67.61365 0 122.42529 26.841766 122.42529 59.95276l0 0c0 33.110992 -54.811646 59.95276 -122.42529 59.95276l0 0c-67.613525 0 -122.42517 -26.841766 -122.42517 -59.95276z" fill-rule="evenodd"/><path fill="#000000" d="m1134.9126 354.34952l0 2.734375l-11.921875 0l0 8.25l9.65625 0l0 2.625l-9.65625 0l0 8.484375l11.921875 0l0 2.734375l-15.296875 0l0 -24.828125l15.296875 0zm8.463257 15.828125l-5.90625 -8.546875l2.953125 0q0.390625 0 0.5625 0.125q0.171875 0.109375 0.3125 0.34375l4.296875 6.578125q0.15625 -0.484375 0.453125 -0.96875l3.765625 -5.546875q0.171875 -0.25 0.34375 -0.390625q0.1875 -0.140625 0.4375 -0.140625l2.84375 0l-5.90625 8.375l6.15625 9.171875l-2.96875 0q-0.375 0 -0.59375 -0.203125q-0.21875 -0.203125 -0.359375 -0.4375l-4.421875 -6.875q-0.125 0.5 -0.359375 0.890625l-4.09375 5.984375q-0.171875 0.234375 -0.375 0.4375q-0.1875 0.203125 -0.546875 0.203125l-2.75 0l6.15625 -9.0zm20.310425 -8.828125q1.578125 0 2.90625 0.53125q1.328125 0.515625 2.296875 1.515625q0.984375 1.0 1.515625 2.46875q0.546875 1.453125 0.546875 3.328125q0 0.734375 -0.15625 0.984375q-0.15625 0.234375 -0.578125 0.234375l-11.6875 0q0.03125 1.65625 0.453125 2.890625q0.421875 1.234375 1.140625 2.0625q0.734375 0.8125 1.734375 1.21875q1.0 0.40625 2.25 0.40625q1.171875 0 2.0 -0.265625q0.84375 -0.265625 1.453125 -0.578125q0.609375 -0.3125 1.015625 -0.578125q0.40625 -0.265625 0.703125 -0.265625q0.375 0 0.59375 0.28125l0.859375 1.140625q-0.578125 0.6875 -1.375 1.203125q-0.796875 0.5 -1.703125 0.828125q-0.90625 0.328125 -1.875 0.5q-0.96875 0.171875 -1.921875 0.171875q-1.828125 0 -3.359375 -0.609375q-1.53125 -0.625 -2.65625 -1.8125q-1.109375 -1.1875 -1.734375 -2.9375q-0.625 -1.75 -0.625 -4.015625q0 -1.84375 0.5625 -3.4375q0.5625 -1.59375 1.609375 -2.765625q1.0625 -1.171875 2.59375 -1.828125q1.53125 -0.671875 3.4375 -0.671875zm0.0625 2.265625q-2.234375 0 -3.515625 1.296875q-1.28125 1.28125 -1.59375 3.578125l9.546875 0q0 -1.078125 -0.296875 -1.96875q-0.296875 -0.890625 -0.875 -1.53125q-0.5625 -0.65625 -1.390625 -1.015625q-0.8125 -0.359375 -1.875 -0.359375zm23.112915 1.125q-0.140625 0.1875 -0.28125 0.296875q-0.125 0.109375 -0.390625 0.109375q-0.265625 0 -0.5625 -0.21875q-0.296875 -0.21875 -0.765625 -0.46875q-0.46875 -0.265625 -1.140625 -0.484375q-0.671875 -0.21875 -1.640625 -0.21875q-1.28125 0 -2.265625 0.46875q-0.984375 0.453125 -1.65625 1.328125q-0.671875 0.859375 -1.015625 2.09375q-0.328125 1.21875 -0.328125 2.75q0 1.59375 0.359375 2.828125q0.375 1.234375 1.03125 2.078125q0.65625 0.84375 1.59375 1.28125q0.953125 0.4375 2.125 0.4375q1.125 0 1.84375 -0.265625q0.734375 -0.265625 1.21875 -0.59375q0.5 -0.328125 0.796875 -0.59375q0.3125 -0.265625 0.625 -0.265625q0.40625 0 0.59375 0.28125l0.875 1.140625q-1.15625 1.390625 -2.875 2.046875q-1.703125 0.65625 -3.609375 0.65625q-1.65625 0 -3.0625 -0.609375q-1.40625 -0.609375 -2.453125 -1.765625q-1.03125 -1.15625 -1.640625 -2.828125q-0.59375 -1.6875 -0.59375 -3.828125q0 -1.96875 0.546875 -3.625q0.546875 -1.671875 1.59375 -2.875q1.046875 -1.203125 2.59375 -1.875q1.546875 -0.671875 3.53125 -0.671875q1.84375 0 3.25 0.59375q1.421875 0.59375 2.515625 1.6875l-0.8125 1.109375zm6.887451 -3.109375l0 11.1875q0 2.0 0.90625 3.09375q0.921875 1.078125 2.78125 1.078125q1.34375 0 2.53125 -0.640625q1.203125 -0.640625 2.21875 -1.78125l0 -12.9375l3.078125 0l0 17.546875l-1.828125 0q-0.671875 0 -0.84375 -0.640625l-0.234375 -1.890625q-1.140625 1.265625 -2.5625 2.046875q-1.421875 0.765625 -3.265625 0.765625q-1.4375 0 -2.546875 -0.46875q-1.09375 -0.484375 -1.84375 -1.34375q-0.734375 -0.875 -1.109375 -2.109375q-0.375 -1.234375 -0.375 -2.71875l0 -11.1875l3.09375 0zm21.909424 17.828125q-2.078125 0 -3.203125 -1.15625q-1.109375 -1.171875 -1.109375 -3.359375l0 -10.734375l-2.109375 0q-0.28125 0 -0.46875 -0.15625q-0.1875 -0.171875 -0.1875 -0.515625l0 -1.234375l2.875 -0.359375l0.703125 -5.4375q0.046875 -0.25 0.234375 -0.40625q0.1875 -0.171875 0.484375 -0.171875l1.5625 0l0 6.046875l5.015625 0l0 2.234375l-5.015625 0l0 10.53125q0 1.109375 0.53125 1.65625q0.53125 0.53125 1.390625 0.53125q0.484375 0 0.828125 -0.125q0.359375 -0.140625 0.625 -0.296875q0.265625 -0.15625 0.4375 -0.28125q0.1875 -0.125 0.328125 -0.125q0.234375 0 0.421875 0.28125l0.90625 1.484375q-0.796875 0.734375 -1.921875 1.171875q-1.125 0.421875 -2.328125 0.421875zm11.036133 -17.828125l0 17.546875l-3.078125 0l0 -17.546875l3.078125 0zm0.703125 -5.515625q0 0.453125 -0.1875 0.84375q-0.171875 0.390625 -0.484375 0.6875q-0.296875 0.296875 -0.703125 0.484375q-0.390625 0.171875 -0.84375 0.171875q-0.453125 0 -0.84375 -0.171875q-0.390625 -0.1875 -0.703125 -0.484375q-0.296875 -0.296875 -0.46875 -0.6875q-0.171875 -0.390625 -0.171875 -0.84375q0 -0.453125 0.171875 -0.859375q0.171875 -0.40625 0.46875 -0.703125q0.3125 -0.3125 0.703125 -0.484375q0.390625 -0.171875 0.84375 -0.171875q0.453125 0 0.84375 0.171875q0.40625 0.171875 0.703125 0.484375q0.3125 0.296875 0.484375 0.703125q0.1875 0.40625 0.1875 0.859375zm11.856201 5.234375q1.921875 0 3.46875 0.640625q1.546875 0.640625 2.625 1.828125q1.09375 1.171875 1.671875 2.84375q0.578125 1.671875 0.578125 3.734375q0 2.078125 -0.578125 3.75q-0.578125 1.65625 -1.671875 2.84375q-1.078125 1.171875 -2.625 1.8125q-1.546875 0.625 -3.46875 0.625q-1.921875 0 -3.484375 -0.625q-1.546875 -0.640625 -2.640503 -1.8125q-1.09375 -1.1875 -1.6875 -2.84375q-0.578125 -1.671875 -0.578125 -3.75q0 -2.0625 0.578125 -3.734375q0.59375 -1.671875 1.6875 -2.84375q1.0936279 -1.1875 2.640503 -1.828125q1.5625 -0.640625 3.484375 -0.640625zm0 15.65625q2.59375 0 3.875 -1.734375q1.28125 -1.75 1.28125 -4.859375q0 -3.140625 -1.28125 -4.890625q-1.28125 -1.75 -3.875 -1.75q-1.328125 0 -2.296875 0.453125q-0.96875 0.453125 -1.625 1.296875q-0.640625 0.84375 -0.96875 2.09375q-0.3125 1.234375 -0.3125 2.796875q0 1.5625 0.3125 2.796875q0.328125 1.21875 0.96875 2.0625q0.65625 0.84375 1.625 1.296875q0.96875 0.4375 2.296875 0.4375zm12.159424 2.171875l0 -17.546875l1.828125 0q0.671875 0 0.84375 0.640625l0.234375 1.90625q1.140625 -1.265625 2.546875 -2.046875q1.421875 -0.78125 3.28125 -0.78125q1.4375 0 2.53125 0.484375q1.109375 0.46875 1.84375 1.34375q0.734375 0.875 1.109375 2.109375q0.390625 1.21875 0.390625 2.71875l0 11.171875l-3.09375 0l0 -11.171875q0 -2.0 -0.90625 -3.09375q-0.90625 -1.109375 -2.78125 -1.109375q-1.359375 0 -2.546875 0.671875q-1.1875 0.65625 -2.203125 1.78125l0 12.921875l-3.078125 0z" fill-rule="nonzero"/><path fill="#000000" d="m1162.4861 427.11514l0 -23.484375l1.828125 0q0.671875 0 0.84375 0.640625l0.25 2.078125q1.125 -1.375 2.578125 -2.203125q1.453125 -0.828125 3.328125 -0.828125q1.515625 0 2.734375 0.578125q1.234375 0.578125 2.09375 1.71875q0.875 1.125 1.34375 2.8125q0.46875 1.671875 0.46875 3.859375q0 1.9375 -0.515625 3.609375q-0.515625 1.671875 -1.5 2.90625q-0.96875 1.21875 -2.375 1.921875q-1.40625 0.703125 -3.171875 0.703125q-1.640625 0 -2.796875 -0.53125q-1.140625 -0.546875 -2.03125 -1.53125l0 7.75l-3.078125 0zm7.8125 -21.3125q-1.5 0 -2.640625 0.703125q-1.140625 0.6875 -2.09375 1.953125l0 8.484375q0.859375 1.15625 1.859375 1.625q1.015625 0.453125 2.265625 0.453125q2.453125 0 3.765625 -1.75q1.3125 -1.75 1.3125 -4.984375q0 -1.71875 -0.3125 -2.9375q-0.296875 -1.234375 -0.875 -2.015625q-0.5625 -0.796875 -1.390625 -1.15625q-0.828125 -0.375 -1.890625 -0.375zm14.739502 -10.15625l0 25.53125l-3.078125 0l0 -25.53125l3.078125 0zm18.340698 25.53125l-1.375 0q-0.4375 0 -0.71875 -0.140625q-0.28125 -0.140625 -0.359375 -0.59375l-0.359375 -1.625q-0.6875 0.625 -1.34375 1.125q-0.65625 0.484375 -1.390625 0.828125q-0.71875 0.34375 -1.546875 0.515625q-0.828125 0.171875 -1.828125 0.171875q-1.03125 0 -1.921875 -0.28125q-0.890625 -0.296875 -1.546875 -0.859375q-0.65625 -0.578125 -1.046875 -1.453125q-0.390625 -0.875 -0.390625 -2.078125q0 -1.03125 0.5625 -1.984375q0.578125 -0.96875 1.84375 -1.71875q1.28125 -0.75 3.34375 -1.21875q2.0625 -0.484375 5.046875 -0.546875l0 -1.375q0 -2.03125 -0.875 -3.078125q-0.875 -1.0625 -2.59375 -1.0625q-1.125 0 -1.90625 0.296875q-0.765625 0.28125 -1.328125 0.640625q-0.5625 0.34375 -0.96875 0.640625q-0.40625 0.28125 -0.796875 0.28125q-0.3125 0 -0.546875 -0.15625q-0.234375 -0.171875 -0.375 -0.421875l-0.5625 -0.984375q1.46875 -1.40625 3.140625 -2.09375q1.6875 -0.6875 3.734375 -0.6875q1.46875 0 2.609375 0.484375q1.140625 0.484375 1.921875 1.359375q0.78125 0.859375 1.171875 2.09375q0.40625 1.21875 0.40625 2.6875l0 11.234375zm-8.0 -1.890625q0.8125 0 1.484375 -0.15625q0.671875 -0.171875 1.265625 -0.46875q0.609375 -0.3125 1.15625 -0.734375q0.546875 -0.4375 1.0625 -1.0l0 -3.65625q-2.125 0.078125 -3.625 0.34375q-1.484375 0.265625 -2.421875 0.703125q-0.9375 0.4375 -1.359375 1.03125q-0.421875 0.578125 -0.421875 1.3125q0 0.6875 0.21875 1.1875q0.21875 0.5 0.59375 0.828125q0.390625 0.3125 0.90625 0.46875q0.53125 0.140625 1.140625 0.140625zm12.679932 1.890625l0 -17.546875l1.828125 0q0.671875 0 0.84375 0.640625l0.234375 1.90625q1.140625 -1.265625 2.546875 -2.046875q1.421875 -0.78125 3.28125 -0.78125q1.4375 0 2.53125 0.484375q1.109375 0.46875 1.84375 1.34375q0.734375 0.875 1.109375 2.109375q0.390625 1.21875 0.390625 2.71875l0 11.171875l-3.09375 0l0 -11.171875q0 -2.0 -0.90625 -3.09375q-0.90625 -1.109375 -2.78125 -1.109375q-1.359375 0 -2.546875 0.671875q-1.1875 0.65625 -2.203125 1.78125l0 12.921875l-3.078125 0z" fill-rule="nonzero"/><path fill="#000000" fill-opacity="0.0" d="m822.19293 332.33728l200.22046 0l0 111.1181l-200.22046 0z" fill-rule="evenodd"/><path stroke="#000000" stroke-width="4.0" stroke-linejoin="round" stroke-linecap="butt" d="m822.19293 332.33728l200.22046 0l0 111.1181l-200.22046 0z" fill-rule="evenodd"/><path fill="#000000" d="m871.8434 387.77008q0 2.796875 -0.890625 5.125q-0.875 2.328125 -2.484375 4.015625q-1.609375 1.671875 -3.875 2.609375q-2.265625 0.921875 -5.0 0.921875q-2.734375 0 -5.0 -0.921875q-2.25 -0.9375 -3.859375 -2.609375q-1.609375 -1.6875 -2.5 -4.015625q-0.875 -2.328125 -0.875 -5.125q0 -2.796875 0.875 -5.125q0.890625 -2.328125 2.5 -4.015625q1.609375 -1.6875 3.859375 -2.625q2.265625 -0.9375 5.0 -0.9375q2.734375 0 5.0 0.9375q2.265625 0.9375 3.875 2.625q1.609375 1.6875 2.484375 4.015625q0.890625 2.328125 0.890625 5.125zm-3.453125 0q0 -2.28125 -0.625 -4.09375q-0.625 -1.828125 -1.765625 -3.078125q-1.140625 -1.265625 -2.765625 -1.9375q-1.625 -0.6875 -3.640625 -0.6875q-2.0 0 -3.625 0.6875q-1.625 0.671875 -2.78125 1.9375q-1.15625 1.25 -1.78125 3.078125q-0.609375 1.8125 -0.609375 4.09375q0 2.28125 0.609375 4.09375q0.625 1.8125 1.78125 3.078125q1.15625 1.25 2.78125 1.921875q1.625 0.65625 3.625 0.65625q2.015625 0 3.640625 -0.65625q1.625 -0.671875 2.765625 -1.921875q1.140625 -1.265625 1.765625 -3.078125q0.625 -1.8125 0.625 -4.09375zm7.5617676 18.34375l0 -23.484375l1.828125 0q0.671875 0 0.84375 0.640625l0.25 2.078125q1.125 -1.375 2.578125 -2.203125q1.453125 -0.828125 3.328125 -0.828125q1.515625 0 2.734375 0.578125q1.234375 0.578125 2.09375 1.71875q0.875 1.125 1.34375 2.8125q0.46875 1.671875 0.46875 3.859375q0 1.9375 -0.515625 3.609375q-0.515625 1.671875 -1.5 2.90625q-0.96875 1.21875 -2.375 1.921875q-1.40625 0.703125 -3.171875 0.703125q-1.640625 0 -2.796875 -0.53125q-1.140625 -0.546875 -2.03125 -1.53125l0 7.75l-3.078125 0zm7.8125 -21.3125q-1.5 0 -2.640625 0.703125q-1.140625 0.6875 -2.09375 1.953125l0 8.484375q0.859375 1.15625 1.859375 1.625q1.015625 0.453125 2.265625 0.453125q2.453125 0 3.765625 -1.75q1.3125 -1.75 1.3125 -4.984375q0 -1.71875 -0.3125 -2.9375q-0.296875 -1.234375 -0.875 -2.015625q-0.5625 -0.796875 -1.390625 -1.15625q-0.828125 -0.375 -1.890625 -0.375zm16.630127 15.65625q-2.078125 0 -3.203125 -1.15625q-1.109375 -1.171875 -1.109375 -3.359375l0 -10.734375l-2.109375 0q-0.28125 0 -0.46875 -0.15625q-0.1875 -0.171875 -0.1875 -0.515625l0 -1.234375l2.875 -0.359375l0.703125 -5.4375q0.046875 -0.25 0.234375 -0.40625q0.1875 -0.171875 0.484375 -0.171875l1.5625 0l0 6.046875l5.015625 0l0 2.234375l-5.015625 0l0 10.53125q0 1.109375 0.53125 1.65625q0.53125 0.53125 1.390625 0.53125q0.484375 0 0.828125 -0.125q0.359375 -0.140625 0.625 -0.296875q0.265625 -0.15625 0.4375 -0.28125q0.1875 -0.125 0.328125 -0.125q0.234375 0 0.421875 0.28125l0.90625 1.484375q-0.796875 0.734375 -1.921875 1.171875q-1.125 0.421875 -2.328125 0.421875zm11.036133 -17.828125l0 17.546875l-3.078125 0l0 -17.546875l3.078125 0zm0.703125 -5.515625q0 0.453125 -0.1875 0.84375q-0.171875 0.390625 -0.484375 0.6875q-0.296875 0.296875 -0.703125 0.484375q-0.390625 0.171875 -0.84375 0.171875q-0.453125 0 -0.84375 -0.171875q-0.390625 -0.1875 -0.703125 -0.484375q-0.296875 -0.296875 -0.46875 -0.6875q-0.171875 -0.390625 -0.171875 -0.84375q0 -0.453125 0.171875 -0.859375q0.171875 -0.40625 0.46875 -0.703125q0.3125 -0.3125 0.703125 -0.484375q0.390625 -0.171875 0.84375 -0.171875q0.453125 0 0.84375 0.171875q0.40625 0.171875 0.703125 0.484375q0.3125 0.296875 0.484375 0.703125q0.1875 0.40625 0.1875 0.859375zm4.7469482 23.0625l0 -17.546875l1.828125 0q0.671875 0 0.84375 0.640625l0.21875 1.796875q0.96875 -1.203125 2.171875 -1.953125q1.203125 -0.765625 2.796875 -0.765625q1.796875 0 2.890625 0.984375q1.09375 0.984375 1.59375 2.671875q0.359375 -0.953125 0.953125 -1.640625q0.59375 -0.703125 1.34375 -1.15625q0.75 -0.453125 1.578125 -0.65625q0.84375 -0.203125 1.71875 -0.203125q1.375 0 2.453125 0.4375q1.09375 0.4375 1.84375 1.296875q0.765625 0.84375 1.15625 2.09375q0.40625 1.234375 0.40625 2.828125l0 11.171875l-3.09375 0l0 -11.171875q0 -2.0625 -0.90625 -3.125q-0.890625 -1.078125 -2.609375 -1.078125q-0.765625 0 -1.453125 0.28125q-0.671875 0.265625 -1.203125 0.78125q-0.515625 0.515625 -0.828125 1.3125q-0.296875 0.78125 -0.296875 1.828125l0 11.171875l-3.078125 0l0 -11.171875q0 -2.125 -0.859375 -3.15625q-0.84375 -1.046875 -2.46875 -1.046875q-1.140625 0 -2.125 0.625q-0.984375 0.609375 -1.796875 1.671875l0 13.078125l-3.078125 0zm31.87445 -17.546875l0 17.546875l-3.078125 0l0 -17.546875l3.078125 0zm0.703125 -5.515625q0 0.453125 -0.1875 0.84375q-0.171875 0.390625 -0.484375 0.6875q-0.296875 0.296875 -0.703125 0.484375q-0.390625 0.171875 -0.84375 0.171875q-0.453125 0 -0.84375 -0.171875q-0.390625 -0.1875 -0.703125 -0.484375q-0.296875 -0.296875 -0.46875 -0.6875q-0.171875 -0.390625 -0.171875 -0.84375q0 -0.453125 0.171875 -0.859375q0.171875 -0.40625 0.46875 -0.703125q0.3125 -0.3125 0.703125 -0.484375q0.390625 -0.171875 0.84375 -0.171875q0.453125 0 0.84375 0.171875q0.40625 0.171875 0.703125 0.484375q0.3125 0.296875 0.484375 0.703125q0.1875 0.40625 0.1875 0.859375zm14.793823 8.40625q-0.203125 0.375 -0.640625 0.375q-0.265625 0 -0.59375 -0.1875q-0.328125 -0.1875 -0.8125 -0.421875q-0.46875 -0.234375 -1.125 -0.4375q-0.65625 -0.203125 -1.5625 -0.203125q-0.78125 0 -1.40625 0.203125q-0.609375 0.203125 -1.0625 0.546875q-0.4375 0.34375 -0.671875 0.8125q-0.234375 0.453125 -0.234375 0.984375q0 0.6875 0.390625 1.140625q0.390625 0.4375 1.03125 0.765625q0.640625 0.328125 1.453125 0.59375q0.8125 0.25 1.671875 0.53125q0.859375 0.28125 1.671875 0.640625q0.8125 0.34375 1.453125 0.859375q0.640625 0.515625 1.03125 1.28125q0.390625 0.75 0.390625 1.796875q0 1.21875 -0.4375 2.25q-0.421875 1.03125 -1.28125 1.78125q-0.84375 0.75 -2.078125 1.1875q-1.21875 0.4375 -2.828125 0.4375q-1.84375 0 -3.34375 -0.59375q-1.484375 -0.609375 -2.515625 -1.546875l0.71875 -1.171875q0.140625 -0.21875 0.328125 -0.34375q0.203125 -0.125 0.515625 -0.125q0.3125 0 0.65625 0.25q0.34375 0.234375 0.828125 0.53125q0.5 0.296875 1.203125 0.546875q0.703125 0.234375 1.765625 0.234375q0.890625 0 1.5625 -0.234375q0.6875 -0.234375 1.125 -0.625q0.453125 -0.40625 0.671875 -0.921875q0.21875 -0.53125 0.21875 -1.109375q0 -0.734375 -0.390625 -1.203125q-0.390625 -0.484375 -1.03125 -0.8125q-0.640625 -0.34375 -1.46875 -0.59375q-0.8125 -0.25 -1.671875 -0.53125q-0.859375 -0.28125 -1.6875 -0.625q-0.8125 -0.359375 -1.453125 -0.890625q-0.640625 -0.546875 -1.03125 -1.328125q-0.390625 -0.796875 -0.390625 -1.921875q0 -1.0 0.40625 -1.921875q0.421875 -0.9375 1.21875 -1.640625q0.796875 -0.703125 1.953125 -1.109375q1.171875 -0.421875 2.65625 -0.421875q1.734375 0 3.109375 0.546875q1.375 0.546875 2.375 1.5l-0.6875 1.125zm11.9470215 -3.171875q1.578125 0 2.90625 0.53125q1.328125 0.515625 2.296875 1.515625q0.984375 1.0 1.515625 2.46875q0.546875 1.453125 0.546875 3.328125q0 0.734375 -0.15625 0.984375q-0.15625 0.234375 -0.578125 0.234375l-11.6875 0q0.03125 1.65625 0.453125 2.890625q0.421875 1.234375 1.140625 2.0625q0.734375 0.8125 1.734375 1.21875q1.0 0.40625 2.25 0.40625q1.171875 0 2.0 -0.265625q0.84375 -0.265625 1.453125 -0.578125q0.609375 -0.3125 1.015625 -0.578125q0.40625 -0.265625 0.703125 -0.265625q0.375 0 0.59375 0.28125l0.859375 1.140625q-0.578125 0.6875 -1.375 1.203125q-0.796875 0.5 -1.703125 0.828125q-0.90625 0.328125 -1.875 0.5q-0.96875 0.171875 -1.921875 0.171875q-1.828125 0 -3.359375 -0.609375q-1.53125 -0.625 -2.65625 -1.8125q-1.109375 -1.1875 -1.734375 -2.9375q-0.625 -1.75 -0.625 -4.015625q0 -1.84375 0.5625 -3.4375q0.5625 -1.59375 1.609375 -2.765625q1.0625 -1.171875 2.59375 -1.828125q1.53125 -0.671875 3.4375 -0.671875zm0.0625 2.265625q-2.234375 0 -3.515625 1.296875q-1.28125 1.28125 -1.59375 3.578125l9.546875 0q0 -1.078125 -0.296875 -1.96875q-0.296875 -0.890625 -0.875 -1.53125q-0.5625 -0.65625 -1.390625 -1.015625q-0.8125 -0.359375 -1.875 -0.359375zm11.144104 15.5625l0 -17.546875l1.765625 0q0.5 0 0.6875 0.1875q0.203125 0.1875 0.265625 0.65625l0.203125 2.734375q0.90625 -1.828125 2.234375 -2.859375q1.328125 -1.03125 3.109375 -1.03125q0.71875 0 1.3125 0.171875q0.59375 0.15625 1.09375 0.453125l-0.390625 2.296875q-0.125 0.4375 -0.546875 0.4375q-0.234375 0 -0.75 -0.15625q-0.5 -0.171875 -1.390625 -0.171875q-1.609375 0 -2.703125 0.9375q-1.078125 0.921875 -1.8125 2.71875l0 11.171875l-3.078125 0z" fill-rule="nonzero"/><path fill="#000000" fill-opacity="0.0" d="m763.5485 387.89764l58.64569 0" fill-rule="evenodd"/><path stroke="#000000" stroke-width="4.0" stroke-linejoin="round" stroke-linecap="butt" d="m763.5486 387.89764l34.64563 0" fill-rule="evenodd"/><path stroke="#000000" stroke-width="4.0" stroke-linecap="butt" d="m798.1942 394.50458l18.152405 -6.6069336l-18.152405 -6.6069336z" fill-rule="evenodd"/><path fill="#000000" fill-opacity="0.0" d="m822.1942 521.8543l200.22046 0l0 111.1181l-200.22046 0z" fill-rule="evenodd"/><path stroke="#cc0000" stroke-width="4.0" stroke-linejoin="round" stroke-linecap="butt" d="m822.1942 521.8543l200.22046 0l0 111.1181l-200.22046 0z" fill-rule="evenodd"/><path fill="#cc0000" d="m856.92505 584.56836q0.28125 0 0.5 0.21875l1.3125 1.4375q-1.515625 1.765625 -3.6875 2.765625q-2.171875 0.984375 -5.25 0.984375q-2.6875 0 -4.875 -0.921875q-2.171875 -0.9375 -3.71875 -2.609375q-1.546875 -1.671875 -2.390625 -4.0q-0.84375 -2.34375 -0.84375 -5.15625q0 -2.8125 0.90625 -5.140625q0.90625 -2.34375 2.546875 -4.015625q1.65625 -1.6875 3.953125 -2.609375q2.296875 -0.9375 5.0625 -0.9375q2.75 0 4.71875 0.859375q1.984375 0.84375 3.53125 2.296875l-1.09375 1.546875q-0.109375 0.171875 -0.265625 0.28125q-0.15625 0.109375 -0.453125 0.109375q-0.234375 0 -0.484375 -0.15625q-0.25 -0.171875 -0.59375 -0.40625q-0.34375 -0.25 -0.8125 -0.515625q-0.46875 -0.28125 -1.109375 -0.53125q-0.640625 -0.25 -1.5 -0.40625q-0.84375 -0.171875 -1.953125 -0.171875q-1.984375 0 -3.640625 0.6875q-1.65625 0.6875 -2.859375 1.953125q-1.1875 1.265625 -1.859375 3.09375q-0.671875 1.8125 -0.671875 4.0625q0 2.328125 0.671875 4.140625q0.671875 1.8125 1.8125 3.078125q1.15625 1.25 2.734375 1.921875q1.578125 0.65625 3.40625 0.65625q1.109375 0 1.984375 -0.125q0.890625 -0.140625 1.640625 -0.421875q0.75 -0.28125 1.390625 -0.703125q0.65625 -0.421875 1.3125 -1.015625q0.296875 -0.25 0.578125 -0.25zm12.86438 -12.703125q1.921875 0 3.46875 0.640625q1.546875 0.640625 2.625 1.828125q1.09375 1.171875 1.671875 2.84375q0.578125 1.671875 0.578125 3.734375q0 2.078125 -0.578125 3.75q-0.578125 1.65625 -1.671875 2.84375q-1.078125 1.171875 -2.625 1.8125q-1.546875 0.625 -3.46875 0.625q-1.921875 0 -3.484375 -0.625q-1.546875 -0.640625 -2.640625 -1.8125q-1.09375 -1.1875 -1.6875 -2.84375q-0.578125 -1.671875 -0.578125 -3.75q0 -2.0625 0.578125 -3.734375q0.59375 -1.671875 1.6875 -2.84375q1.09375 -1.1875 2.640625 -1.828125q1.5625 -0.640625 3.484375 -0.640625zm0 15.65625q2.59375 0 3.875 -1.734375q1.28125 -1.75 1.28125 -4.859375q0 -3.140625 -1.28125 -4.890625q-1.28125 -1.75 -3.875 -1.75q-1.328125 0 -2.296875 0.453125q-0.96875 0.453125 -1.625 1.296875q-0.640625 0.84375 -0.96875 2.09375q-0.3125 1.234375 -0.3125 2.796875q0 1.5625 0.3125 2.796875q0.328125 1.21875 0.96875 2.0625q0.65625 0.84375 1.625 1.296875q0.96875 0.4375 2.296875 0.4375zm22.206299 -12.484375q-0.203125 0.375 -0.640625 0.375q-0.265625 0 -0.59375 -0.1875q-0.328125 -0.1875 -0.8125 -0.421875q-0.46875 -0.234375 -1.125 -0.4375q-0.65625 -0.203125 -1.5625 -0.203125q-0.78125 0 -1.40625 0.203125q-0.609375 0.203125 -1.0625 0.546875q-0.4375 0.34375 -0.671875 0.8125q-0.234375 0.453125 -0.234375 0.984375q0 0.6875 0.390625 1.140625q0.390625 0.4375 1.03125 0.765625q0.640625 0.328125 1.453125 0.59375q0.8125 0.25 1.671875 0.53125q0.859375 0.28125 1.671875 0.640625q0.8125 0.34375 1.453125 0.859375q0.640625 0.515625 1.03125 1.28125q0.390625 0.75 0.390625 1.796875q0 1.21875 -0.4375 2.25q-0.421875 1.03125 -1.28125 1.78125q-0.84375 0.75 -2.078125 1.1875q-1.21875 0.4375 -2.828125 0.4375q-1.84375 0 -3.34375 -0.59375q-1.484375 -0.609375 -2.515625 -1.546875l0.71875 -1.171875q0.140625 -0.21875 0.328125 -0.34375q0.203125 -0.125 0.515625 -0.125q0.3125 0 0.65625 0.25q0.34375 0.234375 0.828125 0.53125q0.5 0.296875 1.203125 0.546875q0.703125 0.234375 1.765625 0.234375q0.890625 0 1.5625 -0.234375q0.6875 -0.234375 1.125 -0.625q0.453125 -0.40625 0.671875 -0.921875q0.21875 -0.53125 0.21875 -1.109375q0 -0.734375 -0.390625 -1.203125q-0.390625 -0.484375 -1.03125 -0.8125q-0.640625 -0.34375 -1.46875 -0.59375q-0.8125 -0.25 -1.671875 -0.53125q-0.859375 -0.28125 -1.6875 -0.625q-0.8125 -0.359375 -1.453125 -0.890625q-0.640625 -0.546875 -1.03125 -1.328125q-0.390625 -0.796875 -0.390625 -1.921875q0 -1.0 0.40625 -1.921875q0.421875 -0.9375 1.21875 -1.640625q0.796875 -0.703125 1.953125 -1.109375q1.171875 -0.421875 2.65625 -0.421875q1.734375 0 3.109375 0.546875q1.375 0.546875 2.375 1.5l-0.6875 1.125zm10.306335 14.9375q-2.078125 0 -3.203125 -1.15625q-1.109375 -1.171875 -1.109375 -3.359375l0 -10.734375l-2.109375 0q-0.28125 0 -0.46875 -0.15625q-0.1875 -0.171875 -0.1875 -0.515625l0 -1.234375l2.875 -0.359375l0.703125 -5.4375q0.046875 -0.25 0.234375 -0.40625q0.1875 -0.171875 0.484375 -0.171875l1.5625 0l0 6.046875l5.015625 0l0 2.234375l-5.015625 0l0 10.53125q0 1.109375 0.53125 1.65625q0.53125 0.53125 1.390625 0.53125q0.484375 0 0.828125 -0.125q0.359375 -0.140625 0.625 -0.296875q0.265625 -0.15625 0.4375 -0.28125q0.1875 -0.125 0.328125 -0.125q0.234375 0 0.421875 0.28125l0.90625 1.484375q-0.796875 0.734375 -1.921875 1.171875q-1.125 0.421875 -2.328125 0.421875zm14.302856 -0.28125l0 -17.546875l1.828125 0q0.671875 0 0.84375 0.640625l0.21875 1.796875q0.96875 -1.203125 2.171875 -1.953125q1.203125 -0.765625 2.796875 -0.765625q1.796875 0 2.890625 0.984375q1.09375 0.984375 1.59375 2.671875q0.359375 -0.953125 0.953125 -1.640625q0.59375 -0.703125 1.34375 -1.15625q0.75 -0.453125 1.578125 -0.65625q0.84375 -0.203125 1.71875 -0.203125q1.375 0 2.453125 0.4375q1.09375 0.4375 1.84375 1.296875q0.765625 0.84375 1.15625 2.09375q0.40625 1.234375 0.40625 2.828125l0 11.171875l-3.09375 0l0 -11.171875q0 -2.0625 -0.90625 -3.125q-0.890625 -1.078125 -2.609375 -1.078125q-0.765625 0 -1.453125 0.28125q-0.671875 0.265625 -1.203125 0.78125q-0.515625 0.515625 -0.828125 1.3125q-0.296875 0.78125 -0.296875 1.828125l0 11.171875l-3.078125 0l0 -11.171875q0 -2.125 -0.859375 -3.15625q-0.84375 -1.046875 -2.46875 -1.046875q-1.140625 0 -2.125 0.625q-0.984375 0.609375 -1.796875 1.671875l0 13.078125l-3.078125 0zm35.56195 -17.828125q1.921875 0 3.46875 0.640625q1.546875 0.640625 2.625 1.828125q1.09375 1.171875 1.671875 2.84375q0.578125 1.671875 0.578125 3.734375q0 2.078125 -0.578125 3.75q-0.578125 1.65625 -1.671875 2.84375q-1.078125 1.171875 -2.625 1.8125q-1.546875 0.625 -3.46875 0.625q-1.921875 0 -3.484375 -0.625q-1.546875 -0.640625 -2.640625 -1.8125q-1.09375 -1.1875 -1.6875 -2.84375q-0.578125 -1.671875 -0.578125 -3.75q0 -2.0625 0.578125 -3.734375q0.59375 -1.671875 1.6875 -2.84375q1.09375 -1.1875 2.640625 -1.828125q1.5625 -0.640625 3.484375 -0.640625zm0 15.65625q2.59375 0 3.875 -1.734375q1.28125 -1.75 1.28125 -4.859375q0 -3.140625 -1.28125 -4.890625q-1.28125 -1.75 -3.875 -1.75q-1.328125 0 -2.296875 0.453125q-0.96875 0.453125 -1.625 1.296875q-0.640625 0.84375 -0.96875 2.09375q-0.3125 1.234375 -0.3125 2.796875q0 1.5625 0.3125 2.796875q0.328125 1.21875 0.96875 2.0625q0.65625 0.84375 1.625 1.296875q0.96875 0.4375 2.296875 0.4375zm24.518799 2.171875q-0.671875 0 -0.84375 -0.640625l-0.265625 -2.125q-1.125 1.359375 -2.578125 2.1875q-1.453125 0.828125 -3.3125 0.828125q-1.515625 0 -2.75 -0.578125q-1.21875 -0.59375 -2.09375 -1.71875q-0.859375 -1.125 -1.328125 -2.796875q-0.46875 -1.6875 -0.46875 -3.875q0 -1.9375 0.515625 -3.609375q0.515625 -1.671875 1.5 -2.90625q0.984375 -1.234375 2.375 -1.921875q1.40625 -0.703125 3.203125 -0.703125q1.609375 0 2.75 0.546875q1.140625 0.53125 2.046875 1.53125l0 -9.75l3.078125 0l0 25.53125l-1.828125 0zm-5.984375 -2.25q1.515625 0 2.640625 -0.6875q1.140625 -0.703125 2.09375 -1.96875l0 -8.484375q-0.859375 -1.140625 -1.875 -1.59375q-1.0 -0.46875 -2.234375 -0.46875q-2.46875 0 -3.78125 1.75q-1.3125 1.75 -1.3125 4.984375q0 1.71875 0.296875 2.9375q0.296875 1.21875 0.859375 2.015625q0.578125 0.78125 1.40625 1.15625q0.828125 0.359375 1.90625 0.359375zm19.950867 -15.578125q1.578125 0 2.90625 0.53125q1.328125 0.515625 2.296875 1.515625q0.984375 1.0 1.515625 2.46875q0.546875 1.453125 0.546875 3.328125q0 0.734375 -0.15625 0.984375q-0.15625 0.234375 -0.578125 0.234375l-11.6875 0q0.03125 1.65625 0.453125 2.890625q0.421875 1.234375 1.140625 2.0625q0.734375 0.8125 1.734375 1.21875q1.0 0.40625 2.25 0.40625q1.171875 0 2.0 -0.265625q0.84375 -0.265625 1.453125 -0.578125q0.609375 -0.3125 1.015625 -0.578125q0.40625 -0.265625 0.703125 -0.265625q0.375 0 0.59375 0.28125l0.859375 1.140625q-0.578125 0.6875 -1.375 1.203125q-0.796875 0.5 -1.703125 0.828125q-0.90625 0.328125 -1.875 0.5q-0.96875 0.171875 -1.921875 0.171875q-1.828125 0 -3.359375 -0.609375q-1.53125 -0.625 -2.65625 -1.8125q-1.109375 -1.1875 -1.734375 -2.9375q-0.625 -1.75 -0.625 -4.015625q0 -1.84375 0.5625 -3.4375q0.5625 -1.59375 1.609375 -2.765625q1.0625 -1.171875 2.59375 -1.828125q1.53125 -0.671875 3.4375 -0.671875zm0.0625 2.265625q-2.234375 0 -3.515625 1.296875q-1.28125 1.28125 -1.59375 3.578125l9.546875 0q0 -1.078125 -0.296875 -1.96875q-0.296875 -0.890625 -0.875 -1.53125q-0.5625 -0.65625 -1.390625 -1.015625q-0.8125 -0.359375 -1.875 -0.359375zm14.565979 -9.96875l0 25.53125l-3.078125 0l0 -25.53125l3.078125 0z" fill-rule="nonzero"/><path fill="#000000" fill-opacity="0.0" d="m524.57214 577.4147l0 0c0 -33.110962 54.811646 -59.95276 122.42523 -59.95276l0 0c67.61359 0 122.42517 26.841797 122.42517 59.95276l0 0c0 33.111023 -54.811584 59.95276 -122.42517 59.95276l0 0c-67.61359 0 -122.42523 -26.841736 -122.42523 -59.95276z" fill-rule="evenodd"/><path stroke="#cc0000" stroke-width="4.0" stroke-linejoin="round" stroke-linecap="butt" d="m524.57214 577.4147l0 0c0 -33.110962 54.811646 -59.95276 122.42523 -59.95276l0 0c67.61359 0 122.42517 26.841797 122.42517 59.95276l0 0c0 33.111023 -54.811584 59.95276 -122.42517 59.95276l0 0c-67.61359 0 -122.42523 -26.841736 -122.42523 -59.95276z" fill-rule="evenodd"/><path fill="#cc0000" d="m588.2411 580.72595q0.234375 0.40625 0.421875 0.875q0.1875 0.453125 0.359375 0.921875q0.171875 -0.484375 0.359375 -0.921875q0.1875 -0.453125 0.4375 -0.90625l8.40625 -15.265625q0.21875 -0.390625 0.453125 -0.46875q0.25 -0.09375 0.703125 -0.09375l2.46875 0l0 24.828125l-2.9375 0l0 -18.25q0 -0.359375 0.015625 -0.765625q0.015625 -0.421875 0.046875 -0.859375l-8.5 15.53125q-0.4375 0.78125 -1.21875 0.78125l-0.484375 0q-0.78125 0 -1.203125 -0.78125l-8.703125 -15.578125q0.046875 0.4375 0.0625 0.875q0.03125 0.4375 0.03125 0.796875l0 18.25l-2.9375 0l0 -24.828125l2.484375 0q0.4375 0 0.671875 0.09375q0.25 0.078125 0.484375 0.46875l8.578125 15.296875l0 0zm26.133545 -8.859375q1.578125 0 2.90625 0.53125q1.328125 0.515625 2.296875 1.515625q0.984375 1.0 1.515625 2.46875q0.546875 1.453125 0.546875 3.328125q0 0.734375 -0.15625 0.984375q-0.15625 0.234375 -0.578125 0.234375l-11.6875 0q0.03125 1.65625 0.453125 2.890625q0.421875 1.234375 1.140625 2.0625q0.734375 0.8125 1.734375 1.21875q1.0 0.40625 2.25 0.40625q1.171875 0 2.0 -0.265625q0.84375 -0.265625 1.453125 -0.578125q0.609375 -0.3125 1.015625 -0.578125q0.40625 -0.265625 0.703125 -0.265625q0.375 0 0.59375 0.28125l0.859375 1.140625q-0.578125 0.6875 -1.375 1.203125q-0.796875 0.5 -1.703125 0.828125q-0.90625 0.328125 -1.875 0.5q-0.96875 0.171875 -1.921875 0.171875q-1.828125 0 -3.359375 -0.609375q-1.53125 -0.625 -2.65625 -1.8125q-1.109375 -1.1875 -1.734375 -2.9375q-0.625 -1.75 -0.625 -4.015625q0 -1.84375 0.5625 -3.4375q0.5625 -1.59375 1.609375 -2.765625q1.0625 -1.171875 2.59375 -1.828125q1.53125 -0.671875 3.4375 -0.671875zm0.0625 2.265625q-2.234375 0 -3.515625 1.296875q-1.28125 1.28125 -1.59375 3.578125l9.546875 0q0 -1.078125 -0.296875 -1.96875q-0.296875 -0.890625 -0.875 -1.53125q-0.5625 -0.65625 -1.390625 -1.015625q-0.8125 -0.359375 -1.875 -0.359375zm16.456665 15.84375q-2.078125 0 -3.203125 -1.15625q-1.109375 -1.171875 -1.109375 -3.359375l0 -10.734375l-2.109375 0q-0.28125 0 -0.46875 -0.15625q-0.1875 -0.171875 -0.1875 -0.515625l0 -1.234375l2.875 -0.359375l0.703125 -5.4375q0.046875 -0.25 0.234375 -0.40625q0.1875 -0.171875 0.484375 -0.171875l1.5625 0l0 6.046875l5.015625 0l0 2.234375l-5.015625 0l0 10.53125q0 1.109375 0.53125 1.65625q0.53125 0.53125 1.390625 0.53125q0.484375 0 0.828125 -0.125q0.359375 -0.140625 0.625 -0.296875q0.265625 -0.15625 0.4375 -0.28125q0.1875 -0.125 0.328125 -0.125q0.234375 0 0.421875 0.28125l0.90625 1.484375q-0.796875 0.734375 -1.921875 1.171875q-1.125 0.421875 -2.328125 0.421875zm20.504822 -0.28125l-1.375 0q-0.4375 0 -0.71875 -0.140625q-0.28125 -0.140625 -0.359375 -0.59375l-0.359375 -1.625q-0.6875 0.625 -1.34375 1.125q-0.65625 0.484375 -1.390625 0.828125q-0.71875 0.34375 -1.546875 0.515625q-0.828125 0.171875 -1.828125 0.171875q-1.03125 0 -1.921875 -0.28125q-0.890625 -0.296875 -1.546875 -0.859375q-0.65625 -0.578125 -1.046875 -1.453125q-0.390625 -0.875 -0.390625 -2.078125q0 -1.03125 0.5625 -1.984375q0.578125 -0.96875 1.84375 -1.71875q1.28125 -0.75 3.34375 -1.21875q2.0625 -0.484375 5.046875 -0.546875l0 -1.375q0 -2.03125 -0.875 -3.078125q-0.875 -1.0625 -2.59375 -1.0625q-1.125 0 -1.90625 0.296875q-0.765625 0.28125 -1.328125 0.640625q-0.5625 0.34375 -0.96875 0.640625q-0.40625 0.28125 -0.796875 0.28125q-0.3125 0 -0.546875 -0.15625q-0.234375 -0.171875 -0.375 -0.421875l-0.5625 -0.984375q1.46875 -1.40625 3.140625 -2.09375q1.6875 -0.6875 3.734375 -0.6875q1.46875 0 2.609375 0.484375q1.140625 0.484375 1.921875 1.359375q0.78125 0.859375 1.171875 2.09375q0.40625 1.21875 0.40625 2.6875l0 11.234375zm-8.0 -1.890625q0.8125 0 1.484375 -0.15625q0.671875 -0.171875 1.265625 -0.46875q0.609375 -0.3125 1.15625 -0.734375q0.546875 -0.4375 1.0625 -1.0l0 -3.65625q-2.125 0.078125 -3.625 0.34375q-1.484375 0.265625 -2.421875 0.703125q-0.9375 0.4375 -1.359375 1.03125q-0.421875 0.578125 -0.421875 1.3125q0 0.6875 0.21875 1.1875q0.21875 0.5 0.59375 0.828125q0.390625 0.3125 0.90625 0.46875q0.53125 0.140625 1.140625 0.140625zm25.039368 1.890625q-0.671875 0 -0.84375 -0.640625l-0.265625 -2.125q-1.125 1.359375 -2.578125 2.1875q-1.453125 0.828125 -3.3125 0.828125q-1.515625 0 -2.75 -0.578125q-1.21875 -0.59375 -2.09375 -1.71875q-0.859375 -1.125 -1.328125 -2.796875q-0.46875 -1.6875 -0.46875 -3.875q0 -1.9375 0.515625 -3.609375q0.515625 -1.671875 1.5 -2.90625q0.984375 -1.234375 2.375 -1.921875q1.40625 -0.703125 3.203125 -0.703125q1.609375 0 2.75 0.546875q1.140625 0.53125 2.046875 1.53125l0 -9.75l3.078125 0l0 25.53125l-1.828125 0zm-5.984375 -2.25q1.515625 0 2.640625 -0.6875q1.140625 -0.703125 2.09375 -1.96875l0 -8.484375q-0.859375 -1.140625 -1.875 -1.59375q-1.0 -0.46875 -2.234375 -0.46875q-2.46875 0 -3.78125 1.75q-1.3125 1.75 -1.3125 4.984375q0 1.71875 0.296875 2.9375q0.296875 1.21875 0.859375 2.015625q0.578125 0.78125 1.40625 1.15625q0.828125 0.359375 1.90625 0.359375zm25.888367 2.25l-1.375 0q-0.4375 0 -0.71875 -0.140625q-0.28125 -0.140625 -0.359375 -0.59375l-0.359375 -1.625q-0.6875 0.625 -1.34375 1.125q-0.65625 0.484375 -1.390625 0.828125q-0.71875 0.34375 -1.546875 0.515625q-0.828125 0.171875 -1.828125 0.171875q-1.03125 0 -1.921875 -0.28125q-0.890625 -0.296875 -1.546875 -0.859375q-0.65625 -0.578125 -1.046875 -1.453125q-0.390625 -0.875 -0.390625 -2.078125q0 -1.03125 0.5625 -1.984375q0.578125 -0.96875 1.84375 -1.71875q1.28125 -0.75 3.34375 -1.21875q2.0625 -0.484375 5.046875 -0.546875l0 -1.375q0 -2.03125 -0.875 -3.078125q-0.875 -1.0625 -2.59375 -1.0625q-1.125 0 -1.90625 0.296875q-0.765625 0.28125 -1.328125 0.640625q-0.5625 0.34375 -0.96875 0.640625q-0.40625 0.28125 -0.796875 0.28125q-0.3125 0 -0.546875 -0.15625q-0.234375 -0.171875 -0.375 -0.421875l-0.5625 -0.984375q1.46875 -1.40625 3.140625 -2.09375q1.6875 -0.6875 3.734375 -0.6875q1.46875 0 2.609375 0.484375q1.140625 0.484375 1.921875 1.359375q0.78125 0.859375 1.171875 2.09375q0.40625 1.21875 0.40625 2.6875l0 11.234375zm-8.0 -1.890625q0.8125 0 1.484375 -0.15625q0.671875 -0.171875 1.265625 -0.46875q0.609375 -0.3125 1.15625 -0.734375q0.546875 -0.4375 1.0625 -1.0l0 -3.65625q-2.125 0.078125 -3.625 0.34375q-1.484375 0.265625 -2.421875 0.703125q-0.9375 0.4375 -1.359375 1.03125q-0.421875 0.578125 -0.421875 1.3125q0 0.6875 0.21875 1.1875q0.21875 0.5 0.59375 0.828125q0.390625 0.3125 0.90625 0.46875q0.53125 0.140625 1.140625 0.140625zm17.992493 2.171875q-2.078125 0 -3.203125 -1.15625q-1.109375 -1.171875 -1.109375 -3.359375l0 -10.734375l-2.109375 0q-0.28125 0 -0.46875 -0.15625q-0.1875 -0.171875 -0.1875 -0.515625l0 -1.234375l2.875 -0.359375l0.703125 -5.4375q0.046875 -0.25 0.234375 -0.40625q0.1875 -0.171875 0.484375 -0.171875l1.5625 0l0 6.046875l5.015625 0l0 2.234375l-5.015625 0l0 10.53125q0 1.109375 0.53125 1.65625q0.53125 0.53125 1.390625 0.53125q0.484375 0 0.828125 -0.125q0.359375 -0.140625 0.625 -0.296875q0.265625 -0.15625 0.4375 -0.28125q0.1875 -0.125 0.328125 -0.125q0.234375 0 0.421875 0.28125l0.90625 1.484375q-0.796875 0.734375 -1.921875 1.171875q-1.125 0.421875 -2.328125 0.421875zm20.504822 -0.28125l-1.375 0q-0.4375 0 -0.71875 -0.140625q-0.28125 -0.140625 -0.359375 -0.59375l-0.359375 -1.625q-0.6875 0.625 -1.34375 1.125q-0.65625 0.484375 -1.390625 0.828125q-0.71875 0.34375 -1.546875 0.515625q-0.828125 0.171875 -1.828125 0.171875q-1.03125 0 -1.921875 -0.28125q-0.890625 -0.296875 -1.546875 -0.859375q-0.65625 -0.578125 -1.046875 -1.453125q-0.390625 -0.875 -0.390625 -2.078125q0 -1.03125 0.5625 -1.984375q0.578125 -0.96875 1.84375 -1.71875q1.28125 -0.75 3.34375 -1.21875q2.0625 -0.484375 5.046875 -0.546875l0 -1.375q0 -2.03125 -0.875 -3.078125q-0.875 -1.0625 -2.59375 -1.0625q-1.125 0 -1.90625 0.296875q-0.765625 0.28125 -1.328125 0.640625q-0.5625 0.34375 -0.96875 0.640625q-0.40625 0.28125 -0.796875 0.28125q-0.3125 0 -0.546875 -0.15625q-0.234375 -0.171875 -0.375 -0.421875l-0.5625 -0.984375q1.46875 -1.40625 3.140625 -2.09375q1.6875 -0.6875 3.734375 -0.6875q1.46875 0 2.609375 0.484375q1.140625 0.484375 1.921875 1.359375q0.78125 0.859375 1.171875 2.09375q0.40625 1.21875 0.40625 2.6875l0 11.234375zm-8.0 -1.890625q0.8125 0 1.484375 -0.15625q0.671875 -0.171875 1.265625 -0.46875q0.609375 -0.3125 1.15625 -0.734375q0.546875 -0.4375 1.0625 -1.0l0 -3.65625q-2.125 0.078125 -3.625 0.34375q-1.484375 0.265625 -2.421875 0.703125q-0.9375 0.4375 -1.359375 1.03125q-0.421875 0.578125 -0.421875 1.3125q0 0.6875 0.21875 1.1875q0.21875 0.5 0.59375 0.828125q0.390625 0.3125 0.90625 0.46875q0.53125 0.140625 1.140625 0.140625z" fill-rule="nonzero"/><path fill="#000000" fill-opacity="0.0" d="m769.42255 577.4147l52.787415 0" fill-rule="evenodd"/><path stroke="#cc0000" stroke-width="4.0" stroke-linejoin="round" stroke-linecap="butt" d="m769.42255 577.4147l28.787415 0" fill-rule="evenodd"/><path stroke="#cc0000" stroke-width="4.0" stroke-linecap="butt" d="m798.20996 584.0216l18.152405 -6.6069336l-18.152405 -6.6069336z" fill-rule="evenodd"/><path fill="#000000" fill-opacity="0.0" d="m922.30444 521.8543l0 -78.39368" fill-rule="evenodd"/><path stroke="#cc0000" stroke-width="4.0" stroke-linejoin="round" stroke-linecap="butt" d="m922.30444 521.8543l0 -54.393677" fill-rule="evenodd"/><path stroke="#cc0000" stroke-width="4.0" stroke-linecap="butt" d="m928.9114 467.46063l-6.6069336 -18.152405l-6.6069336 18.152405z" fill-rule="evenodd"/></g></svg>