<svg version="1.1" viewBox="0.0 0.0 958.5170603674541 626.5511811023622" fill="none" stroke="none" stroke-linecap="square" stroke-miterlimit="10" xmlns:xlink="http://www.w3.org/1999/xlink" xmlns="http://www.w3.org/2000/svg"><clipPath id="p.0"><path d="m0 0l958.5171 0l0 626.5512l-958.5171 0l0 -626.5512z" clip-rule="nonzero"/></clipPath><g clip-path="url(#p.0)"><path fill="#000000" fill-opacity="0.0" d="m0 0l958.5171 0l0 626.5512l-958.5171 0z" fill-rule="evenodd"/><path fill="#cfe2f3" d="m356.38977 55.165356l246.51965 0l0 103.244095l-246.51965 0z" fill-rule="evenodd"/><path fill="#000000" d="m401.32928 99.5074l-1.65625 -5.4375l-8.328125 0l-1.65625 5.4375l-5.21875 0l8.0625 -22.9375l5.921875 0l8.09375 22.9375l-5.21875 0zm-2.8125 -9.5q-2.296875 -7.390625 -2.59375 -8.359375q-0.28125 -0.96875 -0.40625 -1.53125q-0.515625 2.0 -2.953125 9.890625l5.953125 0zm17.625 9.8125q-8.15625 0 -8.15625 -8.953125q0 -4.453125 2.21875 -6.796875q2.21875 -2.359375 6.359375 -2.359375q3.03125 0 5.4375 1.1875l-1.40625 3.6875q-1.125 -0.453125 -2.09375 -0.734375q-0.96875 -0.296875 -1.9375 -0.296875q-3.71875 0 -3.71875 5.28125q0 5.125 3.71875 5.125q1.375 0 2.546875 -0.359375q1.171875 -0.375 2.34375 -1.15625l0 4.078125q-1.15625 0.734375 -2.34375 1.015625q-1.171875 0.28125 -2.96875 0.28125zm16.453125 0q-8.15625 0 -8.15625 -8.953125q0 -4.453125 2.21875 -6.796875q2.21875 -2.359375 6.359375 -2.359375q3.03125 0 5.4375 1.1875l-1.40625 3.6875q-1.125 -0.453125 -2.09375 -0.734375q-0.96875 -0.296875 -1.9375 -0.296875q-3.71875 0 -3.71875 5.28125q0 5.125 3.71875 5.125q1.375 0 2.546875 -0.359375q1.171875 -0.375 2.34375 -1.15625l0 4.078125q-1.15625 0.734375 -2.34375 1.015625q-1.171875 0.28125 -2.96875 0.28125zm21.734375 -0.3125l-0.640625 -2.234375l-0.25 0q-0.765625 1.21875 -2.171875 1.890625q-1.40625 0.65625 -3.203125 0.65625q-3.078125 0 -4.640625 -1.640625q-1.5625 -1.65625 -1.5625 -4.75l0 -11.390625l4.765625 0l0 10.203125q0 1.890625 0.671875 2.84375q0.671875 0.9375 2.140625 0.9375q2.0 0 2.890625 -1.328125q0.890625 -1.34375 0.890625 -4.4375l0 -8.21875l4.765625 0l0 17.46875l-3.65625 0zm24.296875 0l-4.765625 0l0 -10.203125q0 -1.890625 -0.640625 -2.828125q-0.625 -0.953125 -1.984375 -0.953125q-1.828125 0 -2.65625 1.34375q-0.828125 1.34375 -0.828125 4.421875l0 8.21875l-4.765625 0l0 -17.46875l3.640625 0l0.640625 2.234375l0.265625 0q0.703125 -1.203125 2.03125 -1.875q1.328125 -0.6875 3.046875 -0.6875q3.921875 0 5.3125 2.5625l0.421875 0q0.703125 -1.21875 2.0625 -1.890625q1.375 -0.671875 3.09375 -0.671875q2.96875 0 4.484375 1.53125q1.53125 1.515625 1.53125 4.875l0 11.390625l-4.78125 0l0 -10.203125q0 -1.890625 -0.640625 -2.828125q-0.625 -0.953125 -1.984375 -0.953125q-1.75 0 -2.625 1.25q-0.859375 1.25 -0.859375 3.96875l0 8.765625zm28.15625 0l-0.640625 -2.234375l-0.25 0q-0.765625 1.21875 -2.171875 1.890625q-1.40625 0.65625 -3.203125 0.65625q-3.078125 0 -4.640625 -1.640625q-1.5625 -1.65625 -1.5625 -4.75l0 -11.390625l4.765625 0l0 10.203125q0 1.890625 0.671875 2.84375q0.671875 0.9375 2.140625 0.9375q2.0 0 2.890625 -1.328125q0.890625 -1.34375 0.890625 -4.4375l0 -8.21875l4.765625 0l0 17.46875l-3.65625 0zm13.421875 0l-4.765625 0l0 -24.3125l4.765625 0l0 24.3125zm16.09375 0l-0.921875 -2.375l-0.125 0q-1.203125 1.515625 -2.484375 2.109375q-1.265625 0.578125 -3.3125 0.578125q-2.515625 0 -3.96875 -1.4375q-1.4375 -1.4375 -1.4375 -4.09375q0 -2.78125 1.9375 -4.09375q1.953125 -1.328125 5.875 -1.46875l3.03125 -0.09375l0 -0.765625q0 -2.65625 -2.71875 -2.65625q-2.09375 0 -4.921875 1.265625l-1.578125 -3.21875q3.015625 -1.578125 6.6875 -1.578125q3.515625 0 5.390625 1.53125q1.875 1.53125 1.875 4.65625l0 11.640625l-3.328125 0zm-1.40625 -8.09375l-1.84375 0.0625q-2.078125 0.0625 -3.09375 0.75q-1.015625 0.6875 -1.015625 2.09375q0 2.015625 2.3125 2.015625q1.65625 0 2.640625 -0.953125q1.0 -0.953125 1.0 -2.53125l0 -1.4375zm17.0 4.609375q1.25 0 3.0 -0.546875l0 3.546875q-1.78125 0.796875 -4.375 0.796875q-2.859375 0 -4.171875 -1.4375q-1.296875 -1.453125 -1.296875 -4.34375l0 -8.421875l-2.28125 0l0 -2.015625l2.625 -1.59375l1.375 -3.6875l3.046875 0l0 3.71875l4.890625 0l0 3.578125l-4.890625 0l0 8.421875q0 1.015625 0.5625 1.5q0.578125 0.484375 1.515625 0.484375zm13.765625 -10.921875q-1.515625 0 -2.375 0.96875q-0.859375 0.953125 -0.984375 2.71875l6.6875 0q-0.03125 -1.765625 -0.921875 -2.71875q-0.890625 -0.96875 -2.40625 -0.96875zm0.671875 14.71875q-4.21875 0 -6.59375 -2.328125q-2.375 -2.328125 -2.375 -6.59375q0 -4.390625 2.1875 -6.78125q2.203125 -2.40625 6.078125 -2.40625q3.703125 0 5.765625 2.109375q2.0625 2.109375 2.0625 5.828125l0 2.3125l-11.265625 0q0.078125 2.03125 1.203125 3.171875q1.125 1.140625 3.15625 1.140625q1.578125 0 2.984375 -0.328125q1.40625 -0.328125 2.9375 -1.046875l0 3.6875q-1.25 0.625 -2.671875 0.921875q-1.421875 0.3125 -3.46875 0.3125z" fill-rule="nonzero"/><path fill="#000000" d="m451.2824 137.8199q-3.078125 0 -4.84375 -2.390625q-1.75 -2.390625 -1.75 -6.625q0 -4.296875 1.78125 -6.6875q1.796875 -2.40625 4.9375 -2.40625q3.296875 0 5.03125 2.5625l0.15625 0q-0.359375 -1.953125 -0.359375 -3.484375l0 -5.59375l4.78125 0l0 24.3125l-3.65625 0l-0.921875 -2.265625l-0.203125 0q-1.625 2.578125 -4.953125 2.578125zm1.671875 -3.796875q1.828125 0 2.671875 -1.0625q0.859375 -1.0625 0.9375 -3.609375l0 -0.515625q0 -2.8125 -0.875 -4.03125q-0.859375 -1.21875 -2.8125 -1.21875q-1.59375 0 -2.484375 1.359375q-0.875 1.34375 -0.875 3.921875q0 2.578125 0.890625 3.875q0.890625 1.28125 2.546875 1.28125zm24.140625 3.484375l-0.921875 -2.375l-0.125 0q-1.203125 1.515625 -2.484375 2.109375q-1.265625 0.578125 -3.3125 0.578125q-2.515625 0 -3.96875 -1.4375q-1.4375 -1.4375 -1.4375 -4.09375q0 -2.78125 1.9375 -4.09375q1.953125 -1.328125 5.875 -1.46875l3.03125 -0.09375l0 -0.765625q0 -2.65625 -2.71875 -2.65625q-2.09375 0 -4.921875 1.265625l-1.578125 -3.21875q3.015625 -1.578125 6.6875 -1.578125q3.515625 0 5.390625 1.53125q1.875 1.53125 1.875 4.65625l0 11.640625l-3.328125 0zm-1.40625 -8.09375l-1.84375 0.0625q-2.078125 0.0625 -3.09375 0.75q-1.015625 0.6875 -1.015625 2.09375q0 2.015625 2.3125 2.015625q1.65625 0 2.640625 -0.953125q1.0 -0.953125 1.0 -2.53125l0 -1.4375zm17.0 4.609375q1.25 0 3.0 -0.546875l0 3.546875q-1.78125 0.796875 -4.375 0.796875q-2.859375 0 -4.171875 -1.4375q-1.296875 -1.453125 -1.296875 -4.34375l0 -8.421875l-2.28125 0l0 -2.015625l2.625 -1.59375l1.375 -3.6875l3.046875 0l0 3.71875l4.890625 0l0 3.578125l-4.890625 0l0 8.421875q0 1.015625 0.5625 1.5q0.578125 0.484375 1.515625 0.484375zm17.625 3.484375l-0.921875 -2.375l-0.125 0q-1.203125 1.515625 -2.484375 2.109375q-1.265625 0.578125 -3.3125 0.578125q-2.515625 0 -3.96875 -1.4375q-1.4375 -1.4375 -1.4375 -4.09375q0 -2.78125 1.9375 -4.09375q1.953125 -1.328125 5.875 -1.46875l3.03125 -0.09375l0 -0.765625q0 -2.65625 -2.71875 -2.65625q-2.09375 0 -4.921875 1.265625l-1.578125 -3.21875q3.015625 -1.578125 6.6875 -1.578125q3.515625 0 5.390625 1.53125q1.875 1.53125 1.875 4.65625l0 11.640625l-3.328125 0zm-1.40625 -8.09375l-1.84375 0.0625q-2.078125 0.0625 -3.09375 0.75q-1.015625 0.6875 -1.015625 2.09375q0 2.015625 2.3125 2.015625q1.65625 0 2.640625 -0.953125q1.0 -0.953125 1.0 -2.53125l0 -1.4375z" fill-rule="nonzero"/><path fill="#9fc5e8" d="m667.1221 261.19684l246.51965 0l0 103.24411l-246.51965 0z" fill-rule="evenodd"/><path fill="#000000" d="m692.42096 324.5389l-4.84375 0l0 -18.8125l-6.203125 0l0 -4.03125l17.25 0l0 4.03125l-6.203125 0l0 18.8125zm19.09375 -17.796875q0.96875 0 1.609375 0.140625l-0.359375 4.46875q-0.578125 -0.15625 -1.40625 -0.15625q-2.28125 0 -3.5625 1.171875q-1.265625 1.171875 -1.265625 3.28125l0 8.890625l-4.765625 0l0 -17.46875l3.609375 0l0.703125 2.9375l0.234375 0q0.8125 -1.46875 2.1875 -2.359375q1.390625 -0.90625 3.015625 -0.90625zm15.875 17.796875l-0.921875 -2.375l-0.125 0q-1.203125 1.515625 -2.484375 2.109375q-1.265625 0.578125 -3.3125 0.578125q-2.515625 0 -3.96875 -1.4375q-1.4375 -1.4375 -1.4375 -4.09375q0 -2.78125 1.9375 -4.09375q1.953125 -1.328125 5.875 -1.46875l3.03125 -0.09375l0 -0.765625q0 -2.65625 -2.71875 -2.65625q-2.09375 0 -4.921875 1.265625l-1.578125 -3.21875q3.015625 -1.578125 6.6875 -1.578125q3.515625 0 5.390625 1.53125q1.875 1.53125 1.875 4.65625l0 11.640625l-3.328125 0zm-1.40625 -8.09375l-1.84375 0.0625q-2.078125 0.0625 -3.09375 0.75q-1.015625 0.6875 -1.015625 2.09375q0 2.015625 2.3125 2.015625q1.65625 0 2.640625 -0.953125q1.0 -0.953125 1.0 -2.53125l0 -1.4375zm9.4375 -13.890625q0 -2.328125 2.59375 -2.328125q2.59375 0 2.59375 2.328125q0 1.109375 -0.65625 1.734375q-0.640625 0.609375 -1.9375 0.609375q-2.59375 0 -2.59375 -2.34375zm4.96875 21.984375l-4.765625 0l0 -17.46875l4.765625 0l0 17.46875zm21.125 0l-4.765625 0l0 -10.203125q0 -1.890625 -0.671875 -2.828125q-0.671875 -0.953125 -2.140625 -0.953125q-2.0 0 -2.890625 1.34375q-0.890625 1.328125 -0.890625 4.421875l0 8.21875l-4.765625 0l0 -17.46875l3.640625 0l0.640625 2.234375l0.265625 0q0.796875 -1.265625 2.1875 -1.90625q1.40625 -0.65625 3.1875 -0.65625q3.046875 0 4.625 1.65625q1.578125 1.640625 1.578125 4.75l0 11.390625zm24.3125 0l-0.921875 -2.375l-0.125 0q-1.203125 1.515625 -2.484375 2.109375q-1.265625 0.578125 -3.3125 0.578125q-2.515625 0 -3.96875 -1.4375q-1.4375 -1.4375 -1.4375 -4.09375q0 -2.78125 1.9375 -4.09375q1.953125 -1.328125 5.875 -1.46875l3.03125 -0.09375l0 -0.765625q0 -2.65625 -2.71875 -2.65625q-2.09375 0 -4.921875 1.265625l-1.578125 -3.21875q3.015625 -1.578125 6.6875 -1.578125q3.515625 0 5.390625 1.53125q1.875 1.53125 1.875 4.65625l0 11.640625l-3.328125 0zm-1.40625 -8.09375l-1.84375 0.0625q-2.078125 0.0625 -3.09375 0.75q-1.015625 0.6875 -1.015625 2.09375q0 2.015625 2.3125 2.015625q1.65625 0 2.640625 -0.953125q1.0 -0.953125 1.0 -2.53125l0 -1.4375zm33.59375 8.09375l-4.765625 0l0 -10.203125q0 -1.890625 -0.640625 -2.828125q-0.625 -0.953125 -1.984375 -0.953125q-1.828125 0 -2.65625 1.34375q-0.828125 1.34375 -0.828125 4.421875l0 8.21875l-4.765625 0l0 -17.46875l3.640625 0l0.640625 2.234375l0.265625 0q0.703125 -1.203125 2.03125 -1.875q1.328125 -0.6875 3.046875 -0.6875q3.921875 0 5.3125 2.5625l0.421875 0q0.703125 -1.21875 2.0625 -1.890625q1.375 -0.671875 3.09375 -0.671875q2.96875 0 4.484375 1.53125q1.53125 1.515625 1.53125 4.875l0 11.390625l-4.78125 0l0 -10.203125q0 -1.890625 -0.640625 -2.828125q-0.625 -0.953125 -1.984375 -0.953125q-1.75 0 -2.625 1.25q-0.859375 1.25 -0.859375 3.96875l0 8.765625zm19.578125 -8.765625q0 2.59375 0.84375 3.921875q0.859375 1.328125 2.78125 1.328125q1.90625 0 2.734375 -1.3125q0.84375 -1.328125 0.84375 -3.9375q0 -2.59375 -0.84375 -3.890625q-0.84375 -1.296875 -2.765625 -1.296875q-1.90625 0 -2.75 1.296875q-0.84375 1.28125 -0.84375 3.890625zm12.078125 0q0 4.265625 -2.25 6.671875q-2.25 2.40625 -6.265625 2.40625q-2.515625 0 -4.4375 -1.09375q-1.921875 -1.109375 -2.953125 -3.171875q-1.03125 -2.0625 -1.03125 -4.8125q0 -4.28125 2.234375 -6.65625q2.234375 -2.375 6.28125 -2.375q2.515625 0 4.4375 1.09375q1.921875 1.09375 2.953125 3.140625q1.03125 2.046875 1.03125 4.796875zm9.46875 9.078125q-3.078125 0 -4.84375 -2.390625q-1.75 -2.390625 -1.75 -6.625q0 -4.296875 1.78125 -6.6875q1.796875 -2.40625 4.9375 -2.40625q3.296875 0 5.03125 2.5625l0.15625 0q-0.359375 -1.953125 -0.359375 -3.484375l0 -5.59375l4.78125 0l0 24.3125l-3.65625 0l-0.921875 -2.265625l-0.203125 0q-1.625 2.578125 -4.953125 2.578125zm1.671875 -3.796875q1.828125 0 2.671875 -1.0625q0.859375 -1.0625 0.9375 -3.609375l0 -0.515625q0 -2.8125 -0.875 -4.03125q-0.859375 -1.21875 -2.8125 -1.21875q-1.59375 0 -2.484375 1.359375q-0.875 1.34375 -0.875 3.921875q0 2.578125 0.890625 3.875q0.890625 1.28125 2.546875 1.28125zm20.28125 -10.921875q-1.515625 0 -2.375 0.96875q-0.859375 0.953125 -0.984375 2.71875l6.6875 0q-0.03125 -1.765625 -0.921875 -2.71875q-0.890625 -0.96875 -2.40625 -0.96875zm0.671875 14.71875q-4.21875 0 -6.59375 -2.328125q-2.375 -2.328125 -2.375 -6.59375q0 -4.390625 2.1875 -6.78125q2.203125 -2.40625 6.078125 -2.40625q3.703125 0 5.765625 2.109375q2.0625 2.109375 2.0625 5.828125l0 2.3125l-11.265625 0q0.078125 2.03125 1.203125 3.171875q1.125 1.140625 3.15625 1.140625q1.578125 0 2.984375 -0.328125q1.40625 -0.328125 2.9375 -1.046875l0 3.6875q-1.25 0.625 -2.671875 0.921875q-1.421875 0.3125 -3.46875 0.3125zm15.765625 -0.3125l-4.765625 0l0 -24.3125l4.765625 0l0 24.3125z" fill-rule="nonzero"/><path fill="#6fa8dc" d="m356.38977 451.63254l246.51965 0l0 103.24411l-246.51965 0z" fill-rule="evenodd"/><path fill="#000000" d="m448.07147 495.9746l-5.5 -17.921875l-0.140625 0q0.296875 5.46875 0.296875 7.296875l0 10.625l-4.328125 0l0 -22.84375l6.59375 0l5.40625 17.46875l0.09375 0l5.734375 -17.46875l6.59375 0l0 22.84375l-4.515625 0l0 -10.8125q0 -0.765625 0.015625 -1.765625q0.03125 -1.0 0.21875 -5.3125l-0.140625 0l-5.890625 17.890625l-4.4375 0zm31.21875 0l-0.921875 -2.375l-0.125 0q-1.203125 1.515625 -2.484375 2.109375q-1.265625 0.578125 -3.3125 0.578125q-2.515625 0 -3.96875 -1.4375q-1.4375 -1.4375 -1.4375 -4.09375q0 -2.78125 1.9375 -4.09375q1.953125 -1.328125 5.875 -1.46875l3.03125 -0.09375l0 -0.765625q0 -2.65625 -2.71875 -2.65625q-2.09375 0 -4.921875 1.265625l-1.578125 -3.21875q3.015625 -1.578125 6.6875 -1.578125q3.515625 0 5.390625 1.53125q1.875 1.53125 1.875 4.65625l0 11.640625l-3.328125 0zm-1.40625 -8.09375l-1.84375 0.0625q-2.078125 0.0625 -3.09375 0.75q-1.015625 0.6875 -1.015625 2.09375q0 2.015625 2.3125 2.015625q1.65625 0 2.640625 -0.953125q1.0 -0.953125 1.0 -2.53125l0 -1.4375zm14.21875 -1.40625l2.078125 -2.65625l4.890625 -5.3125l5.375 0l-6.9375 7.578125l7.359375 9.890625l-5.5 0l-5.03125 -7.078125l-2.046875 1.640625l0 5.4375l-4.765625 0l0 -24.3125l4.765625 0l0 10.84375l-0.25 3.96875l0.0625 0zm22.5 -4.90625q-1.515625 0 -2.375 0.96875q-0.859375 0.953125 -0.984375 2.71875l6.6875 0q-0.03125 -1.765625 -0.921875 -2.71875q-0.890625 -0.96875 -2.40625 -0.96875zm0.671875 14.71875q-4.21875 0 -6.59375 -2.328125q-2.375 -2.328125 -2.375 -6.59375q0 -4.390625 2.1875 -6.78125q2.203125 -2.40625 6.078125 -2.40625q3.703125 0 5.765625 2.109375q2.0625 2.109375 2.0625 5.828125l0 2.3125l-11.265625 0q0.078125 2.03125 1.203125 3.171875q1.125 1.140625 3.15625 1.140625q1.578125 0 2.984375 -0.328125q1.40625 -0.328125 2.9375 -1.046875l0 3.6875q-1.25 0.625 -2.671875 0.921875q-1.421875 0.3125 -3.46875 0.3125z" fill-rule="nonzero"/><path fill="#000000" d="m401.4621 534.2871q-3.078125 0 -4.828125 -2.234375l-0.25 0q0.25 2.1875 0.25 2.53125l0 7.078125l-4.765625 0l0 -25.15625l3.875 0l0.671875 2.265625l0.21875 0q1.671875 -2.59375 4.953125 -2.59375q3.09375 0 4.84375 2.390625q1.75 2.390625 1.75 6.640625q0 2.796875 -0.828125 4.859375q-0.8125 2.0625 -2.328125 3.140625q-1.515625 1.078125 -3.5625 1.078125zm-1.40625 -14.296875q-1.765625 0 -2.578125 1.09375q-0.8125 1.078125 -0.84375 3.578125l0 0.515625q0 2.8125 0.828125 4.03125q0.84375 1.21875 2.65625 1.21875q3.203125 0 3.203125 -5.28125q0 -2.578125 -0.796875 -3.859375q-0.78125 -1.296875 -2.46875 -1.296875zm21.8125 -3.8125q0.96875 0 1.609375 0.140625l-0.359375 4.46875q-0.578125 -0.15625 -1.40625 -0.15625q-2.28125 0 -3.5625 1.171875q-1.265625 1.171875 -1.265625 3.28125l0 8.890625l-4.765625 0l0 -17.46875l3.609375 0l0.703125 2.9375l0.234375 0q0.8125 -1.46875 2.1875 -2.359375q1.390625 -0.90625 3.015625 -0.90625zm12.015625 3.390625q-1.515625 0 -2.375 0.96875q-0.859375 0.953125 -0.984375 2.71875l6.6875 0q-0.03125 -1.765625 -0.921875 -2.71875q-0.890625 -0.96875 -2.40625 -0.96875zm0.671875 14.71875q-4.21875 0 -6.59375 -2.328125q-2.375 -2.328125 -2.375 -6.59375q0 -4.390625 2.1875 -6.78125q2.203125 -2.40625 6.078125 -2.40625q3.703125 0 5.765625 2.109375q2.0625 2.109375 2.0625 5.828125l0 2.3125l-11.265625 0q0.078125 2.03125 1.203125 3.171875q1.125 1.140625 3.15625 1.140625q1.578125 0 2.984375 -0.328125q1.40625 -0.328125 2.9375 -1.046875l0 3.6875q-1.25 0.625 -2.671875 0.921875q-1.421875 0.3125 -3.46875 0.3125zm16.53125 0q-3.078125 0 -4.84375 -2.390625q-1.75 -2.390625 -1.75 -6.625q0 -4.296875 1.78125 -6.6875q1.796875 -2.40625 4.9375 -2.40625q3.296875 0 5.03125 2.5625l0.15625 0q-0.359375 -1.953125 -0.359375 -3.484375l0 -5.59375l4.78125 0l0 24.3125l-3.65625 0l-0.921875 -2.265625l-0.203125 0q-1.625 2.578125 -4.953125 2.578125zm1.671875 -3.796875q1.828125 0 2.671875 -1.0625q0.859375 -1.0625 0.9375 -3.609375l0 -0.515625q0 -2.8125 -0.875 -4.03125q-0.859375 -1.21875 -2.8125 -1.21875q-1.59375 0 -2.484375 1.359375q-0.875 1.34375 -0.875 3.921875q0 2.578125 0.890625 3.875q0.890625 1.28125 2.546875 1.28125zm12.84375 -18.5q0 -2.328125 2.59375 -2.328125q2.59375 0 2.59375 2.328125q0 1.109375 -0.65625 1.734375q-0.640625 0.609375 -1.9375 0.609375q-2.59375 0 -2.59375 -2.34375zm4.96875 21.984375l-4.765625 0l0 -17.46875l4.765625 0l0 17.46875zm12.09375 0.3125q-8.15625 0 -8.15625 -8.953125q0 -4.453125 2.21875 -6.796875q2.21875 -2.359375 6.359375 -2.359375q3.03125 0 5.4375 1.1875l-1.40625 3.6875q-1.125 -0.453125 -2.09375 -0.734375q-0.96875 -0.296875 -1.9375 -0.296875q-3.71875 0 -3.71875 5.28125q0 5.125 3.71875 5.125q1.375 0 2.546875 -0.359375q1.171875 -0.375 2.34375 -1.15625l0 4.078125q-1.15625 0.734375 -2.34375 1.015625q-1.171875 0.28125 -2.96875 0.28125zm16.71875 -3.796875q1.25 0 3.0 -0.546875l0 3.546875q-1.78125 0.796875 -4.375 0.796875q-2.859375 0 -4.171875 -1.4375q-1.296875 -1.453125 -1.296875 -4.34375l0 -8.421875l-2.28125 0l0 -2.015625l2.625 -1.59375l1.375 -3.6875l3.046875 0l0 3.71875l4.890625 0l0 3.578125l-4.890625 0l0 8.421875q0 1.015625 0.5625 1.5q0.578125 0.484375 1.515625 0.484375zm6.328125 -18.5q0 -2.328125 2.59375 -2.328125q2.59375 0 2.59375 2.328125q0 1.109375 -0.65625 1.734375q-0.640625 0.609375 -1.9375 0.609375q-2.59375 0 -2.59375 -2.34375zm4.96875 21.984375l-4.765625 0l0 -17.46875l4.765625 0l0 17.46875zm8.796875 -8.765625q0 2.59375 0.84375 3.921875q0.859375 1.328125 2.78125 1.328125q1.90625 0 2.734375 -1.3125q0.84375 -1.328125 0.84375 -3.9375q0 -2.59375 -0.84375 -3.890625q-0.84375 -1.296875 -2.765625 -1.296875q-1.90625 0 -2.75 1.296875q-0.84375 1.28125 -0.84375 3.890625zm12.078125 0q0 4.265625 -2.25 6.671875q-2.25 2.40625 -6.265625 2.40625q-2.515625 0 -4.4375 -1.09375q-1.921875 -1.109375 -2.953125 -3.171875q-1.03125 -2.0625 -1.03125 -4.8125q0 -4.28125 2.234375 -6.65625q2.234375 -2.375 6.28125 -2.375q2.515625 0 4.4375 1.09375q1.921875 1.09375 2.953125 3.140625q1.03125 2.046875 1.03125 4.796875zm20.0625 8.765625l-4.765625 0l0 -10.203125q0 -1.890625 -0.671875 -2.828125q-0.671875 -0.953125 -2.140625 -0.953125q-2.0 0 -2.890625 1.34375q-0.890625 1.328125 -0.890625 4.421875l0 8.21875l-4.765625 0l0 -17.46875l3.640625 0l0.640625 2.234375l0.265625 0q0.796875 -1.265625 2.1875 -1.90625q1.40625 -0.65625 3.1875 -0.65625q3.046875 0 4.625 1.65625q1.578125 1.640625 1.578125 4.75l0 11.390625zm17.09375 -5.1875q0 2.6875 -1.875 4.09375q-1.859375 1.40625 -5.578125 1.40625q-1.90625 0 -3.25 -0.265625q-1.34375 -0.25 -2.515625 -0.75l0 -3.9375q1.328125 0.625 2.984375 1.046875q1.671875 0.421875 2.9375 0.421875q2.59375 0 2.59375 -1.5q0 -0.5625 -0.34375 -0.90625q-0.34375 -0.359375 -1.1875 -0.796875q-0.84375 -0.453125 -2.25 -1.046875q-2.015625 -0.84375 -2.96875 -1.5625q-0.9375 -0.71875 -1.375 -1.640625q-0.421875 -0.9375 -0.421875 -2.296875q0 -2.328125 1.796875 -3.59375q1.8125 -1.28125 5.125 -1.28125q3.15625 0 6.140625 1.375l-1.4375 3.4375q-1.3125 -0.5625 -2.453125 -0.921875q-1.140625 -0.359375 -2.328125 -0.359375q-2.109375 0 -2.109375 1.140625q0 0.640625 0.671875 1.109375q0.6875 0.46875 2.984375 1.390625q2.046875 0.828125 3.0 1.546875q0.953125 0.71875 1.40625 1.65625q0.453125 0.9375 0.453125 2.234375z" fill-rule="nonzero"/><path fill="#6d9eeb" d="m44.875328 261.19684l246.51968 0l0 103.24411l-246.51968 0z" fill-rule="evenodd"/><path fill="#000000" d="m114.97892 305.5389l-13.15625 0l0 -22.84375l13.15625 0l0 3.96875l-8.3125 0l0 5.015625l7.734375 0l0 3.96875l-7.734375 0l0 5.890625l8.3125 0l0 4.0zm8.546875 0l-6.65625 -17.46875l4.984375 0l3.375 9.953125q0.5625 1.890625 0.703125 3.578125l0.09375 0q0.078125 -1.5 0.703125 -3.578125l3.3593826 -9.953125l4.984375 0l-6.65625 17.46875l-4.8906326 0zm25.140633 0l-0.921875 -2.375l-0.125 0q-1.203125 1.515625 -2.484375 2.109375q-1.265625 0.578125 -3.3125 0.578125q-2.515625 0 -3.96875 -1.4375q-1.4375 -1.4375 -1.4375 -4.09375q0 -2.78125 1.9375 -4.09375q1.953125 -1.328125 5.875 -1.46875l3.03125 -0.09375l0 -0.765625q0 -2.65625 -2.71875 -2.65625q-2.09375 0 -4.921875 1.265625l-1.578125 -3.21875q3.015625 -1.578125 6.6875 -1.578125q3.515625 0 5.390625 1.53125q1.875 1.53125 1.875 4.65625l0 11.640625l-3.328125 0zm-1.40625 -8.09375l-1.84375 0.0625q-2.078125 0.0625 -3.09375 0.75q-1.015625 0.6875 -1.015625 2.09375q0 2.015625 2.3125 2.015625q1.65625 0 2.640625 -0.953125q1.0 -0.953125 1.0 -2.53125l0 -1.4375zm14.40625 8.09375l-4.765625 0l0 -24.3125l4.765625 0l0 24.3125zm17.375 0l-0.640625 -2.234375l-0.25 0q-0.765625 1.21875 -2.171875 1.890625q-1.40625 0.65625 -3.203125 0.65625q-3.078125 0 -4.640625 -1.640625q-1.5625 -1.65625 -1.5625 -4.75l0 -11.390625l4.765625 0l0 10.203125q0 1.890625 0.671875 2.84375q0.671875 0.9375 2.140625 0.9375q2.0 0 2.890625 -1.328125q0.890625 -1.34375 0.890625 -4.4375l0 -8.21875l4.765625 0l0 17.46875l-3.65625 0zm19.75 0l-0.921875 -2.375l-0.125 0q-1.203125 1.515625 -2.484375 2.109375q-1.265625 0.578125 -3.3125 0.578125q-2.515625 0 -3.96875 -1.4375q-1.4375 -1.4375 -1.4375 -4.09375q0 -2.78125 1.9375 -4.09375q1.953125 -1.328125 5.875 -1.46875l3.03125 -0.09375l0 -0.765625q0 -2.65625 -2.71875 -2.65625q-2.09375 0 -4.921875 1.265625l-1.578125 -3.21875q3.015625 -1.578125 6.6875 -1.578125q3.515625 0 5.390625 1.53125q1.875 1.53125 1.875 4.65625l0 11.640625l-3.328125 0zm-1.40625 -8.09375l-1.84375 0.0625q-2.078125 0.0625 -3.09375 0.75q-1.015625 0.6875 -1.015625 2.09375q0 2.015625 2.3125 2.015625q1.65625 0 2.640625 -0.953125q1.0 -0.953125 1.0 -2.53125l0 -1.4375zm17.0 4.609375q1.25 0 3.0 -0.546875l0 3.546875q-1.78125 0.796875 -4.375 0.796875q-2.859375 0 -4.171875 -1.4375q-1.296875 -1.453125 -1.296875 -4.34375l0 -8.421875l-2.28125 0l0 -2.015625l2.625 -1.59375l1.375 -3.6875l3.046875 0l0 3.71875l4.890625 0l0 3.578125l-4.890625 0l0 8.421875q0 1.015625 0.5625 1.5q0.578125 0.484375 1.515625 0.484375zm13.765625 -10.921875q-1.515625 0 -2.375 0.96875q-0.859375 0.953125 -0.984375 2.71875l6.6875 0q-0.03125 -1.765625 -0.921875 -2.71875q-0.890625 -0.96875 -2.40625 -0.96875zm0.671875 14.71875q-4.21875 0 -6.59375 -2.328125q-2.375 -2.328125 -2.375 -6.59375q0 -4.390625 2.1875 -6.78125q2.203125 -2.40625 6.078125 -2.40625q3.703125 0 5.765625 2.109375q2.0625 2.109375 2.0625 5.828125l0 2.3125l-11.265625 0q0.078125 2.03125 1.203125 3.171875q1.125 1.140625 3.15625 1.140625q1.578125 0 2.984375 -0.328125q1.40625 -0.328125 2.9375 -1.046875l0 3.6875q-1.25 0.625 -2.671875 0.921875q-1.421875 0.3125 -3.46875 0.3125z" fill-rule="nonzero"/><path fill="#000000" d="m76.44767 343.8514q-3.078125 0 -4.828125 -2.234375l-0.25 0q0.25 2.1875 0.25 2.53125l0 7.078125l-4.765625 0l0 -25.15625l3.875 0l0.671875 2.265625l0.21875 0q1.671875 -2.59375 4.953125 -2.59375q3.09375 0 4.84375 2.390625q1.75 2.390625 1.75 6.640625q0 2.796875 -0.828125 4.859375q-0.8125 2.0625 -2.328125 3.140625q-1.515625 1.078125 -3.5625 1.078125zm-1.40625 -14.296875q-1.765625 0 -2.578125 1.09375q-0.8125 1.078125 -0.84375 3.578125l0 0.515625q0 2.8125 0.828125 4.03125q0.84375 1.21875 2.65625 1.21875q3.203125 0 3.203125 -5.28125q0 -2.578125 -0.796875 -3.859375q-0.78125 -1.296875 -2.46875 -1.296875zm19.296875 -0.421875q-1.515625 0 -2.375 0.96875q-0.859375 0.953125 -0.984375 2.71875l6.6875 0q-0.03125 -1.765625 -0.921875 -2.71875q-0.890625 -0.96875 -2.40625 -0.96875zm0.671875 14.71875q-4.21875 0 -6.59375 -2.328125q-2.375 -2.328125 -2.375 -6.59375q0 -4.390625 2.1875 -6.78125q2.203125 -2.40625 6.078125 -2.40625q3.703125 0 5.765625 2.109375q2.0625 2.109375 2.0625 5.828125l0 2.3125l-11.265625 0q0.078125 2.03125 1.203125 3.171875q1.125 1.140625 3.15625 1.140625q1.578125 0 2.984375 -0.328125q1.40625 -0.328125 2.9375 -1.046875l0 3.6875q-1.25 0.625 -2.671875 0.921875q-1.421875 0.3125 -3.46875 0.3125zm20.75 -18.109375q0.96875 0 1.609375 0.140625l-0.359375 4.46875q-0.578125 -0.15625 -1.40625 -0.15625q-2.28125 0 -3.5625 1.171875q-1.265625 1.171875 -1.265625 3.28125l0 8.890625l-4.765625 0l0 -17.46875l3.609375 0l0.703125 2.9375l0.234375 0q0.8125 -1.46875 2.1875 -2.359375q1.390625 -0.90625 3.015625 -0.90625zm14.437508 3.90625l-4.1250076 0l0 13.890625l-4.765625 0l0 -13.890625l-2.625 0l0 -2.296875l2.625 -1.28125l0 -1.28125q0 -2.984375 1.46875 -4.359375q1.46875 -1.375 4.703125 -1.375q2.4687576 0 4.3906326 0.734375l-1.21875 3.5q-1.4375 -0.453125 -2.6562576 -0.453125q-1.015625 0 -1.46875 0.609375q-0.453125 0.59375 -0.453125 1.53125l0 1.09375l4.1250076 0l0 3.578125zm6.53125 5.125q0 2.59375 0.84375 3.921875q0.859375 1.328125 2.78125 1.328125q1.90625 0 2.734375 -1.3125q0.84375 -1.328125 0.84375 -3.9375q0 -2.59375 -0.84375 -3.890625q-0.84375 -1.296875 -2.765625 -1.296875q-1.90625 0 -2.75 1.296875q-0.84375 1.28125 -0.84375 3.890625zm12.078125 0q0 4.265625 -2.25 6.671875q-2.25 2.40625 -6.265625 2.40625q-2.515625 0 -4.4375 -1.09375q-1.921875 -1.109375 -2.953125 -3.171875q-1.03125 -2.0625 -1.03125 -4.8125q0 -4.28125 2.234375 -6.65625q2.234375 -2.375 6.28125 -2.375q2.515625 0 4.4375 1.09375q1.921875 1.09375 2.953125 3.140625q1.03125 2.046875 1.03125 4.796875zm13.6875 -9.03125q0.96875 0 1.609375 0.140625l-0.359375 4.46875q-0.578125 -0.15625 -1.40625 -0.15625q-2.28125 0 -3.5625 1.171875q-1.265625 1.171875 -1.265625 3.28125l0 8.890625l-4.765625 0l0 -17.46875l3.609375 0l0.703125 2.9375l0.234375 0q0.8125 -1.46875 2.1875 -2.359375q1.390625 -0.90625 3.015625 -0.90625zm20.421875 17.796875l-4.765625 0l0 -10.203125q0 -1.890625 -0.640625 -2.828125q-0.625 -0.953125 -1.984375 -0.953125q-1.828125 0 -2.65625 1.34375q-0.828125 1.34375 -0.828125 4.421875l0 8.21875l-4.765625 0l0 -17.46875l3.640625 0l0.640625 2.234375l0.265625 0q0.703125 -1.203125 2.03125 -1.875q1.328125 -0.6875 3.046875 -0.6875q3.921875 0 5.3125 2.5625l0.421875 0q0.703125 -1.21875 2.0625 -1.890625q1.375 -0.671875 3.09375 -0.671875q2.96875 0 4.484375 1.53125q1.53125 1.515625 1.53125 4.875l0 11.390625l-4.78125 0l0 -10.203125q0 -1.890625 -0.640625 -2.828125q-0.625 -0.953125 -1.984375 -0.953125q-1.75 0 -2.625 1.25q-0.859375 1.25 -0.859375 3.96875l0 8.765625zm26.875 0l-0.921875 -2.375l-0.125 0q-1.203125 1.515625 -2.484375 2.109375q-1.265625 0.578125 -3.3125 0.578125q-2.515625 0 -3.96875 -1.4375q-1.4375 -1.4375 -1.4375 -4.09375q0 -2.78125 1.9375 -4.09375q1.953125 -1.328125 5.875 -1.46875l3.03125 -0.09375l0 -0.765625q0 -2.65625 -2.71875 -2.65625q-2.09375 0 -4.921875 1.265625l-1.578125 -3.21875q3.015625 -1.578125 6.6875 -1.578125q3.515625 0 5.390625 1.53125q1.875 1.53125 1.875 4.65625l0 11.640625l-3.328125 0zm-1.40625 -8.09375l-1.84375 0.0625q-2.078125 0.0625 -3.09375 0.75q-1.015625 0.6875 -1.015625 2.09375q0 2.015625 2.3125 2.015625q1.65625 0 2.640625 -0.953125q1.0 -0.953125 1.0 -2.53125l0 -1.4375zm25.765625 8.09375l-4.765625 0l0 -10.203125q0 -1.890625 -0.671875 -2.828125q-0.671875 -0.953125 -2.140625 -0.953125q-2.0 0 -2.890625 1.34375q-0.890625 1.328125 -0.890625 4.421875l0 8.21875l-4.765625 0l0 -17.46875l3.640625 0l0.640625 2.234375l0.265625 0q0.796875 -1.265625 2.1875 -1.90625q1.40625 -0.65625 3.1875 -0.65625q3.046875 0 4.625 1.65625q1.578125 1.640625 1.578125 4.75l0 11.390625zm12.0 0.3125q-8.15625 0 -8.15625 -8.953125q0 -4.453125 2.21875 -6.796875q2.21875 -2.359375 6.359375 -2.359375q3.03125 0 5.4375 1.1875l-1.40625 3.6875q-1.125 -0.453125 -2.09375 -0.734375q-0.96875 -0.296875 -1.9375 -0.296875q-3.71875 0 -3.71875 5.28125q0 5.125 3.71875 5.125q1.375 0 2.546875 -0.359375q1.171875 -0.375 2.34375 -1.15625l0 4.078125q-1.15625 0.734375 -2.34375 1.015625q-1.171875 0.28125 -2.96875 0.28125zm16.593735 -14.71875q-1.515625 0 -2.375 0.96875q-0.859375 0.953125 -0.984375 2.71875l6.6875 0q-0.03125 -1.765625 -0.921875 -2.71875q-0.890625 -0.96875 -2.40625 -0.96875zm0.671875 14.71875q-4.21875 0 -6.59375 -2.328125q-2.3749847 -2.328125 -2.3749847 -6.59375q0 -4.390625 2.1874847 -6.78125q2.203125 -2.40625 6.078125 -2.40625q3.703125 0 5.765625 2.109375q2.0625 2.109375 2.0625 5.828125l0 2.3125l-11.265625 0q0.078125 2.03125 1.203125 3.171875q1.125 1.140625 3.15625 1.140625q1.578125 0 2.984375 -0.328125q1.40625 -0.328125 2.9375 -1.046875l0 3.6875q-1.25 0.625 -2.671875 0.921875q-1.421875 0.3125 -3.46875 0.3125z" fill-rule="nonzero"/><path fill="#000000" fill-opacity="0.0" d="m168.13518 261.19684c0 -77.19684 94.12599 -154.39369 188.25197 -154.39369" fill-rule="evenodd"/><path stroke="#666666" stroke-width="4.0" stroke-linejoin="round" stroke-linecap="butt" d="m168.13518 261.19684c0 -38.59842 23.531494 -77.19684 58.828735 -106.14566c17.64862 -14.474411 38.238693 -26.536407 60.299454 -34.97982c11.0303955 -4.2217026 22.428467 -7.5387573 34.010376 -9.8003845c2.8954773 -0.5654068 5.802429 -1.0648422 8.718018 -1.495964c0.72888184 -0.107788086 1.4583435 -0.21129608 2.188263 -0.3105011l0.26229858 -0.034858704" fill-rule="evenodd"/><path stroke="#666666" stroke-width="4.0" stroke-linecap="butt" d="m332.89008 115.021385l17.662903 -7.8219376l-18.55841 -5.3615417z" fill-rule="evenodd"/><path fill="#000000" fill-opacity="0.0" d="m602.9094 106.7874c93.7323 0 187.4646 77.2126 187.4646 154.42519" fill-rule="evenodd"/><path stroke="#666666" stroke-width="4.0" stroke-linejoin="round" stroke-linecap="butt" d="m602.9094 106.7874c46.86615 0 93.7323 19.303154 128.8819 48.257874c17.57483 14.477371 32.22052 31.367615 42.472473 49.464325c5.1259766 9.048355 9.153503 18.398315 11.899597 27.899078c0.34326172 1.1875916 0.6665039 2.3775635 0.9692993 3.5695648c0.07574463 0.29800415 0.15020752 0.5961304 0.22338867 0.8943939l0.12408447 0.5150757" fill-rule="evenodd"/><path stroke="#666666" stroke-width="4.0" stroke-linecap="butt" d="m780.9214 238.18437l8.747559 17.223282l4.369934 -18.816605z" fill-rule="evenodd"/><path fill="#000000" fill-opacity="0.0" d="m790.3819 364.44095c0 69.40158 -93.7323 138.80313 -187.4646 138.80313" fill-rule="evenodd"/><path stroke="#666666" stroke-width="4.0" stroke-linejoin="round" stroke-linecap="butt" d="m790.3819 364.44095c0 34.700775 -23.433105 69.40158 -58.582703 95.427155c-17.574768 13.012817 -38.078735 23.856812 -60.04724 31.447601c-10.984253 3.7953796 -22.334656 6.777466 -33.868103 8.81073c-2.8833618 0.5083313 -5.778137 0.9573364 -8.681519 1.3449402c-0.7258911 0.09686279 -1.4522705 0.18991089 -2.1791382 0.27911377l-0.15124512 0.018157959" fill-rule="evenodd"/><path stroke="#666666" stroke-width="4.0" stroke-linecap="butt" d="m626.46576 495.17422l-17.711914 7.710388l18.524231 5.4784546z" fill-rule="evenodd"/><path fill="#000000" fill-opacity="0.0" d="m356.38977 503.2546c-94.12598 0 -188.25197 -69.40158 -188.25197 -138.80316" fill-rule="evenodd"/><path stroke="#666666" stroke-width="4.0" stroke-linejoin="round" stroke-linecap="butt" d="m356.38977 503.2546c-47.06299 0 -94.12598 -17.350403 -129.42323 -43.376007c-17.64862 -13.012787 -32.355804 -28.194397 -42.650833 -44.46039c-5.147522 -8.132996 -9.192001 -16.537048 -11.9496 -25.076721c-0.17234802 -0.53375244 -0.3396759 -1.0679932 -0.5019226 -1.6027222l-0.16506958 -0.55303955" fill-rule="evenodd"/><path stroke="#666666" stroke-width="4.0" stroke-linecap="butt" d="m178.2329 387.20535l-9.227386 -16.971039l-3.8401947 18.931824z" fill-rule="evenodd"/></g></svg>