<?xml version="1.0" encoding="UTF-8" standalone="no"?>
<!DOCTYPE svg PUBLIC "-//W3C//DTD SVG 1.1//EN"
 "http://www.w3.org/Graphics/SVG/1.1/DTD/svg11.dtd">
<!-- Generated by graphviz version 2.40.1 (0)
 -->
<!-- Title: %3 Pages: 1 -->
<svg width="306pt" height="332pt"
 viewBox="0.00 0.00 305.74 332.00" xmlns="http://www.w3.org/2000/svg" xmlns:xlink="http://www.w3.org/1999/xlink">
<g id="graph0" class="graph" transform="scale(1 1) rotate(0) translate(4 328)">
<title>%3</title>
<polygon fill="#ffffff" stroke="transparent" points="-4,4 -4,-328 301.7376,-328 301.7376,4 -4,4"/>
<!-- x -->
<g id="node1" class="node">
<title>x</title>
<ellipse fill="none" stroke="#000000" cx="147.2439" cy="-306" rx="27" ry="18"/>
<text text-anchor="middle" x="147.2439" y="-302.3" font-family="Times,serif" font-size="14.00" fill="#000000">x</text>
</g>
<!-- CountVectorizer -->
<g id="node2" class="node">
<title>CountVectorizer</title>
<ellipse fill="none" stroke="#000000" cx="68.2439" cy="-234" rx="68.4888" ry="18"/>
<text text-anchor="middle" x="68.2439" y="-230.3" font-family="Times,serif" font-size="14.00" fill="#000000">CountVectorizer</text>
</g>
<!-- x&#45;&gt;CountVectorizer -->
<g id="edge1" class="edge">
<title>x&#45;&gt;CountVectorizer</title>
<path fill="none" stroke="#000000" d="M131.2571,-291.4297C120.8275,-281.9242 106.9591,-269.2847 94.8884,-258.2836"/>
<polygon fill="#000000" stroke="#000000" points="97.0187,-255.4895 87.2701,-251.3403 92.3034,-260.6632 97.0187,-255.4895"/>
</g>
<!-- TFIDFVectorizer -->
<g id="node3" class="node">
<title>TFIDFVectorizer</title>
<ellipse fill="none" stroke="#000000" cx="226.2439" cy="-234" rx="71.4873" ry="18"/>
<text text-anchor="middle" x="226.2439" y="-230.3" font-family="Times,serif" font-size="14.00" fill="#000000">TFIDFVectorizer</text>
</g>
<!-- x&#45;&gt;TFIDFVectorizer -->
<g id="edge2" class="edge">
<title>x&#45;&gt;TFIDFVectorizer</title>
<path fill="none" stroke="#000000" d="M163.2308,-291.4297C173.5865,-281.9916 187.3322,-269.4638 199.3423,-258.5179"/>
<polygon fill="#000000" stroke="#000000" points="201.8977,-260.9246 206.931,-251.6017 197.1824,-255.7509 201.8977,-260.9246"/>
</g>
<!-- StandardScaler -->
<g id="node4" class="node">
<title>StandardScaler</title>
<ellipse fill="none" stroke="#000000" cx="147.2439" cy="-162" rx="63.8893" ry="18"/>
<text text-anchor="middle" x="147.2439" y="-158.3" font-family="Times,serif" font-size="14.00" fill="#000000">StandardScaler</text>
</g>
<!-- CountVectorizer&#45;&gt;StandardScaler -->
<g id="edge5" class="edge">
<title>CountVectorizer&#45;&gt;StandardScaler</title>
<path fill="none" stroke="#000000" d="M87.3676,-216.5708C97.3625,-207.4616 109.7542,-196.1679 120.667,-186.2221"/>
<polygon fill="#000000" stroke="#000000" points="123.263,-188.5916 128.2964,-179.2687 118.5478,-183.4179 123.263,-188.5916"/>
</g>
<!-- TFIDFVectorizer&#45;&gt;StandardScaler -->
<g id="edge6" class="edge">
<title>TFIDFVectorizer&#45;&gt;StandardScaler</title>
<path fill="none" stroke="#000000" d="M207.1202,-216.5708C197.1254,-207.4616 184.7337,-196.1679 173.8209,-186.2221"/>
<polygon fill="#000000" stroke="#000000" points="175.9401,-183.4179 166.1915,-179.2687 171.2249,-188.5916 175.9401,-183.4179"/>
</g>
<!-- LogisticRegression -->
<g id="node5" class="node">
<title>LogisticRegression</title>
<ellipse fill="none" stroke="#000000" cx="147.2439" cy="-90" rx="78.7863" ry="18"/>
<text text-anchor="middle" x="147.2439" y="-86.3" font-family="Times,serif" font-size="14.00" fill="#000000">LogisticRegression</text>
</g>
<!-- StandardScaler&#45;&gt;LogisticRegression -->
<g id="edge4" class="edge">
<title>StandardScaler&#45;&gt;LogisticRegression</title>
<path fill="none" stroke="#000000" d="M147.2439,-143.8314C147.2439,-136.131 147.2439,-126.9743 147.2439,-118.4166"/>
<polygon fill="#000000" stroke="#000000" points="150.744,-118.4132 147.2439,-108.4133 143.744,-118.4133 150.744,-118.4132"/>
</g>
<!-- y -->
<g id="node6" class="node">
<title>y</title>
<ellipse fill="none" stroke="#000000" cx="147.2439" cy="-18" rx="27" ry="18"/>
<text text-anchor="middle" x="147.2439" y="-14.3" font-family="Times,serif" font-size="14.00" fill="#000000">y</text>
</g>
<!-- LogisticRegression&#45;&gt;y -->
<g id="edge3" class="edge">
<title>LogisticRegression&#45;&gt;y</title>
<path fill="none" stroke="#000000" d="M147.2439,-71.8314C147.2439,-64.131 147.2439,-54.9743 147.2439,-46.4166"/>
<polygon fill="#000000" stroke="#000000" points="150.744,-46.4132 147.2439,-36.4133 143.744,-46.4133 150.744,-46.4132"/>
</g>
</g>
</svg>
