<?xml version="1.0" encoding="utf-8" standalone="no"?>
<!DOCTYPE svg PUBLIC "-//W3C//DTD SVG 1.1//EN"
  "http://www.w3.org/Graphics/SVG/1.1/DTD/svg11.dtd">
<svg xmlns:xlink="http://www.w3.org/1999/xlink" width="450.490625pt" height="352.15625pt" viewBox="0 0 450.490625 352.15625" xmlns="http://www.w3.org/2000/svg" version="1.1">
 <metadata>
  <rdf:RDF xmlns:dc="http://purl.org/dc/elements/1.1/" xmlns:cc="http://creativecommons.org/ns#" xmlns:rdf="http://www.w3.org/1999/02/22-rdf-syntax-ns#">
   <cc:Work>
    <dc:type rdf:resource="http://purl.org/dc/dcmitype/StillImage"/>
    <dc:date>2022-09-25T19:31:25.303609</dc:date>
    <dc:format>image/svg+xml</dc:format>
    <dc:creator>
     <cc:Agent>
      <dc:title>Matplotlib v3.5.1, https://matplotlib.org/</dc:title>
     </cc:Agent>
    </dc:creator>
   </cc:Work>
  </rdf:RDF>
 </metadata>
 <defs>
  <style type="text/css">*{stroke-linejoin: round; stroke-linecap: butt}</style>
 </defs>
 <g id="figure_1">
  <g id="patch_1">
   <path d="M 0 352.15625 
L 450.490625 352.15625 
L 450.490625 0 
L 0 0 
L 0 352.15625 
z
" style="fill: none"/>
  </g>
  <g id="axes_1">
   <g id="patch_2">
    <path d="M 46.965625 314.6 
L 340.734545 314.6 
L 340.734545 7.2 
L 46.965625 7.2 
z
" style="fill: #ffffff"/>
   </g>
   <g id="PolyCollection_1">
    <defs>
     <path id="mc8b5be46db" d="M 60.318758 -49.366178 
L 60.318758 -37.55625 
L 61.702502 -37.55625 
L 61.702502 -37.55625 
L 63.086246 -37.55625 
L 63.086246 -37.55625 
L 64.469991 -37.55625 
L 64.469991 -37.55625 
L 65.853735 -37.55625 
L 65.853735 -37.55625 
L 67.237479 -37.55625 
L 67.237479 -37.55625 
L 68.621224 -37.55625 
L 68.621224 -37.55625 
L 70.004968 -37.55625 
L 70.004968 -37.55625 
L 71.388712 -37.55625 
L 71.388712 -37.55625 
L 72.772457 -37.55625 
L 72.772457 -37.55625 
L 74.156201 -37.55625 
L 74.156201 -37.55625 
L 75.539945 -37.55625 
L 75.539945 -37.55625 
L 76.92369 -37.55625 
L 76.92369 -37.55625 
L 78.307434 -37.55625 
L 78.307434 -37.55625 
L 79.691178 -37.55625 
L 79.691178 -37.55625 
L 81.074923 -37.55625 
L 81.074923 -37.55625 
L 82.458667 -37.55625 
L 82.458667 -37.55625 
L 83.842411 -37.55625 
L 83.842411 -37.55625 
L 85.226156 -37.55625 
L 85.226156 -37.55625 
L 86.6099 -37.55625 
L 86.6099 -37.55625 
L 87.993644 -37.55625 
L 87.993644 -37.55625 
L 89.377389 -37.55625 
L 89.377389 -37.55625 
L 90.761133 -37.55625 
L 90.761133 -37.55625 
L 92.144877 -37.55625 
L 92.144877 -37.55625 
L 93.528622 -37.55625 
L 93.528622 -37.55625 
L 94.912366 -37.55625 
L 94.912366 -37.55625 
L 96.29611 -37.55625 
L 96.29611 -37.55625 
L 97.679854 -37.55625 
L 97.679854 -37.55625 
L 99.063599 -37.55625 
L 99.063599 -37.55625 
L 100.447343 -37.55625 
L 100.447343 -37.55625 
L 101.831087 -37.55625 
L 101.831087 -37.55625 
L 103.214832 -37.55625 
L 103.214832 -37.55625 
L 104.598576 -37.55625 
L 104.598576 -37.55625 
L 105.98232 -37.55625 
L 105.98232 -37.55625 
L 107.366065 -37.55625 
L 107.366065 -37.55625 
L 108.749809 -37.55625 
L 108.749809 -37.55625 
L 110.133553 -37.55625 
L 110.133553 -37.55625 
L 111.517298 -37.55625 
L 111.517298 -37.55625 
L 112.901042 -37.55625 
L 112.901042 -37.55625 
L 114.284786 -37.55625 
L 114.284786 -37.55625 
L 115.668531 -37.55625 
L 115.668531 -37.55625 
L 117.052275 -37.55625 
L 117.052275 -37.55625 
L 118.436019 -37.55625 
L 118.436019 -37.55625 
L 119.819764 -37.55625 
L 119.819764 -37.55625 
L 121.203508 -37.55625 
L 121.203508 -37.55625 
L 122.587252 -37.55625 
L 122.587252 -37.55625 
L 123.970997 -37.55625 
L 123.970997 -37.55625 
L 125.354741 -37.55625 
L 125.354741 -37.55625 
L 126.738485 -37.55625 
L 126.738485 -37.55625 
L 128.12223 -37.55625 
L 128.12223 -37.55625 
L 129.505974 -37.55625 
L 129.505974 -37.55625 
L 130.889718 -37.55625 
L 130.889718 -37.55625 
L 132.273463 -37.55625 
L 132.273463 -37.55625 
L 133.657207 -37.55625 
L 133.657207 -37.55625 
L 135.040951 -37.55625 
L 135.040951 -37.55625 
L 136.424696 -37.55625 
L 136.424696 -37.55625 
L 137.80844 -37.55625 
L 137.80844 -37.55625 
L 139.192184 -37.55625 
L 139.192184 -37.55625 
L 140.575929 -37.55625 
L 140.575929 -37.55625 
L 141.959673 -37.55625 
L 141.959673 -37.55625 
L 143.343417 -37.55625 
L 143.343417 -37.55625 
L 144.727162 -37.55625 
L 144.727162 -37.55625 
L 146.110906 -37.55625 
L 146.110906 -37.55625 
L 147.49465 -37.55625 
L 147.49465 -37.55625 
L 148.878395 -37.55625 
L 148.878395 -37.55625 
L 150.262139 -37.55625 
L 150.262139 -37.55625 
L 151.645883 -37.55625 
L 151.645883 -37.55625 
L 153.029627 -37.55625 
L 153.029627 -37.55625 
L 154.413372 -37.55625 
L 154.413372 -37.55625 
L 155.797116 -37.55625 
L 155.797116 -37.55625 
L 157.18086 -37.55625 
L 157.18086 -37.55625 
L 158.564605 -37.55625 
L 158.564605 -37.55625 
L 159.948349 -37.55625 
L 159.948349 -37.55625 
L 161.332093 -37.55625 
L 161.332093 -37.55625 
L 162.715838 -37.55625 
L 162.715838 -37.55625 
L 164.099582 -37.55625 
L 164.099582 -37.55625 
L 165.483326 -37.55625 
L 165.483326 -37.55625 
L 166.867071 -37.55625 
L 166.867071 -37.55625 
L 168.250815 -37.55625 
L 168.250815 -37.55625 
L 169.634559 -37.55625 
L 169.634559 -37.55625 
L 171.018304 -37.55625 
L 171.018304 -37.55625 
L 172.402048 -37.55625 
L 172.402048 -37.55625 
L 173.785792 -37.55625 
L 173.785792 -37.55625 
L 175.169537 -37.55625 
L 175.169537 -37.55625 
L 176.553281 -37.55625 
L 176.553281 -37.55625 
L 177.937025 -37.55625 
L 177.937025 -37.55625 
L 179.32077 -37.55625 
L 179.32077 -37.55625 
L 180.704514 -37.55625 
L 180.704514 -37.55625 
L 182.088258 -37.55625 
L 182.088258 -37.55625 
L 183.472003 -37.55625 
L 183.472003 -37.55625 
L 184.855747 -37.55625 
L 184.855747 -37.55625 
L 186.239491 -37.55625 
L 186.239491 -37.55625 
L 187.623236 -37.55625 
L 187.623236 -37.55625 
L 189.00698 -37.55625 
L 189.00698 -37.55625 
L 190.390724 -37.55625 
L 190.390724 -37.55625 
L 191.774469 -37.55625 
L 191.774469 -37.55625 
L 193.158213 -37.55625 
L 193.158213 -37.55625 
L 194.541957 -37.55625 
L 194.541957 -37.55625 
L 195.925702 -37.55625 
L 195.925702 -37.55625 
L 197.309446 -37.55625 
L 197.309446 -37.55625 
L 198.69319 -37.55625 
L 198.69319 -37.55625 
L 200.076935 -37.55625 
L 200.076935 -37.55625 
L 201.460679 -37.55625 
L 201.460679 -37.55625 
L 202.844423 -37.55625 
L 202.844423 -37.55625 
L 204.228167 -37.55625 
L 204.228167 -37.55625 
L 205.611912 -37.55625 
L 205.611912 -37.55625 
L 206.995656 -37.55625 
L 206.995656 -37.55625 
L 208.3794 -37.55625 
L 208.3794 -37.55625 
L 209.763145 -37.55625 
L 209.763145 -37.55625 
L 211.146889 -37.55625 
L 211.146889 -37.55625 
L 212.530633 -37.55625 
L 212.530633 -37.55625 
L 213.914378 -37.55625 
L 213.914378 -37.55625 
L 215.298122 -37.55625 
L 215.298122 -37.55625 
L 216.681866 -37.55625 
L 216.681866 -37.55625 
L 218.065611 -37.55625 
L 218.065611 -37.55625 
L 219.449355 -37.55625 
L 219.449355 -37.55625 
L 220.833099 -37.55625 
L 220.833099 -37.55625 
L 222.216844 -37.55625 
L 222.216844 -37.55625 
L 223.600588 -37.55625 
L 223.600588 -37.55625 
L 224.984332 -37.55625 
L 224.984332 -37.55625 
L 226.368077 -37.55625 
L 226.368077 -37.55625 
L 227.751821 -37.55625 
L 227.751821 -37.55625 
L 229.135565 -37.55625 
L 229.135565 -37.55625 
L 230.51931 -37.55625 
L 230.51931 -37.55625 
L 231.903054 -37.55625 
L 231.903054 -37.55625 
L 233.286798 -37.55625 
L 233.286798 -37.55625 
L 234.670543 -37.55625 
L 234.670543 -37.55625 
L 236.054287 -37.55625 
L 236.054287 -37.55625 
L 237.438031 -37.55625 
L 237.438031 -37.55625 
L 238.821776 -37.55625 
L 238.821776 -37.55625 
L 240.20552 -37.55625 
L 240.20552 -37.55625 
L 241.589264 -37.55625 
L 241.589264 -37.55625 
L 242.973009 -37.55625 
L 242.973009 -37.55625 
L 244.356753 -37.55625 
L 244.356753 -37.55625 
L 245.740497 -37.55625 
L 245.740497 -37.55625 
L 247.124242 -37.55625 
L 247.124242 -37.55625 
L 248.507986 -37.55625 
L 248.507986 -37.55625 
L 249.89173 -37.55625 
L 249.89173 -37.55625 
L 251.275475 -37.55625 
L 251.275475 -37.55625 
L 252.659219 -37.55625 
L 252.659219 -37.55625 
L 254.042963 -37.55625 
L 254.042963 -37.55625 
L 255.426708 -37.55625 
L 255.426708 -37.55625 
L 256.810452 -37.55625 
L 256.810452 -37.55625 
L 258.194196 -37.55625 
L 258.194196 -37.55625 
L 259.57794 -37.55625 
L 259.57794 -37.55625 
L 260.961685 -37.55625 
L 260.961685 -37.55625 
L 262.345429 -37.55625 
L 262.345429 -37.55625 
L 263.729173 -37.55625 
L 263.729173 -37.55625 
L 265.112918 -37.55625 
L 265.112918 -37.55625 
L 266.496662 -37.55625 
L 266.496662 -37.55625 
L 267.880406 -37.55625 
L 267.880406 -37.55625 
L 269.264151 -37.55625 
L 269.264151 -37.55625 
L 270.647895 -37.55625 
L 270.647895 -37.55625 
L 272.031639 -37.55625 
L 272.031639 -37.55625 
L 273.415384 -37.55625 
L 273.415384 -37.55625 
L 274.799128 -37.55625 
L 274.799128 -37.55625 
L 276.182872 -37.55625 
L 276.182872 -37.55625 
L 277.566617 -37.55625 
L 277.566617 -37.55625 
L 278.950361 -37.55625 
L 278.950361 -37.55625 
L 280.334105 -37.55625 
L 280.334105 -37.55625 
L 281.71785 -37.55625 
L 281.71785 -37.55625 
L 283.101594 -37.55625 
L 283.101594 -37.55625 
L 284.485338 -37.55625 
L 284.485338 -37.55625 
L 285.869083 -37.55625 
L 285.869083 -37.55625 
L 287.252827 -37.55625 
L 287.252827 -37.55625 
L 288.636571 -37.55625 
L 288.636571 -37.55625 
L 290.020316 -37.55625 
L 290.020316 -37.55625 
L 291.40406 -37.55625 
L 291.40406 -37.55625 
L 292.787804 -37.55625 
L 292.787804 -37.55625 
L 294.171549 -37.55625 
L 294.171549 -37.55625 
L 295.555293 -37.55625 
L 295.555293 -37.55625 
L 296.939037 -37.55625 
L 296.939037 -37.55625 
L 298.322782 -37.55625 
L 298.322782 -37.55625 
L 299.706526 -37.55625 
L 299.706526 -37.55625 
L 301.09027 -37.55625 
L 301.09027 -37.55625 
L 302.474015 -37.55625 
L 302.474015 -37.55625 
L 303.857759 -37.55625 
L 303.857759 -37.55625 
L 305.241503 -37.55625 
L 305.241503 -37.55625 
L 306.625248 -37.55625 
L 306.625248 -37.55625 
L 308.008992 -37.55625 
L 308.008992 -37.55625 
L 309.392736 -37.55625 
L 309.392736 -37.55625 
L 310.77648 -37.55625 
L 310.77648 -37.55625 
L 312.160225 -37.55625 
L 312.160225 -37.55625 
L 313.543969 -37.55625 
L 313.543969 -37.55625 
L 314.927713 -37.55625 
L 314.927713 -37.55625 
L 316.311458 -37.55625 
L 316.311458 -37.55625 
L 317.695202 -37.55625 
L 317.695202 -37.55625 
L 319.078946 -37.55625 
L 319.078946 -37.55625 
L 320.462691 -37.55625 
L 320.462691 -37.55625 
L 321.846435 -37.55625 
L 321.846435 -37.55625 
L 323.230179 -37.55625 
L 323.230179 -37.55625 
L 324.613924 -37.55625 
L 324.613924 -37.55625 
L 325.997668 -37.55625 
L 325.997668 -37.55625 
L 327.381412 -37.55625 
L 327.381412 -37.55625 
L 327.381412 -37.55625 
L 327.381412 -37.55625 
L 327.381412 -37.55625 
L 325.997668 -37.55625 
L 325.997668 -37.55625 
L 324.613924 -37.55625 
L 324.613924 -37.55625 
L 323.230179 -37.55625 
L 323.230179 -37.55625 
L 321.846435 -37.55625 
L 321.846435 -37.55625 
L 320.462691 -37.55625 
L 320.462691 -37.55625 
L 319.078946 -37.55625 
L 319.078946 -37.55625 
L 317.695202 -37.55625 
L 317.695202 -37.55625 
L 316.311458 -37.55625 
L 316.311458 -37.55625 
L 314.927713 -37.55625 
L 314.927713 -37.55625 
L 313.543969 -37.55625 
L 313.543969 -37.55625 
L 312.160225 -37.55625 
L 312.160225 -37.55625 
L 310.77648 -37.55625 
L 310.77648 -37.55625 
L 309.392736 -37.55625 
L 309.392736 -37.55625 
L 308.008992 -37.55625 
L 308.008992 -37.55625 
L 306.625248 -37.55625 
L 306.625248 -37.55625 
L 305.241503 -37.55625 
L 305.241503 -37.55625 
L 303.857759 -37.55625 
L 303.857759 -37.55625 
L 302.474015 -37.55625 
L 302.474015 -37.55625 
L 301.09027 -37.55625 
L 301.09027 -37.55625 
L 299.706526 -37.55625 
L 299.706526 -37.55625 
L 298.322782 -37.55625 
L 298.322782 -37.55625 
L 296.939037 -37.55625 
L 296.939037 -37.55625 
L 295.555293 -37.55625 
L 295.555293 -37.55625 
L 294.171549 -37.55625 
L 294.171549 -37.55625 
L 292.787804 -37.55625 
L 292.787804 -37.55625 
L 291.40406 -37.55625 
L 291.40406 -37.55625 
L 290.020316 -37.55625 
L 290.020316 -37.55625 
L 288.636571 -37.55625 
L 288.636571 -37.55625 
L 287.252827 -37.55625 
L 287.252827 -37.55625 
L 285.869083 -37.55625 
L 285.869083 -37.55625 
L 284.485338 -37.55625 
L 284.485338 -37.55625 
L 283.101594 -37.55625 
L 283.101594 -37.55625 
L 281.71785 -37.55625 
L 281.71785 -37.55625 
L 280.334105 -37.55625 
L 280.334105 -37.55625 
L 278.950361 -37.55625 
L 278.950361 -37.55625 
L 277.566617 -37.55625 
L 277.566617 -37.55625 
L 276.182872 -37.55625 
L 276.182872 -37.55625 
L 274.799128 -37.55625 
L 274.799128 -37.55625 
L 273.415384 -37.55625 
L 273.415384 -37.55625 
L 272.031639 -37.55625 
L 272.031639 -37.55625 
L 270.647895 -37.55625 
L 270.647895 -37.55625 
L 269.264151 -37.55625 
L 269.264151 -37.55625 
L 267.880406 -37.55625 
L 267.880406 -37.55625 
L 266.496662 -37.55625 
L 266.496662 -37.55625 
L 265.112918 -37.55625 
L 265.112918 -37.55625 
L 263.729173 -37.55625 
L 263.729173 -37.55625 
L 262.345429 -37.55625 
L 262.345429 -37.55625 
L 260.961685 -37.55625 
L 260.961685 -37.55625 
L 259.57794 -37.55625 
L 259.57794 -37.55625 
L 258.194196 -37.55625 
L 258.194196 -37.55625 
L 256.810452 -37.55625 
L 256.810452 -37.55625 
L 255.426708 -37.55625 
L 255.426708 -37.55625 
L 254.042963 -37.55625 
L 254.042963 -37.55625 
L 252.659219 -37.55625 
L 252.659219 -37.55625 
L 251.275475 -37.55625 
L 251.275475 -37.55625 
L 249.89173 -37.55625 
L 249.89173 -37.55625 
L 248.507986 -37.55625 
L 248.507986 -37.55625 
L 247.124242 -37.55625 
L 247.124242 -37.55625 
L 245.740497 -37.55625 
L 245.740497 -37.55625 
L 244.356753 -37.55625 
L 244.356753 -37.55625 
L 242.973009 -37.55625 
L 242.973009 -37.55625 
L 241.589264 -37.55625 
L 241.589264 -37.55625 
L 240.20552 -37.55625 
L 240.20552 -37.55625 
L 238.821776 -37.55625 
L 238.821776 -37.55625 
L 237.438031 -37.55625 
L 237.438031 -37.55625 
L 236.054287 -37.55625 
L 236.054287 -37.55625 
L 234.670543 -37.55625 
L 234.670543 -37.55625 
L 233.286798 -37.55625 
L 233.286798 -37.55625 
L 231.903054 -37.55625 
L 231.903054 -37.55625 
L 230.51931 -37.55625 
L 230.51931 -37.55625 
L 229.135565 -37.55625 
L 229.135565 -37.55625 
L 227.751821 -37.55625 
L 227.751821 -37.55625 
L 226.368077 -37.55625 
L 226.368077 -37.55625 
L 224.984332 -37.55625 
L 224.984332 -37.55625 
L 223.600588 -37.55625 
L 223.600588 -37.55625 
L 222.216844 -37.55625 
L 222.216844 -37.55625 
L 220.833099 -37.55625 
L 220.833099 -37.55625 
L 219.449355 -37.55625 
L 219.449355 -37.55625 
L 218.065611 -37.55625 
L 218.065611 -37.55625 
L 216.681866 -37.55625 
L 216.681866 -37.55625 
L 215.298122 -37.55625 
L 215.298122 -37.55625 
L 213.914378 -37.55625 
L 213.914378 -37.55625 
L 212.530633 -37.55625 
L 212.530633 -37.55625 
L 211.146889 -37.55625 
L 211.146889 -37.55625 
L 209.763145 -37.55625 
L 209.763145 -37.55625 
L 208.3794 -37.55625 
L 208.3794 -37.55625 
L 206.995656 -37.55625 
L 206.995656 -37.55625 
L 205.611912 -37.55625 
L 205.611912 -37.55625 
L 204.228167 -37.55625 
L 204.228167 -37.55625 
L 202.844423 -37.55625 
L 202.844423 -37.55625 
L 201.460679 -37.55625 
L 201.460679 -37.55625 
L 200.076935 -37.55625 
L 200.076935 -37.55625 
L 198.69319 -37.55625 
L 198.69319 -37.55625 
L 197.309446 -37.55625 
L 197.309446 -37.55625 
L 195.925702 -37.55625 
L 195.925702 -37.55625 
L 194.541957 -37.55625 
L 194.541957 -37.55625 
L 193.158213 -37.55625 
L 193.158213 -37.55625 
L 191.774469 -37.55625 
L 191.774469 -37.55625 
L 190.390724 -37.55625 
L 190.390724 -37.55625 
L 189.00698 -37.55625 
L 189.00698 -37.55625 
L 187.623236 -37.55625 
L 187.623236 -37.55625 
L 186.239491 -37.55625 
L 186.239491 -37.55625 
L 184.855747 -37.55625 
L 184.855747 -37.55625 
L 183.472003 -37.55625 
L 183.472003 -37.55625 
L 182.088258 -37.55625 
L 182.088258 -37.55625 
L 180.704514 -37.55625 
L 180.704514 -37.55625 
L 179.32077 -37.55625 
L 179.32077 -37.55625 
L 177.937025 -37.55625 
L 177.937025 -37.55625 
L 176.553281 -37.55625 
L 176.553281 -37.55625 
L 175.169537 -37.55625 
L 175.169537 -37.55625 
L 173.785792 -37.55625 
L 173.785792 -37.55625 
L 172.402048 -37.55625 
L 172.402048 -37.55625 
L 171.018304 -37.55625 
L 171.018304 -37.55625 
L 169.634559 -37.55625 
L 169.634559 -37.55625 
L 168.250815 -37.55625 
L 168.250815 -37.55625 
L 166.867071 -37.55625 
L 166.867071 -37.55625 
L 165.483326 -37.55625 
L 165.483326 -37.55625 
L 164.099582 -37.55625 
L 164.099582 -37.55625 
L 162.715838 -37.55625 
L 162.715838 -37.55625 
L 161.332093 -37.55625 
L 161.332093 -37.55625 
L 159.948349 -37.55625 
L 159.948349 -37.55625 
L 158.564605 -37.55625 
L 158.564605 -37.55625 
L 157.18086 -37.55625 
L 157.18086 -37.55625 
L 155.797116 -37.55625 
L 155.797116 -37.55625 
L 154.413372 -37.55625 
L 154.413372 -37.55625 
L 153.029627 -37.55625 
L 153.029627 -37.55625 
L 151.645883 -37.55625 
L 151.645883 -37.55625 
L 150.262139 -37.55625 
L 150.262139 -37.55625 
L 148.878395 -37.55625 
L 148.878395 -37.55625 
L 147.49465 -37.55625 
L 147.49465 -37.55625 
L 146.110906 -37.55625 
L 146.110906 -37.55625 
L 144.727162 -37.55625 
L 144.727162 -37.55625 
L 143.343417 -37.55625 
L 143.343417 -37.55625 
L 141.959673 -37.55625 
L 141.959673 -37.55625 
L 140.575929 -37.55625 
L 140.575929 -37.55625 
L 139.192184 -37.55625 
L 139.192184 -37.55625 
L 137.80844 -37.55625 
L 137.80844 -37.55625 
L 136.424696 -37.55625 
L 136.424696 -37.55625 
L 135.040951 -37.55625 
L 135.040951 -37.55625 
L 133.657207 -37.55625 
L 133.657207 -37.55625 
L 132.273463 -37.55625 
L 132.273463 -37.55625 
L 130.889718 -37.55625 
L 130.889718 -37.55625 
L 129.505974 -37.55625 
L 129.505974 -37.55625 
L 128.12223 -37.55625 
L 128.12223 -37.55625 
L 126.738485 -37.55625 
L 126.738485 -37.55625 
L 125.354741 -37.55625 
L 125.354741 -37.55625 
L 123.970997 -37.55625 
L 123.970997 -37.55625 
L 122.587252 -37.55625 
L 122.587252 -37.55625 
L 121.203508 -37.55625 
L 121.203508 -37.55625 
L 119.819764 -37.55625 
L 119.819764 -37.55625 
L 118.436019 -37.55625 
L 118.436019 -37.55625 
L 117.052275 -37.55625 
L 117.052275 -38.177825 
L 115.668531 -38.177825 
L 115.668531 -37.55625 
L 114.284786 -37.55625 
L 114.284786 -38.177825 
L 112.901042 -38.177825 
L 112.901042 -38.488613 
L 111.517298 -38.488613 
L 111.517298 -38.7994 
L 110.133553 -38.7994 
L 110.133553 -38.7994 
L 108.749809 -38.7994 
L 108.749809 -39.420976 
L 107.366065 -39.420976 
L 107.366065 -39.731763 
L 105.98232 -39.731763 
L 105.98232 -39.731763 
L 104.598576 -39.731763 
L 104.598576 -43.772002 
L 103.214832 -43.772002 
L 103.214832 -42.528851 
L 101.831087 -42.528851 
L 101.831087 -44.082789 
L 100.447343 -44.082789 
L 100.447343 -48.744603 
L 99.063599 -48.744603 
L 99.063599 -50.298541 
L 97.679854 -50.298541 
L 97.679854 -55.271142 
L 96.29611 -55.271142 
L 96.29611 -53.717204 
L 94.912366 -53.717204 
L 94.912366 -63.973195 
L 93.528622 -63.973195 
L 93.528622 -71.742884 
L 92.144877 -71.742884 
L 92.144877 -73.296822 
L 90.761133 -73.296822 
L 90.761133 -73.60761 
L 89.377389 -73.60761 
L 89.377389 -79.201786 
L 87.993644 -79.201786 
L 87.993644 -91.63329 
L 86.6099 -91.63329 
L 86.6099 -90.079352 
L 85.226156 -90.079352 
L 85.226156 -100.64613 
L 83.842411 -100.64613 
L 83.842411 -126.130712 
L 82.458667 -126.130712 
L 82.458667 -127.68465 
L 81.074923 -127.68465 
L 81.074923 -146.331905 
L 79.691178 -146.331905 
L 79.691178 -157.20947 
L 78.307434 -157.20947 
L 78.307434 -196.368706 
L 76.92369 -196.368706 
L 76.92369 -211.908085 
L 75.539945 -211.908085 
L 75.539945 -244.540781 
L 74.156201 -244.540781 
L 74.156201 -278.727416 
L 72.772457 -278.727416 
L 72.772457 -312.91405 
L 71.388712 -312.91405 
L 71.388712 -324.413191 
L 70.004968 -324.413191 
L 70.004968 -330.318155 
L 68.621224 -330.318155 
L 68.621224 -295.820733 
L 67.237479 -295.820733 
L 67.237479 -236.460304 
L 65.853735 -236.460304 
L 65.853735 -173.681212 
L 64.469991 -173.681212 
L 64.469991 -138.251427 
L 63.086246 -138.251427 
L 63.086246 -86.039113 
L 61.702502 -86.039113 
L 61.702502 -49.366178 
L 60.318758 -49.366178 
z
" style="stroke: #2ca02c"/>
    </defs>
    <g clip-path="url(#pe893af61f7)">
     <use xlink:href="#mc8b5be46db" x="0" y="352.15625" style="fill: #2ca02c; fill-opacity: 0.25; stroke: #2ca02c"/>
    </g>
   </g>
   <g id="PolyCollection_2">
    <defs>
     <path id="m56ab57a96d" d="M 60.318758 -46.879878 
L 60.318758 -37.55625 
L 61.702502 -37.55625 
L 61.702502 -37.55625 
L 63.086246 -37.55625 
L 63.086246 -37.55625 
L 64.469991 -37.55625 
L 64.469991 -37.55625 
L 65.853735 -37.55625 
L 65.853735 -37.55625 
L 67.237479 -37.55625 
L 67.237479 -37.55625 
L 68.621224 -37.55625 
L 68.621224 -37.55625 
L 70.004968 -37.55625 
L 70.004968 -37.55625 
L 71.388712 -37.55625 
L 71.388712 -37.55625 
L 72.772457 -37.55625 
L 72.772457 -37.55625 
L 74.156201 -37.55625 
L 74.156201 -37.55625 
L 75.539945 -37.55625 
L 75.539945 -37.55625 
L 76.92369 -37.55625 
L 76.92369 -37.55625 
L 78.307434 -37.55625 
L 78.307434 -37.55625 
L 79.691178 -37.55625 
L 79.691178 -37.55625 
L 81.074923 -37.55625 
L 81.074923 -37.55625 
L 82.458667 -37.55625 
L 82.458667 -37.55625 
L 83.842411 -37.55625 
L 83.842411 -37.55625 
L 85.226156 -37.55625 
L 85.226156 -37.55625 
L 86.6099 -37.55625 
L 86.6099 -37.55625 
L 87.993644 -37.55625 
L 87.993644 -37.55625 
L 89.377389 -37.55625 
L 89.377389 -37.55625 
L 90.761133 -37.55625 
L 90.761133 -37.55625 
L 92.144877 -37.55625 
L 92.144877 -37.55625 
L 93.528622 -37.55625 
L 93.528622 -37.55625 
L 94.912366 -37.55625 
L 94.912366 -37.55625 
L 96.29611 -37.55625 
L 96.29611 -37.55625 
L 97.679854 -37.55625 
L 97.679854 -37.55625 
L 99.063599 -37.55625 
L 99.063599 -37.55625 
L 100.447343 -37.55625 
L 100.447343 -37.55625 
L 101.831087 -37.55625 
L 101.831087 -37.55625 
L 103.214832 -37.55625 
L 103.214832 -37.55625 
L 104.598576 -37.55625 
L 104.598576 -37.55625 
L 105.98232 -37.55625 
L 105.98232 -37.55625 
L 107.366065 -37.55625 
L 107.366065 -37.55625 
L 108.749809 -37.55625 
L 108.749809 -37.55625 
L 110.133553 -37.55625 
L 110.133553 -37.55625 
L 111.517298 -37.55625 
L 111.517298 -37.55625 
L 112.901042 -37.55625 
L 112.901042 -37.55625 
L 114.284786 -37.55625 
L 114.284786 -37.55625 
L 115.668531 -37.55625 
L 115.668531 -37.55625 
L 117.052275 -37.55625 
L 117.052275 -37.55625 
L 118.436019 -37.55625 
L 118.436019 -37.55625 
L 119.819764 -37.55625 
L 119.819764 -37.55625 
L 121.203508 -37.55625 
L 121.203508 -37.55625 
L 122.587252 -37.55625 
L 122.587252 -37.55625 
L 123.970997 -37.55625 
L 123.970997 -37.55625 
L 125.354741 -37.55625 
L 125.354741 -37.55625 
L 126.738485 -37.55625 
L 126.738485 -37.55625 
L 128.12223 -37.55625 
L 128.12223 -37.55625 
L 129.505974 -37.55625 
L 129.505974 -37.55625 
L 130.889718 -37.55625 
L 130.889718 -37.55625 
L 132.273463 -37.55625 
L 132.273463 -37.55625 
L 133.657207 -37.55625 
L 133.657207 -37.55625 
L 135.040951 -37.55625 
L 135.040951 -37.55625 
L 136.424696 -37.55625 
L 136.424696 -37.55625 
L 137.80844 -37.55625 
L 137.80844 -37.55625 
L 139.192184 -37.55625 
L 139.192184 -37.55625 
L 140.575929 -37.55625 
L 140.575929 -37.55625 
L 141.959673 -37.55625 
L 141.959673 -37.55625 
L 143.343417 -37.55625 
L 143.343417 -37.55625 
L 144.727162 -37.55625 
L 144.727162 -37.55625 
L 146.110906 -37.55625 
L 146.110906 -37.55625 
L 147.49465 -37.55625 
L 147.49465 -37.55625 
L 148.878395 -37.55625 
L 148.878395 -37.55625 
L 150.262139 -37.55625 
L 150.262139 -37.55625 
L 151.645883 -37.55625 
L 151.645883 -37.55625 
L 153.029627 -37.55625 
L 153.029627 -37.55625 
L 154.413372 -37.55625 
L 154.413372 -37.55625 
L 155.797116 -37.55625 
L 155.797116 -37.55625 
L 157.18086 -37.55625 
L 157.18086 -37.55625 
L 158.564605 -37.55625 
L 158.564605 -37.55625 
L 159.948349 -37.55625 
L 159.948349 -37.55625 
L 161.332093 -37.55625 
L 161.332093 -37.55625 
L 162.715838 -37.55625 
L 162.715838 -37.55625 
L 164.099582 -37.55625 
L 164.099582 -37.55625 
L 165.483326 -37.55625 
L 165.483326 -37.55625 
L 166.867071 -37.55625 
L 166.867071 -37.55625 
L 168.250815 -37.55625 
L 168.250815 -37.55625 
L 169.634559 -37.55625 
L 169.634559 -37.55625 
L 171.018304 -37.55625 
L 171.018304 -37.55625 
L 172.402048 -37.55625 
L 172.402048 -37.55625 
L 173.785792 -37.55625 
L 173.785792 -37.55625 
L 175.169537 -37.55625 
L 175.169537 -37.55625 
L 176.553281 -37.55625 
L 176.553281 -37.55625 
L 177.937025 -37.55625 
L 177.937025 -37.55625 
L 179.32077 -37.55625 
L 179.32077 -37.55625 
L 180.704514 -37.55625 
L 180.704514 -37.55625 
L 182.088258 -37.55625 
L 182.088258 -37.55625 
L 183.472003 -37.55625 
L 183.472003 -37.55625 
L 184.855747 -37.55625 
L 184.855747 -37.55625 
L 186.239491 -37.55625 
L 186.239491 -37.55625 
L 187.623236 -37.55625 
L 187.623236 -37.55625 
L 189.00698 -37.55625 
L 189.00698 -37.55625 
L 190.390724 -37.55625 
L 190.390724 -37.55625 
L 191.774469 -37.55625 
L 191.774469 -37.55625 
L 193.158213 -37.55625 
L 193.158213 -37.55625 
L 194.541957 -37.55625 
L 194.541957 -37.55625 
L 195.925702 -37.55625 
L 195.925702 -37.55625 
L 197.309446 -37.55625 
L 197.309446 -37.55625 
L 198.69319 -37.55625 
L 198.69319 -37.55625 
L 200.076935 -37.55625 
L 200.076935 -37.55625 
L 201.460679 -37.55625 
L 201.460679 -37.55625 
L 202.844423 -37.55625 
L 202.844423 -37.55625 
L 204.228167 -37.55625 
L 204.228167 -37.55625 
L 205.611912 -37.55625 
L 205.611912 -37.55625 
L 206.995656 -37.55625 
L 206.995656 -37.55625 
L 208.3794 -37.55625 
L 208.3794 -37.55625 
L 209.763145 -37.55625 
L 209.763145 -37.55625 
L 211.146889 -37.55625 
L 211.146889 -37.55625 
L 212.530633 -37.55625 
L 212.530633 -37.55625 
L 213.914378 -37.55625 
L 213.914378 -37.55625 
L 215.298122 -37.55625 
L 215.298122 -37.55625 
L 216.681866 -37.55625 
L 216.681866 -37.55625 
L 218.065611 -37.55625 
L 218.065611 -37.55625 
L 219.449355 -37.55625 
L 219.449355 -37.55625 
L 220.833099 -37.55625 
L 220.833099 -37.55625 
L 222.216844 -37.55625 
L 222.216844 -37.55625 
L 223.600588 -37.55625 
L 223.600588 -37.55625 
L 224.984332 -37.55625 
L 224.984332 -37.55625 
L 226.368077 -37.55625 
L 226.368077 -37.55625 
L 227.751821 -37.55625 
L 227.751821 -37.55625 
L 229.135565 -37.55625 
L 229.135565 -37.55625 
L 230.51931 -37.55625 
L 230.51931 -37.55625 
L 231.903054 -37.55625 
L 231.903054 -37.55625 
L 233.286798 -37.55625 
L 233.286798 -37.55625 
L 234.670543 -37.55625 
L 234.670543 -37.55625 
L 236.054287 -37.55625 
L 236.054287 -37.55625 
L 237.438031 -37.55625 
L 237.438031 -37.55625 
L 238.821776 -37.55625 
L 238.821776 -37.55625 
L 240.20552 -37.55625 
L 240.20552 -37.55625 
L 241.589264 -37.55625 
L 241.589264 -37.55625 
L 242.973009 -37.55625 
L 242.973009 -37.55625 
L 244.356753 -37.55625 
L 244.356753 -37.55625 
L 245.740497 -37.55625 
L 245.740497 -37.55625 
L 247.124242 -37.55625 
L 247.124242 -37.55625 
L 248.507986 -37.55625 
L 248.507986 -37.55625 
L 249.89173 -37.55625 
L 249.89173 -37.55625 
L 251.275475 -37.55625 
L 251.275475 -37.55625 
L 252.659219 -37.55625 
L 252.659219 -37.55625 
L 254.042963 -37.55625 
L 254.042963 -37.55625 
L 255.426708 -37.55625 
L 255.426708 -37.55625 
L 256.810452 -37.55625 
L 256.810452 -37.55625 
L 258.194196 -37.55625 
L 258.194196 -37.55625 
L 259.57794 -37.55625 
L 259.57794 -37.55625 
L 260.961685 -37.55625 
L 260.961685 -37.55625 
L 262.345429 -37.55625 
L 262.345429 -37.55625 
L 263.729173 -37.55625 
L 263.729173 -37.55625 
L 265.112918 -37.55625 
L 265.112918 -37.55625 
L 266.496662 -37.55625 
L 266.496662 -37.55625 
L 267.880406 -37.55625 
L 267.880406 -37.55625 
L 269.264151 -37.55625 
L 269.264151 -37.55625 
L 270.647895 -37.55625 
L 270.647895 -37.55625 
L 272.031639 -37.55625 
L 272.031639 -37.55625 
L 273.415384 -37.55625 
L 273.415384 -37.55625 
L 274.799128 -37.55625 
L 274.799128 -37.55625 
L 276.182872 -37.55625 
L 276.182872 -37.55625 
L 277.566617 -37.55625 
L 277.566617 -37.55625 
L 278.950361 -37.55625 
L 278.950361 -37.55625 
L 280.334105 -37.55625 
L 280.334105 -37.55625 
L 281.71785 -37.55625 
L 281.71785 -37.55625 
L 283.101594 -37.55625 
L 283.101594 -37.55625 
L 284.485338 -37.55625 
L 284.485338 -37.55625 
L 285.869083 -37.55625 
L 285.869083 -37.55625 
L 287.252827 -37.55625 
L 287.252827 -37.55625 
L 288.636571 -37.55625 
L 288.636571 -37.55625 
L 290.020316 -37.55625 
L 290.020316 -37.55625 
L 291.40406 -37.55625 
L 291.40406 -37.55625 
L 292.787804 -37.55625 
L 292.787804 -37.55625 
L 294.171549 -37.55625 
L 294.171549 -37.55625 
L 295.555293 -37.55625 
L 295.555293 -37.55625 
L 296.939037 -37.55625 
L 296.939037 -37.55625 
L 298.322782 -37.55625 
L 298.322782 -37.55625 
L 299.706526 -37.55625 
L 299.706526 -37.55625 
L 301.09027 -37.55625 
L 301.09027 -37.55625 
L 302.474015 -37.55625 
L 302.474015 -37.55625 
L 303.857759 -37.55625 
L 303.857759 -37.55625 
L 305.241503 -37.55625 
L 305.241503 -37.55625 
L 306.625248 -37.55625 
L 306.625248 -37.55625 
L 308.008992 -37.55625 
L 308.008992 -37.55625 
L 309.392736 -37.55625 
L 309.392736 -37.55625 
L 310.77648 -37.55625 
L 310.77648 -37.55625 
L 312.160225 -37.55625 
L 312.160225 -37.55625 
L 313.543969 -37.55625 
L 313.543969 -37.55625 
L 314.927713 -37.55625 
L 314.927713 -37.55625 
L 316.311458 -37.55625 
L 316.311458 -37.55625 
L 317.695202 -37.55625 
L 317.695202 -37.55625 
L 319.078946 -37.55625 
L 319.078946 -37.55625 
L 320.462691 -37.55625 
L 320.462691 -37.55625 
L 321.846435 -37.55625 
L 321.846435 -37.55625 
L 323.230179 -37.55625 
L 323.230179 -37.55625 
L 324.613924 -37.55625 
L 324.613924 -37.55625 
L 325.997668 -37.55625 
L 325.997668 -37.55625 
L 327.381412 -37.55625 
L 327.381412 -37.55625 
L 327.381412 -37.55625 
L 327.381412 -37.55625 
L 327.381412 -37.55625 
L 325.997668 -37.55625 
L 325.997668 -37.55625 
L 324.613924 -37.55625 
L 324.613924 -37.55625 
L 323.230179 -37.55625 
L 323.230179 -37.55625 
L 321.846435 -37.55625 
L 321.846435 -37.55625 
L 320.462691 -37.55625 
L 320.462691 -37.55625 
L 319.078946 -37.55625 
L 319.078946 -37.55625 
L 317.695202 -37.55625 
L 317.695202 -37.55625 
L 316.311458 -37.55625 
L 316.311458 -37.55625 
L 314.927713 -37.55625 
L 314.927713 -37.55625 
L 313.543969 -37.55625 
L 313.543969 -37.55625 
L 312.160225 -37.55625 
L 312.160225 -37.55625 
L 310.77648 -37.55625 
L 310.77648 -37.55625 
L 309.392736 -37.55625 
L 309.392736 -37.55625 
L 308.008992 -37.55625 
L 308.008992 -37.55625 
L 306.625248 -37.55625 
L 306.625248 -37.55625 
L 305.241503 -37.55625 
L 305.241503 -37.55625 
L 303.857759 -37.55625 
L 303.857759 -37.55625 
L 302.474015 -37.55625 
L 302.474015 -37.55625 
L 301.09027 -37.55625 
L 301.09027 -37.55625 
L 299.706526 -37.55625 
L 299.706526 -37.55625 
L 298.322782 -37.55625 
L 298.322782 -37.55625 
L 296.939037 -37.55625 
L 296.939037 -37.55625 
L 295.555293 -37.55625 
L 295.555293 -37.55625 
L 294.171549 -37.55625 
L 294.171549 -37.55625 
L 292.787804 -37.55625 
L 292.787804 -37.55625 
L 291.40406 -37.55625 
L 291.40406 -37.55625 
L 290.020316 -37.55625 
L 290.020316 -37.55625 
L 288.636571 -37.55625 
L 288.636571 -37.55625 
L 287.252827 -37.55625 
L 287.252827 -37.55625 
L 285.869083 -37.55625 
L 285.869083 -37.55625 
L 284.485338 -37.55625 
L 284.485338 -37.55625 
L 283.101594 -37.55625 
L 283.101594 -37.55625 
L 281.71785 -37.55625 
L 281.71785 -37.55625 
L 280.334105 -37.55625 
L 280.334105 -37.55625 
L 278.950361 -37.55625 
L 278.950361 -37.55625 
L 277.566617 -37.55625 
L 277.566617 -37.55625 
L 276.182872 -37.55625 
L 276.182872 -37.55625 
L 274.799128 -37.55625 
L 274.799128 -37.55625 
L 273.415384 -37.55625 
L 273.415384 -37.55625 
L 272.031639 -37.55625 
L 272.031639 -37.55625 
L 270.647895 -37.55625 
L 270.647895 -37.55625 
L 269.264151 -37.55625 
L 269.264151 -37.55625 
L 267.880406 -37.55625 
L 267.880406 -37.55625 
L 266.496662 -37.55625 
L 266.496662 -37.55625 
L 265.112918 -37.55625 
L 265.112918 -37.55625 
L 263.729173 -37.55625 
L 263.729173 -37.55625 
L 262.345429 -37.55625 
L 262.345429 -37.55625 
L 260.961685 -37.55625 
L 260.961685 -37.55625 
L 259.57794 -37.55625 
L 259.57794 -37.55625 
L 258.194196 -37.55625 
L 258.194196 -37.55625 
L 256.810452 -37.55625 
L 256.810452 -37.55625 
L 255.426708 -37.55625 
L 255.426708 -37.55625 
L 254.042963 -37.55625 
L 254.042963 -37.55625 
L 252.659219 -37.55625 
L 252.659219 -37.55625 
L 251.275475 -37.55625 
L 251.275475 -37.55625 
L 249.89173 -37.55625 
L 249.89173 -37.55625 
L 248.507986 -37.55625 
L 248.507986 -37.55625 
L 247.124242 -37.55625 
L 247.124242 -37.55625 
L 245.740497 -37.55625 
L 245.740497 -37.55625 
L 244.356753 -37.55625 
L 244.356753 -37.55625 
L 242.973009 -37.55625 
L 242.973009 -37.55625 
L 241.589264 -37.55625 
L 241.589264 -37.55625 
L 240.20552 -37.55625 
L 240.20552 -37.55625 
L 238.821776 -37.55625 
L 238.821776 -37.55625 
L 237.438031 -37.55625 
L 237.438031 -37.55625 
L 236.054287 -37.55625 
L 236.054287 -37.55625 
L 234.670543 -37.55625 
L 234.670543 -37.55625 
L 233.286798 -37.55625 
L 233.286798 -37.55625 
L 231.903054 -37.55625 
L 231.903054 -37.55625 
L 230.51931 -37.55625 
L 230.51931 -37.55625 
L 229.135565 -37.55625 
L 229.135565 -37.55625 
L 227.751821 -37.55625 
L 227.751821 -37.55625 
L 226.368077 -37.55625 
L 226.368077 -37.55625 
L 224.984332 -37.55625 
L 224.984332 -37.55625 
L 223.600588 -37.55625 
L 223.600588 -37.55625 
L 222.216844 -37.55625 
L 222.216844 -37.55625 
L 220.833099 -37.55625 
L 220.833099 -37.55625 
L 219.449355 -37.55625 
L 219.449355 -37.55625 
L 218.065611 -37.55625 
L 218.065611 -37.55625 
L 216.681866 -37.55625 
L 216.681866 -37.55625 
L 215.298122 -37.55625 
L 215.298122 -37.55625 
L 213.914378 -37.55625 
L 213.914378 -37.55625 
L 212.530633 -37.55625 
L 212.530633 -37.55625 
L 211.146889 -37.55625 
L 211.146889 -37.55625 
L 209.763145 -37.55625 
L 209.763145 -37.55625 
L 208.3794 -37.55625 
L 208.3794 -37.55625 
L 206.995656 -37.55625 
L 206.995656 -37.55625 
L 205.611912 -37.55625 
L 205.611912 -37.55625 
L 204.228167 -37.55625 
L 204.228167 -37.55625 
L 202.844423 -37.55625 
L 202.844423 -37.55625 
L 201.460679 -37.55625 
L 201.460679 -37.55625 
L 200.076935 -37.55625 
L 200.076935 -37.55625 
L 198.69319 -37.55625 
L 198.69319 -37.55625 
L 197.309446 -37.55625 
L 197.309446 -37.55625 
L 195.925702 -37.55625 
L 195.925702 -37.55625 
L 194.541957 -37.55625 
L 194.541957 -37.55625 
L 193.158213 -37.55625 
L 193.158213 -37.55625 
L 191.774469 -37.55625 
L 191.774469 -37.55625 
L 190.390724 -37.55625 
L 190.390724 -37.55625 
L 189.00698 -37.55625 
L 189.00698 -37.55625 
L 187.623236 -37.55625 
L 187.623236 -37.55625 
L 186.239491 -37.55625 
L 186.239491 -37.55625 
L 184.855747 -37.55625 
L 184.855747 -37.55625 
L 183.472003 -37.55625 
L 183.472003 -37.55625 
L 182.088258 -37.55625 
L 182.088258 -37.55625 
L 180.704514 -37.55625 
L 180.704514 -37.55625 
L 179.32077 -37.55625 
L 179.32077 -37.55625 
L 177.937025 -37.55625 
L 177.937025 -37.55625 
L 176.553281 -37.55625 
L 176.553281 -37.55625 
L 175.169537 -37.55625 
L 175.169537 -37.55625 
L 173.785792 -37.55625 
L 173.785792 -37.55625 
L 172.402048 -37.55625 
L 172.402048 -37.55625 
L 171.018304 -37.55625 
L 171.018304 -37.55625 
L 169.634559 -37.55625 
L 169.634559 -37.55625 
L 168.250815 -37.55625 
L 168.250815 -37.55625 
L 166.867071 -37.55625 
L 166.867071 -37.55625 
L 165.483326 -37.55625 
L 165.483326 -37.55625 
L 164.099582 -37.55625 
L 164.099582 -37.55625 
L 162.715838 -37.55625 
L 162.715838 -37.55625 
L 161.332093 -37.55625 
L 161.332093 -37.55625 
L 159.948349 -37.55625 
L 159.948349 -37.55625 
L 158.564605 -37.55625 
L 158.564605 -37.55625 
L 157.18086 -37.55625 
L 157.18086 -37.55625 
L 155.797116 -37.55625 
L 155.797116 -37.55625 
L 154.413372 -37.55625 
L 154.413372 -37.55625 
L 153.029627 -37.55625 
L 153.029627 -37.55625 
L 151.645883 -37.55625 
L 151.645883 -37.55625 
L 150.262139 -37.55625 
L 150.262139 -37.55625 
L 148.878395 -37.55625 
L 148.878395 -37.55625 
L 147.49465 -37.55625 
L 147.49465 -37.55625 
L 146.110906 -37.55625 
L 146.110906 -37.867038 
L 144.727162 -37.867038 
L 144.727162 -37.55625 
L 143.343417 -37.55625 
L 143.343417 -37.55625 
L 141.959673 -37.55625 
L 141.959673 -37.55625 
L 140.575929 -37.55625 
L 140.575929 -37.55625 
L 139.192184 -37.55625 
L 139.192184 -37.867038 
L 137.80844 -37.867038 
L 137.80844 -37.55625 
L 136.424696 -37.55625 
L 136.424696 -37.55625 
L 135.040951 -37.55625 
L 135.040951 -37.867038 
L 133.657207 -37.867038 
L 133.657207 -37.55625 
L 132.273463 -37.55625 
L 132.273463 -37.55625 
L 130.889718 -37.55625 
L 130.889718 -37.867038 
L 129.505974 -37.867038 
L 129.505974 -37.867038 
L 128.12223 -37.867038 
L 128.12223 -37.867038 
L 126.738485 -37.867038 
L 126.738485 -38.7994 
L 125.354741 -38.7994 
L 125.354741 -38.488613 
L 123.970997 -38.488613 
L 123.970997 -38.7994 
L 122.587252 -38.7994 
L 122.587252 -39.731763 
L 121.203508 -39.731763 
L 121.203508 -39.731763 
L 119.819764 -39.731763 
L 119.819764 -38.177825 
L 118.436019 -38.177825 
L 118.436019 -38.7994 
L 117.052275 -38.7994 
L 117.052275 -39.110188 
L 115.668531 -39.110188 
L 115.668531 -40.353338 
L 114.284786 -40.353338 
L 114.284786 -42.218064 
L 112.901042 -42.218064 
L 112.901042 -40.042551 
L 111.517298 -40.042551 
L 111.517298 -42.839639 
L 110.133553 -42.839639 
L 110.133553 -41.285701 
L 108.749809 -41.285701 
L 108.749809 -41.596489 
L 107.366065 -41.596489 
L 107.366065 -44.704364 
L 105.98232 -44.704364 
L 105.98232 -47.81224 
L 104.598576 -47.81224 
L 104.598576 -44.704364 
L 103.214832 -44.704364 
L 103.214832 -50.298541 
L 101.831087 -50.298541 
L 101.831087 -51.541691 
L 100.447343 -51.541691 
L 100.447343 -53.406417 
L 99.063599 -53.406417 
L 99.063599 -57.135868 
L 97.679854 -57.135868 
L 97.679854 -59.622169 
L 96.29611 -59.622169 
L 96.29611 -62.419257 
L 94.912366 -62.419257 
L 94.912366 -68.635008 
L 93.528622 -68.635008 
L 93.528622 -70.499734 
L 92.144877 -70.499734 
L 92.144877 -76.715486 
L 90.761133 -76.715486 
L 90.761133 -78.890999 
L 89.377389 -78.890999 
L 89.377389 -90.390139 
L 87.993644 -90.390139 
L 87.993644 -95.362741 
L 86.6099 -95.362741 
L 86.6099 -102.200068 
L 85.226156 -102.200068 
L 85.226156 -113.388421 
L 83.842411 -113.388421 
L 83.842411 -113.077633 
L 82.458667 -113.077633 
L 82.458667 -132.346463 
L 81.074923 -132.346463 
L 81.074923 -150.061356 
L 79.691178 -150.061356 
L 79.691178 -163.114434 
L 78.307434 -163.114434 
L 78.307434 -183.00484 
L 76.92369 -183.00484 
L 76.92369 -218.434624 
L 75.539945 -218.434624 
L 75.539945 -251.688896 
L 74.156201 -251.688896 
L 74.156201 -277.795053 
L 72.772457 -277.795053 
L 72.772457 -327.521066 
L 71.388712 -327.521066 
L 71.388712 -321.616102 
L 70.004968 -321.616102 
L 70.004968 -294.88837 
L 68.621224 -294.88837 
L 68.621224 -271.579301 
L 67.237479 -271.579301 
L 67.237479 -204.449183 
L 65.853735 -204.449183 
L 65.853735 -150.372143 
L 64.469991 -150.372143 
L 64.469991 -124.576774 
L 63.086246 -124.576774 
L 63.086246 -69.567371 
L 61.702502 -69.567371 
L 61.702502 -46.879878 
L 60.318758 -46.879878 
z
" style="stroke: #ff7f0e"/>
    </defs>
    <g clip-path="url(#pe893af61f7)">
     <use xlink:href="#m56ab57a96d" x="0" y="352.15625" style="fill: #ff7f0e; fill-opacity: 0.25; stroke: #ff7f0e"/>
    </g>
   </g>
   <g id="PolyCollection_3">
    <defs>
     <path id="m132636ed9d" d="M 60.318758 -39.420976 
L 60.318758 -37.55625 
L 61.702502 -37.55625 
L 61.702502 -37.55625 
L 63.086246 -37.55625 
L 63.086246 -37.55625 
L 64.469991 -37.55625 
L 64.469991 -37.55625 
L 65.853735 -37.55625 
L 65.853735 -37.55625 
L 67.237479 -37.55625 
L 67.237479 -37.55625 
L 68.621224 -37.55625 
L 68.621224 -37.55625 
L 70.004968 -37.55625 
L 70.004968 -37.55625 
L 71.388712 -37.55625 
L 71.388712 -37.55625 
L 72.772457 -37.55625 
L 72.772457 -37.55625 
L 74.156201 -37.55625 
L 74.156201 -37.55625 
L 75.539945 -37.55625 
L 75.539945 -37.55625 
L 76.92369 -37.55625 
L 76.92369 -37.55625 
L 78.307434 -37.55625 
L 78.307434 -37.55625 
L 79.691178 -37.55625 
L 79.691178 -37.55625 
L 81.074923 -37.55625 
L 81.074923 -37.55625 
L 82.458667 -37.55625 
L 82.458667 -37.55625 
L 83.842411 -37.55625 
L 83.842411 -37.55625 
L 85.226156 -37.55625 
L 85.226156 -37.55625 
L 86.6099 -37.55625 
L 86.6099 -37.55625 
L 87.993644 -37.55625 
L 87.993644 -37.55625 
L 89.377389 -37.55625 
L 89.377389 -37.55625 
L 90.761133 -37.55625 
L 90.761133 -37.55625 
L 92.144877 -37.55625 
L 92.144877 -37.55625 
L 93.528622 -37.55625 
L 93.528622 -37.55625 
L 94.912366 -37.55625 
L 94.912366 -37.55625 
L 96.29611 -37.55625 
L 96.29611 -37.55625 
L 97.679854 -37.55625 
L 97.679854 -37.55625 
L 99.063599 -37.55625 
L 99.063599 -37.55625 
L 100.447343 -37.55625 
L 100.447343 -37.55625 
L 101.831087 -37.55625 
L 101.831087 -37.55625 
L 103.214832 -37.55625 
L 103.214832 -37.55625 
L 104.598576 -37.55625 
L 104.598576 -37.55625 
L 105.98232 -37.55625 
L 105.98232 -37.55625 
L 107.366065 -37.55625 
L 107.366065 -37.55625 
L 108.749809 -37.55625 
L 108.749809 -37.55625 
L 110.133553 -37.55625 
L 110.133553 -37.55625 
L 111.517298 -37.55625 
L 111.517298 -37.55625 
L 112.901042 -37.55625 
L 112.901042 -37.55625 
L 114.284786 -37.55625 
L 114.284786 -37.55625 
L 115.668531 -37.55625 
L 115.668531 -37.55625 
L 117.052275 -37.55625 
L 117.052275 -37.55625 
L 118.436019 -37.55625 
L 118.436019 -37.55625 
L 119.819764 -37.55625 
L 119.819764 -37.55625 
L 121.203508 -37.55625 
L 121.203508 -37.55625 
L 122.587252 -37.55625 
L 122.587252 -37.55625 
L 123.970997 -37.55625 
L 123.970997 -37.55625 
L 125.354741 -37.55625 
L 125.354741 -37.55625 
L 126.738485 -37.55625 
L 126.738485 -37.55625 
L 128.12223 -37.55625 
L 128.12223 -37.55625 
L 129.505974 -37.55625 
L 129.505974 -37.55625 
L 130.889718 -37.55625 
L 130.889718 -37.55625 
L 132.273463 -37.55625 
L 132.273463 -37.55625 
L 133.657207 -37.55625 
L 133.657207 -37.55625 
L 135.040951 -37.55625 
L 135.040951 -37.55625 
L 136.424696 -37.55625 
L 136.424696 -37.55625 
L 137.80844 -37.55625 
L 137.80844 -37.55625 
L 139.192184 -37.55625 
L 139.192184 -37.55625 
L 140.575929 -37.55625 
L 140.575929 -37.55625 
L 141.959673 -37.55625 
L 141.959673 -37.55625 
L 143.343417 -37.55625 
L 143.343417 -37.55625 
L 144.727162 -37.55625 
L 144.727162 -37.55625 
L 146.110906 -37.55625 
L 146.110906 -37.55625 
L 147.49465 -37.55625 
L 147.49465 -37.55625 
L 148.878395 -37.55625 
L 148.878395 -37.55625 
L 150.262139 -37.55625 
L 150.262139 -37.55625 
L 151.645883 -37.55625 
L 151.645883 -37.55625 
L 153.029627 -37.55625 
L 153.029627 -37.55625 
L 154.413372 -37.55625 
L 154.413372 -37.55625 
L 155.797116 -37.55625 
L 155.797116 -37.55625 
L 157.18086 -37.55625 
L 157.18086 -37.55625 
L 158.564605 -37.55625 
L 158.564605 -37.55625 
L 159.948349 -37.55625 
L 159.948349 -37.55625 
L 161.332093 -37.55625 
L 161.332093 -37.55625 
L 162.715838 -37.55625 
L 162.715838 -37.55625 
L 164.099582 -37.55625 
L 164.099582 -37.55625 
L 165.483326 -37.55625 
L 165.483326 -37.55625 
L 166.867071 -37.55625 
L 166.867071 -37.55625 
L 168.250815 -37.55625 
L 168.250815 -37.55625 
L 169.634559 -37.55625 
L 169.634559 -37.55625 
L 171.018304 -37.55625 
L 171.018304 -37.55625 
L 172.402048 -37.55625 
L 172.402048 -37.55625 
L 173.785792 -37.55625 
L 173.785792 -37.55625 
L 175.169537 -37.55625 
L 175.169537 -37.55625 
L 176.553281 -37.55625 
L 176.553281 -37.55625 
L 177.937025 -37.55625 
L 177.937025 -37.55625 
L 179.32077 -37.55625 
L 179.32077 -37.55625 
L 180.704514 -37.55625 
L 180.704514 -37.55625 
L 182.088258 -37.55625 
L 182.088258 -37.55625 
L 183.472003 -37.55625 
L 183.472003 -37.55625 
L 184.855747 -37.55625 
L 184.855747 -37.55625 
L 186.239491 -37.55625 
L 186.239491 -37.55625 
L 187.623236 -37.55625 
L 187.623236 -37.55625 
L 189.00698 -37.55625 
L 189.00698 -37.55625 
L 190.390724 -37.55625 
L 190.390724 -37.55625 
L 191.774469 -37.55625 
L 191.774469 -37.55625 
L 193.158213 -37.55625 
L 193.158213 -37.55625 
L 194.541957 -37.55625 
L 194.541957 -37.55625 
L 195.925702 -37.55625 
L 195.925702 -37.55625 
L 197.309446 -37.55625 
L 197.309446 -37.55625 
L 198.69319 -37.55625 
L 198.69319 -37.55625 
L 200.076935 -37.55625 
L 200.076935 -37.55625 
L 201.460679 -37.55625 
L 201.460679 -37.55625 
L 202.844423 -37.55625 
L 202.844423 -37.55625 
L 204.228167 -37.55625 
L 204.228167 -37.55625 
L 205.611912 -37.55625 
L 205.611912 -37.55625 
L 206.995656 -37.55625 
L 206.995656 -37.55625 
L 208.3794 -37.55625 
L 208.3794 -37.55625 
L 209.763145 -37.55625 
L 209.763145 -37.55625 
L 211.146889 -37.55625 
L 211.146889 -37.55625 
L 212.530633 -37.55625 
L 212.530633 -37.55625 
L 213.914378 -37.55625 
L 213.914378 -37.55625 
L 215.298122 -37.55625 
L 215.298122 -37.55625 
L 216.681866 -37.55625 
L 216.681866 -37.55625 
L 218.065611 -37.55625 
L 218.065611 -37.55625 
L 219.449355 -37.55625 
L 219.449355 -37.55625 
L 220.833099 -37.55625 
L 220.833099 -37.55625 
L 222.216844 -37.55625 
L 222.216844 -37.55625 
L 223.600588 -37.55625 
L 223.600588 -37.55625 
L 224.984332 -37.55625 
L 224.984332 -37.55625 
L 226.368077 -37.55625 
L 226.368077 -37.55625 
L 227.751821 -37.55625 
L 227.751821 -37.55625 
L 229.135565 -37.55625 
L 229.135565 -37.55625 
L 230.51931 -37.55625 
L 230.51931 -37.55625 
L 231.903054 -37.55625 
L 231.903054 -37.55625 
L 233.286798 -37.55625 
L 233.286798 -37.55625 
L 234.670543 -37.55625 
L 234.670543 -37.55625 
L 236.054287 -37.55625 
L 236.054287 -37.55625 
L 237.438031 -37.55625 
L 237.438031 -37.55625 
L 238.821776 -37.55625 
L 238.821776 -37.55625 
L 240.20552 -37.55625 
L 240.20552 -37.55625 
L 241.589264 -37.55625 
L 241.589264 -37.55625 
L 242.973009 -37.55625 
L 242.973009 -37.55625 
L 244.356753 -37.55625 
L 244.356753 -37.55625 
L 245.740497 -37.55625 
L 245.740497 -37.55625 
L 247.124242 -37.55625 
L 247.124242 -37.55625 
L 248.507986 -37.55625 
L 248.507986 -37.55625 
L 249.89173 -37.55625 
L 249.89173 -37.55625 
L 251.275475 -37.55625 
L 251.275475 -37.55625 
L 252.659219 -37.55625 
L 252.659219 -37.55625 
L 254.042963 -37.55625 
L 254.042963 -37.55625 
L 255.426708 -37.55625 
L 255.426708 -37.55625 
L 256.810452 -37.55625 
L 256.810452 -37.55625 
L 258.194196 -37.55625 
L 258.194196 -37.55625 
L 259.57794 -37.55625 
L 259.57794 -37.55625 
L 260.961685 -37.55625 
L 260.961685 -37.55625 
L 262.345429 -37.55625 
L 262.345429 -37.55625 
L 263.729173 -37.55625 
L 263.729173 -37.55625 
L 265.112918 -37.55625 
L 265.112918 -37.55625 
L 266.496662 -37.55625 
L 266.496662 -37.55625 
L 267.880406 -37.55625 
L 267.880406 -37.55625 
L 269.264151 -37.55625 
L 269.264151 -37.55625 
L 270.647895 -37.55625 
L 270.647895 -37.55625 
L 272.031639 -37.55625 
L 272.031639 -37.55625 
L 273.415384 -37.55625 
L 273.415384 -37.55625 
L 274.799128 -37.55625 
L 274.799128 -37.55625 
L 276.182872 -37.55625 
L 276.182872 -37.55625 
L 277.566617 -37.55625 
L 277.566617 -37.55625 
L 278.950361 -37.55625 
L 278.950361 -37.55625 
L 280.334105 -37.55625 
L 280.334105 -37.55625 
L 281.71785 -37.55625 
L 281.71785 -37.55625 
L 283.101594 -37.55625 
L 283.101594 -37.55625 
L 284.485338 -37.55625 
L 284.485338 -37.55625 
L 285.869083 -37.55625 
L 285.869083 -37.55625 
L 287.252827 -37.55625 
L 287.252827 -37.55625 
L 288.636571 -37.55625 
L 288.636571 -37.55625 
L 290.020316 -37.55625 
L 290.020316 -37.55625 
L 291.40406 -37.55625 
L 291.40406 -37.55625 
L 292.787804 -37.55625 
L 292.787804 -37.55625 
L 294.171549 -37.55625 
L 294.171549 -37.55625 
L 295.555293 -37.55625 
L 295.555293 -37.55625 
L 296.939037 -37.55625 
L 296.939037 -37.55625 
L 298.322782 -37.55625 
L 298.322782 -37.55625 
L 299.706526 -37.55625 
L 299.706526 -37.55625 
L 301.09027 -37.55625 
L 301.09027 -37.55625 
L 302.474015 -37.55625 
L 302.474015 -37.55625 
L 303.857759 -37.55625 
L 303.857759 -37.55625 
L 305.241503 -37.55625 
L 305.241503 -37.55625 
L 306.625248 -37.55625 
L 306.625248 -37.55625 
L 308.008992 -37.55625 
L 308.008992 -37.55625 
L 309.392736 -37.55625 
L 309.392736 -37.55625 
L 310.77648 -37.55625 
L 310.77648 -37.55625 
L 312.160225 -37.55625 
L 312.160225 -37.55625 
L 313.543969 -37.55625 
L 313.543969 -37.55625 
L 314.927713 -37.55625 
L 314.927713 -37.55625 
L 316.311458 -37.55625 
L 316.311458 -37.55625 
L 317.695202 -37.55625 
L 317.695202 -37.55625 
L 319.078946 -37.55625 
L 319.078946 -37.55625 
L 320.462691 -37.55625 
L 320.462691 -37.55625 
L 321.846435 -37.55625 
L 321.846435 -37.55625 
L 323.230179 -37.55625 
L 323.230179 -37.55625 
L 324.613924 -37.55625 
L 324.613924 -37.55625 
L 325.997668 -37.55625 
L 325.997668 -37.55625 
L 327.381412 -37.55625 
L 327.381412 -37.55625 
L 327.381412 -37.867038 
L 327.381412 -37.867038 
L 327.381412 -37.867038 
L 325.997668 -37.867038 
L 325.997668 -37.55625 
L 324.613924 -37.55625 
L 324.613924 -37.55625 
L 323.230179 -37.55625 
L 323.230179 -37.867038 
L 321.846435 -37.867038 
L 321.846435 -37.55625 
L 320.462691 -37.55625 
L 320.462691 -37.55625 
L 319.078946 -37.55625 
L 319.078946 -37.55625 
L 317.695202 -37.55625 
L 317.695202 -37.55625 
L 316.311458 -37.55625 
L 316.311458 -37.55625 
L 314.927713 -37.55625 
L 314.927713 -37.867038 
L 313.543969 -37.867038 
L 313.543969 -37.55625 
L 312.160225 -37.55625 
L 312.160225 -37.55625 
L 310.77648 -37.55625 
L 310.77648 -37.55625 
L 309.392736 -37.55625 
L 309.392736 -37.55625 
L 308.008992 -37.55625 
L 308.008992 -37.55625 
L 306.625248 -37.55625 
L 306.625248 -37.867038 
L 305.241503 -37.867038 
L 305.241503 -37.55625 
L 303.857759 -37.55625 
L 303.857759 -37.55625 
L 302.474015 -37.55625 
L 302.474015 -37.55625 
L 301.09027 -37.55625 
L 301.09027 -37.55625 
L 299.706526 -37.55625 
L 299.706526 -37.867038 
L 298.322782 -37.867038 
L 298.322782 -37.867038 
L 296.939037 -37.867038 
L 296.939037 -37.55625 
L 295.555293 -37.55625 
L 295.555293 -37.55625 
L 294.171549 -37.55625 
L 294.171549 -37.55625 
L 292.787804 -37.55625 
L 292.787804 -37.867038 
L 291.40406 -37.867038 
L 291.40406 -37.55625 
L 290.020316 -37.55625 
L 290.020316 -37.55625 
L 288.636571 -37.55625 
L 288.636571 -37.55625 
L 287.252827 -37.55625 
L 287.252827 -37.867038 
L 285.869083 -37.867038 
L 285.869083 -37.55625 
L 284.485338 -37.55625 
L 284.485338 -37.55625 
L 283.101594 -37.55625 
L 283.101594 -37.55625 
L 281.71785 -37.55625 
L 281.71785 -37.55625 
L 280.334105 -37.55625 
L 280.334105 -37.55625 
L 278.950361 -37.55625 
L 278.950361 -37.867038 
L 277.566617 -37.867038 
L 277.566617 -37.55625 
L 276.182872 -37.55625 
L 276.182872 -37.55625 
L 274.799128 -37.55625 
L 274.799128 -38.177825 
L 273.415384 -38.177825 
L 273.415384 -37.55625 
L 272.031639 -37.55625 
L 272.031639 -37.867038 
L 270.647895 -37.867038 
L 270.647895 -38.177825 
L 269.264151 -38.177825 
L 269.264151 -37.867038 
L 267.880406 -37.867038 
L 267.880406 -37.867038 
L 266.496662 -37.867038 
L 266.496662 -37.55625 
L 265.112918 -37.55625 
L 265.112918 -37.55625 
L 263.729173 -37.55625 
L 263.729173 -37.55625 
L 262.345429 -37.55625 
L 262.345429 -38.488613 
L 260.961685 -38.488613 
L 260.961685 -38.177825 
L 259.57794 -38.177825 
L 259.57794 -37.55625 
L 258.194196 -37.55625 
L 258.194196 -37.867038 
L 256.810452 -37.867038 
L 256.810452 -37.867038 
L 255.426708 -37.867038 
L 255.426708 -37.867038 
L 254.042963 -37.867038 
L 254.042963 -37.867038 
L 252.659219 -37.867038 
L 252.659219 -37.55625 
L 251.275475 -37.55625 
L 251.275475 -37.867038 
L 249.89173 -37.867038 
L 249.89173 -37.55625 
L 248.507986 -37.55625 
L 248.507986 -37.867038 
L 247.124242 -37.867038 
L 247.124242 -38.177825 
L 245.740497 -38.177825 
L 245.740497 -39.420976 
L 244.356753 -39.420976 
L 244.356753 -38.177825 
L 242.973009 -38.177825 
L 242.973009 -38.177825 
L 241.589264 -38.177825 
L 241.589264 -37.867038 
L 240.20552 -37.867038 
L 240.20552 -38.177825 
L 238.821776 -38.177825 
L 238.821776 -38.488613 
L 237.438031 -38.488613 
L 237.438031 -39.110188 
L 236.054287 -39.110188 
L 236.054287 -39.110188 
L 234.670543 -39.110188 
L 234.670543 -37.867038 
L 233.286798 -37.867038 
L 233.286798 -39.110188 
L 231.903054 -39.110188 
L 231.903054 -37.55625 
L 230.51931 -37.55625 
L 230.51931 -39.731763 
L 229.135565 -39.731763 
L 229.135565 -39.420976 
L 227.751821 -39.420976 
L 227.751821 -38.488613 
L 226.368077 -38.488613 
L 226.368077 -38.7994 
L 224.984332 -38.7994 
L 224.984332 -38.7994 
L 223.600588 -38.7994 
L 223.600588 -38.488613 
L 222.216844 -38.488613 
L 222.216844 -39.731763 
L 220.833099 -39.731763 
L 220.833099 -40.664126 
L 219.449355 -40.664126 
L 219.449355 -39.110188 
L 218.065611 -39.110188 
L 218.065611 -39.420976 
L 216.681866 -39.420976 
L 216.681866 -38.177825 
L 215.298122 -38.177825 
L 215.298122 -40.353338 
L 213.914378 -40.353338 
L 213.914378 -39.420976 
L 212.530633 -39.420976 
L 212.530633 -39.731763 
L 211.146889 -39.731763 
L 211.146889 -40.974913 
L 209.763145 -40.974913 
L 209.763145 -40.974913 
L 208.3794 -40.974913 
L 208.3794 -41.285701 
L 206.995656 -41.285701 
L 206.995656 -40.042551 
L 205.611912 -40.042551 
L 205.611912 -40.042551 
L 204.228167 -40.042551 
L 204.228167 -40.353338 
L 202.844423 -40.353338 
L 202.844423 -39.420976 
L 201.460679 -39.420976 
L 201.460679 -40.974913 
L 200.076935 -40.974913 
L 200.076935 -41.285701 
L 198.69319 -41.285701 
L 198.69319 -39.420976 
L 197.309446 -39.420976 
L 197.309446 -40.664126 
L 195.925702 -40.664126 
L 195.925702 -39.731763 
L 194.541957 -39.731763 
L 194.541957 -41.596489 
L 193.158213 -41.596489 
L 193.158213 -42.839639 
L 191.774469 -42.839639 
L 191.774469 -41.285701 
L 190.390724 -41.285701 
L 190.390724 -42.218064 
L 189.00698 -42.218064 
L 189.00698 -41.285701 
L 187.623236 -41.285701 
L 187.623236 -41.285701 
L 186.239491 -41.285701 
L 186.239491 -42.528851 
L 184.855747 -42.528851 
L 184.855747 -40.664126 
L 183.472003 -40.664126 
L 183.472003 -43.772002 
L 182.088258 -43.772002 
L 182.088258 -44.082789 
L 180.704514 -44.082789 
L 180.704514 -43.461214 
L 179.32077 -43.461214 
L 179.32077 -45.636727 
L 177.937025 -45.636727 
L 177.937025 -43.461214 
L 176.553281 -43.461214 
L 176.553281 -44.704364 
L 175.169537 -44.704364 
L 175.169537 -42.528851 
L 173.785792 -42.528851 
L 173.785792 -46.56909 
L 172.402048 -46.56909 
L 172.402048 -47.190665 
L 171.018304 -47.190665 
L 171.018304 -45.947515 
L 169.634559 -45.947515 
L 169.634559 -46.879878 
L 168.250815 -46.879878 
L 168.250815 -53.717204 
L 166.867071 -53.717204 
L 166.867071 -48.744603 
L 165.483326 -48.744603 
L 165.483326 -49.366178 
L 164.099582 -49.366178 
L 164.099582 -50.609329 
L 162.715838 -50.609329 
L 162.715838 -49.055391 
L 161.332093 -49.055391 
L 161.332093 -49.676966 
L 159.948349 -49.676966 
L 159.948349 -49.676966 
L 158.564605 -49.676966 
L 158.564605 -50.298541 
L 157.18086 -50.298541 
L 157.18086 -54.027992 
L 155.797116 -54.027992 
L 155.797116 -52.163266 
L 154.413372 -52.163266 
L 154.413372 -51.541691 
L 153.029627 -51.541691 
L 153.029627 -54.027992 
L 151.645883 -54.027992 
L 151.645883 -52.163266 
L 150.262139 -52.163266 
L 150.262139 -54.960355 
L 148.878395 -54.960355 
L 148.878395 -53.406417 
L 147.49465 -53.406417 
L 147.49465 -54.649567 
L 146.110906 -54.649567 
L 146.110906 -57.446655 
L 144.727162 -57.446655 
L 144.727162 -57.446655 
L 143.343417 -57.446655 
L 143.343417 -57.446655 
L 141.959673 -57.446655 
L 141.959673 -60.243744 
L 140.575929 -60.243744 
L 140.575929 -60.865319 
L 139.192184 -60.865319 
L 139.192184 -60.865319 
L 137.80844 -60.865319 
L 137.80844 -58.068231 
L 136.424696 -58.068231 
L 136.424696 -64.59477 
L 135.040951 -64.59477 
L 135.040951 -64.283982 
L 133.657207 -64.283982 
L 133.657207 -67.391858 
L 132.273463 -67.391858 
L 132.273463 -61.486894 
L 130.889718 -61.486894 
L 130.889718 -62.419257 
L 129.505974 -62.419257 
L 129.505974 -63.973195 
L 128.12223 -63.973195 
L 128.12223 -67.391858 
L 126.738485 -67.391858 
L 126.738485 -69.878159 
L 125.354741 -69.878159 
L 125.354741 -69.256584 
L 123.970997 -69.256584 
L 123.970997 -69.256584 
L 122.587252 -69.256584 
L 122.587252 -73.296822 
L 121.203508 -73.296822 
L 121.203508 -74.85076 
L 119.819764 -74.85076 
L 119.819764 -77.026273 
L 118.436019 -77.026273 
L 118.436019 -83.552813 
L 117.052275 -83.552813 
L 117.052275 -83.552813 
L 115.668531 -83.552813 
L 115.668531 -78.890999 
L 114.284786 -78.890999 
L 114.284786 -120.225748 
L 112.901042 -120.225748 
L 112.901042 -89.146989 
L 111.517298 -89.146989 
L 111.517298 -89.768564 
L 110.133553 -89.768564 
L 110.133553 -89.457777 
L 108.749809 -89.457777 
L 108.749809 -100.024555 
L 107.366065 -100.024555 
L 107.366065 -94.11959 
L 105.98232 -94.11959 
L 105.98232 -106.240306 
L 104.598576 -106.240306 
L 104.598576 -104.686368 
L 103.214832 -104.686368 
L 103.214832 -104.375581 
L 101.831087 -104.375581 
L 101.831087 -109.969757 
L 100.447343 -109.969757 
L 100.447343 -104.064793 
L 99.063599 -104.064793 
L 99.063599 -102.821643 
L 97.679854 -102.821643 
L 97.679854 -120.225748 
L 96.29611 -120.225748 
L 96.29611 -110.90212 
L 94.912366 -110.90212 
L 94.912366 -107.794244 
L 93.528622 -107.794244 
L 93.528622 -115.253146 
L 92.144877 -115.253146 
L 92.144877 -111.212908 
L 90.761133 -111.212908 
L 90.761133 -121.15811 
L 89.377389 -121.15811 
L 89.377389 -109.969757 
L 87.993644 -109.969757 
L 87.993644 -111.834483 
L 86.6099 -111.834483 
L 86.6099 -105.929519 
L 85.226156 -105.929519 
L 85.226156 -103.754006 
L 83.842411 -103.754006 
L 83.842411 -91.63329 
L 82.458667 -91.63329 
L 82.458667 -100.024555 
L 81.074923 -100.024555 
L 81.074923 -95.673528 
L 79.691178 -95.673528 
L 79.691178 -86.660688 
L 78.307434 -86.660688 
L 78.307434 -85.728326 
L 76.92369 -85.728326 
L 76.92369 -88.214626 
L 75.539945 -88.214626 
L 75.539945 -87.282264 
L 74.156201 -87.282264 
L 74.156201 -84.795963 
L 72.772457 -84.795963 
L 72.772457 -83.242025 
L 71.388712 -83.242025 
L 71.388712 -79.201786 
L 70.004968 -79.201786 
L 70.004968 -70.499734 
L 68.621224 -70.499734 
L 68.621224 -66.459495 
L 67.237479 -66.459495 
L 67.237479 -59.932956 
L 65.853735 -59.932956 
L 65.853735 -53.095629 
L 64.469991 -53.095629 
L 64.469991 -45.636727 
L 63.086246 -45.636727 
L 63.086246 -42.839639 
L 61.702502 -42.839639 
L 61.702502 -39.420976 
L 60.318758 -39.420976 
z
" style="stroke: #1f77b4"/>
    </defs>
    <g clip-path="url(#pe893af61f7)">
     <use xlink:href="#m132636ed9d" x="0" y="352.15625" style="fill: #1f77b4; fill-opacity: 0.25; stroke: #1f77b4"/>
    </g>
   </g>
   <g id="matplotlib.axis_1">
    <g id="xtick_1">
     <g id="line2d_1">
      <defs>
       <path id="m1b8f050724" d="M 0 0 
L 0 3.5 
" style="stroke: #000000; stroke-width: 0.8"/>
      </defs>
      <g>
       <use xlink:href="#m1b8f050724" x="58.952708" y="314.6" style="stroke: #000000; stroke-width: 0.8"/>
      </g>
     </g>
     <g id="text_1">
      <!-- 0 -->
      <g transform="translate(55.771458 329.198437)scale(0.1 -0.1)">
       <defs>
        <path id="DejaVuSans-30" d="M 2034 4250 
Q 1547 4250 1301 3770 
Q 1056 3291 1056 2328 
Q 1056 1369 1301 889 
Q 1547 409 2034 409 
Q 2525 409 2770 889 
Q 3016 1369 3016 2328 
Q 3016 3291 2770 3770 
Q 2525 4250 2034 4250 
z
M 2034 4750 
Q 2819 4750 3233 4129 
Q 3647 3509 3647 2328 
Q 3647 1150 3233 529 
Q 2819 -91 2034 -91 
Q 1250 -91 836 529 
Q 422 1150 422 2328 
Q 422 3509 836 4129 
Q 1250 4750 2034 4750 
z
" transform="scale(0.015625)"/>
       </defs>
       <use xlink:href="#DejaVuSans-30"/>
      </g>
     </g>
    </g>
    <g id="xtick_2">
     <g id="line2d_2">
      <g>
       <use xlink:href="#m1b8f050724" x="93.103943" y="314.6" style="stroke: #000000; stroke-width: 0.8"/>
      </g>
     </g>
     <g id="text_2">
      <!-- 50 -->
      <g transform="translate(86.741443 329.198437)scale(0.1 -0.1)">
       <defs>
        <path id="DejaVuSans-35" d="M 691 4666 
L 3169 4666 
L 3169 4134 
L 1269 4134 
L 1269 2991 
Q 1406 3038 1543 3061 
Q 1681 3084 1819 3084 
Q 2600 3084 3056 2656 
Q 3513 2228 3513 1497 
Q 3513 744 3044 326 
Q 2575 -91 1722 -91 
Q 1428 -91 1123 -41 
Q 819 9 494 109 
L 494 744 
Q 775 591 1075 516 
Q 1375 441 1709 441 
Q 2250 441 2565 725 
Q 2881 1009 2881 1497 
Q 2881 1984 2565 2268 
Q 2250 2553 1709 2553 
Q 1456 2553 1204 2497 
Q 953 2441 691 2322 
L 691 4666 
z
" transform="scale(0.015625)"/>
       </defs>
       <use xlink:href="#DejaVuSans-35"/>
       <use xlink:href="#DejaVuSans-30" x="63.623047"/>
      </g>
     </g>
    </g>
    <g id="xtick_3">
     <g id="line2d_3">
      <g>
       <use xlink:href="#m1b8f050724" x="127.255178" y="314.6" style="stroke: #000000; stroke-width: 0.8"/>
      </g>
     </g>
     <g id="text_3">
      <!-- 100 -->
      <g transform="translate(117.711428 329.198437)scale(0.1 -0.1)">
       <defs>
        <path id="DejaVuSans-31" d="M 794 531 
L 1825 531 
L 1825 4091 
L 703 3866 
L 703 4441 
L 1819 4666 
L 2450 4666 
L 2450 531 
L 3481 531 
L 3481 0 
L 794 0 
L 794 531 
z
" transform="scale(0.015625)"/>
       </defs>
       <use xlink:href="#DejaVuSans-31"/>
       <use xlink:href="#DejaVuSans-30" x="63.623047"/>
       <use xlink:href="#DejaVuSans-30" x="127.246094"/>
      </g>
     </g>
    </g>
    <g id="xtick_4">
     <g id="line2d_4">
      <g>
       <use xlink:href="#m1b8f050724" x="161.406412" y="314.6" style="stroke: #000000; stroke-width: 0.8"/>
      </g>
     </g>
     <g id="text_4">
      <!-- 150 -->
      <g transform="translate(151.862662 329.198437)scale(0.1 -0.1)">
       <use xlink:href="#DejaVuSans-31"/>
       <use xlink:href="#DejaVuSans-35" x="63.623047"/>
       <use xlink:href="#DejaVuSans-30" x="127.246094"/>
      </g>
     </g>
    </g>
    <g id="xtick_5">
     <g id="line2d_5">
      <g>
       <use xlink:href="#m1b8f050724" x="195.557647" y="314.6" style="stroke: #000000; stroke-width: 0.8"/>
      </g>
     </g>
     <g id="text_5">
      <!-- 200 -->
      <g transform="translate(186.013897 329.198437)scale(0.1 -0.1)">
       <defs>
        <path id="DejaVuSans-32" d="M 1228 531 
L 3431 531 
L 3431 0 
L 469 0 
L 469 531 
Q 828 903 1448 1529 
Q 2069 2156 2228 2338 
Q 2531 2678 2651 2914 
Q 2772 3150 2772 3378 
Q 2772 3750 2511 3984 
Q 2250 4219 1831 4219 
Q 1534 4219 1204 4116 
Q 875 4013 500 3803 
L 500 4441 
Q 881 4594 1212 4672 
Q 1544 4750 1819 4750 
Q 2544 4750 2975 4387 
Q 3406 4025 3406 3419 
Q 3406 3131 3298 2873 
Q 3191 2616 2906 2266 
Q 2828 2175 2409 1742 
Q 1991 1309 1228 531 
z
" transform="scale(0.015625)"/>
       </defs>
       <use xlink:href="#DejaVuSans-32"/>
       <use xlink:href="#DejaVuSans-30" x="63.623047"/>
       <use xlink:href="#DejaVuSans-30" x="127.246094"/>
      </g>
     </g>
    </g>
    <g id="xtick_6">
     <g id="line2d_6">
      <g>
       <use xlink:href="#m1b8f050724" x="229.708881" y="314.6" style="stroke: #000000; stroke-width: 0.8"/>
      </g>
     </g>
     <g id="text_6">
      <!-- 250 -->
      <g transform="translate(220.165131 329.198437)scale(0.1 -0.1)">
       <use xlink:href="#DejaVuSans-32"/>
       <use xlink:href="#DejaVuSans-35" x="63.623047"/>
       <use xlink:href="#DejaVuSans-30" x="127.246094"/>
      </g>
     </g>
    </g>
    <g id="xtick_7">
     <g id="line2d_7">
      <g>
       <use xlink:href="#m1b8f050724" x="263.860116" y="314.6" style="stroke: #000000; stroke-width: 0.8"/>
      </g>
     </g>
     <g id="text_7">
      <!-- 300 -->
      <g transform="translate(254.316366 329.198437)scale(0.1 -0.1)">
       <defs>
        <path id="DejaVuSans-33" d="M 2597 2516 
Q 3050 2419 3304 2112 
Q 3559 1806 3559 1356 
Q 3559 666 3084 287 
Q 2609 -91 1734 -91 
Q 1441 -91 1130 -33 
Q 819 25 488 141 
L 488 750 
Q 750 597 1062 519 
Q 1375 441 1716 441 
Q 2309 441 2620 675 
Q 2931 909 2931 1356 
Q 2931 1769 2642 2001 
Q 2353 2234 1838 2234 
L 1294 2234 
L 1294 2753 
L 1863 2753 
Q 2328 2753 2575 2939 
Q 2822 3125 2822 3475 
Q 2822 3834 2567 4026 
Q 2313 4219 1838 4219 
Q 1578 4219 1281 4162 
Q 984 4106 628 3988 
L 628 4550 
Q 988 4650 1302 4700 
Q 1616 4750 1894 4750 
Q 2613 4750 3031 4423 
Q 3450 4097 3450 3541 
Q 3450 3153 3228 2886 
Q 3006 2619 2597 2516 
z
" transform="scale(0.015625)"/>
       </defs>
       <use xlink:href="#DejaVuSans-33"/>
       <use xlink:href="#DejaVuSans-30" x="63.623047"/>
       <use xlink:href="#DejaVuSans-30" x="127.246094"/>
      </g>
     </g>
    </g>
    <g id="xtick_8">
     <g id="line2d_8">
      <g>
       <use xlink:href="#m1b8f050724" x="298.011351" y="314.6" style="stroke: #000000; stroke-width: 0.8"/>
      </g>
     </g>
     <g id="text_8">
      <!-- 350 -->
      <g transform="translate(288.467601 329.198437)scale(0.1 -0.1)">
       <use xlink:href="#DejaVuSans-33"/>
       <use xlink:href="#DejaVuSans-35" x="63.623047"/>
       <use xlink:href="#DejaVuSans-30" x="127.246094"/>
      </g>
     </g>
    </g>
    <g id="xtick_9">
     <g id="line2d_9">
      <g>
       <use xlink:href="#m1b8f050724" x="332.162585" y="314.6" style="stroke: #000000; stroke-width: 0.8"/>
      </g>
     </g>
     <g id="text_9">
      <!-- 400 -->
      <g transform="translate(322.618835 329.198437)scale(0.1 -0.1)">
       <defs>
        <path id="DejaVuSans-34" d="M 2419 4116 
L 825 1625 
L 2419 1625 
L 2419 4116 
z
M 2253 4666 
L 3047 4666 
L 3047 1625 
L 3713 1625 
L 3713 1100 
L 3047 1100 
L 3047 0 
L 2419 0 
L 2419 1100 
L 313 1100 
L 313 1709 
L 2253 4666 
z
" transform="scale(0.015625)"/>
       </defs>
       <use xlink:href="#DejaVuSans-34"/>
       <use xlink:href="#DejaVuSans-30" x="63.623047"/>
       <use xlink:href="#DejaVuSans-30" x="127.246094"/>
      </g>
     </g>
    </g>
    <g id="text_10">
     <!-- Distance -->
     <g transform="translate(171.987585 342.876562)scale(0.1 -0.1)">
      <defs>
       <path id="DejaVuSans-44" d="M 1259 4147 
L 1259 519 
L 2022 519 
Q 2988 519 3436 956 
Q 3884 1394 3884 2338 
Q 3884 3275 3436 3711 
Q 2988 4147 2022 4147 
L 1259 4147 
z
M 628 4666 
L 1925 4666 
Q 3281 4666 3915 4102 
Q 4550 3538 4550 2338 
Q 4550 1131 3912 565 
Q 3275 0 1925 0 
L 628 0 
L 628 4666 
z
" transform="scale(0.015625)"/>
       <path id="DejaVuSans-69" d="M 603 3500 
L 1178 3500 
L 1178 0 
L 603 0 
L 603 3500 
z
M 603 4863 
L 1178 4863 
L 1178 4134 
L 603 4134 
L 603 4863 
z
" transform="scale(0.015625)"/>
       <path id="DejaVuSans-73" d="M 2834 3397 
L 2834 2853 
Q 2591 2978 2328 3040 
Q 2066 3103 1784 3103 
Q 1356 3103 1142 2972 
Q 928 2841 928 2578 
Q 928 2378 1081 2264 
Q 1234 2150 1697 2047 
L 1894 2003 
Q 2506 1872 2764 1633 
Q 3022 1394 3022 966 
Q 3022 478 2636 193 
Q 2250 -91 1575 -91 
Q 1294 -91 989 -36 
Q 684 19 347 128 
L 347 722 
Q 666 556 975 473 
Q 1284 391 1588 391 
Q 1994 391 2212 530 
Q 2431 669 2431 922 
Q 2431 1156 2273 1281 
Q 2116 1406 1581 1522 
L 1381 1569 
Q 847 1681 609 1914 
Q 372 2147 372 2553 
Q 372 3047 722 3315 
Q 1072 3584 1716 3584 
Q 2034 3584 2315 3537 
Q 2597 3491 2834 3397 
z
" transform="scale(0.015625)"/>
       <path id="DejaVuSans-74" d="M 1172 4494 
L 1172 3500 
L 2356 3500 
L 2356 3053 
L 1172 3053 
L 1172 1153 
Q 1172 725 1289 603 
Q 1406 481 1766 481 
L 2356 481 
L 2356 0 
L 1766 0 
Q 1100 0 847 248 
Q 594 497 594 1153 
L 594 3053 
L 172 3053 
L 172 3500 
L 594 3500 
L 594 4494 
L 1172 4494 
z
" transform="scale(0.015625)"/>
       <path id="DejaVuSans-61" d="M 2194 1759 
Q 1497 1759 1228 1600 
Q 959 1441 959 1056 
Q 959 750 1161 570 
Q 1363 391 1709 391 
Q 2188 391 2477 730 
Q 2766 1069 2766 1631 
L 2766 1759 
L 2194 1759 
z
M 3341 1997 
L 3341 0 
L 2766 0 
L 2766 531 
Q 2569 213 2275 61 
Q 1981 -91 1556 -91 
Q 1019 -91 701 211 
Q 384 513 384 1019 
Q 384 1609 779 1909 
Q 1175 2209 1959 2209 
L 2766 2209 
L 2766 2266 
Q 2766 2663 2505 2880 
Q 2244 3097 1772 3097 
Q 1472 3097 1187 3025 
Q 903 2953 641 2809 
L 641 3341 
Q 956 3463 1253 3523 
Q 1550 3584 1831 3584 
Q 2591 3584 2966 3190 
Q 3341 2797 3341 1997 
z
" transform="scale(0.015625)"/>
       <path id="DejaVuSans-6e" d="M 3513 2113 
L 3513 0 
L 2938 0 
L 2938 2094 
Q 2938 2591 2744 2837 
Q 2550 3084 2163 3084 
Q 1697 3084 1428 2787 
Q 1159 2491 1159 1978 
L 1159 0 
L 581 0 
L 581 3500 
L 1159 3500 
L 1159 2956 
Q 1366 3272 1645 3428 
Q 1925 3584 2291 3584 
Q 2894 3584 3203 3211 
Q 3513 2838 3513 2113 
z
" transform="scale(0.015625)"/>
       <path id="DejaVuSans-63" d="M 3122 3366 
L 3122 2828 
Q 2878 2963 2633 3030 
Q 2388 3097 2138 3097 
Q 1578 3097 1268 2742 
Q 959 2388 959 1747 
Q 959 1106 1268 751 
Q 1578 397 2138 397 
Q 2388 397 2633 464 
Q 2878 531 3122 666 
L 3122 134 
Q 2881 22 2623 -34 
Q 2366 -91 2075 -91 
Q 1284 -91 818 406 
Q 353 903 353 1747 
Q 353 2603 823 3093 
Q 1294 3584 2113 3584 
Q 2378 3584 2631 3529 
Q 2884 3475 3122 3366 
z
" transform="scale(0.015625)"/>
       <path id="DejaVuSans-65" d="M 3597 1894 
L 3597 1613 
L 953 1613 
Q 991 1019 1311 708 
Q 1631 397 2203 397 
Q 2534 397 2845 478 
Q 3156 559 3463 722 
L 3463 178 
Q 3153 47 2828 -22 
Q 2503 -91 2169 -91 
Q 1331 -91 842 396 
Q 353 884 353 1716 
Q 353 2575 817 3079 
Q 1281 3584 2069 3584 
Q 2775 3584 3186 3129 
Q 3597 2675 3597 1894 
z
M 3022 2063 
Q 3016 2534 2758 2815 
Q 2500 3097 2075 3097 
Q 1594 3097 1305 2825 
Q 1016 2553 972 2059 
L 3022 2063 
z
" transform="scale(0.015625)"/>
      </defs>
      <use xlink:href="#DejaVuSans-44"/>
      <use xlink:href="#DejaVuSans-69" x="77.001953"/>
      <use xlink:href="#DejaVuSans-73" x="104.785156"/>
      <use xlink:href="#DejaVuSans-74" x="156.884766"/>
      <use xlink:href="#DejaVuSans-61" x="196.09375"/>
      <use xlink:href="#DejaVuSans-6e" x="257.373047"/>
      <use xlink:href="#DejaVuSans-63" x="320.751953"/>
      <use xlink:href="#DejaVuSans-65" x="375.732422"/>
     </g>
    </g>
   </g>
   <g id="matplotlib.axis_2">
    <g id="ytick_1">
     <g id="line2d_10">
      <defs>
       <path id="mf09c9fabe6" d="M 0 0 
L -3.5 0 
" style="stroke: #000000; stroke-width: 0.8"/>
      </defs>
      <g>
       <use xlink:href="#mf09c9fabe6" x="46.965625" y="314.6" style="stroke: #000000; stroke-width: 0.8"/>
      </g>
     </g>
     <g id="text_11">
      <!-- 0 -->
      <g transform="translate(33.603125 318.399219)scale(0.1 -0.1)">
       <use xlink:href="#DejaVuSans-30"/>
      </g>
     </g>
    </g>
    <g id="ytick_2">
     <g id="line2d_11">
      <g>
       <use xlink:href="#mf09c9fabe6" x="46.965625" y="252.442483" style="stroke: #000000; stroke-width: 0.8"/>
      </g>
     </g>
     <g id="text_12">
      <!-- 200 -->
      <g transform="translate(20.878125 256.241702)scale(0.1 -0.1)">
       <use xlink:href="#DejaVuSans-32"/>
       <use xlink:href="#DejaVuSans-30" x="63.623047"/>
       <use xlink:href="#DejaVuSans-30" x="127.246094"/>
      </g>
     </g>
    </g>
    <g id="ytick_3">
     <g id="line2d_12">
      <g>
       <use xlink:href="#mf09c9fabe6" x="46.965625" y="190.284966" style="stroke: #000000; stroke-width: 0.8"/>
      </g>
     </g>
     <g id="text_13">
      <!-- 400 -->
      <g transform="translate(20.878125 194.084185)scale(0.1 -0.1)">
       <use xlink:href="#DejaVuSans-34"/>
       <use xlink:href="#DejaVuSans-30" x="63.623047"/>
       <use xlink:href="#DejaVuSans-30" x="127.246094"/>
      </g>
     </g>
    </g>
    <g id="ytick_4">
     <g id="line2d_13">
      <g>
       <use xlink:href="#mf09c9fabe6" x="46.965625" y="128.127449" style="stroke: #000000; stroke-width: 0.8"/>
      </g>
     </g>
     <g id="text_14">
      <!-- 600 -->
      <g transform="translate(20.878125 131.926668)scale(0.1 -0.1)">
       <defs>
        <path id="DejaVuSans-36" d="M 2113 2584 
Q 1688 2584 1439 2293 
Q 1191 2003 1191 1497 
Q 1191 994 1439 701 
Q 1688 409 2113 409 
Q 2538 409 2786 701 
Q 3034 994 3034 1497 
Q 3034 2003 2786 2293 
Q 2538 2584 2113 2584 
z
M 3366 4563 
L 3366 3988 
Q 3128 4100 2886 4159 
Q 2644 4219 2406 4219 
Q 1781 4219 1451 3797 
Q 1122 3375 1075 2522 
Q 1259 2794 1537 2939 
Q 1816 3084 2150 3084 
Q 2853 3084 3261 2657 
Q 3669 2231 3669 1497 
Q 3669 778 3244 343 
Q 2819 -91 2113 -91 
Q 1303 -91 875 529 
Q 447 1150 447 2328 
Q 447 3434 972 4092 
Q 1497 4750 2381 4750 
Q 2619 4750 2861 4703 
Q 3103 4656 3366 4563 
z
" transform="scale(0.015625)"/>
       </defs>
       <use xlink:href="#DejaVuSans-36"/>
       <use xlink:href="#DejaVuSans-30" x="63.623047"/>
       <use xlink:href="#DejaVuSans-30" x="127.246094"/>
      </g>
     </g>
    </g>
    <g id="ytick_5">
     <g id="line2d_14">
      <g>
       <use xlink:href="#mf09c9fabe6" x="46.965625" y="65.969932" style="stroke: #000000; stroke-width: 0.8"/>
      </g>
     </g>
     <g id="text_15">
      <!-- 800 -->
      <g transform="translate(20.878125 69.769151)scale(0.1 -0.1)">
       <defs>
        <path id="DejaVuSans-38" d="M 2034 2216 
Q 1584 2216 1326 1975 
Q 1069 1734 1069 1313 
Q 1069 891 1326 650 
Q 1584 409 2034 409 
Q 2484 409 2743 651 
Q 3003 894 3003 1313 
Q 3003 1734 2745 1975 
Q 2488 2216 2034 2216 
z
M 1403 2484 
Q 997 2584 770 2862 
Q 544 3141 544 3541 
Q 544 4100 942 4425 
Q 1341 4750 2034 4750 
Q 2731 4750 3128 4425 
Q 3525 4100 3525 3541 
Q 3525 3141 3298 2862 
Q 3072 2584 2669 2484 
Q 3125 2378 3379 2068 
Q 3634 1759 3634 1313 
Q 3634 634 3220 271 
Q 2806 -91 2034 -91 
Q 1263 -91 848 271 
Q 434 634 434 1313 
Q 434 1759 690 2068 
Q 947 2378 1403 2484 
z
M 1172 3481 
Q 1172 3119 1398 2916 
Q 1625 2713 2034 2713 
Q 2441 2713 2670 2916 
Q 2900 3119 2900 3481 
Q 2900 3844 2670 4047 
Q 2441 4250 2034 4250 
Q 1625 4250 1398 4047 
Q 1172 3844 1172 3481 
z
" transform="scale(0.015625)"/>
       </defs>
       <use xlink:href="#DejaVuSans-38"/>
       <use xlink:href="#DejaVuSans-30" x="63.623047"/>
       <use xlink:href="#DejaVuSans-30" x="127.246094"/>
      </g>
     </g>
    </g>
    <g id="text_16">
     <!-- Number of titles -->
     <g transform="translate(14.798438 201.363281)rotate(-90)scale(0.1 -0.1)">
      <defs>
       <path id="DejaVuSans-4e" d="M 628 4666 
L 1478 4666 
L 3547 763 
L 3547 4666 
L 4159 4666 
L 4159 0 
L 3309 0 
L 1241 3903 
L 1241 0 
L 628 0 
L 628 4666 
z
" transform="scale(0.015625)"/>
       <path id="DejaVuSans-75" d="M 544 1381 
L 544 3500 
L 1119 3500 
L 1119 1403 
Q 1119 906 1312 657 
Q 1506 409 1894 409 
Q 2359 409 2629 706 
Q 2900 1003 2900 1516 
L 2900 3500 
L 3475 3500 
L 3475 0 
L 2900 0 
L 2900 538 
Q 2691 219 2414 64 
Q 2138 -91 1772 -91 
Q 1169 -91 856 284 
Q 544 659 544 1381 
z
M 1991 3584 
L 1991 3584 
z
" transform="scale(0.015625)"/>
       <path id="DejaVuSans-6d" d="M 3328 2828 
Q 3544 3216 3844 3400 
Q 4144 3584 4550 3584 
Q 5097 3584 5394 3201 
Q 5691 2819 5691 2113 
L 5691 0 
L 5113 0 
L 5113 2094 
Q 5113 2597 4934 2840 
Q 4756 3084 4391 3084 
Q 3944 3084 3684 2787 
Q 3425 2491 3425 1978 
L 3425 0 
L 2847 0 
L 2847 2094 
Q 2847 2600 2669 2842 
Q 2491 3084 2119 3084 
Q 1678 3084 1418 2786 
Q 1159 2488 1159 1978 
L 1159 0 
L 581 0 
L 581 3500 
L 1159 3500 
L 1159 2956 
Q 1356 3278 1631 3431 
Q 1906 3584 2284 3584 
Q 2666 3584 2933 3390 
Q 3200 3197 3328 2828 
z
" transform="scale(0.015625)"/>
       <path id="DejaVuSans-62" d="M 3116 1747 
Q 3116 2381 2855 2742 
Q 2594 3103 2138 3103 
Q 1681 3103 1420 2742 
Q 1159 2381 1159 1747 
Q 1159 1113 1420 752 
Q 1681 391 2138 391 
Q 2594 391 2855 752 
Q 3116 1113 3116 1747 
z
M 1159 2969 
Q 1341 3281 1617 3432 
Q 1894 3584 2278 3584 
Q 2916 3584 3314 3078 
Q 3713 2572 3713 1747 
Q 3713 922 3314 415 
Q 2916 -91 2278 -91 
Q 1894 -91 1617 61 
Q 1341 213 1159 525 
L 1159 0 
L 581 0 
L 581 4863 
L 1159 4863 
L 1159 2969 
z
" transform="scale(0.015625)"/>
       <path id="DejaVuSans-72" d="M 2631 2963 
Q 2534 3019 2420 3045 
Q 2306 3072 2169 3072 
Q 1681 3072 1420 2755 
Q 1159 2438 1159 1844 
L 1159 0 
L 581 0 
L 581 3500 
L 1159 3500 
L 1159 2956 
Q 1341 3275 1631 3429 
Q 1922 3584 2338 3584 
Q 2397 3584 2469 3576 
Q 2541 3569 2628 3553 
L 2631 2963 
z
" transform="scale(0.015625)"/>
       <path id="DejaVuSans-20" transform="scale(0.015625)"/>
       <path id="DejaVuSans-6f" d="M 1959 3097 
Q 1497 3097 1228 2736 
Q 959 2375 959 1747 
Q 959 1119 1226 758 
Q 1494 397 1959 397 
Q 2419 397 2687 759 
Q 2956 1122 2956 1747 
Q 2956 2369 2687 2733 
Q 2419 3097 1959 3097 
z
M 1959 3584 
Q 2709 3584 3137 3096 
Q 3566 2609 3566 1747 
Q 3566 888 3137 398 
Q 2709 -91 1959 -91 
Q 1206 -91 779 398 
Q 353 888 353 1747 
Q 353 2609 779 3096 
Q 1206 3584 1959 3584 
z
" transform="scale(0.015625)"/>
       <path id="DejaVuSans-66" d="M 2375 4863 
L 2375 4384 
L 1825 4384 
Q 1516 4384 1395 4259 
Q 1275 4134 1275 3809 
L 1275 3500 
L 2222 3500 
L 2222 3053 
L 1275 3053 
L 1275 0 
L 697 0 
L 697 3053 
L 147 3053 
L 147 3500 
L 697 3500 
L 697 3744 
Q 697 4328 969 4595 
Q 1241 4863 1831 4863 
L 2375 4863 
z
" transform="scale(0.015625)"/>
       <path id="DejaVuSans-6c" d="M 603 4863 
L 1178 4863 
L 1178 0 
L 603 0 
L 603 4863 
z
" transform="scale(0.015625)"/>
      </defs>
      <use xlink:href="#DejaVuSans-4e"/>
      <use xlink:href="#DejaVuSans-75" x="74.804688"/>
      <use xlink:href="#DejaVuSans-6d" x="138.183594"/>
      <use xlink:href="#DejaVuSans-62" x="235.595703"/>
      <use xlink:href="#DejaVuSans-65" x="299.072266"/>
      <use xlink:href="#DejaVuSans-72" x="360.595703"/>
      <use xlink:href="#DejaVuSans-20" x="401.708984"/>
      <use xlink:href="#DejaVuSans-6f" x="433.496094"/>
      <use xlink:href="#DejaVuSans-66" x="494.677734"/>
      <use xlink:href="#DejaVuSans-20" x="529.882812"/>
      <use xlink:href="#DejaVuSans-74" x="561.669922"/>
      <use xlink:href="#DejaVuSans-69" x="600.878906"/>
      <use xlink:href="#DejaVuSans-74" x="628.662109"/>
      <use xlink:href="#DejaVuSans-6c" x="667.871094"/>
      <use xlink:href="#DejaVuSans-65" x="695.654297"/>
      <use xlink:href="#DejaVuSans-73" x="757.177734"/>
     </g>
    </g>
   </g>
   <g id="patch_3">
    <path d="M 46.965625 314.6 
L 46.965625 7.2 
" style="fill: none; stroke: #000000; stroke-width: 0.8; stroke-linejoin: miter; stroke-linecap: square"/>
   </g>
   <g id="patch_4">
    <path d="M 46.965625 314.6 
L 340.734545 314.6 
" style="fill: none; stroke: #000000; stroke-width: 0.8; stroke-linejoin: miter; stroke-linecap: square"/>
   </g>
  </g>
  <g id="legend_1">
   <g id="text_17">
    <!-- method -->
    <g transform="translate(379.985156 156.820312)scale(0.1 -0.1)">
     <defs>
      <path id="DejaVuSans-68" d="M 3513 2113 
L 3513 0 
L 2938 0 
L 2938 2094 
Q 2938 2591 2744 2837 
Q 2550 3084 2163 3084 
Q 1697 3084 1428 2787 
Q 1159 2491 1159 1978 
L 1159 0 
L 581 0 
L 581 4863 
L 1159 4863 
L 1159 2956 
Q 1366 3272 1645 3428 
Q 1925 3584 2291 3584 
Q 2894 3584 3203 3211 
Q 3513 2838 3513 2113 
z
" transform="scale(0.015625)"/>
      <path id="DejaVuSans-64" d="M 2906 2969 
L 2906 4863 
L 3481 4863 
L 3481 0 
L 2906 0 
L 2906 525 
Q 2725 213 2448 61 
Q 2172 -91 1784 -91 
Q 1150 -91 751 415 
Q 353 922 353 1747 
Q 353 2572 751 3078 
Q 1150 3584 1784 3584 
Q 2172 3584 2448 3432 
Q 2725 3281 2906 2969 
z
M 947 1747 
Q 947 1113 1208 752 
Q 1469 391 1925 391 
Q 2381 391 2643 752 
Q 2906 1113 2906 1747 
Q 2906 2381 2643 2742 
Q 2381 3103 1925 3103 
Q 1469 3103 1208 2742 
Q 947 2381 947 1747 
z
" transform="scale(0.015625)"/>
     </defs>
     <use xlink:href="#DejaVuSans-6d"/>
     <use xlink:href="#DejaVuSans-65" x="97.412109"/>
     <use xlink:href="#DejaVuSans-74" x="158.935547"/>
     <use xlink:href="#DejaVuSans-68" x="198.144531"/>
     <use xlink:href="#DejaVuSans-6f" x="261.523438"/>
     <use xlink:href="#DejaVuSans-64" x="322.705078"/>
    </g>
   </g>
   <g id="patch_5">
    <path d="M 357.098437 171.498437 
L 377.098437 171.498437 
L 377.098437 164.498437 
L 357.098437 164.498437 
z
" style="fill: #1f77b4; fill-opacity: 0.25; stroke: #1f77b4; stroke-linejoin: miter"/>
   </g>
   <g id="text_18">
    <!-- regular -->
    <g transform="translate(385.098437 171.498437)scale(0.1 -0.1)">
     <defs>
      <path id="DejaVuSans-67" d="M 2906 1791 
Q 2906 2416 2648 2759 
Q 2391 3103 1925 3103 
Q 1463 3103 1205 2759 
Q 947 2416 947 1791 
Q 947 1169 1205 825 
Q 1463 481 1925 481 
Q 2391 481 2648 825 
Q 2906 1169 2906 1791 
z
M 3481 434 
Q 3481 -459 3084 -895 
Q 2688 -1331 1869 -1331 
Q 1566 -1331 1297 -1286 
Q 1028 -1241 775 -1147 
L 775 -588 
Q 1028 -725 1275 -790 
Q 1522 -856 1778 -856 
Q 2344 -856 2625 -561 
Q 2906 -266 2906 331 
L 2906 616 
Q 2728 306 2450 153 
Q 2172 0 1784 0 
Q 1141 0 747 490 
Q 353 981 353 1791 
Q 353 2603 747 3093 
Q 1141 3584 1784 3584 
Q 2172 3584 2450 3431 
Q 2728 3278 2906 2969 
L 2906 3500 
L 3481 3500 
L 3481 434 
z
" transform="scale(0.015625)"/>
     </defs>
     <use xlink:href="#DejaVuSans-72"/>
     <use xlink:href="#DejaVuSans-65" x="38.863281"/>
     <use xlink:href="#DejaVuSans-67" x="100.386719"/>
     <use xlink:href="#DejaVuSans-75" x="163.863281"/>
     <use xlink:href="#DejaVuSans-6c" x="227.242188"/>
     <use xlink:href="#DejaVuSans-61" x="255.025391"/>
     <use xlink:href="#DejaVuSans-72" x="316.304688"/>
    </g>
   </g>
   <g id="patch_6">
    <path d="M 357.098437 186.176562 
L 377.098437 186.176562 
L 377.098437 179.176562 
L 357.098437 179.176562 
z
" style="fill: #ff7f0e; fill-opacity: 0.25; stroke: #ff7f0e; stroke-linejoin: miter"/>
   </g>
   <g id="text_19">
    <!-- dynamic -->
    <g transform="translate(385.098437 186.176562)scale(0.1 -0.1)">
     <defs>
      <path id="DejaVuSans-79" d="M 2059 -325 
Q 1816 -950 1584 -1140 
Q 1353 -1331 966 -1331 
L 506 -1331 
L 506 -850 
L 844 -850 
Q 1081 -850 1212 -737 
Q 1344 -625 1503 -206 
L 1606 56 
L 191 3500 
L 800 3500 
L 1894 763 
L 2988 3500 
L 3597 3500 
L 2059 -325 
z
" transform="scale(0.015625)"/>
     </defs>
     <use xlink:href="#DejaVuSans-64"/>
     <use xlink:href="#DejaVuSans-79" x="63.476562"/>
     <use xlink:href="#DejaVuSans-6e" x="122.65625"/>
     <use xlink:href="#DejaVuSans-61" x="186.035156"/>
     <use xlink:href="#DejaVuSans-6d" x="247.314453"/>
     <use xlink:href="#DejaVuSans-69" x="344.726562"/>
     <use xlink:href="#DejaVuSans-63" x="372.509766"/>
    </g>
   </g>
   <g id="patch_7">
    <path d="M 357.098437 200.854688 
L 377.098437 200.854688 
L 377.098437 193.854688 
L 357.098437 193.854688 
z
" style="fill: #2ca02c; fill-opacity: 0.25; stroke: #2ca02c; stroke-linejoin: miter"/>
   </g>
   <g id="text_20">
    <!-- memorized -->
    <g transform="translate(385.098437 200.854688)scale(0.1 -0.1)">
     <defs>
      <path id="DejaVuSans-7a" d="M 353 3500 
L 3084 3500 
L 3084 2975 
L 922 459 
L 3084 459 
L 3084 0 
L 275 0 
L 275 525 
L 2438 3041 
L 353 3041 
L 353 3500 
z
" transform="scale(0.015625)"/>
     </defs>
     <use xlink:href="#DejaVuSans-6d"/>
     <use xlink:href="#DejaVuSans-65" x="97.412109"/>
     <use xlink:href="#DejaVuSans-6d" x="158.935547"/>
     <use xlink:href="#DejaVuSans-6f" x="256.347656"/>
     <use xlink:href="#DejaVuSans-72" x="317.529297"/>
     <use xlink:href="#DejaVuSans-69" x="358.642578"/>
     <use xlink:href="#DejaVuSans-7a" x="386.425781"/>
     <use xlink:href="#DejaVuSans-65" x="438.916016"/>
     <use xlink:href="#DejaVuSans-64" x="500.439453"/>
    </g>
   </g>
  </g>
 </g>
 <defs>
  <clipPath id="pe893af61f7">
   <rect x="46.965625" y="7.2" width="293.76892" height="307.4"/>
  </clipPath>
 </defs>
</svg>
