<?xml version="1.0" encoding="iso-8859-1"?>
<!-- Generator: Adobe Illustrator 19.0.0, SVG Export Plug-In . SVG Version: 6.00 Build 0)  -->
<svg version="1.1" id="Capa_1" xmlns="http://www.w3.org/2000/svg" xmlns:xlink="http://www.w3.org/1999/xlink" x="0px" y="0px"
	 viewBox="0 0 463 463" style="enable-background:new 0 0 463 463;" xml:space="preserve">
<g>
	<path d="M270.615,229.128l-24-72c-1.021-3.063-3.887-5.128-7.115-5.128s-6.094,2.066-7.115,5.128l-24,72
		c-0.513,1.54-0.513,3.204,0,4.743l24,72c1.021,3.063,3.887,5.128,7.115,5.128s6.094-2.066,7.115-5.128l24-72
		C271.128,232.332,271.128,230.668,270.615,229.128z M239.5,279.783L223.406,231.5l16.094-48.283l16.094,48.283L239.5,279.783z"/>
	<path d="M375.5,48h-64c-2.997,0-5.862,0.57-8.5,1.597V23.5C303,10.542,292.458,0,279.5,0h-80C186.542,0,176,10.542,176,23.5v42.097
		C173.362,64.57,170.497,64,167.5,64h-80C74.542,64,64,74.542,64,87.5v352c0,12.958,10.542,23.5,23.5,23.5h80
		c6.177,0,11.801-2.399,16-6.31c4.199,3.911,9.823,6.31,16,6.31h80c6.177,0,11.801-2.399,16-6.31c4.199,3.911,9.823,6.31,16,6.31h64
		c12.958,0,23.5-10.542,23.5-23.5v-368C399,58.542,388.458,48,375.5,48z M79,135h97v257H79V135z M191,87.5V87h97v289h-97V87.5z
		 M288,71.5V72h-97V55h97V71.5z M191,391h97v17h-97V391z M303,119h81v273h-81V119z M311.5,63h64c4.687,0,8.5,3.813,8.5,8.5V104h-81
		V71.5C303,66.813,306.813,63,311.5,63z M199.5,15h80c4.687,0,8.5,3.813,8.5,8.5V40h-97V23.5C191,18.813,194.813,15,199.5,15z
		 M87.5,79h80c4.687,0,8.5,3.813,8.5,8.5V120H79V87.5C79,82.813,82.813,79,87.5,79z M167.5,448h-80c-4.687,0-8.5-3.813-8.5-8.5V407
		h97v32.5C176,444.187,172.187,448,167.5,448z M279.5,448h-80c-4.687,0-8.5-3.813-8.5-8.5V423h97v16.5
		C288,444.187,284.187,448,279.5,448z M375.5,448h-64c-4.687,0-8.5-3.813-8.5-8.5V407h81v32.5C384,444.187,380.187,448,375.5,448z"
		/>
	<path d="M374.615,253.128l-24-72c-1.021-3.063-3.887-5.128-7.115-5.128s-6.094,2.066-7.115,5.128l-24,72
		c-0.513,1.54-0.513,3.204,0,4.743l24,72c1.021,3.063,3.887,5.128,7.115,5.128s6.094-2.066,7.115-5.128l24-72
		C375.128,256.332,375.128,254.668,374.615,253.128z M343.5,303.783L327.406,255.5l16.094-48.283l16.094,48.283L343.5,303.783z"/>
	<path d="M158.615,261.128l-24-72c-1.021-3.063-3.887-5.128-7.115-5.128s-6.094,2.066-7.115,5.128l-24,72
		c-0.513,1.54-0.513,3.204,0,4.743l24,72c1.021,3.063,3.887,5.128,7.115,5.128s6.094-2.066,7.115-5.128l24-72
		C159.128,264.332,159.128,262.668,158.615,261.128z M127.5,311.783L111.406,263.5l16.094-48.283l16.094,48.283L127.5,311.783z"/>
</g>
<g>
</g>
<g>
</g>
<g>
</g>
<g>
</g>
<g>
</g>
<g>
</g>
<g>
</g>
<g>
</g>
<g>
</g>
<g>
</g>
<g>
</g>
<g>
</g>
<g>
</g>
<g>
</g>
<g>
</g>
</svg>
